<svg width="115" height="36" viewBox="0 0 115 36" fill="none" xmlns="http://www.w3.org/2000/svg">
<path d="M14.692 20.5441L12.12 12.8879C11.8884 12.1982 11.0104 11.996 10.5003 12.5148L7.63815 15.4263C7.38524 15.6836 7.29504 16.0595 7.40368 16.4036L10.239 25.382C10.3414 25.7063 10.6055 25.9539 10.9357 26.0352L19.6516 28.1806C20.0102 28.2689 20.388 28.147 20.6273 27.8656L23.5044 24.4839C23.9792 23.9257 23.6918 23.0629 22.9771 22.901L15.4009 21.1845C15.0691 21.1093 14.8004 20.8666 14.692 20.5441Z" fill="#EB2659"/>
<path d="M14.4062 8.08283L12.622 9.97202C12.3742 10.2344 12.2915 10.6123 12.4073 10.9542L15.371 19.7108C15.4804 20.034 15.7508 20.2765 16.0839 20.3502L24.9056 22.3031C25.246 22.3785 25.6008 22.2663 25.836 22.009L27.4989 20.1903C27.7326 19.9347 27.8132 19.5743 27.7106 19.2435L25.0163 10.5543C24.9137 10.2235 24.6435 9.97201 24.3062 9.89342L15.3365 7.80271C14.9986 7.72397 14.6444 7.83064 14.4062 8.08283Z" fill="#0043F9"/>
<path d="M45.8729 16.5871H42.2178V11.4576H45.8729C47.4394 11.4576 48.5759 12.5326 48.5759 13.9763C48.5759 15.4813 47.4394 16.5871 45.8729 16.5871ZM37.6719 28.5969H42.2178V20.9487H45.8729C50.0809 20.9487 53.1525 18 53.1525 13.9763C53.1525 9.98325 50.0809 7.09599 45.8729 7.09599H37.6719V28.5969Z" fill="#141416"/>
<path d="M55.15 7.09599V28.5969H59.4809V19.1979C60.1259 18.1843 61.2624 17.5086 62.4603 17.5086C64.2418 17.5086 65.3782 18.7065 65.3782 20.7951V28.5969H69.7091V20.0579C69.7091 15.8192 67.3747 13.2084 63.566 13.2084C61.8767 13.2084 60.3409 14.007 59.4809 15.2663V7.09599H55.15Z" fill="#141416"/>
<path d="M79.7291 28.904C82.8928 28.904 85.4115 27.7368 86.5172 25.7403L83.1078 23.6517C82.6164 24.5731 81.2034 25.1874 79.852 25.1874C77.8247 25.1874 76.4425 24.1431 76.0125 22.1773H86.8244C86.9165 21.5937 86.9473 20.918 86.9473 20.3958C86.9473 16.3721 83.7528 13.2084 79.6677 13.2084C75.2754 13.2084 71.8352 16.5871 71.8352 20.9794C71.8352 25.4639 75.3368 28.904 79.7291 28.904ZM76.074 19.2901C76.504 17.6928 77.6404 16.7714 79.4527 16.7714C81.0499 16.7714 82.3706 17.8157 82.6164 19.2901H76.074Z" fill="#141416"/>
<path d="M89.0606 28.5969H93.3915V19.4743C94.1287 18 95.6952 17.2014 96.6781 17.2014C97.2924 17.2014 98.0296 17.3243 98.6131 17.5393L98.8589 13.4848C98.3981 13.3005 97.7838 13.2084 97.0159 13.2084C95.7566 13.2084 94.1287 14.007 93.3915 15.297V13.5155H89.0606V28.5969Z" fill="#141416"/>
<path d="M106.709 13.2084C102.256 13.2084 98.8769 16.5871 98.8769 21.0716C98.8769 25.556 102.256 28.904 106.709 28.904C111.132 28.904 114.542 25.556 114.542 21.0716C114.542 16.5871 111.132 13.2084 106.709 13.2084ZM103.116 21.0716C103.116 18.9522 104.651 17.355 106.709 17.355C108.767 17.355 110.303 18.9522 110.303 21.0716C110.303 23.1602 108.767 24.7574 106.709 24.7574C104.651 24.7574 103.116 23.1602 103.116 21.0716Z" fill="#141416"/>
</svg>
