<svg width="26" height="26" viewBox="0 0 26 26" fill="none" xmlns="http://www.w3.org/2000/svg">
<path fill-rule="evenodd" clip-rule="evenodd" d="M12.817 0.684204C9.52091 0.684204 9.11041 0.698359 7.81421 0.759024C3.40591 0.96124 0.959095 3.40603 0.75688 7.81433C0.698237 9.11053 0.684082 9.52305 0.684082 12.8171C0.684082 16.1133 0.698237 16.5258 0.75688 17.82C0.959095 22.2262 3.40591 24.6751 7.81421 24.8773C9.11041 24.9359 9.52091 24.9501 12.817 24.9501C16.1131 24.9501 16.5257 24.9359 17.8219 24.8773C22.2221 24.6751 24.679 22.2303 24.8772 17.82C24.9358 16.5258 24.95 16.1133 24.95 12.8171C24.95 9.52305 24.9358 9.11053 24.8772 7.81433C24.679 3.41209 22.2302 0.959217 17.8219 0.759024C16.5257 0.698359 16.1131 0.684204 12.817 0.684204ZM12.8169 2.87143C16.0564 2.87143 16.4406 2.88356 17.7207 2.94221C21.0107 3.09185 22.5435 4.65093 22.6952 7.91469C22.7518 9.19472 22.7639 9.57691 22.7639 12.8164C22.7639 16.0559 22.7518 16.4401 22.6952 17.7181C22.5435 20.9799 21.0127 22.543 17.7207 22.6926C16.4406 22.7492 16.0584 22.7634 12.8169 22.7634C9.57743 22.7634 9.19322 22.7513 7.91521 22.6926C4.6191 22.541 3.09237 20.9758 2.94071 17.7181C2.88408 16.4401 2.86993 16.0559 2.86993 12.8164C2.86993 9.57691 2.88408 9.1927 2.94071 7.91469C3.09034 4.64891 4.62314 3.08982 7.91521 2.94018C9.19322 2.88154 9.57743 2.87143 12.8169 2.87143ZM6.58753 12.8174C6.58753 9.37565 9.3781 6.5871 12.8178 6.5871C16.2575 6.5871 19.0481 9.37767 19.0481 12.8174C19.0481 16.2591 16.2575 19.0476 12.8178 19.0476C9.3781 19.0476 6.58753 16.2591 6.58753 12.8174ZM12.8182 16.8607C10.5838 16.8607 8.77392 15.0509 8.77392 12.8164C8.77392 10.584 10.5838 8.77212 12.8182 8.77212C15.0507 8.77212 16.8646 10.5819 16.8646 12.8164C16.8646 15.0509 15.0507 16.8607 12.8182 16.8607ZM17.838 6.34232C17.838 5.53708 18.4915 4.88561 19.2947 4.88561C20.102 4.88561 20.7535 5.53708 20.7535 6.34232C20.7535 7.14756 20.1 7.79903 19.2947 7.79903C18.4895 7.79903 17.838 7.14553 17.838 6.34232Z" fill="url(#paint0_linear_1_4384)"/>
<defs>
<linearGradient id="paint0_linear_1_4384" x1="12.817" y1="0.684204" x2="12.817" y2="24.9501" gradientUnits="userSpaceOnUse">
<stop stop-color="#C850C0"/>
<stop offset="1" stop-color="#4158D0"/>
</linearGradient>
</defs>
</svg>
