<svg width="26" height="26" viewBox="0 0 26 26" fill="none" xmlns="http://www.w3.org/2000/svg">
<path fill-rule="evenodd" clip-rule="evenodd" d="M6.62469 4.10871C6.62469 5.632 5.47806 6.85089 3.63697 6.85089H3.60322C1.83056 6.85089 0.68457 5.632 0.68457 4.10871C0.68457 2.5532 1.86547 1.36842 3.67176 1.36842C5.47806 1.36842 6.59042 2.5532 6.62469 4.10871ZM6.27678 9.01656V24.8811H0.996655V9.01656H6.27678ZM25.3192 24.8808L25.3194 15.7845C25.3194 10.9116 22.7146 8.64365 19.24 8.64365C16.4366 8.64365 15.1815 10.1835 14.4807 11.2637V9.01661H9.19993C9.26952 10.5053 9.19993 24.8812 9.19993 24.8812H14.4807V16.0211C14.4807 15.547 14.515 15.074 14.6546 14.7345C15.0362 13.7873 15.9051 12.8066 17.3638 12.8066C19.2752 12.8066 20.0393 14.2613 20.0393 16.3932V24.8808H25.3192Z" fill="url(#paint0_linear_1_4393)"/>
<defs>
<linearGradient id="paint0_linear_1_4393" x1="13.002" y1="1.36842" x2="13.002" y2="24.8812" gradientUnits="userSpaceOnUse">
<stop stop-color="#C850C0"/>
<stop offset="1" stop-color="#4158D0"/>
</linearGradient>
</defs>
</svg>
