<svg width="79" height="21" viewBox="0 0 79 21" fill="none" xmlns="http://www.w3.org/2000/svg">
<path d="M9.12216 0.897574C9.12216 0.925648 9.07163 0.953721 9.00987 0.953721C8.94811 0.953721 8.89757 0.976179 8.89757 1.00425C8.89757 1.03233 8.82458 1.08286 8.72913 1.12216C8.6393 1.16146 8.5607 1.21199 8.5607 1.24007C8.5607 1.26814 8.51016 1.2906 8.4484 1.2906C8.38664 1.2906 8.33611 1.31306 8.33611 1.34675C8.33611 1.37482 8.28558 1.40289 8.22382 1.40289C8.16206 1.40289 8.11153 1.42535 8.11153 1.45904C8.11153 1.48711 8.07222 1.51518 8.02731 1.51518C7.98239 1.51518 7.94309 1.53764 7.94309 1.57133C7.94309 1.5994 7.89255 1.62748 7.83079 1.62748C7.76903 1.62748 7.7185 1.64994 7.7185 1.68362C7.7185 1.7117 7.6792 1.73977 7.63428 1.73977C7.58936 1.73977 7.55006 1.76223 7.55006 1.78469C7.55006 1.81276 7.46023 1.86329 7.35355 1.90821C7.24687 1.95313 7.15704 2.00366 7.15704 2.03173C7.15704 2.05419 7.10651 2.07665 7.05036 2.07665C6.9886 2.07665 6.93245 2.09349 6.92122 2.12156C6.90438 2.15525 6.55066 2.37984 5.89936 2.76163C5.80391 2.81778 5.68039 2.87954 5.62986 2.89638C5.57371 2.91884 5.52879 2.95253 5.52879 2.9806C5.52879 3.00868 5.47826 3.03114 5.4165 3.03114C5.35474 3.03114 5.30421 3.05359 5.30421 3.08728C5.30421 3.11535 5.25929 3.14343 5.20314 3.14343C5.147 3.14343 5.06839 3.19396 5.02348 3.25572C4.97856 3.31748 4.89995 3.36801 4.84381 3.36801C4.78766 3.36801 4.74274 3.39047 4.74274 3.42416C4.74274 3.45223 4.69221 3.48031 4.63045 3.48031C4.56869 3.48031 4.51816 3.50276 4.51816 3.53645C4.51816 3.56453 4.47886 3.5926 4.43394 3.5926C4.38902 3.5926 4.34972 3.61506 4.34972 3.64875C4.34972 3.67682 4.29919 3.70489 4.24304 3.70489C4.18128 3.70489 4.12513 3.72174 4.11391 3.74419C4.09145 3.80034 3.79387 3.98001 3.66473 4.02493C3.60859 4.04177 3.56367 4.07546 3.56367 4.10353C3.56367 4.1316 3.51314 4.15406 3.45138 4.15406C3.38962 4.15406 3.33909 4.17091 3.33909 4.19898C3.33909 4.22144 3.24364 4.28881 3.13134 4.35057C3.01344 4.41234 2.90676 4.4741 2.88991 4.49094C2.83377 4.54709 2.52496 4.72114 2.42951 4.75483C2.37337 4.77167 2.32845 4.80536 2.32845 4.83343C2.32845 4.86151 2.27792 4.88396 2.21616 4.88396C2.1544 4.88396 2.10387 4.90642 2.10387 4.94011C2.10387 4.96818 2.06456 4.99626 2.01965 4.99626C1.97473 4.99626 1.93543 5.01872 1.93543 5.0524C1.93543 5.08048 1.8849 5.10855 1.82313 5.10855C1.76137 5.10855 1.71084 5.13101 1.71084 5.1647C1.71084 5.19277 1.67154 5.22084 1.62662 5.22084C1.57609 5.22084 1.48626 5.27137 1.41888 5.33314C1.3515 5.3949 1.26167 5.44543 1.22237 5.44543C1.18307 5.44543 1.14938 5.46789 1.14938 5.50157C1.14938 5.52965 1.11008 5.55772 1.05954 5.55772C0.8125 5.55772 0.8125 5.57456 0.8125 8.33697C0.8125 11.0994 0.8125 11.1162 1.05954 11.1162C1.11008 11.1162 1.14938 11.1387 1.14938 11.1611C1.14938 11.1892 1.25044 11.2566 1.37396 11.3127C1.49749 11.3689 1.59855 11.4306 1.59855 11.4531C1.59855 11.4755 1.72769 11.5485 1.87928 11.6215C2.03649 11.6945 2.16001 11.7675 2.16001 11.79C2.16001 11.8068 2.24985 11.8573 2.35652 11.9023C2.4632 11.9472 2.55304 11.9977 2.55304 12.0258C2.55304 12.0482 2.60357 12.0707 2.66533 12.0707C2.72709 12.0707 2.77762 12.0932 2.77762 12.1268C2.77762 12.1549 2.82254 12.183 2.87869 12.183C2.93483 12.183 3.01344 12.2335 3.05835 12.2953C3.10327 12.357 3.18188 12.4076 3.23802 12.4076C3.29417 12.4076 3.33909 12.43 3.33909 12.4637C3.33909 12.4918 3.38962 12.5199 3.45138 12.5199C3.51314 12.5199 3.56367 12.5423 3.56367 12.576C3.56367 12.6041 3.59736 12.6322 3.63666 12.6322C3.67035 12.6322 3.7658 12.6827 3.8444 12.7445C3.92301 12.8062 4.02969 12.8567 4.08022 12.8567C4.13075 12.8567 4.1869 12.8904 4.19812 12.9241C4.21497 12.9634 4.23181 12.6602 4.23181 12.256L4.23743 11.5092L4.08583 11.4138C3.996 11.3576 3.91739 11.3015 3.90055 11.2846C3.88371 11.2678 3.75457 11.1892 3.60297 11.1162C3.45699 11.0376 3.33909 10.959 3.33909 10.9365C3.33909 10.9085 3.28855 10.8916 3.22679 10.8916C3.16503 10.8916 3.1145 10.8636 3.1145 10.8355C3.1145 10.8018 3.06958 10.7793 3.01344 10.7793C2.95729 10.7793 2.87869 10.7288 2.83377 10.667C2.78885 10.6053 2.71025 10.5547 2.6541 10.5547C2.59795 10.5547 2.55304 10.5267 2.55304 10.4986C2.55304 10.4649 2.50251 10.4425 2.44074 10.4425C2.37898 10.4425 2.32845 10.4144 2.32845 10.3863C2.32845 10.3526 2.30038 10.3302 2.26669 10.3302C2.07018 10.3302 2.05333 10.1617 2.04772 8.33697C2.04772 7.34879 2.07018 6.51221 2.09264 6.47852C2.13194 6.41676 2.22739 6.355 2.83377 6.01251C2.97413 5.9339 3.09766 5.84968 3.10327 5.82722C3.1145 5.80476 3.17065 5.78231 3.23241 5.78231C3.28855 5.78231 3.33909 5.75985 3.33909 5.73177C3.33909 5.7037 3.41769 5.65317 3.50752 5.61387C3.60297 5.57456 3.67596 5.52403 3.67596 5.49596C3.67596 5.46789 3.7265 5.44543 3.78826 5.44543C3.85002 5.44543 3.90055 5.41736 3.90055 5.38928C3.90055 5.35559 3.95108 5.33314 4.01284 5.33314C4.0746 5.33314 4.12513 5.30506 4.12513 5.27699C4.12513 5.2433 4.16444 5.22084 4.20935 5.22084C4.25427 5.22084 4.29357 5.19277 4.29357 5.1647C4.29357 5.13101 4.34411 5.10855 4.40587 5.10855C4.46763 5.10855 4.51816 5.08048 4.51816 5.0524C4.51816 5.01872 4.55185 4.99626 4.59115 4.99626C4.63045 4.99626 4.72029 4.94573 4.78766 4.88396C4.85504 4.8222 4.94487 4.77167 4.9954 4.77167C5.04032 4.77167 5.07962 4.7436 5.07962 4.71553C5.07962 4.68184 5.13015 4.65938 5.1863 4.65938C5.24806 4.65938 5.30421 4.64254 5.31544 4.61446C5.3379 4.56393 6.02288 4.15406 6.09587 4.15406C6.12394 4.15406 6.1464 4.13722 6.1464 4.10915C6.1464 4.08669 6.27554 4.00808 6.42713 3.93509C6.58434 3.85649 6.70787 3.77227 6.70787 3.74981C6.70787 3.72735 6.7584 3.70489 6.82016 3.70489C6.88192 3.70489 6.93245 3.67682 6.93245 3.64875C6.93245 3.61506 6.97737 3.5926 7.03351 3.5926C7.08966 3.5926 7.16827 3.54207 7.21318 3.48031C7.2581 3.41854 7.33671 3.36801 7.39285 3.36801C7.449 3.36801 7.49392 3.33994 7.49392 3.31187C7.49392 3.27818 7.54445 3.25572 7.60621 3.25572C7.66797 3.25572 7.7185 3.22765 7.7185 3.19957C7.7185 3.16589 7.75219 3.14343 7.79711 3.14343C7.84202 3.14343 7.88694 3.12658 7.89817 3.09851C7.9094 3.07605 8.07784 2.97499 8.27996 2.86831C8.48209 2.76163 8.65614 2.66057 8.67299 2.63811C8.71229 2.58758 9.24007 2.30123 9.29621 2.30123C9.3692 2.30123 10.2675 2.82339 10.29 2.87393C10.3012 2.902 10.3574 2.91884 10.4135 2.91884C10.4697 2.91884 10.5258 2.93569 10.537 2.95815C10.5595 3.01429 10.8571 3.19396 10.9918 3.23888C11.0424 3.25572 11.0873 3.28941 11.0873 3.31748C11.0873 3.34556 11.1378 3.36801 11.1996 3.36801C11.2613 3.36801 11.3119 3.39047 11.3119 3.42416C11.3119 3.45223 11.3905 3.48031 11.4803 3.48031C11.5758 3.48031 11.6487 3.45223 11.6487 3.42416C11.6487 3.39047 11.688 3.36801 11.733 3.36801C11.7779 3.36801 11.8172 3.33994 11.8172 3.31187C11.8172 3.27818 11.8677 3.25572 11.9295 3.25572C11.9912 3.25572 12.0418 3.22765 12.0418 3.19957C12.0418 3.16589 12.0923 3.14343 12.1541 3.14343C12.2158 3.14343 12.2664 3.12097 12.2664 3.09851C12.2664 3.07044 12.3562 3.00868 12.4629 2.95815C12.6594 2.8627 12.7324 2.69426 12.5752 2.69426C12.5302 2.69426 12.4909 2.6718 12.4909 2.64934C12.4909 2.62127 12.3899 2.55389 12.2664 2.49775C12.1428 2.4416 12.0418 2.37984 12.0418 2.35738C12.0418 2.34054 11.9519 2.29 11.8453 2.24509C11.7386 2.20017 11.6487 2.14964 11.6487 2.13279C11.6487 2.11595 11.5589 2.06542 11.4522 2.0205C11.3456 1.97558 11.2557 1.92505 11.2557 1.89698C11.2557 1.87452 11.2164 1.85206 11.1715 1.85206C11.1266 1.85206 11.0873 1.82399 11.0873 1.79592C11.0873 1.76223 11.0367 1.73977 10.975 1.73977C10.9132 1.73977 10.8627 1.7117 10.8627 1.68362C10.8627 1.64994 10.8122 1.62748 10.7504 1.62748C10.6886 1.62748 10.6381 1.5994 10.6381 1.57133C10.6381 1.53764 10.5932 1.51518 10.537 1.51518C10.4809 1.51518 10.4023 1.46465 10.3574 1.40289C10.3125 1.34113 10.2339 1.2906 10.1777 1.2906C10.1216 1.2906 10.0766 1.27376 10.0766 1.24568C10.0766 1.22322 9.99243 1.17269 9.89698 1.12777C9.79592 1.08286 9.70047 1.03233 9.68362 1.01548C9.5601 0.869501 9.12216 0.779667 9.12216 0.897574Z" fill="#767780"/>
<path d="M48.5375 2.89111C48.5375 2.93602 48.515 2.97533 48.4813 2.97533C48.4532 2.97533 48.4252 3.01463 48.4252 3.05954C48.4252 3.10446 48.4027 3.14376 48.369 3.14376C48.3409 3.14376 48.3129 3.18868 48.3129 3.24483C48.3129 3.30097 48.2623 3.37958 48.2006 3.4245C48.1388 3.46941 48.0883 3.54802 48.0883 3.60416C48.0883 3.66031 48.0658 3.70523 48.0321 3.70523C48.0041 3.70523 47.976 3.74453 47.976 3.78945C47.976 3.83436 47.9535 3.87367 47.9198 3.87367C47.8918 3.87367 47.8637 3.91297 47.8637 3.95789C47.8637 4.0028 47.8412 4.04211 47.8188 4.04211C47.7907 4.04211 47.7402 4.13194 47.6953 4.23862C47.6503 4.3453 47.5998 4.43513 47.5774 4.43513C47.5549 4.43513 47.5212 4.48005 47.4988 4.54181C47.4819 4.59795 47.4201 4.70463 47.3584 4.77201C47.2966 4.845 47.2461 4.94606 47.2461 5.00782C47.2461 5.09766 47.2966 5.10889 47.8132 5.10889H48.3802L48.5824 4.89553C48.6947 4.77762 48.8687 4.58111 48.9586 4.4632C49.054 4.3453 49.2224 4.14878 49.3404 4.03088C49.4526 3.90735 49.5481 3.78945 49.5481 3.76137C49.5481 3.73892 49.6885 3.57048 49.8569 3.39642C50.0253 3.21675 50.1657 3.05393 50.1657 3.02586C50.1657 3.0034 50.1825 2.94725 50.1994 2.89672C50.2275 2.81812 50.1376 2.80689 49.3853 2.80689C48.6666 2.80689 48.5375 2.81812 48.5375 2.89111Z" fill="#767780"/>
<path d="M13.2202 3.07042C13.2202 3.10972 13.1697 3.14341 13.1079 3.14341C13.0462 3.14341 12.9956 3.16587 12.9956 3.19956C12.9956 3.22763 12.9563 3.25571 12.9114 3.25571C12.8665 3.25571 12.8272 3.27816 12.8272 3.31185C12.8272 3.33992 12.7767 3.368 12.7149 3.368C12.6531 3.368 12.6026 3.39046 12.6026 3.42414C12.6026 3.45222 12.5521 3.48029 12.4903 3.48029C12.4286 3.48029 12.378 3.50275 12.378 3.53082C12.378 3.5589 12.305 3.60943 12.2096 3.64873C12.1198 3.68803 12.0412 3.73856 12.0412 3.76664C12.0412 3.79471 11.9906 3.81717 11.9289 3.81717C11.8671 3.81717 11.8166 3.83963 11.8166 3.87331C11.8166 3.90139 11.766 3.92946 11.7099 3.92946C11.6481 3.92946 11.592 3.94631 11.5807 3.97438C11.5583 4.02491 10.8733 4.43478 10.8003 4.43478C10.7722 4.43478 10.7498 4.45724 10.7498 4.49092C10.7498 4.519 10.6993 4.54707 10.6375 4.54707C10.5757 4.54707 10.5252 4.56953 10.5252 4.5976C10.5252 4.62568 10.4522 4.67621 10.3568 4.71551C10.2669 4.75481 10.1883 4.80534 10.1883 4.83342C10.1883 4.86149 10.149 4.88395 10.0985 4.88395C10.0536 4.88395 9.97496 4.92325 9.93005 4.96817C9.85144 5.04116 9.85144 5.06362 9.93005 5.13661C9.97496 5.18153 10.048 5.22083 10.0873 5.22083C10.1322 5.22083 10.1995 5.27136 10.2445 5.33312C10.2894 5.39488 10.368 5.44541 10.4241 5.44541C10.4803 5.44541 10.5252 5.46787 10.5252 5.50156C10.5252 5.52963 10.5757 5.55771 10.6375 5.55771C10.6993 5.55771 10.7498 5.57455 10.7498 5.60262C10.7498 5.62508 10.8228 5.67561 10.907 5.71492C11.0305 5.76545 11.0979 5.76545 11.2158 5.7093C11.3 5.67561 11.3674 5.62508 11.3674 5.59701C11.3674 5.57455 11.4179 5.55771 11.4797 5.55771C11.5414 5.55771 11.592 5.52963 11.592 5.50156C11.592 5.46787 11.6257 5.44541 11.665 5.44541C11.7043 5.44541 11.7941 5.39488 11.8615 5.33312C11.9289 5.27136 12.0187 5.22083 12.0692 5.22083C12.1141 5.22083 12.1534 5.19275 12.1534 5.16468C12.1534 5.13099 12.204 5.10853 12.2657 5.10853C12.3275 5.10853 12.378 5.08608 12.378 5.058C12.378 5.02993 12.4229 4.99624 12.4791 4.9794C12.6082 4.93448 12.9058 4.75481 12.9283 4.69867C12.9395 4.67621 12.9956 4.65936 13.0518 4.65936C13.1079 4.65936 13.1697 4.63691 13.1922 4.60883C13.2258 4.54707 13.6694 4.76604 13.6694 4.83903C13.6694 4.86149 13.7199 4.88395 13.7817 4.88395C13.8434 4.88395 13.894 4.90641 13.894 4.9401C13.894 4.96817 13.9445 4.99624 14.0063 4.99624C14.068 4.99624 14.1186 5.0187 14.1186 5.05239C14.1186 5.08046 14.1691 5.10853 14.2309 5.10853C14.2926 5.10853 14.3432 5.13099 14.3432 5.16468C14.3432 5.19275 14.3825 5.22083 14.4274 5.22083C14.4723 5.22083 14.5116 5.24329 14.5116 5.27697C14.5116 5.30505 14.5509 5.33312 14.5958 5.33312C14.6407 5.33312 14.68 5.35558 14.68 5.38927C14.68 5.41734 14.7306 5.44541 14.7923 5.44541C14.8541 5.44541 14.9046 5.46787 14.9046 5.50156C14.9046 5.52963 14.9439 5.55771 14.9888 5.55771C15.0338 5.55771 15.0731 5.58016 15.0731 5.61385C15.0731 5.64192 15.1236 5.67 15.1853 5.67C15.2471 5.67 15.2976 5.69246 15.2976 5.71492C15.2976 5.74299 15.4268 5.82159 15.5784 5.89458C15.7356 5.96757 15.8591 6.04056 15.8591 6.06302C15.8591 6.07987 16.0107 6.1697 16.196 6.25953L16.5329 6.42797V10.594V14.7657L16.2409 14.9285C16.0781 15.0184 15.9209 15.1194 15.8872 15.1419C15.8591 15.17 15.7187 15.2542 15.5784 15.3272C15.438 15.4058 15.3145 15.4844 15.2976 15.5012C15.2808 15.5181 15.1853 15.5686 15.0899 15.6135C14.9888 15.6584 14.9046 15.709 14.9046 15.7314C14.9046 15.7595 14.8541 15.7763 14.7923 15.7763C14.7306 15.7763 14.68 15.7988 14.68 15.8325C14.68 15.8606 14.6407 15.8886 14.5958 15.8886C14.5509 15.8886 14.5116 15.9111 14.5116 15.9448C14.5116 15.9729 14.4723 16.0009 14.4274 16.0009C14.3544 16.0009 14.3432 16.1244 14.3432 16.7589C14.3432 17.2249 14.3656 17.5169 14.3993 17.5169C14.433 17.5169 14.4554 17.4888 14.4554 17.4607C14.4554 17.427 14.506 17.4046 14.5677 17.4046C14.6295 17.4046 14.68 17.3877 14.68 17.3597C14.68 17.3372 14.7362 17.2923 14.8092 17.2586C15.0787 17.1239 15.6121 16.8207 15.6738 16.7589C15.7075 16.7196 15.8142 16.6578 15.9096 16.6185C16.0051 16.5792 16.0837 16.5287 16.0837 16.5006C16.0837 16.4726 16.1342 16.4501 16.196 16.4501C16.2577 16.4501 16.3083 16.4276 16.3083 16.4052C16.3083 16.3771 16.3981 16.3266 16.5048 16.2817C16.6115 16.2367 16.7013 16.1862 16.7013 16.1581C16.7013 16.1357 16.7518 16.1132 16.8136 16.1132C16.8754 16.1132 16.9259 16.0851 16.9259 16.0571C16.9259 16.0234 16.9652 16.0009 17.0101 16.0009C17.055 16.0009 17.0943 15.9729 17.0943 15.9448C17.0943 15.9111 17.1336 15.8886 17.1785 15.8886C17.2235 15.8886 17.2628 15.8606 17.2628 15.8325C17.2628 15.7988 17.3133 15.7763 17.3751 15.7763C17.4368 15.7763 17.4873 15.7483 17.4873 15.7202C17.4873 15.6865 17.5266 15.664 17.5772 15.664C17.8298 15.664 17.8242 15.7988 17.8242 10.594V5.68123L17.6558 5.61385C17.566 5.57455 17.4873 5.52402 17.4873 5.49594C17.4873 5.46787 17.4368 5.44541 17.3751 5.44541C17.3133 5.44541 17.2628 5.41734 17.2628 5.38927C17.2628 5.35558 17.2235 5.33312 17.1785 5.33312C17.1336 5.33312 17.0943 5.30505 17.0943 5.27697C17.0943 5.24329 17.0438 5.22083 16.982 5.22083C16.9203 5.22083 16.8697 5.19275 16.8697 5.16468C16.8697 5.13099 16.8304 5.10853 16.7855 5.10853C16.7406 5.10853 16.7013 5.08608 16.7013 5.06362C16.7013 5.03554 16.6115 4.98501 16.5048 4.9401C16.3981 4.89518 16.3083 4.84465 16.3083 4.81657C16.3083 4.79412 16.2577 4.77166 16.196 4.77166C16.1342 4.77166 16.0837 4.74358 16.0837 4.71551C16.0837 4.68182 16.0332 4.65936 15.9714 4.65936C15.9096 4.65936 15.8591 4.63691 15.8591 4.61445C15.8591 4.58637 15.7749 4.52461 15.6794 4.47408C15.5784 4.42355 15.3369 4.28318 15.1517 4.16528C14.9608 4.04175 14.7306 3.91262 14.6295 3.8677C14.534 3.82278 14.4554 3.77225 14.4554 3.74979C14.4554 3.72172 14.4105 3.70488 14.3544 3.70488C14.2982 3.70488 14.2196 3.65434 14.1747 3.59258C14.1298 3.53082 14.0512 3.48029 13.995 3.48029C13.9389 3.48029 13.894 3.45222 13.894 3.42414C13.894 3.39046 13.8434 3.368 13.7817 3.368C13.7199 3.368 13.6694 3.35115 13.6694 3.32308C13.6694 3.30062 13.5852 3.25009 13.4897 3.20517C13.3887 3.16026 13.2876 3.0985 13.2651 3.06481C13.2371 3.01989 13.2202 3.02551 13.2202 3.07042Z" fill="#767780"/>
<path d="M8.0724 4.85083C7.99941 4.88452 7.94326 4.92944 7.94326 4.9519C7.94326 4.97997 7.90396 4.99681 7.85904 4.99681C7.81413 4.99681 7.77482 5.01927 7.77482 5.05296C7.77482 5.08103 7.72429 5.10911 7.66253 5.10911C7.60077 5.10911 7.55024 5.13156 7.55024 5.16525C7.55024 5.19333 7.51094 5.2214 7.46602 5.2214C7.4211 5.2214 7.3818 5.24386 7.3818 5.27754C7.3818 5.30562 7.3425 5.33369 7.29197 5.33369C7.21336 5.33369 7.04492 5.45721 7.04492 5.51897C7.04492 5.53582 7.12353 5.57512 7.21336 5.61442C7.30881 5.65373 7.3818 5.69864 7.3818 5.7211C7.3818 5.73795 7.46602 5.79409 7.56708 5.83339C7.66253 5.87831 7.87589 6.00183 8.03871 6.1029C8.20154 6.20396 8.35875 6.28818 8.39243 6.28818C8.42051 6.28818 8.44858 6.31064 8.44858 6.34433C8.44858 6.3724 8.49911 6.40047 8.56087 6.40047C8.62263 6.40047 8.67317 6.42293 8.67317 6.451C8.67317 6.47908 8.75177 6.52961 8.8416 6.56891C8.93705 6.60821 9.01004 6.65875 9.01004 6.68682C9.01004 6.71489 9.06058 6.73735 9.12234 6.73735C9.1841 6.73735 9.23463 6.75981 9.23463 6.7935C9.23463 6.82157 9.28516 6.84964 9.34692 6.84964C9.40868 6.84964 9.45921 6.8721 9.45921 6.90579C9.45921 6.93386 9.49852 6.96194 9.54343 6.96194C9.58835 6.96194 9.62765 6.98439 9.62765 7.01808C9.62765 7.04615 9.67819 7.07423 9.73995 7.07423C9.80171 7.07423 9.85224 7.09669 9.85224 7.13037C9.85224 7.15845 9.88593 7.18652 9.92523 7.18652C9.96453 7.18652 10.0544 7.23705 10.1217 7.29881C10.1891 7.36057 10.279 7.41111 10.3295 7.41111C10.3744 7.41111 10.4137 7.43357 10.4137 7.46725C10.4137 7.49533 10.4642 7.5234 10.5204 7.5234C10.5821 7.5234 10.6383 7.54024 10.6495 7.56832C10.6607 7.59077 10.8573 7.71991 11.0875 7.86028C11.3177 7.99503 11.5872 8.15785 11.677 8.214C11.7724 8.26453 11.8904 8.32629 11.9465 8.34314C11.997 8.36559 12.0419 8.39928 12.0419 8.42736C12.0419 8.45543 12.0925 8.47789 12.1542 8.47789C12.216 8.47789 12.2665 8.50035 12.2665 8.53403C12.2665 8.56211 12.3058 8.59018 12.3564 8.59018C12.5922 8.59018 12.6034 8.6744 12.6034 10.3251C12.6034 11.3133 12.6259 11.9084 12.6596 11.9309C12.6932 11.9477 12.7157 11.9477 12.7157 11.9197C12.7157 11.8972 12.7718 11.8467 12.8448 11.813C13.1649 11.6558 13.76 11.3133 13.8274 11.2515C13.8779 11.1954 13.8948 10.7855 13.8948 9.58958V8.00064L13.4119 7.70307C13.148 7.54586 12.9066 7.41111 12.8785 7.41111C12.8505 7.41111 12.828 7.38303 12.828 7.35496C12.828 7.32127 12.7775 7.29881 12.7157 7.29881C12.6539 7.29881 12.6034 7.27074 12.6034 7.24267C12.6034 7.20898 12.5585 7.18652 12.5023 7.18652C12.4462 7.18652 12.3676 7.13599 12.3227 7.07423C12.2778 7.01247 12.1992 6.96194 12.143 6.96194C12.0869 6.96194 12.0419 6.93386 12.0419 6.90579C12.0419 6.8721 11.9914 6.84964 11.9297 6.84964C11.8679 6.84964 11.8174 6.82718 11.8174 6.80473C11.8174 6.77665 11.7275 6.72612 11.6208 6.6812C11.5142 6.63629 11.4243 6.58575 11.4243 6.55768C11.4243 6.53522 11.3906 6.51276 11.357 6.50715C11.3177 6.50715 11.1717 6.42855 11.0313 6.34433C10.8909 6.25449 10.6551 6.11413 10.4979 6.02991C10.3463 5.94569 10.206 5.86147 10.1891 5.83901C10.1723 5.82216 10.0768 5.76602 9.98138 5.7211C9.88031 5.67618 9.79609 5.63127 9.79609 5.60881C9.79609 5.59196 9.70626 5.54705 9.59958 5.50213C9.4929 5.45721 9.40307 5.40668 9.40307 5.37861C9.40307 5.35615 9.36377 5.33369 9.31885 5.33369C9.27393 5.33369 9.23463 5.30562 9.23463 5.27754C9.23463 5.24386 9.1841 5.2214 9.12234 5.2214C9.06058 5.2214 9.01004 5.19333 9.01004 5.16525C9.01004 5.13156 8.95951 5.10911 8.89775 5.10911C8.83599 5.10911 8.78546 5.08665 8.78546 5.05857C8.78546 5.0305 8.71247 4.97997 8.61702 4.94067C8.52719 4.90136 8.44858 4.85083 8.44858 4.82276C8.44858 4.75538 8.224 4.77223 8.0724 4.85083Z" fill="#767780"/>
<path d="M23.0347 5.97893C22.4452 6.14176 21.8557 6.63023 21.7714 7.02887C21.7546 7.1187 21.7209 7.18608 21.6928 7.18608C21.6648 7.18608 21.6423 7.28714 21.6423 7.41067C21.6423 7.53419 21.6199 7.63525 21.5862 7.63525C21.5132 7.63525 21.5076 13.8787 21.5862 14.1145C21.6142 14.21 21.6704 14.4065 21.7097 14.5525C21.749 14.7041 21.7995 14.822 21.822 14.822C21.8444 14.822 21.8669 14.8557 21.8669 14.895C21.8669 14.9736 22.2768 15.4396 22.3498 15.4396C22.3778 15.4396 22.462 15.4901 22.5407 15.5519C22.6193 15.6136 22.7372 15.6642 22.8102 15.6642C22.8775 15.6642 22.9337 15.6866 22.9337 15.7203C22.9337 15.754 23.0909 15.7765 23.2986 15.7765C23.5064 15.7765 23.6636 15.7989 23.6636 15.8326C23.6636 15.8663 24.0959 15.8888 24.8427 15.8888C25.5894 15.8888 26.0217 15.8663 26.0217 15.8326C26.0217 15.7989 26.1789 15.7765 26.3867 15.7765C26.5944 15.7765 26.7516 15.754 26.7516 15.7203C26.7516 15.6866 26.8302 15.6642 26.9201 15.6642C27.0155 15.6642 27.0885 15.6417 27.0885 15.6193C27.0885 15.5912 27.1559 15.535 27.2457 15.4901C27.4422 15.3891 27.8184 15.0017 27.8184 14.9006C27.8184 14.8557 27.8465 14.822 27.8746 14.822C27.9082 14.822 27.9307 14.7715 27.9307 14.7097C27.9307 14.6479 27.9588 14.5974 27.9868 14.5974C28.0205 14.5974 28.043 14.4963 28.043 14.3728C28.043 14.2493 28.0711 14.1482 28.0991 14.1482C28.1328 14.1482 28.1553 13.9236 28.1553 13.5811C28.1553 12.913 28.1216 12.8569 27.7117 12.8569C27.5545 12.8569 27.3187 12.8288 27.184 12.7895C27.0492 12.7558 26.8752 12.7446 26.7909 12.767L26.6393 12.8007V13.3622C26.6393 13.6991 26.6169 13.9236 26.5832 13.9236C26.5551 13.9236 26.527 13.9854 26.527 14.064C26.527 14.2381 26.2968 14.4851 26.1396 14.4851C26.0779 14.4851 26.0105 14.5076 25.9937 14.5413C25.9712 14.5749 25.5333 14.5974 24.8707 14.5974C24.2082 14.5974 23.7703 14.5749 23.7478 14.5413C23.731 14.5076 23.6748 14.4851 23.6299 14.4851C23.5344 14.4851 23.3155 14.283 23.22 14.1033C23.1807 14.0247 23.1583 13.5475 23.1583 12.694V11.3971H25.5669C26.892 11.3971 28.0149 11.3802 28.0655 11.3634C28.1441 11.3353 28.1553 11.1107 28.1553 9.46001C28.1553 8.2697 28.1328 7.57349 28.0991 7.55103C28.0711 7.53419 28.043 7.4612 28.043 7.39944C28.043 7.01764 27.6949 6.52355 27.2345 6.23159C26.7179 5.91717 26.572 5.89471 24.8707 5.90033C23.7703 5.90594 23.22 5.9284 23.0347 5.97893ZM25.7971 7.12993C25.7971 7.15801 25.887 7.18608 25.9937 7.18608C26.1003 7.18608 26.1902 7.20854 26.1902 7.24223C26.1902 7.2703 26.2407 7.29837 26.3025 7.29837C26.3642 7.29837 26.4148 7.33768 26.4148 7.38259C26.4148 7.42751 26.4428 7.46681 26.4709 7.46681C26.5046 7.46681 26.527 7.52857 26.527 7.60718C26.527 7.68578 26.5551 7.74754 26.5832 7.74754C26.6169 7.74754 26.6393 8.18548 26.6393 8.94908C26.6393 9.9934 26.6281 10.1562 26.5495 10.1843C26.499 10.2011 25.7185 10.218 24.809 10.218H23.1583V8.92662C23.1583 8.10127 23.1807 7.63525 23.2144 7.63525C23.2481 7.63525 23.2706 7.59595 23.2706 7.54542C23.2706 7.44435 23.3997 7.29837 23.4895 7.29837C23.5232 7.29837 23.5513 7.2703 23.5513 7.24223C23.5513 7.20854 23.6411 7.18608 23.7478 7.18608C23.8545 7.18608 23.9443 7.15801 23.9443 7.12993C23.9443 7.09625 24.2924 7.07379 24.8707 7.07379C25.449 7.07379 25.7971 7.09625 25.7971 7.12993Z" fill="#767780"/>
<path d="M32.833 6.02942C32.6421 6.10241 32.4512 6.19225 32.4063 6.23716C32.3614 6.28208 32.2715 6.35507 32.2041 6.39999C32.1424 6.44491 32.0862 6.51228 32.0862 6.55158C32.0862 6.59089 32.0638 6.62457 32.0301 6.62457C32.002 6.62457 31.9739 6.67511 31.9739 6.73687C31.9739 6.80986 31.9346 6.84916 31.8617 6.84916C31.7606 6.84916 31.7494 6.80986 31.7494 6.46175C31.7494 6.15856 31.7269 6.06872 31.6595 6.04065C31.609 6.02381 31.3339 6.00696 31.0475 6.00696C30.7612 6.00696 30.4861 6.02381 30.4355 6.04065C30.3569 6.07434 30.3457 6.54597 30.3457 10.8468C30.3457 15.3329 30.3513 15.6304 30.4468 15.6978C30.5871 15.8045 31.6708 15.8045 31.783 15.6978C31.8504 15.6304 31.8617 15.0409 31.8617 11.8799C31.8617 9.42628 31.8785 8.14052 31.9178 8.14052C31.9515 8.14052 31.9739 8.03946 31.9739 7.91594C31.9739 7.79242 32.002 7.69135 32.0301 7.69135C32.0638 7.69135 32.0862 7.66328 32.0862 7.63521C32.0862 7.53976 32.3501 7.29833 32.4512 7.29833C32.4961 7.29833 32.5354 7.27026 32.5354 7.24218C32.5354 7.2085 32.6252 7.18604 32.7319 7.18604C32.8386 7.18604 32.9284 7.15796 32.9284 7.12989C32.9284 7.0962 33.2485 7.07374 33.7706 7.07374C34.2928 7.07374 34.6128 7.0962 34.6128 7.12989C34.6128 7.15796 34.6914 7.18604 34.7813 7.18604C34.8767 7.18604 34.9497 7.2085 34.9497 7.24218C34.9497 7.27026 34.9834 7.29833 35.0227 7.29833C35.0564 7.29833 35.1294 7.36571 35.1743 7.45554C35.2417 7.58468 35.2585 8.22474 35.2866 11.5991C35.3147 15.2318 35.3203 15.5968 35.4101 15.681C35.4831 15.7596 35.6178 15.7764 36.0951 15.7764C36.4544 15.7764 36.6902 15.754 36.6902 15.7203C36.6902 15.6866 36.7295 15.6641 36.7745 15.6641C36.8474 15.6641 36.8587 15.1644 36.8587 11.5205C36.8587 7.94401 36.8474 7.34886 36.7688 7.1355C36.6397 6.75932 36.5836 6.67511 36.2972 6.39437C35.8705 5.97889 35.5168 5.89467 34.2254 5.90029C33.2765 5.90029 33.1474 5.91151 32.833 6.02942Z" fill="#767780"/>
<path d="M52.2361 6.02376C52.034 6.09113 51.8262 6.1922 51.7757 6.24273C51.7195 6.29326 51.6353 6.34941 51.5792 6.36625C51.5286 6.3831 51.422 6.501 51.3434 6.62453C51.2647 6.74805 51.1918 6.84911 51.1749 6.84911C51.1581 6.84911 51.1075 6.96702 51.0682 7.113C51.0289 7.26459 50.9728 7.45549 50.9447 7.54533C50.8886 7.72499 50.8773 8.70194 50.9279 8.83669C50.9447 8.88722 51.0233 8.92653 51.0907 8.92653C51.1637 8.92653 51.2423 8.94898 51.2591 8.98267C51.276 9.01636 51.5286 9.03882 51.8206 9.03882C52.4326 9.03882 52.4101 9.06128 52.4101 8.43244C52.4101 8.19662 52.427 7.90466 52.4494 7.78114C52.4944 7.49479 52.7975 7.18599 53.0277 7.18599C53.1232 7.18599 53.1962 7.15792 53.1962 7.12984C53.1962 7.09615 53.5218 7.0737 54.0665 7.0737C54.6111 7.0737 54.9367 7.09615 54.9367 7.12984C54.9367 7.15792 55.0266 7.18599 55.1332 7.18599C55.268 7.18599 55.3747 7.22529 55.4589 7.31512C55.7172 7.58463 55.7228 7.62954 55.7228 8.9546V10.2123L54.2237 10.2403C52.6235 10.2684 52.0171 10.3077 52.0171 10.3919C52.0171 10.42 51.9666 10.4425 51.9048 10.4425C51.8431 10.4425 51.7925 10.4649 51.7925 10.4986C51.7925 10.5267 51.742 10.5548 51.6802 10.5548C51.6185 10.5548 51.5679 10.5772 51.5679 10.6109C51.5679 10.639 51.5399 10.6671 51.5006 10.6671C51.3883 10.6671 51.0514 11.0713 50.8998 11.397C50.7594 11.6945 50.7538 11.7451 50.737 12.9691C50.7145 14.5861 50.7594 14.805 51.2367 15.2823C51.4388 15.4844 51.6241 15.6192 51.7308 15.6416C51.8262 15.6641 51.9048 15.6978 51.9048 15.7258C51.9048 15.7539 52.0676 15.7764 52.2698 15.7764C52.4775 15.7764 52.6347 15.7988 52.6347 15.8325C52.6347 15.8662 52.9042 15.8887 53.3365 15.8887C53.7689 15.8887 54.0384 15.8662 54.0384 15.8325C54.0384 15.7988 54.1956 15.7764 54.3977 15.7764C54.5998 15.7764 54.7795 15.7483 54.7964 15.7202C54.8132 15.6865 54.8806 15.6641 54.9423 15.6641C54.9985 15.6641 55.049 15.636 55.049 15.6079C55.049 15.5743 55.0883 15.5518 55.1332 15.5518C55.2287 15.5518 55.6105 15.1925 55.6105 15.1026C55.6105 15.0745 55.6329 15.0465 55.661 15.0465C55.6891 15.0465 55.7228 14.9903 55.7452 14.9173C55.8014 14.7096 55.8912 14.9173 55.8912 15.2767C55.8912 15.5518 55.9081 15.6079 56.0316 15.6865C56.1944 15.7932 56.9861 15.8101 57.2106 15.709L57.351 15.6472V11.644C57.351 9.03882 57.3342 7.62954 57.2949 7.60709C57.2668 7.59024 57.2387 7.48356 57.2387 7.37689C57.2387 7.27021 57.2163 7.18599 57.1826 7.18599C57.1545 7.18599 57.1264 7.113 57.1264 7.02878C57.1264 6.93894 57.0815 6.83788 57.0141 6.79296C56.9524 6.74805 56.9018 6.68067 56.9018 6.64698C56.9018 6.59084 56.7502 6.44486 56.4807 6.24273C56.3853 6.17535 56.1046 6.05745 55.8351 5.97323C55.6442 5.91708 55.2062 5.89462 54.0945 5.90024C52.7133 5.90024 52.5786 5.91147 52.2361 6.02376ZM55.7228 12.6883C55.7228 13.4744 55.7003 13.9235 55.6666 13.9235C55.6385 13.9235 55.6105 13.9629 55.6105 14.0078C55.6105 14.1537 55.2399 14.485 55.0771 14.485C54.9985 14.485 54.9367 14.5075 54.9367 14.5412C54.9367 14.5748 54.5437 14.5973 53.8699 14.5973C53.1962 14.5973 52.8032 14.5748 52.8032 14.5412C52.8032 14.5075 52.7639 14.485 52.7189 14.485C52.5898 14.485 52.3933 14.266 52.3147 14.0302C52.2698 13.9067 52.2417 13.5305 52.2417 13.0533C52.2417 12.0483 52.3315 11.7731 52.7189 11.5935C52.9884 11.47 53.0446 11.4643 54.4202 11.4587L55.7228 11.4531V12.6883Z" fill="#767780"/>
<path d="M62.1467 6.00682C61.8098 6.11349 61.4336 6.41107 61.2259 6.71987C61.0911 6.92762 61.0575 6.87147 61.0575 6.4616C61.0575 6.15841 61.035 6.06858 60.9676 6.0405C60.9171 6.02366 60.6195 6.00682 60.2995 6.00682C59.7773 6.00682 59.7099 6.01805 59.6538 6.11349C59.6145 6.18648 59.5977 7.78665 59.5977 10.9084V15.5966L59.738 15.6864C59.9008 15.7931 60.8048 15.8156 61.0294 15.7089L61.1698 15.6471V11.8292V8.01686L61.3101 7.73612C61.4729 7.41609 61.574 7.29818 61.6975 7.29818C61.7481 7.29818 61.7874 7.27011 61.7874 7.24204C61.7874 7.20835 61.8884 7.18589 62.0119 7.18589C62.1355 7.18589 62.2365 7.15782 62.2365 7.12974C62.2365 7.09606 62.4723 7.0736 62.8261 7.0736C63.1798 7.0736 63.4156 7.09606 63.4156 7.12974C63.4156 7.15782 63.4942 7.18589 63.584 7.18589C63.6795 7.18589 63.7525 7.20835 63.7525 7.24204C63.7525 7.27011 63.803 7.29818 63.8648 7.29818C63.9378 7.29818 63.9771 7.33748 63.9771 7.41047C63.9771 7.47224 64.0051 7.52277 64.0332 7.52277C64.0725 7.52277 64.0894 8.88712 64.0894 11.5092V15.5012L64.2297 15.6359C64.3589 15.7651 64.4038 15.7763 64.9596 15.7763C65.3134 15.7763 65.5492 15.7538 65.5492 15.7201C65.5492 15.6864 65.5885 15.664 65.6334 15.664C65.7064 15.664 65.7176 15.198 65.7176 11.7955C65.7176 9.27453 65.7345 7.91018 65.7738 7.88772C65.8074 7.87087 65.8299 7.8035 65.8299 7.74174C65.8299 7.68559 65.858 7.63506 65.886 7.63506C65.9197 7.63506 65.9422 7.60699 65.9422 7.5733C65.9422 7.4217 66.3352 7.18589 66.5879 7.18589C66.6946 7.18589 66.7844 7.15782 66.7844 7.12974C66.7844 7.09606 67.0258 7.0736 67.402 7.0736C67.7782 7.0736 68.0196 7.09606 68.0196 7.12974C68.0196 7.15782 68.0758 7.18589 68.1487 7.18589C68.3284 7.18589 68.5081 7.37117 68.5755 7.61822C68.6148 7.75858 68.6372 9.1847 68.6372 11.6888V15.5461L68.7607 15.664C68.8674 15.7594 68.9573 15.7763 69.4682 15.7763C69.8949 15.7763 70.069 15.7538 70.1307 15.6977C70.1981 15.6303 70.2093 14.979 70.2093 11.4025C70.2093 8.62885 70.1925 7.18589 70.1532 7.18589C70.1251 7.18589 70.097 7.10728 70.097 7.01745C70.097 6.922 70.0746 6.84901 70.0409 6.84901C70.0128 6.84901 69.9847 6.80971 69.9847 6.75918C69.9847 6.70864 69.8556 6.55144 69.704 6.40545C69.485 6.19771 69.3278 6.10788 69.0134 6.01243C68.6484 5.90014 68.5193 5.88891 67.6827 5.90575C66.7732 5.9226 66.7507 5.92821 66.3801 6.10226C66.004 6.28193 65.7176 6.50652 65.7176 6.62443C65.7176 6.71426 65.5716 6.84901 65.4706 6.84901C65.4256 6.84901 65.3751 6.80409 65.3583 6.74795C65.3077 6.59635 64.9596 6.25386 64.7182 6.12472C64.3757 5.93944 64.095 5.89452 63.3033 5.90014C62.6576 5.90014 62.4162 5.9226 62.1467 6.00682Z" fill="#767780"/>
<path d="M73.6837 6.02937C73.476 6.09675 73.2682 6.1922 73.2233 6.23711C73.1784 6.28203 73.0605 6.37748 72.965 6.45047C72.8696 6.52346 72.791 6.6133 72.791 6.65821C72.791 6.70313 72.7685 6.73682 72.746 6.73682C72.6618 6.73682 72.4597 7.23652 72.3979 7.59024C72.3586 7.82606 72.3418 8.98267 72.353 11.0601C72.3699 13.9572 72.3811 14.1987 72.4822 14.485C72.6057 14.8387 72.8359 15.2037 73.0156 15.3272C73.0829 15.3721 73.1728 15.4451 73.2177 15.4844C73.257 15.5181 73.33 15.5518 73.3749 15.5518C73.4254 15.5518 73.4647 15.5743 73.4647 15.6079C73.4647 15.636 73.5153 15.6641 73.5714 15.6641C73.6332 15.6641 73.7005 15.6865 73.7174 15.7202C73.7342 15.7483 73.9027 15.7764 74.0879 15.7764C74.2732 15.7764 74.4192 15.7988 74.4192 15.8325C74.4192 15.8662 74.8572 15.8887 75.6264 15.8887C76.3956 15.8887 76.8335 15.8662 76.8335 15.8325C76.8335 15.7988 76.9795 15.7764 77.1648 15.7764C77.35 15.7764 77.5185 15.7483 77.5353 15.7202C77.5522 15.6865 77.6308 15.6641 77.7094 15.6641C77.7824 15.6641 77.8441 15.6472 77.8441 15.6192C77.8441 15.5967 77.9284 15.5406 78.0238 15.5013C78.2259 15.4114 78.4617 15.1981 78.4617 15.1026C78.4617 15.0745 78.4898 15.0465 78.5179 15.0465C78.5516 15.0465 78.574 15.0072 78.574 14.9623C78.574 14.9173 78.6021 14.878 78.6302 14.878C78.6639 14.878 78.6863 14.8275 78.6863 14.7657C78.6863 14.704 78.7144 14.6535 78.7425 14.6535C78.7762 14.6535 78.7986 14.5636 78.7986 14.4569C78.7986 14.3503 78.8267 14.2604 78.8548 14.2604C78.9446 14.2604 78.9278 13.0364 78.8379 12.9466C78.7986 12.9017 78.6021 12.8568 78.4056 12.8343C78.2035 12.8175 77.934 12.7838 77.7992 12.7669C77.4343 12.7164 77.395 12.7725 77.395 13.4295C77.395 13.7383 77.3669 14.0415 77.3332 14.1032C77.2378 14.2829 77.0188 14.485 76.9177 14.485C76.8728 14.485 76.8335 14.5075 76.8335 14.5412C76.8335 14.5748 76.4124 14.5973 75.6825 14.5973C74.9526 14.5973 74.5315 14.5748 74.5315 14.5412C74.5315 14.5075 74.481 14.485 74.4192 14.485C74.3574 14.485 74.3069 14.4569 74.3069 14.4289C74.3069 14.3952 74.2732 14.3727 74.2339 14.3727C74.189 14.3727 74.0992 14.2548 74.0318 14.1032C73.9139 13.8506 73.9083 13.7776 73.9251 12.6322L73.942 11.425L76.4124 11.397C77.7711 11.3801 78.8885 11.3577 78.8997 11.352C78.9446 11.3127 78.9053 7.41057 78.8548 7.41057C78.8267 7.41057 78.7986 7.33197 78.7986 7.24214C78.7986 7.14669 78.7762 7.0737 78.7425 7.0737C78.7144 7.0737 78.6863 7.02316 78.6863 6.9614C78.6863 6.89964 78.6639 6.84911 78.6302 6.84911C78.6021 6.84911 78.574 6.80981 78.574 6.76489C78.574 6.56838 78.0463 6.18097 77.5409 6.00692C77.2378 5.90585 77.0805 5.89462 75.632 5.90024C74.1497 5.90585 74.0318 5.91147 73.6837 6.02937ZM76.6089 7.12984C76.6089 7.15792 76.6763 7.18599 76.7549 7.18599C76.9963 7.18599 77.2827 7.3825 77.2827 7.54533C77.2827 7.59024 77.3107 7.64639 77.3388 7.66323C77.3725 7.68569 77.395 8.17978 77.395 8.96021V10.2179L75.6713 10.2067L73.942 10.1898L73.9251 9.03882C73.9139 8.09556 73.9251 7.85413 73.9981 7.66885C74.116 7.37689 74.3406 7.18599 74.5764 7.18599C74.6719 7.18599 74.7561 7.15792 74.7561 7.12984C74.7561 7.09615 75.1042 7.0737 75.6825 7.0737C76.2608 7.0737 76.6089 7.09615 76.6089 7.12984Z" fill="#767780"/>
<path d="M38.3011 6.04645C38.2225 6.11944 38.2787 6.36648 38.6043 7.38835C38.6605 7.57924 38.711 7.78699 38.711 7.84875C38.711 7.91612 38.7391 7.9835 38.7672 8.00034C38.8009 8.01719 38.8233 8.10702 38.8233 8.20247C38.8233 8.2923 38.8514 8.36529 38.8795 8.36529C38.9131 8.36529 38.9356 8.46636 38.9356 8.58988C38.9356 8.7134 38.9637 8.81446 38.9917 8.81446C39.0254 8.81446 39.0479 8.88745 39.0479 8.9829C39.0479 9.07274 39.076 9.15134 39.104 9.15134C39.1377 9.15134 39.1602 9.25241 39.1602 9.37593C39.1602 9.49945 39.1883 9.60051 39.2163 9.60051C39.25 9.60051 39.2725 9.69035 39.2725 9.79703C39.2725 9.9037 39.3006 9.99354 39.3286 9.99354C39.3623 9.99354 39.3848 10.0665 39.3848 10.1564C39.3848 10.2518 39.4128 10.3416 39.4409 10.3585C39.4746 10.3753 39.4971 10.482 39.4971 10.5887C39.4971 10.6954 39.5195 10.7796 39.5476 10.7796C39.5757 10.7796 39.6094 10.8638 39.6262 10.9593C39.6487 11.1108 39.8845 11.9643 40.1596 12.8851C40.1877 12.9749 40.2438 13.1658 40.2831 13.3062C40.3224 13.4465 40.3729 13.6094 40.3954 13.6711C40.4459 13.789 40.4965 14.008 40.547 14.3C40.5638 14.401 40.5975 14.4852 40.6256 14.4852C40.6537 14.4852 40.6761 14.5582 40.6761 14.6481C40.6761 14.7435 40.7042 14.8334 40.7323 14.8502C40.766 14.867 40.7884 14.9569 40.7884 15.0523C40.7884 15.1422 40.8165 15.2151 40.8446 15.2151C40.8783 15.2151 40.9007 15.2994 40.9007 15.3948C40.9007 15.698 41.1085 15.7766 41.917 15.7766C42.7536 15.7766 42.9781 15.6812 42.9781 15.3331C42.9781 15.2432 43.0062 15.1478 43.0343 15.1309C43.068 15.1141 43.0904 15.0243 43.0904 14.9344C43.0904 14.8446 43.1185 14.7547 43.1466 14.7379C43.1803 14.7211 43.2027 14.6537 43.2027 14.5863C43.2027 14.5245 43.2533 14.3168 43.3094 14.1259C43.3712 13.9406 43.4778 13.5925 43.5396 13.3623C43.607 13.1321 43.7193 12.7447 43.7979 12.5089C43.8709 12.2675 43.9326 12.026 43.9326 11.9643C43.9326 11.9025 43.9607 11.8351 43.9888 11.8183C44.0225 11.8015 44.0449 11.7116 44.0449 11.6218C44.0449 11.5319 44.073 11.4421 44.1011 11.4253C44.1348 11.4084 44.1572 11.3017 44.1572 11.1951C44.1572 11.0884 44.1797 11.0042 44.2077 11.0042C44.2527 11.0042 44.2695 10.9424 44.3593 10.4259C44.3762 10.3136 44.4155 10.2181 44.4436 10.2181C44.4716 10.2181 44.4941 10.1283 44.4941 10.0216C44.4941 9.91493 44.5222 9.8251 44.5502 9.8251C44.5839 9.8251 44.6064 9.72404 44.6064 9.60051C44.6064 9.47699 44.6345 9.37593 44.6625 9.37593C44.6962 9.37593 44.7187 9.29732 44.7187 9.20749C44.7187 9.11204 44.7467 9.03905 44.7748 9.03905C44.8085 9.03905 44.831 8.93799 44.831 8.81446C44.831 8.69094 44.859 8.58988 44.8871 8.58988C44.9208 8.58988 44.9433 8.51689 44.9433 8.42705C44.9433 8.33161 44.9713 8.24177 44.9994 8.22493C45.0331 8.20808 45.0556 8.12948 45.0556 8.05087C45.0556 7.97788 45.078 7.87121 45.1061 7.81506C45.1398 7.76453 45.2015 7.56802 45.2465 7.38273C45.2914 7.19745 45.3868 6.84934 45.4542 6.61353C45.516 6.3721 45.5609 6.13628 45.5384 6.09137C45.516 6.02399 45.3812 6.00715 44.8141 6.00715C44.0449 6.00715 43.9775 6.03522 43.9158 6.3721C43.8765 6.56861 43.8259 6.77635 43.6238 7.55117C43.4217 8.30353 43.3712 8.52812 43.3319 8.74709C43.315 8.84815 43.2813 8.9436 43.2533 8.96044C43.2252 8.97729 43.2027 9.07274 43.2027 9.17942C43.2027 9.28609 43.1803 9.38716 43.1466 9.404C43.1185 9.42085 43.0904 9.52191 43.0904 9.62859C43.0904 9.73526 43.068 9.83633 43.0343 9.85317C43.0062 9.87002 42.9781 9.97669 42.9781 10.0834C42.9781 10.1901 42.9557 10.2743 42.922 10.2743C42.8939 10.2743 42.8658 10.3866 42.8658 10.5269C42.8658 10.6673 42.8434 10.7796 42.8097 10.7796C42.7816 10.7796 42.7536 10.8694 42.7536 10.9761C42.7536 11.0828 42.7311 11.1726 42.6974 11.1726C42.6693 11.1726 42.6413 11.2737 42.6413 11.3972C42.6413 11.5207 42.6188 11.6218 42.5851 11.6218C42.557 11.6218 42.529 11.7228 42.529 11.8464C42.529 11.9699 42.5065 12.071 42.4728 12.071C42.4447 12.071 42.4167 12.172 42.4167 12.2955C42.4167 12.4191 42.3942 12.5201 42.3605 12.5201C42.3325 12.5201 42.3044 12.6212 42.3044 12.7391C42.3044 12.8626 42.2819 12.9805 42.2482 12.9974C42.2202 13.0142 42.1921 13.0872 42.1921 13.149C42.1921 13.2163 42.1696 13.3455 42.1359 13.4409C42.1079 13.5364 42.0686 13.6824 42.0517 13.7666C41.9956 14.0529 41.8833 13.9406 41.7766 13.4858C41.7205 13.25 41.6531 12.9974 41.625 12.9244C41.5969 12.8514 41.5745 12.7335 41.5745 12.6605C41.5745 12.5819 41.552 12.5201 41.5183 12.5201C41.4903 12.5201 41.4622 12.4191 41.4622 12.3012C41.4622 12.1776 41.4397 12.0597 41.406 12.0429C41.378 12.026 41.3499 11.9194 41.3499 11.8127C41.3499 11.706 41.3274 11.6218 41.2937 11.6218C41.2657 11.6218 41.2376 11.5207 41.2376 11.4028C41.2376 11.2793 41.2151 11.1614 41.1815 11.1445C41.1534 11.1277 41.1253 11.0098 41.1253 10.8863C41.1253 10.7684 41.1029 10.6673 41.0692 10.6673C41.0411 10.6673 41.013 10.5662 41.013 10.4427C41.013 10.3192 40.9906 10.2181 40.9569 10.2181C40.9288 10.2181 40.9007 10.1283 40.9007 10.0216C40.9007 9.91493 40.8783 9.8251 40.8446 9.8251C40.8165 9.8251 40.7884 9.72404 40.7884 9.60051C40.7884 9.47699 40.766 9.37593 40.7323 9.37593C40.7042 9.37593 40.6761 9.27486 40.6761 9.15134C40.6761 9.02782 40.6537 8.92676 40.62 8.92676C40.5919 8.92676 40.5638 8.82569 40.5638 8.70217C40.5638 8.57865 40.5414 8.47759 40.5077 8.47759C40.4796 8.47759 40.4516 8.37652 40.4516 8.25862C40.4516 8.13509 40.4291 8.0228 40.401 8.00596C40.3729 7.98911 40.3393 7.89366 40.3224 7.7926C40.2607 7.41081 39.9631 6.29349 39.8789 6.13067C39.8171 6.01276 39.7834 6.00715 39.076 6.00715C38.6717 6.00715 38.318 6.02399 38.3011 6.04645Z" fill="#767780"/>
<path d="M47.1448 6.10233C47.1223 6.15847 47.1055 8.32011 47.1055 10.9028C47.1055 15.5349 47.1055 15.6023 47.2178 15.6865C47.375 15.8044 48.453 15.81 48.5709 15.6977C48.6383 15.6304 48.6495 14.9061 48.6495 10.8467C48.6495 6.54588 48.6383 6.07425 48.5597 6.04057C48.5091 6.02372 48.1835 6.00688 47.8298 6.00688C47.2683 6.00688 47.1785 6.01811 47.1448 6.10233Z" fill="#767780"/>
<path d="M7.28562 6.47919C7.21263 6.51288 7.15648 6.5578 7.15648 6.58026C7.15648 6.60833 7.10595 6.62517 7.04419 6.62517C6.98243 6.62517 6.9319 6.64763 6.9319 6.68132C6.9319 6.70939 6.88698 6.73746 6.83083 6.73746C6.77469 6.73746 6.69608 6.788 6.65116 6.84976C6.60625 6.91152 6.52764 6.96205 6.4715 6.96205C6.41535 6.96205 6.37043 6.98451 6.37043 7.0182C6.37043 7.04627 6.3199 7.07434 6.25814 7.07434C6.19638 7.07434 6.14585 7.09119 6.14585 7.11926C6.14585 7.14172 6.06163 7.19225 5.96618 7.23717C5.86511 7.28208 5.76967 7.33262 5.75282 7.34946C5.73598 7.37192 5.60684 7.45052 5.46086 7.52351C5.30927 7.60212 5.19136 7.68072 5.19136 7.69757C5.19136 7.71441 5.09029 7.77617 4.96677 7.83232L4.74219 7.93338V11.2123C4.74219 14.4464 4.74219 14.4857 4.85448 14.4857C4.91624 14.4857 4.96677 14.5081 4.96677 14.5418C4.96677 14.5699 5.0173 14.598 5.07907 14.598C5.14083 14.598 5.19136 14.6204 5.19136 14.6485C5.19136 14.6766 5.26996 14.7271 5.3598 14.7664C5.45525 14.8057 5.52824 14.8562 5.52824 14.8731C5.52824 14.9124 5.88757 15.1033 5.94933 15.1033C5.96618 15.1033 5.97741 13.6659 5.97741 11.9029C5.97741 9.09561 5.98864 8.70259 6.06163 8.70259C6.10654 8.70259 6.14585 8.67451 6.14585 8.64644C6.14585 8.61275 6.18515 8.59029 6.23007 8.59029C6.27498 8.59029 6.31429 8.56222 6.31429 8.53415C6.31429 8.50046 6.35359 8.478 6.3985 8.478C6.44342 8.478 6.48272 8.44993 6.48272 8.42186C6.48272 8.38817 6.53326 8.36571 6.59502 8.36571C6.65678 8.36571 6.70731 8.33764 6.70731 8.30956C6.70731 8.27588 6.74661 8.25342 6.79153 8.25342C6.84206 8.25342 6.90944 8.22534 6.94874 8.19727C7.11718 8.05129 7.83585 7.62458 8.20642 7.44491C8.27941 7.41122 8.33555 7.3663 8.33555 7.33823C8.33555 7.31577 8.38609 7.29893 8.44785 7.29893C8.50961 7.29893 8.56014 7.27086 8.56014 7.24278C8.56014 7.20909 8.61067 7.18664 8.67243 7.18664C8.73419 7.18664 8.78472 7.17541 8.78472 7.15856C8.78472 7.08557 8.50399 6.84976 8.41977 6.84976C8.37486 6.84976 8.33555 6.82168 8.33555 6.79361C8.33555 6.75992 8.28502 6.73746 8.22326 6.73746C8.1615 6.73746 8.11097 6.70939 8.11097 6.68132C8.11097 6.64763 8.07728 6.62517 8.04359 6.62517C8.00429 6.62517 7.90884 6.57464 7.83024 6.51288C7.67864 6.39497 7.47651 6.37813 7.28562 6.47919Z" fill="#767780"/>
<path d="M14.5414 11.3745C14.4179 11.4419 14.2887 11.5261 14.2494 11.5598C14.2101 11.5935 14.1427 11.6215 14.0922 11.6215C14.0473 11.6215 14.008 11.6384 14.008 11.6665C14.008 11.6889 13.8901 11.7675 13.7441 11.8461C13.5925 11.9191 13.4634 11.9977 13.4465 12.0202C13.4297 12.037 13.3342 12.0876 13.2388 12.1325C13.1377 12.1774 13.0535 12.2279 13.0535 12.2504C13.0535 12.2785 13.003 12.2953 12.9412 12.2953C12.8794 12.2953 12.8289 12.3178 12.8289 12.3515C12.8289 12.3795 12.7896 12.4076 12.7447 12.4076C12.6998 12.4076 12.6605 12.4301 12.6605 12.4637C12.6605 12.4918 12.6212 12.5199 12.5763 12.5199C12.5313 12.5199 12.492 12.5423 12.492 12.576C12.492 12.6041 12.4415 12.6322 12.3797 12.6322C12.318 12.6322 12.2674 12.6546 12.2674 12.6883C12.2674 12.7164 12.2169 12.7445 12.1552 12.7445C12.0934 12.7445 12.0429 12.7669 12.0429 12.795C12.0429 12.8231 11.9979 12.8568 11.9474 12.8736C11.8913 12.8961 11.7453 12.9691 11.6218 13.0477C11.4982 13.1263 11.2344 13.2835 11.0322 13.3958C10.8301 13.5137 10.6617 13.626 10.6504 13.654C10.6392 13.6765 10.5831 13.699 10.5269 13.699C10.4708 13.699 10.4146 13.7158 10.4034 13.7383C10.3809 13.7944 10.0834 13.9741 9.95422 14.019C9.89807 14.0358 9.85316 14.0695 9.85316 14.0976C9.85316 14.1257 9.80262 14.1481 9.74086 14.1481C9.6791 14.1481 9.62857 14.1706 9.62857 14.2043C9.62857 14.2324 9.58927 14.2604 9.54435 14.2604C9.49943 14.2604 9.46013 14.2829 9.46013 14.3166C9.46013 14.3446 9.38714 14.3727 9.29169 14.3727C9.20186 14.3727 9.12325 14.3446 9.12325 14.3166C9.12325 14.2829 9.08395 14.2604 9.03903 14.2604C8.99412 14.2604 8.95481 14.2324 8.95481 14.2043C8.95481 14.1706 8.91551 14.1481 8.87059 14.1481C8.82568 14.1481 8.78638 14.1201 8.78638 14.092C8.78638 14.0583 8.73584 14.0358 8.67408 14.0358C8.61232 14.0358 8.56179 14.0078 8.56179 13.9797C8.56179 13.946 8.51126 13.9235 8.4495 13.9235C8.38774 13.9235 8.3372 13.9011 8.3372 13.8786C8.3372 13.8506 8.25298 13.7888 8.15754 13.7383C8.05647 13.6877 7.84873 13.5698 7.69152 13.4744C7.53993 13.3789 7.30411 13.2498 7.17498 13.1824C7.04022 13.115 6.93355 13.0364 6.93355 13.014C6.93355 12.9915 6.89424 12.9691 6.84371 12.9691C6.79879 12.9691 6.72019 12.9298 6.67527 12.8848C6.62474 12.8399 6.56298 12.8006 6.53491 12.8006C6.50683 12.8006 6.48438 13.1094 6.48438 13.5081C6.48438 14.165 6.4956 14.2267 6.60228 14.3222C6.66966 14.3783 6.77072 14.4401 6.82687 14.4569C6.88863 14.4794 6.93355 14.5187 6.93355 14.5468C6.93355 14.5748 6.98408 14.5973 7.04022 14.5973C7.10198 14.5973 7.15813 14.6198 7.16936 14.6422C7.18059 14.6703 7.36587 14.7882 7.57923 14.9061C7.7982 15.024 7.98348 15.1363 8.00033 15.1588C8.01717 15.1756 8.14631 15.2542 8.2979 15.3272C8.44388 15.4058 8.56179 15.4844 8.56179 15.5069C8.56179 15.5349 8.61232 15.5518 8.67408 15.5518C8.73584 15.5518 8.78638 15.5743 8.78638 15.6079C8.78638 15.636 8.83691 15.6641 8.89867 15.6641C8.96043 15.6641 9.01096 15.6865 9.01096 15.7202C9.01096 15.7483 9.05026 15.7764 9.09518 15.7764C9.1401 15.7764 9.1794 15.7988 9.1794 15.8325C9.1794 15.8606 9.22993 15.8887 9.29169 15.8887C9.35345 15.8887 9.40399 15.8662 9.40399 15.8438C9.40399 15.8157 9.49382 15.7651 9.6005 15.7202C9.70718 15.6753 9.79701 15.6248 9.79701 15.6079C9.79701 15.5911 9.88684 15.5406 9.99352 15.4956C10.1002 15.4507 10.19 15.4002 10.19 15.3721C10.19 15.3497 10.2406 15.3272 10.3023 15.3272C10.3641 15.3272 10.4146 15.3047 10.4146 15.2767C10.4146 15.2486 10.4652 15.2093 10.5213 15.1868C10.5831 15.17 10.7234 15.0914 10.8301 15.0184C11.0435 14.8724 11.4814 14.6198 11.6891 14.5187C11.7621 14.485 11.8183 14.4401 11.8183 14.412C11.8183 14.3896 11.8688 14.3727 11.9306 14.3727C11.9923 14.3727 12.0429 14.3446 12.0429 14.3166C12.0429 14.2829 12.0878 14.2604 12.1439 14.2604C12.2001 14.2604 12.2787 14.2099 12.3236 14.1481C12.3685 14.0864 12.4471 14.0358 12.5033 14.0358C12.5594 14.0358 12.6043 14.0078 12.6043 13.9797C12.6043 13.946 12.6549 13.9235 12.7166 13.9235C12.7784 13.9235 12.8289 13.9067 12.8289 13.8786C12.8289 13.8562 12.8851 13.8113 12.958 13.7776C13.2051 13.6597 13.7553 13.3452 13.7834 13.3059C13.8002 13.2835 13.9518 13.1936 14.1203 13.1038C14.2887 13.014 14.4403 12.9241 14.4459 12.8961C14.4572 12.8736 14.4965 12.8568 14.5301 12.8568C14.5694 12.8568 14.6649 12.795 14.7547 12.722C14.9063 12.5929 14.9063 12.5817 14.9063 11.9416C14.9063 11.4756 14.8895 11.2903 14.839 11.2734C14.7996 11.2566 14.6649 11.3071 14.5414 11.3745Z" fill="#767780"/>
<path d="M0.812552 13.542C0.812552 15.6419 0.801322 15.5576 1.11013 15.7149C1.19435 15.7598 1.26172 15.8159 1.26172 15.844C1.26172 15.8664 1.31225 15.8889 1.37402 15.8889C1.43578 15.8889 1.48631 15.9114 1.48631 15.9451C1.48631 15.9731 1.53684 16.0012 1.5986 16.0012C1.66036 16.0012 1.71089 16.0237 1.71089 16.0461C1.71089 16.0742 1.80073 16.1247 1.90741 16.1696C2.01408 16.2146 2.10392 16.2651 2.10392 16.2819C2.10392 16.2988 2.19375 16.3493 2.30043 16.3942C2.40711 16.4391 2.49694 16.4897 2.49694 16.5177C2.49694 16.5402 2.5194 16.5627 2.54747 16.5627C2.59239 16.5627 3.18754 16.8995 3.31106 16.995C3.3616 17.0343 3.51319 17.1185 3.98482 17.3712C4.04658 17.4049 4.10834 17.4498 4.12519 17.4666C4.14203 17.4835 4.23748 17.534 4.33854 17.5789C4.43399 17.6238 4.51821 17.6744 4.51821 17.6968C4.51821 17.7249 4.56874 17.7417 4.6305 17.7417C4.69226 17.7417 4.7428 17.7642 4.7428 17.7979C4.7428 17.826 4.7821 17.854 4.82702 17.854C4.87193 17.854 4.91123 17.8765 4.91123 17.9102C4.91123 17.9382 4.95054 17.9663 4.99545 17.9663C5.04037 17.9663 5.07967 17.9888 5.07967 18.0225C5.07967 18.0505 5.13021 18.0786 5.19197 18.0786C5.25373 18.0786 5.30426 18.1011 5.30426 18.1348C5.30426 18.1628 5.35479 18.1909 5.41094 18.1909C5.4727 18.1909 5.52884 18.2078 5.54007 18.2302C5.5513 18.2583 5.80958 18.4267 6.11838 18.612C6.42719 18.7973 6.69107 18.9657 6.69669 18.9882C6.70792 19.0163 6.76406 19.0331 6.82583 19.0331C6.88197 19.0331 6.9325 19.0556 6.9325 19.0892C6.9325 19.1173 6.98303 19.1454 7.0448 19.1454C7.10656 19.1454 7.15709 19.1679 7.15709 19.2015C7.15709 19.2296 7.19078 19.2577 7.23008 19.2577C7.26938 19.2577 7.35922 19.3082 7.42659 19.37C7.49397 19.4317 7.5838 19.4823 7.63433 19.4823C7.67925 19.4823 7.71855 19.5047 7.71855 19.5384C7.71855 19.5665 7.76908 19.5946 7.83084 19.5946C7.89261 19.5946 7.94314 19.617 7.94314 19.6507C7.94314 19.6788 7.98244 19.7069 8.02736 19.7069C8.07227 19.7069 8.11158 19.7293 8.11158 19.763C8.11158 19.7911 8.16211 19.8192 8.22387 19.8192C8.28563 19.8192 8.33616 19.8416 8.33616 19.8641C8.33616 19.8921 8.4653 19.9707 8.61689 20.0437C8.7741 20.1167 8.89762 20.1897 8.89762 20.2066C8.89762 20.2571 9.18397 20.3806 9.29626 20.3806C9.40294 20.3806 9.81281 20.1616 9.84088 20.0887C9.85211 20.0662 9.90826 20.0437 9.97002 20.0437C10.0262 20.0437 10.0767 20.0157 10.0767 19.9876C10.0767 19.9539 10.1104 19.9314 10.1497 19.9314C10.189 19.9314 10.2788 19.8809 10.3462 19.8192C10.4136 19.7574 10.5034 19.7069 10.5539 19.7069C10.5989 19.7069 10.6382 19.6788 10.6382 19.6507C10.6382 19.617 10.6887 19.5946 10.7505 19.5946C10.8122 19.5946 10.8627 19.5665 10.8627 19.5384C10.8627 19.5047 10.9021 19.4823 10.947 19.4823C10.9975 19.4823 11.0873 19.4317 11.1547 19.37C11.2221 19.3082 11.3119 19.2577 11.3512 19.2577C11.3905 19.2577 11.4242 19.2352 11.4242 19.2128C11.4242 19.1847 11.514 19.1342 11.6207 19.0892C11.7274 19.0443 11.8172 18.9938 11.8172 18.9657C11.8172 18.9433 11.8678 18.9208 11.9295 18.9208C11.9913 18.9208 12.0418 18.8984 12.0418 18.8703C12.0418 18.8422 12.1204 18.7917 12.2159 18.7524C12.3113 18.7131 12.4741 18.6176 12.5808 18.5502C12.6875 18.4773 12.9233 18.3369 13.1086 18.2358C13.2939 18.1404 13.4455 18.0393 13.4455 18.0112C13.4455 17.9888 13.496 17.9663 13.5578 17.9663C13.6195 17.9663 13.6701 17.9382 13.6701 17.9102C13.6701 17.8765 13.7206 17.854 13.7824 17.854C13.8947 17.854 13.8947 17.8147 13.8947 15.8328C13.8947 14.5246 13.8722 13.8115 13.8385 13.8115C13.8104 13.8115 13.7824 13.834 13.7824 13.8676C13.7824 13.8957 13.7318 13.9238 13.6701 13.9238C13.6083 13.9238 13.5578 13.9462 13.5578 13.9799C13.5578 14.008 13.5185 14.0361 13.4736 14.0361C13.4286 14.0361 13.3893 14.0585 13.3893 14.0922C13.3893 14.1203 13.3388 14.1484 13.277 14.1484C13.2153 14.1484 13.1647 14.1708 13.1647 14.2045C13.1647 14.2326 13.1142 14.2607 13.0525 14.2607C12.9907 14.2607 12.9402 14.2831 12.9402 14.3168C12.9402 14.3449 12.9009 14.373 12.8559 14.373C12.811 14.373 12.7717 14.3954 12.7717 14.4291C12.7717 14.4572 12.7324 14.4852 12.6875 14.4852C12.6145 14.4852 12.6033 14.6649 12.6033 15.7485V17.0174L12.4348 17.1129C12.345 17.1634 12.2664 17.2252 12.2664 17.2476C12.2664 17.2757 12.2159 17.2926 12.1541 17.2926C12.0924 17.2926 12.0418 17.315 12.0418 17.3487C12.0418 17.3768 12.0025 17.4049 11.9576 17.4049C11.9127 17.4049 11.8734 17.4273 11.8734 17.4498C11.8734 17.4778 11.7835 17.5284 11.6769 17.5733C11.5702 17.6182 11.4804 17.6687 11.4804 17.6968C11.4804 17.7193 11.4298 17.7417 11.3681 17.7417C11.3063 17.7417 11.2558 17.7642 11.2558 17.7979C11.2558 17.826 11.2165 17.854 11.1716 17.854C11.1266 17.854 11.0873 17.8765 11.0873 17.9102C11.0873 17.9382 11.0368 17.9663 10.975 17.9663C10.9133 17.9663 10.8627 17.9888 10.8627 18.0169C10.8627 18.0449 10.7898 18.0955 10.6943 18.1348C10.6045 18.1741 10.5259 18.2246 10.5259 18.2527C10.5259 18.2807 10.4753 18.3032 10.4192 18.3032C10.3574 18.3032 10.3013 18.3257 10.2901 18.3537C10.2844 18.3818 10.1497 18.466 9.99248 18.5502C9.84088 18.6345 9.6163 18.7524 9.50401 18.8197L9.29626 18.9377L8.94254 18.7524C8.75164 18.6513 8.51022 18.5109 8.40915 18.438C8.30247 18.365 8.14526 18.2751 8.05543 18.2358C7.95998 18.1965 7.88699 18.146 7.88699 18.1235C7.88699 18.0955 7.84769 18.0786 7.80277 18.0786C7.75785 18.0786 7.71855 18.0505 7.71855 18.0225C7.71855 17.9888 7.66802 17.9663 7.60626 17.9663C7.5445 17.9663 7.49397 17.9382 7.49397 17.9102C7.49397 17.8765 7.44343 17.854 7.38167 17.854C7.31991 17.854 7.26938 17.826 7.26938 17.7979C7.26938 17.7642 7.23008 17.7417 7.18516 17.7417C7.14024 17.7417 7.10094 17.7137 7.10094 17.6856C7.10094 17.6519 7.06164 17.6294 7.01672 17.6294C6.97181 17.6294 6.9325 17.6014 6.9325 17.5733C6.9325 17.5396 6.88197 17.5172 6.82021 17.5172C6.75845 17.5172 6.70792 17.4891 6.70792 17.461C6.70792 17.4273 6.68546 17.4049 6.65177 17.4049C6.6237 17.4049 6.33735 17.2476 6.02293 17.0624C5.7029 16.8715 5.36041 16.675 5.26496 16.63C5.16389 16.5795 5.07967 16.5234 5.07967 16.4953C5.07967 16.4728 5.02914 16.4504 4.96738 16.4504C4.90562 16.4504 4.85509 16.4223 4.85509 16.3942C4.85509 16.3605 4.81579 16.3381 4.77087 16.3381C4.72595 16.3381 4.68665 16.3156 4.68665 16.2932C4.68665 16.2651 4.59682 16.2146 4.49014 16.1696C4.38346 16.1247 4.29363 16.0742 4.29363 16.0461C4.29363 16.0237 4.24309 16.0012 4.18133 16.0012C4.11957 16.0012 4.06904 15.9731 4.06904 15.9451C4.06904 15.9114 4.02974 15.8889 3.98482 15.8889C3.9399 15.8889 3.9006 15.8608 3.9006 15.8328C3.9006 15.7991 3.85007 15.7766 3.78831 15.7766C3.72655 15.7766 3.67602 15.7485 3.67602 15.7205C3.67602 15.6868 3.6311 15.6643 3.57495 15.6643C3.51881 15.6643 3.4402 15.6138 3.39528 15.552C3.35037 15.4903 3.27176 15.4397 3.21562 15.4397C3.15947 15.4397 3.11455 15.4117 3.11455 15.3836C3.11455 15.3499 3.09209 15.3274 3.05841 15.3274C3.03033 15.3274 2.7889 15.1983 2.52502 15.0467L2.04777 14.7604V13.4746C2.04777 12.2226 2.04216 12.1832 1.93548 12.1832C1.87372 12.1832 1.82319 12.1552 1.82319 12.1271C1.82319 12.0934 1.77265 12.071 1.71089 12.071C1.64913 12.071 1.5986 12.0485 1.5986 12.0204C1.5986 11.9924 1.52561 11.9418 1.43016 11.9025C1.34033 11.8632 1.26172 11.8127 1.26172 11.7846C1.26172 11.7565 1.21119 11.7341 1.14943 11.7341C1.08767 11.7341 1.03714 11.7116 1.03714 11.6835C1.03714 11.6555 0.986605 11.6218 0.924844 11.6049C0.812552 11.5769 0.812552 11.6049 0.812552 13.542Z" fill="#767780"/>
</svg>
