<svg width="83" height="23" viewBox="0 0 83 23" fill="none" xmlns="http://www.w3.org/2000/svg">
<g clip-path="url(#clip0_20_5941)">
<path d="M7.15524 1.40874C7.15524 1.45482 7.05346 1.50089 6.93317 1.50089C6.80364 1.50089 6.64634 1.5654 6.56306 1.63913C6.48904 1.71286 6.3595 1.77737 6.27622 1.77737C6.19295 1.77737 6.03565 1.87874 5.91536 2.00776C5.79508 2.13678 5.65629 2.23815 5.59152 2.23815C5.536 2.23815 5.48973 2.28423 5.48973 2.33953C5.48973 2.40404 5.38795 2.54227 5.25841 2.66208C5.12888 2.78188 5.02709 2.95698 5.02709 3.06757C5.02709 3.16895 4.99008 3.25189 4.94382 3.25189C4.89755 3.25189 4.83278 3.39934 4.80503 3.57444C4.76802 3.74954 4.70325 3.89699 4.65698 3.89699C4.60146 3.89699 4.56445 4.3117 4.56445 4.86464C4.56445 5.39916 4.60146 5.8323 4.64773 5.8323C4.69399 5.8323 4.75876 5.9521 4.79577 6.10877C4.83278 6.25622 4.89755 6.38524 4.94382 6.38524C4.99008 6.38524 5.02709 6.48662 5.02709 6.61564C5.02709 6.76309 5.08261 6.84603 5.16589 6.84603C5.23991 6.84603 5.30468 6.89211 5.30468 6.9474C5.30468 7.05799 5.536 7.30682 5.64703 7.30682C5.68404 7.30682 5.80433 7.40819 5.89686 7.53721C5.98939 7.66623 6.10967 7.76761 6.15594 7.76761C6.2022 7.76761 6.30398 7.83212 6.37801 7.90584C6.46128 7.97957 6.61858 8.04408 6.74812 8.04408C6.8684 8.04408 6.97019 8.08094 6.97019 8.13624C6.97019 8.19153 7.46059 8.22839 8.26558 8.22839C8.99655 8.22839 9.56098 8.19153 9.56098 8.14545C9.56098 8.09937 9.69051 8.03486 9.83856 7.998C9.99586 7.96114 10.1161 7.89663 10.1161 7.85055C10.1161 7.80447 10.2179 7.76761 10.3475 7.76761C10.4955 7.76761 10.5788 7.71231 10.5788 7.62937C10.5788 7.54643 10.6621 7.49113 10.8101 7.49113H11.0414V5.8323V4.17346H9.64425C7.99725 4.17346 7.988 4.18268 7.988 4.98445C7.988 5.62955 8.01575 5.64798 8.83 5.64798H9.37592V6.05348C9.37592 6.49583 9.29264 6.56956 8.76523 6.56956C8.58943 6.56956 8.45064 6.60642 8.45064 6.66172C8.45064 6.70779 8.38587 6.75387 8.31184 6.75387C8.23782 6.75387 8.17305 6.70779 8.17305 6.66172C8.17305 6.60642 8.0065 6.56956 7.80294 6.56956C7.59938 6.56956 7.43283 6.5327 7.43283 6.4774C7.43283 6.43132 7.33105 6.36681 7.20151 6.32995C7.07197 6.3023 6.97019 6.21936 6.97019 6.14563C6.97019 6.07191 6.93317 6.01661 6.87766 6.01661C6.83139 6.01661 6.76662 5.91524 6.72961 5.78622C6.70185 5.6572 6.63708 5.55583 6.59082 5.55583C6.54456 5.55583 6.50754 5.24249 6.50754 4.86464C6.50754 4.46837 6.54456 4.17346 6.60007 4.17346C6.65559 4.17346 6.6926 4.07209 6.6926 3.94307C6.6926 3.79562 6.74812 3.71267 6.83139 3.71267C6.90542 3.71267 6.97019 3.6666 6.97019 3.6113C6.97019 3.47307 7.17375 3.28875 7.41432 3.21502C7.52535 3.17816 7.61788 3.10443 7.61788 3.05836C7.61788 3.01228 7.91397 2.97541 8.26558 2.97541C8.63569 2.97541 8.91328 3.01228 8.91328 3.06757C8.91328 3.11365 8.96879 3.15973 9.04282 3.15973C9.11684 3.15973 9.23713 3.22424 9.3204 3.29797C9.51471 3.50071 10.1161 3.52836 10.1161 3.33483C10.1161 3.27953 10.1717 3.17816 10.2364 3.11365C10.5048 2.80953 10.5788 2.69894 10.5788 2.60678C10.5788 2.56071 10.625 2.51463 10.6713 2.51463C10.8471 2.51463 10.7731 2.07227 10.5788 2.00776C10.477 1.98011 10.3937 1.90639 10.3937 1.86031C10.3937 1.81423 10.3105 1.77737 10.2179 1.77737C10.1161 1.77737 9.97735 1.71286 9.89408 1.63913C9.82005 1.5654 9.67201 1.50089 9.57023 1.50089C9.45919 1.50089 9.37592 1.45482 9.37592 1.40874C9.37592 1.35344 8.94104 1.31658 8.26558 1.31658C7.59012 1.31658 7.15524 1.35344 7.15524 1.40874Z" fill="#767780"/>
<path d="M55.5476 1.40874C55.5476 1.45482 55.4273 1.50089 55.2792 1.50089C55.1312 1.50089 54.9461 1.5654 54.8629 1.63913C54.7888 1.71286 54.6593 1.77737 54.576 1.77737C54.3817 1.77737 53.4657 2.68973 53.3824 2.95698C53.3454 3.06757 53.2714 3.15973 53.2251 3.15973C53.1789 3.15973 53.1418 3.2611 53.1418 3.39012C53.1418 3.51914 53.0771 3.64816 53.0031 3.67581C52.892 3.72189 52.8643 3.93385 52.8643 4.77249C52.8643 5.58347 52.892 5.85073 53.0031 5.96132C53.0771 6.03504 53.1418 6.19171 53.1418 6.3023C53.1418 6.41289 53.2436 6.59721 53.3732 6.71701C53.5027 6.83681 53.6045 6.97505 53.6045 7.03035C53.6045 7.16858 53.9283 7.46349 54.1504 7.53721C54.2614 7.56486 54.3447 7.63859 54.3447 7.68466C54.3447 7.73074 54.4095 7.76761 54.4835 7.76761C54.5575 7.76761 54.6223 7.80447 54.6223 7.85976C54.6223 7.90584 54.7241 7.97035 54.8536 8.00722C54.9832 8.03486 55.0849 8.09937 55.0849 8.14545C55.0849 8.19153 55.6679 8.22839 56.3803 8.22839C57.0928 8.22839 57.6757 8.19153 57.6757 8.14545C57.6757 8.09937 57.7775 8.03486 57.907 8.00722C58.0366 7.97035 58.1384 7.90584 58.1384 7.85976C58.1384 7.80447 58.2216 7.76761 58.3234 7.76761C58.4345 7.76761 58.6103 7.66623 58.7305 7.53721C58.8508 7.40819 58.9896 7.30682 59.0544 7.30682C59.1099 7.30682 59.1562 7.24231 59.1562 7.16858C59.1562 7.09486 59.1932 7.03035 59.2394 7.03035C59.2857 7.03035 59.3505 6.92897 59.3782 6.79995C59.4153 6.67093 59.48 6.56956 59.5263 6.56956C59.5818 6.56956 59.6188 6.51426 59.6188 6.44054C59.6188 6.36681 59.6651 6.29309 59.7206 6.27465C59.7761 6.25622 59.8409 6.04426 59.8686 5.80465C59.8964 5.56504 59.9612 5.37151 59.9982 5.37151C60.0444 5.37151 60.0815 5.10425 60.0815 4.77249C60.0815 4.4315 60.0444 4.17346 59.9889 4.17346C59.9427 4.17346 59.8964 4.02601 59.8964 3.85091C59.8964 3.64816 59.8409 3.50071 59.7576 3.47307C59.6836 3.4362 59.6188 3.3164 59.6188 3.19659C59.6188 3.07679 59.5818 2.97541 59.5355 2.97541C59.4893 2.97541 59.4153 2.88326 59.3782 2.76345C59.3042 2.51463 58.7305 1.96168 58.5455 1.96168C58.4715 1.96168 58.4159 1.9156 58.4159 1.86952C58.4159 1.81423 58.3697 1.77737 58.3142 1.77737C58.2587 1.77737 58.1569 1.71286 58.0828 1.63913C57.9996 1.5654 57.8145 1.50089 57.6665 1.50089C57.5184 1.50089 57.3981 1.45482 57.3981 1.40874C57.3981 1.35344 57.028 1.31658 56.4729 1.31658C55.9177 1.31658 55.5476 1.35344 55.5476 1.40874ZM56.9355 3.05836C56.9355 3.10443 57.0373 3.16895 57.1668 3.19659C57.2964 3.23346 57.3981 3.29797 57.3981 3.34404C57.3981 3.39934 57.4629 3.4362 57.5369 3.4362C57.611 3.4362 57.6757 3.50071 57.6757 3.57444C57.6757 3.64816 57.7405 3.71267 57.8145 3.71267C57.907 3.71267 57.9533 3.81405 57.9533 4.03523C57.9533 4.21033 57.9996 4.35778 58.0458 4.35778C58.1014 4.35778 58.1384 4.58817 58.1384 4.86464C58.1384 5.14112 58.1014 5.37151 58.0458 5.37151C57.9996 5.37151 57.9533 5.47288 57.9533 5.6019C57.9533 5.74936 57.8978 5.8323 57.8145 5.8323C57.7405 5.8323 57.6757 5.87838 57.6757 5.93367C57.6757 6.06269 57.4444 6.29309 57.3149 6.29309C57.2593 6.29309 57.2131 6.3576 57.2131 6.43132C57.2131 6.54191 57.065 6.56956 56.4729 6.56956C56.0657 6.56956 55.7326 6.5327 55.7326 6.48662C55.7326 6.44054 55.6401 6.36681 55.5291 6.32995C55.27 6.24701 55.1312 6.10877 55.0479 5.85073C55.0109 5.74014 54.9369 5.64798 54.8906 5.64798C54.8444 5.64798 54.8073 5.27014 54.8073 4.81857C54.8073 4.00758 54.8444 3.87856 55.159 3.59287C55.2237 3.52836 55.3533 3.40856 55.4365 3.3164C55.5198 3.23346 55.6401 3.15973 55.7049 3.15973C55.7696 3.15973 55.8252 3.11365 55.8252 3.06757C55.8252 3.01228 56.075 2.97541 56.3803 2.97541C56.6857 2.97541 56.9355 3.01228 56.9355 3.05836Z" fill="#767780"/>
<path d="M17.7306 1.5654C17.6381 1.60227 17.6104 2.33031 17.6104 4.77249C17.6104 6.51426 17.6381 7.998 17.6659 8.08094C17.7121 8.20075 17.8879 8.22839 18.5912 8.22839H19.4609V7.31603C19.4609 6.80917 19.4887 6.33916 19.5164 6.25622C19.5534 6.15485 19.6922 6.10877 19.9791 6.10877C20.3307 6.10877 20.3862 6.13642 20.4417 6.33916C20.4695 6.46818 20.5342 6.56956 20.5805 6.56956C20.6268 6.56956 20.6638 6.63407 20.6638 6.70779C20.6638 6.78152 20.7008 6.84603 20.7471 6.84603C20.7933 6.84603 20.8673 6.93819 20.9044 7.04878C20.9414 7.16858 21.0617 7.3529 21.1819 7.46349C21.3022 7.57408 21.404 7.71231 21.404 7.76761C21.404 7.81368 21.4873 7.94271 21.5891 8.04408C21.7556 8.20996 21.8944 8.22839 22.7919 8.22839C23.7172 8.22839 24.0318 8.14545 23.6709 8.00722C23.5969 7.97957 23.5322 7.86898 23.5322 7.76761C23.5322 7.66623 23.4951 7.58329 23.4396 7.58329C23.3934 7.58329 23.3471 7.51878 23.3471 7.44505C23.3471 7.37133 23.2823 7.30682 23.2083 7.30682C23.1343 7.30682 23.0695 7.22388 23.0695 7.1225C23.0695 7.01191 22.9677 6.83681 22.8382 6.71701C22.7087 6.59721 22.6069 6.45897 22.6069 6.40367C22.6069 6.34838 22.5421 6.23779 22.4588 6.16406C22.283 5.97975 22.3663 5.67563 22.6161 5.6019C22.7087 5.56504 22.7919 5.50053 22.7919 5.45445C22.7919 5.40837 22.8567 5.37151 22.9307 5.37151C23.0047 5.37151 23.0695 5.307 23.0695 5.23327C23.0695 5.15955 23.1065 5.09504 23.162 5.09504C23.2083 5.09504 23.2731 4.99366 23.3101 4.86464C23.3378 4.73562 23.4026 4.63425 23.4489 4.63425C23.4951 4.63425 23.5322 4.21954 23.5322 3.71267C23.5322 3.15973 23.4951 2.7911 23.4396 2.7911C23.3934 2.7911 23.3471 2.72659 23.3471 2.65286C23.3471 2.56992 23.2823 2.48698 23.2083 2.45933C23.1343 2.42247 23.0695 2.33031 23.0695 2.23815C23.0695 2.13678 22.977 2.03541 22.866 1.99854C22.7457 1.96168 22.6346 1.9156 22.6069 1.87874C22.5791 1.85109 22.4218 1.74972 22.2553 1.65756C21.9869 1.51933 21.6723 1.50089 19.8958 1.51011C18.767 1.51011 17.7862 1.53776 17.7306 1.5654ZM21.1264 3.06757C21.1264 3.11365 21.1819 3.15973 21.256 3.15973C21.6353 3.15973 21.8481 3.99836 21.5428 4.30248C21.4688 4.37621 21.404 4.47758 21.404 4.53288C21.404 4.59739 21.0617 4.63425 20.4325 4.63425H19.4609V3.94307C19.4609 3.50993 19.5072 3.19659 19.5812 3.11365C19.7107 2.95698 21.1264 2.92012 21.1264 3.06757Z" fill="#767780"/>
<path d="M29.8252 3.80483C29.8252 5.27935 29.8622 6.10877 29.9177 6.10877C29.9732 6.10877 30.0103 6.25622 30.0103 6.43132C30.0103 6.63407 30.0658 6.78152 30.149 6.80917C30.2231 6.84603 30.2878 6.96584 30.2878 7.08564C30.2878 7.20545 30.3341 7.30682 30.3896 7.30682C30.5192 7.30682 30.7505 7.53721 30.7505 7.66623C30.7505 7.72153 30.8152 7.76761 30.8893 7.76761C30.9633 7.76761 31.0281 7.80447 31.0281 7.85976C31.0281 7.90584 31.1761 7.97035 31.3519 8.00722C31.5277 8.03486 31.6758 8.09937 31.6758 8.14545C31.6758 8.19153 32.2772 8.22839 33.0174 8.22839C33.7576 8.22839 34.3591 8.19153 34.3591 8.14545C34.3591 8.09937 34.4609 8.03486 34.5904 8.00722C34.7199 7.97035 34.8217 7.90584 34.8217 7.85976C34.8217 7.80447 34.8865 7.76761 34.9605 7.76761C35.0345 7.76761 35.0993 7.7031 35.0993 7.62937C35.0993 7.55564 35.1456 7.49113 35.2011 7.49113C35.3029 7.49113 35.5619 7.26074 35.5619 7.16858C35.5619 7.13172 35.6267 7.04878 35.7007 6.97505C35.7748 6.89211 35.8395 6.70779 35.8395 6.56034C35.8395 6.41289 35.8858 6.29309 35.9321 6.29309C35.9876 6.29309 36.0246 5.43602 36.0246 3.89699V1.50089H35.0993H34.174V3.65738C34.174 5.45445 34.1463 5.84151 34.0352 5.96132C33.9612 6.03504 33.8964 6.13642 33.8964 6.19171C33.8964 6.24701 33.8317 6.29309 33.7576 6.29309C33.6836 6.29309 33.6189 6.3576 33.6189 6.43132C33.6189 6.54191 33.4893 6.56956 33.0267 6.56956C32.6195 6.56956 32.3882 6.52348 32.2864 6.43132C32.2124 6.3576 32.1106 6.29309 32.0551 6.29309C31.9996 6.29309 31.9533 6.19171 31.9533 6.06269C31.9533 5.93367 31.9163 5.8323 31.8608 5.8323C31.8053 5.8323 31.759 5.0121 31.7498 3.68503L31.722 1.54697L30.7782 1.51933L29.8252 1.49168V3.80483Z" fill="#767780"/>
<path d="M42.501 4.85543V8.22839H43.38H44.259V7.26074V6.29309H45.0918C45.5822 6.29309 45.9245 6.25622 45.9245 6.20093C45.9245 6.14563 46.0911 6.10877 46.2946 6.10877C46.4982 6.10877 46.6647 6.07191 46.6647 6.02583C46.6647 5.97975 46.7573 5.90602 46.8683 5.86916C47.1736 5.777 47.8676 5.04896 47.8676 4.82778C47.8676 4.71719 47.9139 4.63425 47.9601 4.63425C48.0157 4.63425 48.0527 4.29327 48.0527 3.80483C48.0527 3.3164 48.0157 2.97541 47.9601 2.97541C47.9139 2.97541 47.8676 2.87404 47.8676 2.74502C47.8676 2.59757 47.8121 2.51463 47.7288 2.51463C47.6548 2.51463 47.59 2.46855 47.59 2.41325C47.59 2.24737 47.0626 1.77737 46.8683 1.77737C46.7665 1.77737 46.6647 1.72207 46.6462 1.65756C46.6092 1.57462 46.0911 1.53776 44.5551 1.51933L42.501 1.49168V4.85543ZM45.6469 3.05836C45.6469 3.10443 45.7487 3.16894 45.8783 3.19659C46.4334 3.33483 46.2391 4.63425 45.6562 4.63425C45.5544 4.63425 45.4434 4.67111 45.4156 4.72641C45.3323 4.86464 44.5458 4.837 44.3886 4.68954C44.296 4.59739 44.259 4.33013 44.259 3.76797V2.97541H44.953C45.3323 2.97541 45.6469 3.01228 45.6469 3.05836Z" fill="#767780"/>
<path d="M2.55667 9.56452C2.3346 9.7857 2.1588 10.0161 2.1588 10.0714C2.1588 10.1175 2.12178 10.1635 2.06627 10.1635C2.02 10.1635 1.95523 10.2649 1.91822 10.3939C1.89046 10.523 1.82569 10.6243 1.78868 10.6243C1.75167 10.6243 1.6869 10.7257 1.65914 10.8547C1.62213 10.9838 1.55736 11.0851 1.5111 11.0851C1.45558 11.0851 1.41857 11.1865 1.41857 11.3155C1.41857 11.4445 1.38156 11.5459 1.3353 11.5459C1.28903 11.5459 1.22426 11.6657 1.18725 11.8224C1.15024 11.9698 1.08547 12.0989 1.03921 12.0989C0.992941 12.0989 0.95593 12.3016 0.95593 12.5504C0.95593 12.8361 0.909666 13.0204 0.844896 13.0389C0.752368 13.0757 0.724609 13.4351 0.724609 14.4489C0.724609 15.4626 0.752368 15.822 0.844896 15.8497C0.909666 15.8773 0.95593 16.0616 0.95593 16.3381C0.95593 16.6422 1.00219 16.7989 1.09472 16.8358C1.16874 16.8634 1.23351 16.9924 1.23351 17.1214C1.23351 17.2505 1.27978 17.3518 1.32604 17.3518C1.38156 17.3518 1.41857 17.4532 1.41857 17.5822C1.41857 17.7112 1.45558 17.8126 1.5111 17.8126C1.55736 17.8126 1.62213 17.914 1.65914 18.043C1.6869 18.172 1.75167 18.2734 1.78868 18.2734C1.82569 18.2734 1.89046 18.3748 1.91822 18.5038C1.95523 18.6328 2.02 18.7342 2.06627 18.7342C2.12178 18.7342 2.1588 18.7803 2.1588 18.8264C2.1588 18.8816 2.30684 19.0752 2.48264 19.2595C2.65845 19.4438 2.80649 19.6281 2.80649 19.6742C2.80649 19.7111 2.85276 19.7479 2.89902 19.7479C2.95454 19.7479 3.18586 19.9507 3.43569 20.1995C3.67626 20.4391 3.9631 20.6695 4.08338 20.7064C4.19442 20.7432 4.28694 20.817 4.28694 20.863C4.28694 20.9091 4.35171 20.946 4.42574 20.946C4.49976 20.946 4.56453 20.9828 4.56453 21.0381C4.56453 21.0842 4.66631 21.1303 4.7866 21.1303C4.91614 21.1303 5.07343 21.1948 5.15671 21.2685C5.23073 21.3423 5.39728 21.4068 5.51757 21.4068C5.64711 21.4068 5.7674 21.4528 5.7859 21.5081C5.80441 21.5634 6.01722 21.6279 6.25779 21.6556C6.49837 21.6832 6.69268 21.7477 6.69268 21.7846C6.69268 21.8307 7.29411 21.8676 8.03434 21.8676C8.86709 21.8676 9.37599 21.8307 9.37599 21.7754C9.37599 21.7201 9.54255 21.6832 9.73685 21.6832C9.94042 21.6832 10.1625 21.6187 10.2458 21.545C10.3198 21.4713 10.5326 21.4068 10.7084 21.4068C10.9397 21.4068 11.0415 21.3699 11.0415 21.2685C11.0415 21.1856 11.1248 21.1303 11.2728 21.1303C11.4024 21.1303 11.5041 21.0842 11.5041 21.0381C11.5041 20.9828 11.5689 20.946 11.6429 20.946C11.717 20.946 11.7817 20.9091 11.7817 20.8538C11.7817 20.8077 11.8835 20.7432 12.013 20.7064C12.1426 20.6787 12.2444 20.6142 12.2444 20.5681C12.2444 20.5221 12.3091 20.4852 12.3832 20.4852C12.4572 20.4852 12.522 20.4207 12.522 20.347C12.522 20.2732 12.5867 20.2087 12.6607 20.2087C12.744 20.2087 12.9013 20.1073 13.0216 19.9783C13.1419 19.8493 13.2807 19.7479 13.3362 19.7479C13.3825 19.7479 13.4565 19.6466 13.4842 19.5175C13.5213 19.3885 13.586 19.2871 13.6323 19.2871C13.6878 19.2871 13.7248 19.2411 13.7248 19.1858C13.7248 19.1213 13.8266 18.983 13.9561 18.8632C14.0857 18.7434 14.1875 18.5867 14.1875 18.5222C14.1875 18.4485 14.2522 18.3656 14.3263 18.3287C14.4003 18.3011 14.465 18.2181 14.465 18.1352C14.465 18.0614 14.5113 17.9969 14.5576 17.9969C14.6131 17.9969 14.6501 17.914 14.6501 17.8034C14.6501 17.702 14.7149 17.5546 14.7889 17.4809C14.8629 17.3979 14.9277 17.2412 14.9277 17.1122C14.9277 16.9924 14.9647 16.891 15.011 16.891C15.0572 16.891 15.1127 16.6791 15.1312 16.4118C15.159 16.1446 15.233 15.9142 15.2885 15.8957C15.3533 15.8773 15.3903 15.4165 15.3903 14.4397V13.0204H14.8814C14.6038 13.0204 14.3725 13.0573 14.3725 13.1034C14.3725 13.1495 14.2152 13.214 14.0209 13.2508L13.66 13.3061L13.7063 14.2093C13.7433 14.9189 13.7156 15.1677 13.5953 15.3981C13.512 15.5548 13.4472 15.8312 13.4472 16.0156C13.4472 16.1906 13.4102 16.3381 13.364 16.3381C13.3177 16.3381 13.2529 16.4671 13.2159 16.6146C13.1789 16.7712 13.1141 16.891 13.0679 16.891C13.0216 16.891 12.9846 16.9924 12.9846 17.1214C12.9846 17.2505 12.9476 17.3518 12.8921 17.3518C12.8458 17.3518 12.781 17.4532 12.744 17.5822C12.7163 17.7112 12.6515 17.8126 12.6052 17.8126C12.559 17.8126 12.522 17.8771 12.522 17.9509C12.522 18.0246 12.4757 18.0891 12.4202 18.0891C12.2906 18.0891 12.0593 18.3195 12.0593 18.4485C12.0593 18.5038 12.013 18.5499 11.9575 18.5499C11.8928 18.5499 11.717 18.6881 11.5597 18.8632C11.3931 19.0291 11.171 19.2042 11.06 19.2318C10.949 19.2687 10.8564 19.3332 10.8564 19.3793C10.8564 19.4162 10.7547 19.4807 10.6251 19.5083C10.4956 19.5452 10.3938 19.6097 10.3938 19.6558C10.3938 19.7111 10.2735 19.7479 10.1162 19.7479C9.96817 19.7479 9.83864 19.7848 9.83864 19.8309C9.83864 19.8677 9.61657 19.9322 9.35749 19.9599C9.08916 19.9968 8.85784 20.0613 8.83933 20.1166C8.79307 20.2364 7.46066 20.2364 7.4144 20.1166C7.39589 20.0705 7.12756 19.9968 6.81296 19.9691C6.48912 19.9322 6.23004 19.8677 6.23004 19.8309C6.23004 19.7848 6.12826 19.7479 5.99872 19.7479C5.86918 19.7479 5.7674 19.7111 5.7674 19.6558C5.7674 19.6097 5.66561 19.5452 5.53608 19.5083C5.40654 19.4807 5.30475 19.4162 5.30475 19.3793C5.30475 19.3424 5.20297 19.2779 5.07343 19.2503C4.94389 19.2134 4.84211 19.1489 4.84211 19.1028C4.84211 19.0475 4.77734 19.0107 4.70332 19.0107C4.6293 19.0107 4.56453 18.9462 4.56453 18.8724C4.56453 18.7987 4.52752 18.7342 4.472 18.7342C4.42574 18.7342 4.21292 18.5683 4.00936 18.3656C3.8058 18.1628 3.63925 17.9509 3.63925 17.9048C3.63925 17.8495 3.57448 17.8126 3.50045 17.8126C3.41718 17.8126 3.36166 17.7297 3.36166 17.5914C3.36166 17.4716 3.29689 17.3518 3.22287 17.315C3.14885 17.2873 3.08408 17.1767 3.08408 17.0754C3.08408 16.974 3.04707 16.891 2.99155 16.891C2.94529 16.891 2.89902 16.7989 2.89902 16.6791C2.89902 16.5685 2.83425 16.3934 2.76023 16.3012C2.68621 16.1999 2.62144 15.9603 2.62144 15.7667C2.62144 15.5732 2.58443 15.4165 2.52891 15.4165C2.47339 15.4165 2.43638 15.0295 2.43638 14.4489C2.43638 13.8683 2.47339 13.4812 2.52891 13.4812C2.58443 13.4812 2.62144 13.3153 2.62144 13.1218C2.62144 12.9191 2.68621 12.6979 2.76023 12.6149C2.83425 12.5412 2.89902 12.3753 2.89902 12.2463C2.89902 12.1173 2.94529 12.0067 2.99155 12.0067C3.04707 12.0067 3.08408 11.9238 3.08408 11.8224C3.08408 11.721 3.14885 11.6104 3.22287 11.5828C3.29689 11.5459 3.36166 11.463 3.36166 11.3892C3.36166 11.3247 3.46344 11.1681 3.59298 11.0483C3.72252 10.9285 3.8243 10.7902 3.8243 10.7257C3.8243 10.6704 3.88907 10.6243 3.9631 10.6243C4.04637 10.6243 4.10189 10.5414 4.10189 10.3939C4.10189 10.2465 4.04637 10.1635 3.9631 10.1635C3.88907 10.1635 3.8243 10.1175 3.8243 10.0622C3.8243 9.93315 3.59298 9.70276 3.46344 9.70276C3.40793 9.70276 3.36166 9.63825 3.36166 9.56452C3.36166 9.4908 3.29689 9.42629 3.22287 9.42629C3.14885 9.42629 3.08408 9.36178 3.08408 9.28805C3.08408 9.06687 2.97304 9.13138 2.55667 9.56452Z" fill="#767780"/>
<path d="M7.24777 10.9928C7.24777 11.0389 7.08122 11.085 6.87766 11.085C6.60933 11.085 6.50754 11.1218 6.50754 11.2232C6.50754 11.2969 6.42427 11.3614 6.32249 11.3614C6.21145 11.3614 6.03565 11.4628 5.91536 11.5918C5.79508 11.7208 5.65629 11.8222 5.59152 11.8222C5.536 11.8222 5.48973 11.8775 5.48973 11.942C5.48973 12.0065 5.38795 12.1355 5.25841 12.2277C5.12887 12.3199 5.02709 12.4765 5.02709 12.5687C5.02709 12.6701 4.99008 12.7438 4.94382 12.7438C4.89755 12.7438 4.83278 12.8636 4.79577 13.0203C4.75876 13.1677 4.69399 13.2967 4.64773 13.2967C4.60146 13.2967 4.56445 13.822 4.56445 14.4948C4.56445 15.2136 4.60146 15.6928 4.65698 15.6928C4.70325 15.6928 4.76802 15.7942 4.80503 15.9232C4.83278 16.0522 4.89755 16.1536 4.94382 16.1536C4.99008 16.1536 5.02709 16.255 5.02709 16.384C5.02709 16.5315 5.08261 16.6144 5.16589 16.6144C5.23991 16.6144 5.30468 16.6605 5.30468 16.7158C5.30468 16.8448 5.536 17.0752 5.66554 17.0752C5.72106 17.0752 5.76732 17.1397 5.76732 17.2134C5.76732 17.2872 5.83209 17.3517 5.90611 17.3517C5.98013 17.3517 6.0449 17.3885 6.0449 17.4438C6.0449 17.4899 6.14668 17.5544 6.27622 17.5913C6.40576 17.6189 6.50754 17.6834 6.50754 17.7295C6.50754 17.7756 6.64634 17.8125 6.82214 17.8125C6.99794 17.8125 7.15524 17.8677 7.183 17.923C7.20151 18.006 7.46058 18.0428 8.03426 18.0428C8.60793 18.0428 8.86701 18.006 8.89477 17.923C8.91328 17.8585 9.07983 17.8125 9.29264 17.8125C9.48695 17.8125 9.6535 17.7756 9.6535 17.7295C9.6535 17.6834 9.73678 17.6097 9.84781 17.5821C9.94959 17.5452 10.2642 17.2964 10.5418 17.0199L11.0507 16.5315L10.8564 16.3379C10.7546 16.2366 10.625 16.1536 10.5788 16.1536C10.5233 16.1536 10.3752 16.0522 10.2549 15.9232C9.99586 15.6375 9.37592 15.4993 9.37592 15.7205C9.37592 15.7942 9.27414 15.8864 9.1446 15.914C9.01506 15.9509 8.91328 16.0154 8.91328 16.0615C8.91328 16.1168 8.79299 16.1536 8.63569 16.1536C8.48765 16.1536 8.35811 16.1905 8.35811 16.2458C8.35811 16.2919 8.21006 16.3379 8.03426 16.3379C7.85846 16.3379 7.71041 16.2919 7.71041 16.2458C7.71041 16.1905 7.62714 16.1536 7.5161 16.1536C7.28478 16.1536 6.6926 15.5915 6.6926 15.3795C6.6926 15.2966 6.65559 15.232 6.60007 15.232C6.54456 15.232 6.50754 14.9279 6.50754 14.4948C6.50754 14.0616 6.54456 13.7575 6.60007 13.7575C6.65559 13.7575 6.6926 13.6561 6.6926 13.5271C6.6926 13.3797 6.74812 13.2967 6.83139 13.2967C6.90542 13.2967 6.97019 13.2322 6.97019 13.1585C6.97019 13.0848 7.01645 13.0203 7.07197 13.0203C7.12748 13.0203 7.22926 12.9558 7.30329 12.882C7.38656 12.8083 7.54386 12.7438 7.6734 12.7438C7.79369 12.7438 7.89547 12.6977 7.89547 12.6516C7.89547 12.5963 7.99725 12.5595 8.12679 12.5595C8.25633 12.5595 8.35811 12.5963 8.35811 12.6424C8.35811 12.6885 8.48765 12.753 8.63569 12.7899C8.79299 12.8267 8.91328 12.8912 8.91328 12.9373C8.91328 12.9834 9.01506 13.0203 9.1446 13.0203C9.29264 13.0203 9.37592 13.0756 9.37592 13.1585C9.37592 13.2414 9.45919 13.2967 9.60724 13.2967C9.75528 13.2967 9.83856 13.2414 9.83856 13.1585C9.83856 13.0848 9.92183 13.0203 10.0236 13.0203C10.1346 13.0203 10.3105 12.9189 10.4307 12.7899C10.551 12.6608 10.6898 12.5595 10.7546 12.5595C10.8101 12.5595 10.8564 12.4765 10.8564 12.3659C10.8564 12.1263 10.0976 11.3614 9.85706 11.3614C9.75528 11.3614 9.6535 11.2969 9.61649 11.2232C9.58873 11.1402 9.44069 11.085 9.23713 11.085C9.06132 11.085 8.91328 11.0389 8.91328 10.9928C8.91328 10.9375 8.57092 10.9006 8.08052 10.9006C7.59012 10.9006 7.24777 10.9375 7.24777 10.9928Z" fill="#767780"/>
<path d="M17.7959 14.3564V17.8123H20.5162H23.2366L23.2921 17.6004C23.3198 17.4898 23.3476 17.1211 23.3476 16.7709V16.1535H21.5433H19.739V15.5545V14.9554H21.312H22.8942L22.8664 14.2366L22.8387 13.527L21.2935 13.4993L19.739 13.4809V13.0201V12.5593H21.497H23.2551V11.7299V10.9005H20.5255H17.7959V14.3564Z" fill="#767780"/>
<path d="M29.6024 11.1032C29.5746 11.2231 29.5469 12.7068 29.5469 14.4025C29.5561 16.8262 29.5746 17.5266 29.6764 17.6464C29.7782 17.7847 29.9447 17.8123 30.648 17.8123H31.49V16.0152C31.49 14.4762 31.5085 14.2182 31.6288 14.2182C31.7028 14.2182 31.7676 14.2643 31.7676 14.3103C31.7676 14.3656 31.8693 14.5223 31.9989 14.6605C32.1284 14.7988 32.2302 14.9554 32.2302 15.0199C32.2302 15.0845 32.2765 15.1397 32.3227 15.1397C32.3782 15.1397 32.4152 15.2043 32.4152 15.278C32.4152 15.3517 32.48 15.4162 32.554 15.4162C32.6281 15.4162 32.6928 15.4623 32.6928 15.5176C32.6928 15.5729 32.7484 15.6743 32.8131 15.7388C33.0537 16.0152 33.1555 16.1443 33.1555 16.1996C33.1555 16.2272 33.2573 16.347 33.3868 16.4668C33.5163 16.5866 33.6181 16.7249 33.6181 16.7894C33.6181 16.8447 33.6829 16.8907 33.7569 16.8907C33.8402 16.8907 33.8957 16.9737 33.8957 17.1211C33.8957 17.2502 33.942 17.3515 33.9975 17.3515C34.127 17.3515 34.3583 17.5819 34.3583 17.7109C34.3583 17.7755 34.6637 17.8123 35.1911 17.8123H36.0238V14.3564V10.9005H35.0986H34.1733V12.5593C34.1733 13.6837 34.1455 14.2182 34.0715 14.2182C33.9235 14.2182 33.4701 13.739 33.396 13.4993C33.359 13.3888 33.285 13.2966 33.2387 13.2966C33.1925 13.2966 33.1555 13.2505 33.1555 13.1952C33.1555 13.1307 33.0537 12.9925 32.9242 12.8727C32.7946 12.7529 32.6928 12.6331 32.6928 12.6054C32.6928 12.5501 32.5911 12.4211 32.3505 12.1446C32.2857 12.0801 32.2302 11.9787 32.2302 11.9235C32.2302 11.8682 32.1654 11.8221 32.0914 11.8221C32.0174 11.8221 31.9526 11.7576 31.9526 11.6838C31.9526 11.6101 31.9156 11.5456 31.8693 11.5456C31.8231 11.5456 31.749 11.4534 31.712 11.3429C31.5917 10.9558 31.453 10.9005 30.5369 10.9005C29.7042 10.9005 29.6579 10.9097 29.6024 11.1032Z" fill="#767780"/>
<path d="M41.3906 11.7299V12.5593H42.3529C43.1394 12.5593 43.3245 12.587 43.3707 12.7068C43.3985 12.7897 43.4262 13.8772 43.4262 15.1213C43.4262 16.3747 43.454 17.4898 43.4818 17.6004C43.5373 17.8031 43.5835 17.8123 44.3608 17.8123H45.1843V15.3333C45.1843 13.9693 45.212 12.7897 45.2398 12.7068C45.2861 12.587 45.4711 12.5593 46.3039 12.5593H47.3124V11.7299V10.9005H44.3515H41.3906V11.7299Z" fill="#767780"/>
<path d="M53.3817 11.048C53.3077 11.2323 53.3077 17.3331 53.3817 17.6004C53.4372 17.8031 53.4927 17.8123 54.2237 17.8123C54.7789 17.8123 55.0472 17.7755 55.1397 17.6833C55.2323 17.5819 55.2693 17.3055 55.2693 16.6235V15.6927H55.6024C55.9817 15.6927 56.4721 16.1074 56.4721 16.4207C56.4721 16.5313 56.5276 16.6143 56.6109 16.6143C56.6849 16.6143 56.7497 16.6788 56.7497 16.7525C56.7497 16.8262 56.796 16.8907 56.8422 16.8907C56.8978 16.8907 56.9348 16.9737 56.9348 17.0751C56.9348 17.1764 56.9995 17.287 57.0736 17.3147C57.1476 17.3515 57.2124 17.4068 57.2124 17.4621C57.2124 17.7294 57.4992 17.8123 58.406 17.8123H59.3405V17.5819C59.3405 17.4529 59.3035 17.3515 59.2572 17.3515C59.211 17.3515 59.1462 17.2502 59.1184 17.1211C59.0814 16.9921 59.0167 16.8907 58.9704 16.8907C58.9149 16.8907 58.8779 16.8262 58.8779 16.7525C58.8779 16.6788 58.8409 16.6143 58.7946 16.6143C58.7483 16.6143 58.6836 16.5129 58.6558 16.3839C58.6188 16.2549 58.554 16.1535 58.5078 16.1535C58.4522 16.1535 58.4152 16.089 58.4152 16.0152C58.4152 15.9415 58.3505 15.877 58.2764 15.877C58.2024 15.877 58.1376 15.8217 58.1376 15.748C58.1376 15.6743 58.0821 15.6005 58.0266 15.5821C57.8971 15.536 58.4245 14.9554 58.591 14.9554C58.6465 14.9554 58.6928 14.9094 58.6928 14.8541C58.6928 14.7896 58.7946 14.6513 58.9241 14.5315C59.0722 14.3933 59.1554 14.2182 59.1554 14.0339C59.1554 13.8864 59.2017 13.7574 59.248 13.7574C59.3035 13.7574 59.3405 13.527 59.3405 13.2505C59.3405 12.974 59.3035 12.7437 59.248 12.7437C59.2017 12.7437 59.1554 12.6146 59.1554 12.4672C59.1554 12.2829 59.0722 12.1078 58.9241 11.9695C58.7946 11.8497 58.6928 11.7115 58.6928 11.647C58.6928 11.5917 58.628 11.5456 58.554 11.5456C58.48 11.5456 58.4152 11.4995 58.4152 11.4534C58.4152 11.3982 58.369 11.3613 58.3134 11.3613C58.2579 11.3613 58.1561 11.2968 58.0821 11.2231C57.9988 11.1493 57.8138 11.0848 57.6657 11.0848C57.5177 11.0848 57.3974 11.0387 57.3974 10.9927C57.3974 10.9374 56.6757 10.9005 55.4173 10.9005C53.6963 10.9005 53.428 10.9189 53.3817 11.048ZM56.9348 12.6515C56.9348 12.6976 56.9995 12.7437 57.0736 12.7437C57.1476 12.7437 57.2124 12.7989 57.2124 12.8727C57.2124 12.9464 57.2586 13.0201 57.3234 13.0386C57.3789 13.057 57.4252 13.2137 57.4252 13.3888C57.4252 13.5639 57.3789 13.7205 57.3234 13.739C57.2586 13.7574 57.2124 13.8311 57.2124 13.9048C57.2124 13.9786 57.1476 14.0339 57.0736 14.0339C56.9995 14.0339 56.9348 14.0707 56.9348 14.126C56.9348 14.1813 56.5924 14.2182 56.102 14.2182H55.2693V13.3888V12.5593H56.102C56.5924 12.5593 56.9348 12.5962 56.9348 12.6515Z" fill="#767780"/>
<path d="M67.0205 11.0387C67.0205 11.1125 66.9835 11.177 66.9279 11.177C66.8817 11.177 66.8354 11.3244 66.8354 11.4995C66.8354 11.6746 66.7984 11.8221 66.7429 11.8221C66.6966 11.8221 66.6319 11.9235 66.5948 12.0525C66.5671 12.1815 66.5023 12.2829 66.4561 12.2829C66.4098 12.2829 66.3728 12.4027 66.3728 12.5501C66.3728 12.6976 66.308 12.8819 66.234 12.9648C66.16 13.0386 66.0952 13.186 66.0952 13.2874C66.0952 13.398 66.0582 13.4809 66.0119 13.4809C65.9657 13.4809 65.9009 13.6007 65.8639 13.7574C65.8269 13.9048 65.7621 14.0339 65.7158 14.0339C65.6696 14.0339 65.6326 14.1629 65.6326 14.3195C65.6326 14.4762 65.5678 14.6605 65.4938 14.7343C65.4197 14.8172 65.355 14.9554 65.355 15.0568C65.355 15.149 65.318 15.2319 65.2624 15.2319C65.2162 15.2319 65.1699 15.3333 65.1699 15.4531C65.1699 15.5821 65.1051 15.7388 65.0311 15.8217C64.9571 15.8954 64.8923 16.0429 64.8923 16.1443C64.8923 16.2549 64.8553 16.3378 64.7998 16.3378C64.7535 16.3378 64.7073 16.4392 64.7073 16.5682C64.7073 16.6972 64.6425 16.8262 64.5685 16.8539C64.4667 16.8907 64.4297 17.0474 64.4297 17.3607V17.8123H65.2162C66.0767 17.8123 66.3728 17.6741 66.3728 17.287C66.3728 17.1672 66.419 17.0751 66.4653 17.0751C66.5208 17.0751 66.5578 16.9737 66.5578 16.8447V16.6143H67.9828H69.3985L69.4632 16.9829C69.491 17.1856 69.565 17.3515 69.6113 17.3515C69.6668 17.3515 69.7038 17.4529 69.7038 17.5819V17.8123H70.6753H71.6469V17.4437C71.6469 17.2409 71.6099 17.0751 71.5544 17.0751C71.5081 17.0751 71.4433 16.9737 71.4063 16.8447C71.3786 16.7156 71.3138 16.6143 71.2768 16.6143C71.2398 16.6143 71.1842 16.4484 71.1472 16.2456C71.1195 16.0429 71.0455 15.877 70.9992 15.877C70.9437 15.877 70.9067 15.7756 70.9067 15.6466C70.9067 15.5176 70.8696 15.4162 70.8141 15.4162C70.7679 15.4162 70.7031 15.2688 70.6661 15.0937C70.6383 14.9186 70.5736 14.7711 70.5273 14.7711C70.481 14.7711 70.444 14.6605 70.444 14.5315C70.444 14.4025 70.3792 14.2366 70.3052 14.1629C70.2312 14.0799 70.1664 13.9417 70.1664 13.8403C70.1664 13.7482 70.1294 13.6652 70.0739 13.6652C70.0276 13.6652 69.9814 13.5639 69.9814 13.4441C69.9814 13.315 69.9166 13.1584 69.8426 13.0754C69.7686 13.0017 69.7038 12.8542 69.7038 12.7529C69.7038 12.6423 69.6668 12.5593 69.6113 12.5593C69.565 12.5593 69.5002 12.4119 69.4632 12.2368C69.4355 12.0617 69.3707 11.9142 69.3244 11.9142C69.2782 11.9142 69.2412 11.7852 69.2412 11.6378C69.2412 11.4811 69.2041 11.3613 69.1486 11.3613C69.1024 11.3613 69.0376 11.2599 69.0006 11.1309C68.9451 10.9005 68.9266 10.9005 67.9828 10.9005C67.187 10.9005 67.0205 10.9281 67.0205 11.0387ZM68.0753 13.4164C68.1401 13.4809 68.2233 13.6837 68.2604 13.8772C68.2974 14.0615 68.3621 14.2182 68.4084 14.2182C68.4639 14.2182 68.5009 14.338 68.5009 14.4946C68.5009 14.6421 68.5472 14.7711 68.5935 14.7711C68.649 14.7711 68.686 14.808 68.686 14.8633C68.686 14.9186 68.3899 14.9554 67.992 14.9554C67.261 14.9554 67.1315 14.8633 67.4369 14.5499C67.5109 14.4762 67.5756 14.3103 67.5756 14.1813C67.5756 14.0523 67.6219 13.9417 67.6682 13.9417C67.7237 13.9417 67.7607 13.8588 67.7607 13.7666C67.7607 13.5639 67.8532 13.2966 67.918 13.2966C67.9365 13.2966 68.0105 13.3519 68.0753 13.4164Z" fill="#767780"/>
<path d="M76.46 14.3564V17.8123H78.9582H81.4565V16.9829V16.1535H79.9668C78.6529 16.1535 78.4586 16.135 78.3475 15.9876C78.255 15.8678 78.2272 15.3056 78.218 13.5731C78.218 12.3289 78.1902 11.2231 78.1625 11.1032C78.107 10.9097 78.0607 10.9005 77.2835 10.9005H76.46V14.3564Z" fill="#767780"/>
</g>
<defs>
<clipPath id="clip0_20_5941">
<rect width="82.165" height="21.8413" fill="white" transform="translate(0.123047 0.579346)"/>
</clipPath>
</defs>
</svg>
