<svg width="61" height="16" viewBox="0 0 61 16" fill="none" xmlns="http://www.w3.org/2000/svg">
<path d="M21.1217 7.5898C21.1217 3.78437 16.394 0.682445 10.5614 0.682445C4.72917 0.682445 0.0012938 3.78437 0.0012938 7.5898C0.0012938 7.68793 0 7.95962 0 7.99415C0 12.0311 4.13245 15.3008 10.5599 15.3008C17.0273 15.3008 21.1217 12.032 21.1217 7.99495V7.5898Z" fill="#091B3D" fill-opacity="0.4"/>
<path d="M20.7161 7.58668C20.7161 11.1742 16.1699 14.0824 10.562 14.0824C4.95386 14.0824 0.408203 11.1742 0.408203 7.58668C0.408203 3.9988 4.95386 1.09044 10.562 1.09044C16.1699 1.09044 20.7161 3.9988 20.7161 7.58668Z" fill="#BFBFBF"/>
<path d="M7.19008 5.53729C7.18461 5.54754 7.0834 5.65234 7.14898 5.73653C7.30941 5.94124 7.80412 6.05858 8.30461 5.94642C8.60267 5.87944 8.98442 5.57551 9.35464 5.28203C9.7556 4.96336 10.1536 4.6444 10.5535 4.51752C10.977 4.38277 11.2483 4.44049 11.4275 4.49483C11.6243 4.55344 11.8554 4.68292 12.2243 4.95968C12.919 5.48196 15.7131 7.92049 16.1956 8.34225C16.5843 8.1665 18.3118 7.42279 20.6599 6.90519C20.456 5.65343 19.6943 4.50836 18.5397 3.57059C16.9306 4.24653 14.9636 4.59922 13.0401 3.65996C13.0304 3.65588 11.9893 3.16316 10.9625 3.18744C9.43664 3.22277 8.77573 3.88328 8.07581 4.5825L7.19008 5.53729Z" fill="white"/>
<path d="M16.0843 8.60682C16.0517 8.57767 12.7992 5.732 12.0626 5.17817C11.6362 4.85842 11.399 4.77681 11.15 4.74516C11.0204 4.72835 10.8411 4.75243 10.716 4.78666C10.3733 4.87991 9.92517 5.17957 9.52729 5.49504C9.11518 5.82316 8.72695 6.13217 8.36639 6.21288C7.90611 6.31608 7.34373 6.19427 7.08717 6.02081C6.98297 5.95094 6.90992 5.87013 6.87469 5.78803C6.78005 5.56819 6.955 5.39254 6.98357 5.36308L7.88103 4.39237C7.98513 4.28827 8.09032 4.18407 8.1979 4.08147C7.9082 4.11919 7.64069 4.19313 7.38015 4.26568C7.05502 4.35714 6.74223 4.44402 6.42586 4.44392C6.2937 4.44392 5.58581 4.32788 5.45156 4.29136C4.63938 4.06903 3.92652 3.85257 2.86166 3.35557C1.58602 4.30529 0.732639 5.49286 0.486328 6.80094C0.669444 6.84951 0.965018 6.93738 1.08892 6.96495C3.97618 7.60695 4.87564 8.26836 5.03865 8.40619C5.2153 8.20994 5.46997 8.08544 5.7544 8.08544C6.07406 8.08584 6.36187 8.24636 6.53672 8.49437C6.70222 8.3639 6.93022 8.25224 7.225 8.25234C7.35885 8.25234 7.49788 8.27712 7.63811 8.32479C7.96363 8.43655 8.13172 8.6534 8.2191 8.84955C8.32827 8.80029 8.46273 8.76397 8.62086 8.76436C8.77631 8.76436 8.93803 8.79979 9.10104 8.87035C9.63338 9.09875 9.71637 9.62173 9.66791 10.016C9.70592 10.0114 9.74404 10.0099 9.78275 10.0099C10.4139 10.0102 10.9271 10.5232 10.9271 11.1547C10.9271 11.3501 10.8772 11.5339 10.7904 11.695C10.962 11.7917 11.3998 12.0102 11.7842 11.9615C12.0912 11.9225 12.2077 11.8178 12.2496 11.7587C12.2782 11.7182 12.3085 11.6708 12.2801 11.6368L11.4655 10.7318C11.4655 10.7318 11.3314 10.6049 11.3758 10.5558C11.4217 10.5055 11.5043 10.5776 11.5632 10.6269C11.9779 10.9731 12.484 11.4958 12.484 11.4958C12.4925 11.5013 12.5262 11.5673 12.7133 11.6009C12.8746 11.6297 13.1597 11.6131 13.3573 11.4511C13.4071 11.41 13.4569 11.3585 13.4985 11.3061C13.4954 11.3083 13.4925 11.3121 13.4896 11.3134C13.6979 11.0466 13.4664 10.7769 13.4664 10.7769L12.5152 9.7089C12.5152 9.7089 12.3793 9.58321 12.4254 9.53256C12.4669 9.48867 12.5544 9.55485 12.6139 9.60441C12.9152 9.85629 13.3408 10.2834 13.7483 10.6827C13.8277 10.7412 14.1865 10.9626 14.6608 10.6509C14.9491 10.4623 15.0068 10.2301 14.9987 10.055C14.9787 9.82335 14.7977 9.65805 14.7977 9.65805L13.4985 8.35195C13.4985 8.35195 13.3614 8.23462 13.41 8.17531C13.4494 8.12555 13.5388 8.1974 13.597 8.24636C14.011 8.59259 15.1315 9.61974 15.1315 9.61974C15.1472 9.63108 15.5344 9.90665 16.0128 9.60212C16.1839 9.49275 16.2931 9.32784 16.3024 9.13647C16.3188 8.80407 16.0843 8.60682 16.0843 8.60682Z" fill="white"/>
<path d="M9.78265 10.2629C9.58122 10.2605 9.36069 10.3802 9.33183 10.3628C9.3161 10.3521 9.34427 10.2713 9.36318 10.2247C9.38248 10.1782 9.6478 9.37992 9.00112 9.10275C8.50621 8.89008 8.20397 9.12923 8.09987 9.23721C8.07251 9.26567 8.06037 9.26328 8.05728 9.22715C8.04733 9.08355 7.98304 8.69462 7.5557 8.56455C6.94545 8.37736 6.55294 8.8036 6.45332 8.95726C6.40884 8.60944 6.11456 8.33934 5.7542 8.33894C5.36279 8.33854 5.04542 8.65571 5.04492 9.04712C5.04482 9.43843 5.36199 9.7557 5.7536 9.7557C5.94368 9.7563 6.11635 9.68017 6.24344 9.55806C6.24742 9.56154 6.24901 9.56831 6.24692 9.58184C6.21716 9.7571 6.16233 10.394 6.82911 10.6532C7.09662 10.7569 7.32402 10.6798 7.51251 10.5476C7.56894 10.5079 7.57789 10.5245 7.56993 10.5775C7.54575 10.7414 7.5763 11.092 8.06793 11.2912C8.44202 11.4431 8.66335 11.2874 8.80835 11.1535C8.87145 11.0957 8.88877 11.1053 8.89195 11.1943C8.90977 11.6685 9.30356 12.0447 9.78166 12.045C10.2742 12.0453 10.6733 11.647 10.6738 11.1548C10.6741 10.6622 10.2751 10.2683 9.78265 10.2629Z" fill="white"/>
<path d="M9.78076 11.9815C9.33432 11.981 8.97147 11.6345 8.95515 11.1924C8.95375 11.1543 8.94997 11.0536 8.86478 11.0536C8.82965 11.0536 8.7993 11.0746 8.76417 11.1061C8.66604 11.1973 8.54095 11.2896 8.35843 11.2896C8.27543 11.2896 8.18576 11.2705 8.09092 11.2316C7.61939 11.0408 7.61302 10.7169 7.63233 10.5867C7.63741 10.5519 7.6391 10.516 7.61531 10.4876L7.58655 10.4617H7.55699C7.53291 10.4617 7.50843 10.4716 7.47489 10.4953C7.33835 10.5908 7.20778 10.6374 7.07472 10.6374C7.00168 10.6374 6.92664 10.6228 6.8512 10.5939C6.2307 10.3522 6.27976 9.7663 6.31001 9.58995C6.31459 9.55432 6.30564 9.52655 6.28295 9.50814L6.23906 9.47202L6.19805 9.51143C6.07714 9.62806 5.9188 9.69166 5.75251 9.69166C5.39712 9.69136 5.10782 9.40235 5.10802 9.04717C5.10832 8.69129 5.39782 8.40278 5.7535 8.40318C6.07465 8.40318 6.34823 8.64481 6.38933 8.96566L6.41123 9.13873L6.50627 8.99243C6.51702 8.97512 6.77736 8.58132 7.25635 8.58181C7.34731 8.58181 7.44145 8.59644 7.5361 8.6257C7.91775 8.74224 7.98244 9.08837 7.99249 9.23247C7.99926 9.31667 8.05907 9.32045 8.07072 9.32045C8.10366 9.32045 8.12804 9.29975 8.14516 9.28144C8.21721 9.2063 8.37415 9.0814 8.61976 9.0814C8.73192 9.0816 8.85155 9.10817 8.97505 9.16142C9.58172 9.42166 9.30655 10.1925 9.30327 10.2007C9.25102 10.3285 9.24913 10.3848 9.29809 10.4175L9.32207 10.4286H9.33949C9.36696 10.4286 9.40099 10.4169 9.45712 10.3978C9.53972 10.3693 9.66442 10.3262 9.78086 10.3265H9.78116C10.238 10.3317 10.6094 10.7033 10.6091 11.1548C10.6085 11.611 10.237 11.9815 9.78076 11.9815ZM16.208 8.26644C15.2064 7.39196 12.891 5.37917 12.2641 4.90835C11.9057 4.63905 11.6614 4.49673 11.4469 4.43274C11.3504 4.40368 11.2172 4.37054 11.0456 4.37034C10.8858 4.37034 10.7147 4.39921 10.5358 4.45613C10.1307 4.58431 9.72692 4.90526 9.3364 5.21556L9.3163 5.23149C8.95246 5.52059 8.57647 5.81975 8.29205 5.88324C8.16795 5.91121 8.04026 5.92574 7.91268 5.92574C7.59421 5.92524 7.3079 5.83348 7.20052 5.69644C7.1828 5.67385 7.19425 5.63713 7.23565 5.58448L7.24102 5.57742L8.12227 4.6277C8.81273 3.93743 9.46469 3.28578 10.9653 3.25115C10.9903 3.25055 11.0156 3.25015 11.0405 3.25015C11.9745 3.25075 12.9084 3.66893 13.0131 3.7174C13.8891 4.14443 14.7932 4.36159 15.7022 4.36238C16.6493 4.36268 17.6265 4.12821 18.6541 3.655C18.5394 3.55836 18.4198 3.46462 18.2969 3.37236C17.3943 3.76377 16.5343 3.96162 15.7048 3.96122C14.8573 3.96052 14.0102 3.757 13.1882 3.35594C13.1449 3.33524 12.1137 2.84909 11.041 2.84849C11.0129 2.84849 10.9842 2.84909 10.9562 2.84939C9.69557 2.87884 8.9854 3.32668 8.508 3.71879C8.04355 3.72994 7.64288 3.84209 7.2864 3.94161C6.96834 4.02999 6.69356 4.10682 6.42556 4.10652C6.31529 4.10652 6.11655 4.09647 6.09863 4.09587C5.79052 4.08641 4.23841 3.70565 3.00348 3.23831C2.87738 3.32748 2.75607 3.41963 2.63794 3.51348C3.92791 4.04243 5.49784 4.45145 5.99324 4.4836C6.13098 4.49255 6.27797 4.50818 6.42496 4.50848C6.75278 4.50848 7.0796 4.41642 7.39647 4.32795C7.58337 4.2753 7.78987 4.21828 8.00662 4.17668C7.9488 4.23341 7.89108 4.29113 7.83326 4.34944L6.93758 5.31797C6.86693 5.38903 6.71426 5.57901 6.81498 5.81288C6.85508 5.90723 6.93649 5.99739 7.05024 6.07422C7.26381 6.21783 7.64587 6.31496 8.00075 6.31526C8.1353 6.31526 8.26269 6.30192 8.37992 6.27555C8.75521 6.19125 9.14891 5.87777 9.566 5.54617C9.89839 5.28204 10.3706 4.94676 10.7322 4.84834C10.833 4.82077 10.9569 4.80385 11.0568 4.80385C11.0866 4.80405 11.1145 4.80495 11.1409 4.80863C11.3796 4.83898 11.6106 4.92029 12.0229 5.2297C12.7577 5.78183 16.0106 8.6271 16.0422 8.65526C16.0447 8.65715 16.2518 8.83609 16.2374 9.13345C16.2297 9.29915 16.1376 9.44654 15.9776 9.54885C15.8388 9.63662 15.6955 9.68161 15.5506 9.68161C15.3332 9.68111 15.1836 9.5792 15.1739 9.57233C15.162 9.56258 14.0476 8.54071 13.6376 8.19757C13.5722 8.14343 13.5089 8.09477 13.4445 8.09477C13.4102 8.09447 13.3799 8.1091 13.3594 8.13487C13.2949 8.21429 13.3671 8.32436 13.4522 8.39671L14.7543 9.70519C14.7558 9.70678 14.9162 9.85726 14.9339 10.0579C14.944 10.2748 14.8405 10.4561 14.6249 10.5977C14.4712 10.6986 14.3156 10.75 14.1634 10.75C13.9636 10.75 13.8232 10.6589 13.7923 10.6374L13.6054 10.4534C13.2641 10.1175 12.9117 9.77038 12.6539 9.55502C12.591 9.50277 12.5237 9.4546 12.4596 9.4546C12.4283 9.4546 12.3996 9.46634 12.3777 9.48933C12.3482 9.52208 12.3279 9.58089 12.4011 9.67832C12.4312 9.71843 12.4667 9.75167 12.4667 9.75167L13.4169 10.8183C13.4248 10.8279 13.6127 11.0511 13.4381 11.2738L13.4048 11.3162C13.3763 11.3479 13.3456 11.3767 13.3164 11.4012C13.1545 11.5344 12.9379 11.5487 12.8523 11.5487C12.8063 11.5487 12.7621 11.5446 12.7236 11.5378C12.63 11.5209 12.567 11.4948 12.5367 11.4586L12.525 11.447C12.4732 11.393 11.9943 10.9044 11.5981 10.5737C11.5458 10.5299 11.4809 10.4746 11.4134 10.4746C11.3802 10.4746 11.3504 10.4876 11.3277 10.513C11.2492 10.599 11.3671 10.7272 11.417 10.7743L12.2273 11.6677C12.2263 11.6759 12.2159 11.6944 12.1963 11.7227C12.1672 11.7625 12.069 11.8607 11.775 11.898C11.74 11.9023 11.7036 11.9043 11.6678 11.9043C11.3646 11.9043 11.0415 11.7572 10.8748 11.6687C10.9505 11.5085 10.9898 11.3323 10.9898 11.1551C10.9903 10.4882 10.4487 9.94603 9.78186 9.94543C9.76772 9.94543 9.7526 9.94603 9.73817 9.94653C9.76006 9.642 9.71707 9.06558 9.12532 8.81161C8.95515 8.73786 8.78517 8.70044 8.62006 8.70044C8.49089 8.70044 8.36669 8.72254 8.24945 8.76742C8.12704 8.52927 7.92343 8.35571 7.65781 8.26504C7.51122 8.21429 7.36522 8.18871 7.2242 8.18871C6.97799 8.18871 6.75109 8.26096 6.54866 8.40497C6.3549 8.16413 6.06191 8.02112 5.7535 8.02112C5.4838 8.02112 5.22416 8.1292 5.03188 8.31958C4.7798 8.12711 3.77933 7.49158 1.10195 6.88371C0.972281 6.85435 0.674717 6.76897 0.492298 6.71562C0.462044 6.86052 0.439055 7.00712 0.423828 7.155C0.423828 7.155 0.917744 7.27323 1.01488 7.29493C3.74997 7.90249 4.65371 8.53424 4.80657 8.65357C4.75492 8.77777 4.72795 8.91192 4.72765 9.04717C4.72735 9.61184 5.18684 10.0722 5.75231 10.0728C5.8158 10.0728 5.8786 10.0674 5.9405 10.0559C6.02559 10.4716 6.29757 10.7869 6.71357 10.9485C6.83488 10.9954 6.95799 11.0192 7.0786 11.0192C7.15653 11.0195 7.23525 11.0097 7.31198 10.9902C7.38871 11.1853 7.56177 11.4284 7.94801 11.5852C8.08325 11.6399 8.2188 11.6684 8.35056 11.6684C8.45805 11.6684 8.56334 11.6497 8.66355 11.6124C8.84876 12.0634 9.28913 12.3624 9.78046 12.3624C10.1059 12.3627 10.4185 12.2301 10.6465 11.9954C10.8414 12.104 11.2536 12.3 11.6695 12.3009C11.7235 12.3009 11.7741 12.2971 11.8245 12.2907C12.2378 12.2385 12.4303 12.0771 12.5185 11.9513C12.5344 11.9296 12.5488 11.9062 12.561 11.8822C12.6588 11.9099 12.7661 11.9328 12.8889 11.9331C13.1146 11.9331 13.3311 11.8563 13.5503 11.6969C13.7653 11.5413 13.9183 11.319 13.9402 11.1293C13.9406 11.1268 13.9413 11.1238 13.9416 11.1211C14.0138 11.1361 14.0883 11.1439 14.1627 11.1439C14.395 11.1439 14.6234 11.0713 14.8418 10.9284C15.2632 10.6521 15.3364 10.2912 15.3295 10.0552C15.4033 10.0706 15.4787 10.0786 15.5534 10.0786C15.7717 10.0786 15.9859 10.0127 16.1901 9.88254C16.4512 9.71564 16.6083 9.46008 16.632 9.16251C16.6486 8.96029 16.5983 8.75637 16.4919 8.58112C17.1977 8.27699 18.8112 7.68833 20.711 7.26029C20.6996 7.11301 20.6784 6.96751 20.6521 6.82271C18.3532 7.33284 16.6379 8.07516 16.208 8.26644Z" fill="#091B3D" fill-opacity="0.4"/>
<path d="M25.3716 3.78168V6.88798H24.1309V4.02968C24.1309 2.64178 24.8294 1.95261 26.2172 1.95261C26.8421 1.95261 27.32 2.09044 27.6692 2.36611C28.0186 2.0996 28.4963 1.97102 29.1215 1.97102C30.5094 1.97102 31.1986 2.66019 31.1894 4.04799V6.90649H30.5551C30.1508 6.87873 29.9487 6.68586 29.9487 6.29982V3.79999C29.9211 3.29443 29.6452 3.04623 29.1031 3.04623C28.5609 3.04623 28.2849 3.29443 28.276 3.79999V6.88798H27.0444V3.78168C27.0166 3.27602 26.7412 3.02792 26.1989 3.02792C25.6565 3.02792 25.3807 3.27602 25.3716 3.78168Z" fill="#091B3D" fill-opacity="0.4"/>
<path d="M37.1816 4.39784C37.2184 2.82613 37.9949 1.95255 39.6218 1.95255H39.9908V3.22082L39.4227 3.23306C38.7425 3.23306 38.4224 3.67165 38.4224 4.37933V6.90683H37.1816V4.39784Z" fill="#091B3D" fill-opacity="0.4"/>
<path d="M48.4663 4.85189V4.45401C48.1813 4.57354 47.8504 4.6223 47.492 4.69575C47.0049 4.7877 46.7566 5.01749 46.7566 5.37586C46.7843 5.7619 46.9865 5.94561 47.3725 5.94561C48.0527 5.94561 48.4663 5.54117 48.4663 4.85189ZM46.8361 3.47743L45.6979 3.47613C45.7414 2.53687 46.2141 1.91089 47.6022 1.91089C48.9442 1.91089 49.6244 2.35206 49.6519 3.25281V4.90713C49.6519 6.24895 48.8432 6.84637 47.5287 6.93822C46.3616 7.03008 45.5527 6.4879 45.5527 5.41259C45.5803 4.24522 46.4259 3.93293 47.6575 3.81341C48.1813 3.74912 48.4479 3.59277 48.4479 3.32636C48.4203 3.05059 48.1629 2.91932 47.6575 2.91275C47.0849 2.90519 46.9005 3.24764 46.8361 3.47743Z" fill="#091B3D" fill-opacity="0.4"/>
<path d="M51.6128 4.44352C51.6037 5.42707 51.9344 5.92327 52.633 5.92327C53.3314 5.92327 53.6806 5.42707 53.6806 4.44352C53.6531 3.50604 53.3131 3.04646 52.6513 3.04646C51.9897 3.04646 51.6494 3.50604 51.6128 4.44352ZM54.8938 0.401128V4.78367C54.8938 6.24492 54.131 6.97101 52.6145 6.96186C51.1073 6.93409 50.3535 6.11624 50.3535 4.49875C50.3535 2.84443 50.9969 1.99882 52.2928 1.95284C52.8995 1.95284 53.3684 2.20104 53.6806 2.7065V1.15688L53.6835 1.02004C54.0878 0.416753 54.8938 0.401128 54.8938 0.401128Z" fill="#091B3D" fill-opacity="0.4"/>
<path d="M33.127 7.64726H33.4469V14.0862H32.2246V8.43397C32.2246 8.25055 32.6045 7.64726 33.127 7.64726Z" fill="#091B3D" fill-opacity="0.4"/>
<path d="M39.4281 13.0476C38.7295 13.0476 38.3986 12.5515 38.4078 11.568C38.4447 10.6304 38.7847 10.1709 39.4465 10.1709C40.1082 10.1709 40.4482 10.6304 40.4759 11.568C40.4759 12.5515 40.1266 13.0476 39.4281 13.0476ZM39.7864 9.07722C39.18 9.07722 38.7203 9.32542 38.4078 9.83088L38.4076 7.64742H38.2692C37.6597 7.65479 37.3394 7.98022 37.1855 8.24613V8.20414V11.9081C37.1855 13.3692 37.9484 14.0954 39.4648 14.0863C40.9723 14.0585 41.7257 13.2406 41.7257 11.6231C41.7257 9.96882 41.0823 9.1231 39.7864 9.07722Z" fill="#091B3D" fill-opacity="0.4"/>
<path d="M34.8386 3.17405C34.6828 3.00318 34.446 2.91749 34.1283 2.91749C33.9206 2.91749 33.7481 2.95272 33.6107 3.02288C33.4733 3.09324 33.3633 3.18022 33.2809 3.28402C33.1984 3.38792 33.1403 3.49789 33.1067 3.61393C33.0731 3.72997 33.0533 3.83377 33.0472 3.92542H35.1638C35.1027 3.59562 34.9942 3.34523 34.8386 3.17405ZM33.368 5.66632C33.5633 5.85581 33.8444 5.95045 34.2108 5.95045C34.4734 5.95045 34.6996 5.88487 34.8889 5.7534C35.0781 5.62213 35.1942 5.48311 35.237 5.33651H36.3825C36.1992 5.90457 35.9183 6.31091 35.5395 6.55513C35.1606 6.79955 34.7025 6.92166 34.165 6.92166C33.7924 6.92166 33.4563 6.86215 33.1571 6.74302C32.8577 6.6239 32.6043 6.45432 32.3967 6.23448C32.1889 6.01454 32.0285 5.75201 31.9156 5.44638C31.8024 5.14116 31.7461 4.80508 31.7461 4.43855C31.7461 4.08436 31.804 3.75455 31.9202 3.44892C32.0361 3.1436 32.2011 2.87947 32.4149 2.65635C32.6287 2.43343 32.8836 2.25777 33.1801 2.12949C33.4762 2.00121 33.8045 1.93712 34.165 1.93712C34.5682 1.93712 34.9194 2.01505 35.2187 2.17069C35.518 2.32644 35.764 2.53583 35.9564 2.79836C36.1488 3.0611 36.2877 3.36045 36.3734 3.69643C36.4587 4.03241 36.4893 4.38361 36.4649 4.75004H33.0472C33.0655 5.17151 33.1723 5.47713 33.368 5.66632Z" fill="#091B3D" fill-opacity="0.4"/>
<path d="M42.7447 2.90269C42.5349 2.90269 42.359 2.95056 42.217 3.0461C42.0751 3.14193 41.9594 3.26524 41.8701 3.41641C41.7806 3.56768 41.7174 3.73418 41.6803 3.9162C41.6433 4.09822 41.6248 4.27875 41.6248 4.45758C41.6248 4.63045 41.6433 4.8062 41.6803 4.98514C41.7174 5.16417 41.7775 5.32619 41.8608 5.47109C41.9442 5.61609 42.0566 5.73482 42.1986 5.82737C42.3404 5.91992 42.5133 5.9662 42.7169 5.9662C43.0316 5.9662 43.2736 5.87823 43.4434 5.70247C43.6131 5.52662 43.7195 5.29056 43.7627 4.99439H45.0308C44.9443 5.63002 44.6976 6.11429 44.2903 6.44748C43.883 6.78067 43.3616 6.94727 42.7261 6.94727C42.3683 6.94727 42.0397 6.88716 41.7404 6.76684C41.4411 6.64652 41.1866 6.47843 40.9769 6.26237C40.767 6.04651 40.6035 5.78886 40.4864 5.4896C40.3692 5.19035 40.3105 4.86183 40.3105 4.50386C40.3105 4.13365 40.3645 3.78981 40.4726 3.47194C40.5804 3.15418 40.7393 2.8796 40.9492 2.64822C41.1589 2.41683 41.4149 2.23631 41.7174 2.10673C42.0196 1.97716 42.3652 1.91237 42.754 1.91237C43.0377 1.91237 43.3107 1.94939 43.573 2.02343C43.8352 2.09748 44.0696 2.21013 44.2765 2.3613C44.4831 2.51257 44.6513 2.70066 44.7809 2.92578C44.9104 3.15119 44.9845 3.418 45.0029 3.72641H43.7165C43.63 3.17736 43.3061 2.90269 42.7447 2.90269Z" fill="#091B3D" fill-opacity="0.4"/>
<path d="M57.0299 4.99897C57.067 5.18109 57.1302 5.3446 57.2197 5.4895C57.3091 5.6346 57.4279 5.75024 57.576 5.83663C57.7242 5.92311 57.9092 5.9662 58.1313 5.9662C58.3536 5.9662 58.5401 5.92311 58.6912 5.83663C58.8424 5.75024 58.9627 5.6346 59.0522 5.4895C59.1417 5.3446 59.2049 5.18109 59.2421 4.99897C59.2791 4.81705 59.2975 4.63035 59.2975 4.43907C59.2975 4.2479 59.2791 4.0596 59.2421 3.8745C59.2049 3.68939 59.1417 3.52598 59.0522 3.38387C58.9627 3.24205 58.8424 3.12641 58.6912 3.03684C58.5401 2.94747 58.3536 2.90269 58.1313 2.90269C57.9092 2.90269 57.7242 2.94747 57.576 3.03684C57.4279 3.12641 57.3091 3.24205 57.2197 3.38387C57.1302 3.52598 57.067 3.68939 57.0299 3.8745C56.9929 4.0596 56.9744 4.2479 56.9744 4.43907C56.9744 4.63035 56.9929 4.81705 57.0299 4.99897ZM55.836 3.3978C55.9532 3.0863 56.1197 2.82098 56.3358 2.60184C56.5517 2.3829 56.8109 2.21312 57.1132 2.0928C57.4155 1.97248 57.7548 1.91237 58.1313 1.91237C58.5077 1.91237 58.8486 1.97248 59.1541 2.0928C59.4595 2.21312 59.7201 2.3829 59.9361 2.60184C60.1521 2.82098 60.3187 3.0863 60.436 3.3978C60.553 3.7094 60.6118 4.05652 60.6118 4.43907C60.6118 4.82173 60.553 5.16716 60.436 5.47567C60.3187 5.78428 60.1521 6.04801 59.9361 6.26695C59.7201 6.48609 59.4595 6.65428 59.1541 6.77141C58.8486 6.88855 58.5077 6.94727 58.1313 6.94727C57.7548 6.94727 57.4155 6.88855 57.1132 6.77141C56.8109 6.65428 56.5517 6.48609 56.3358 6.26695C56.1197 6.04801 55.9532 5.78428 55.836 5.47567C55.7188 5.16716 55.6602 4.82173 55.6602 4.43907C55.6602 4.05652 55.7188 3.7094 55.836 3.3978Z" fill="#091B3D" fill-opacity="0.4"/>
<path d="M42.4453 11.5638C42.482 9.99205 43.2586 9.11857 44.8854 9.11857H45.2545V10.3867L44.6864 10.3991C44.0062 10.3991 43.686 10.8376 43.686 11.5453V14.0728H42.4453V11.5638Z" fill="#091B3D" fill-opacity="0.4"/>
<path d="M48.6589 10.3394C48.5031 10.1684 48.2663 10.0828 47.9486 10.0828C47.7409 10.0828 47.5684 10.118 47.431 10.1881C47.2936 10.2586 47.1836 10.3456 47.1012 10.4493C47.0187 10.5532 46.9606 10.6632 46.927 10.7793C46.8934 10.8953 46.8736 10.9991 46.8675 11.0907H48.9841C48.923 10.7609 48.8145 10.5105 48.6589 10.3394ZM47.1883 12.8317C47.3836 13.0211 47.6647 13.1157 48.0311 13.1157C48.2937 13.1157 48.5199 13.0501 48.7092 12.9188C48.8984 12.7875 49.0146 12.6484 49.0574 12.5019H50.2028C50.0195 13.0699 49.7386 13.4763 49.3598 13.7205C48.9809 13.9649 48.5228 14.0869 47.9853 14.0869C47.6127 14.0869 47.2767 14.0275 46.9774 13.9083C46.678 13.7892 46.4246 13.6197 46.217 13.3998C46.0092 13.1798 45.8488 12.9173 45.7359 12.6117C45.6227 12.3065 45.5664 11.9704 45.5664 11.6038C45.5664 11.2496 45.6243 10.9198 45.7405 10.6143C45.8564 10.3089 46.0214 10.0447 46.2352 9.8217C46.449 9.59878 46.7039 9.42313 47.0004 9.29485C47.2966 9.16657 47.6248 9.10238 47.9853 9.10238C48.3885 9.10238 48.7397 9.1804 49.039 9.33605C49.3383 9.4917 49.5843 9.70109 49.7767 9.96372C49.9692 10.2264 50.108 10.5258 50.1937 10.8617C50.2791 11.1977 50.3096 11.5489 50.2852 11.9154H46.8675C46.8858 12.3368 46.9926 12.6424 47.1883 12.8317Z" fill="#091B3D" fill-opacity="0.4"/>
<path d="M35.9804 8.76074H34.7578V7.64732H35.9804V8.76074Z" fill="#091B3D" fill-opacity="0.4"/>
<path d="M35.9804 14.0859H34.7578V9.32014H35.9804V14.0859Z" fill="#091B3D" fill-opacity="0.4"/>
</svg>
