<svg width="107" height="19" viewBox="0 0 107 19" fill="none" xmlns="http://www.w3.org/2000/svg">
<path d="M33.5662 6.69339C33.6251 6.61138 33.6832 6.54614 33.7395 6.49488C33.7948 6.44362 33.8792 6.41846 33.9917 6.41846H34.6649C34.7374 6.41846 34.8 6.44548 34.8527 6.49954C34.9053 6.55359 34.9316 6.6179 34.9316 6.69246V13.261C34.9316 13.3356 34.9053 13.3999 34.8527 13.4539C34.8 13.5089 34.7374 13.5359 34.6649 13.5359H33.8628C33.7903 13.5359 33.7268 13.5089 33.6741 13.4539C33.6215 13.3999 33.5952 13.3356 33.5952 13.261V9.28521L32.3087 11.5732C32.2035 11.7428 32.081 11.8267 31.9422 11.8267H31.4269C31.289 11.8267 31.1665 11.7419 31.0604 11.5732L29.7739 9.28521V13.261C29.7739 13.3356 29.7476 13.3999 29.6949 13.4539C29.6414 13.5089 29.5797 13.5359 29.5062 13.5359H28.7051C28.6326 13.5359 28.5691 13.5089 28.5164 13.4539C28.4638 13.3999 28.4375 13.3356 28.4375 13.261V6.69339C28.4375 6.61883 28.4638 6.55452 28.5164 6.50047C28.5691 6.44642 28.6317 6.41939 28.7051 6.41939H29.3774C29.489 6.41939 29.5743 6.44455 29.6305 6.49581C29.6859 6.54707 29.7439 6.61231 29.8029 6.69432L31.6845 10.0494L33.5653 6.69432L33.5662 6.69339Z" fill="#767780"/>
<path d="M43.9975 6.50003C44.0501 6.55408 44.0773 6.61839 44.0773 6.69295V10.8607C44.0773 11.7153 43.8333 12.392 43.3443 12.8896C42.8562 13.3873 42.153 13.6371 41.2358 13.6371C40.3186 13.6371 39.6091 13.3901 39.1265 12.8952C38.6447 12.4003 38.4043 11.7228 38.4043 10.8607V6.69295C38.4043 6.61839 38.4306 6.55408 38.4841 6.50003C38.5377 6.44597 38.5994 6.41895 38.6719 6.41895H39.4739C39.5465 6.41895 39.6091 6.44597 39.6617 6.50003C39.7144 6.55408 39.7416 6.61839 39.7416 6.69295V10.8104C39.7416 11.3463 39.8731 11.7396 40.1371 11.9893C40.4012 12.24 40.7668 12.3659 41.2358 12.3659C41.7049 12.3659 42.0741 12.24 42.3445 11.9893C42.6157 11.7396 42.7509 11.3463 42.7509 10.8104V6.69295C42.7509 6.61839 42.7772 6.55408 42.8299 6.50003C42.8825 6.44597 42.9451 6.41895 43.0186 6.41895H43.8106C43.8832 6.41895 43.9458 6.44597 43.9984 6.50003H43.9975Z" fill="#767780"/>
<path d="M52.3439 12.3463C52.3965 12.4003 52.4237 12.4647 52.4237 12.5392V13.2615C52.4237 13.336 52.3974 13.4004 52.3439 13.4544C52.2913 13.5094 52.2287 13.5364 52.1561 13.5364H47.8204C47.7478 13.5364 47.6843 13.5094 47.6317 13.4544C47.579 13.4004 47.5527 13.336 47.5527 13.2615V6.69295C47.5527 6.61839 47.579 6.55408 47.6317 6.50003C47.6843 6.44597 47.7469 6.41895 47.8204 6.41895H48.6215C48.694 6.41895 48.7567 6.44597 48.8102 6.50003C48.8628 6.55408 48.8891 6.61839 48.8891 6.69295V12.2643H52.1561C52.2287 12.2643 52.2913 12.2913 52.3439 12.3463Z" fill="#767780"/>
<path d="M59.035 6.50003C59.0877 6.55408 59.114 6.61839 59.114 6.69295V7.41429C59.114 7.48885 59.0877 7.55316 59.035 7.60721C58.9815 7.66127 58.9198 7.68829 58.8463 7.68829H57.0645V13.2606C57.0645 13.3351 57.0382 13.3994 56.9856 13.4535C56.932 13.5085 56.8703 13.5355 56.7969 13.5355H55.9948C55.9223 13.5355 55.8597 13.5085 55.807 13.4535C55.7544 13.3994 55.7281 13.3351 55.7281 13.2606V7.68829H53.9454C53.8728 7.68829 53.8102 7.66127 53.7576 7.60721C53.705 7.55316 53.6777 7.48885 53.6777 7.41429V6.69295C53.6777 6.61839 53.704 6.55408 53.7576 6.50003C53.8102 6.44597 53.8728 6.41895 53.9454 6.41895H58.8454C58.918 6.41895 58.9806 6.44597 59.0341 6.50003H59.035Z" fill="#767780"/>
<path d="M62.1629 13.4543C62.1103 13.4003 62.084 13.336 62.084 13.2614V6.69285C62.084 6.6183 62.1103 6.55399 62.1629 6.49994C62.2155 6.44588 62.2781 6.41885 62.3516 6.41885H63.1527C63.2253 6.41885 63.2879 6.44588 63.3414 6.49994C63.394 6.55399 63.4204 6.6183 63.4204 6.69285V13.2614C63.4204 13.336 63.394 13.4003 63.3414 13.4543C63.2879 13.5093 63.2262 13.5363 63.1527 13.5363H62.3516C62.279 13.5363 62.2155 13.5093 62.1629 13.4543Z" fill="#767780"/>
<path d="M71.1208 6.67337C71.1807 6.50376 71.2895 6.41895 71.4483 6.41895H72.2004C72.273 6.41895 72.3356 6.44597 72.3882 6.50003C72.4408 6.55408 72.468 6.61839 72.468 6.69295C72.468 6.71997 72.4617 6.75352 72.4481 6.79453L70.2308 13.1897C70.1918 13.3118 70.1437 13.3994 70.0874 13.4544C70.0312 13.5094 69.9541 13.5364 69.8552 13.5364H69.0631C68.9643 13.5364 68.8862 13.5094 68.8309 13.4544C68.7746 13.4004 68.7266 13.3127 68.6875 13.1897L66.4702 6.79453C66.4575 6.75352 66.4512 6.71997 66.4512 6.69295C66.4512 6.61839 66.4775 6.55408 66.5301 6.50003C66.5827 6.44597 66.6453 6.41895 66.7188 6.41895H67.4709C67.6288 6.41895 67.7386 6.50376 67.7975 6.67337L69.4605 11.5234L71.1226 6.67337H71.1208Z" fill="#767780"/>
<path d="M76.8316 12.2652H80.1085C80.1811 12.2652 80.2437 12.2922 80.2972 12.3472C80.3499 12.4013 80.3762 12.4656 80.3762 12.5401V13.2624C80.3762 13.337 80.3499 13.4013 80.2972 13.4553C80.2446 13.5094 80.182 13.5374 80.1085 13.5374H75.7637C75.6912 13.5374 75.6276 13.5103 75.575 13.4553C75.5224 13.4013 75.4961 13.337 75.4961 13.2624V6.69295C75.4961 6.61839 75.5224 6.55408 75.575 6.50003C75.6276 6.44597 75.6902 6.41895 75.7637 6.41895H80.0305C80.1031 6.41895 80.1657 6.44597 80.2183 6.50003C80.2709 6.55408 80.2982 6.61839 80.2982 6.69295V7.41429C80.2982 7.48885 80.2718 7.55316 80.2183 7.60721C80.1657 7.66127 80.1031 7.68829 80.0305 7.68829H76.8325V9.30527H79.8119C79.8845 9.30527 79.9471 9.3323 80.0006 9.38635C80.0532 9.44041 80.0795 9.5047 80.0795 9.58019V10.3015C80.0795 10.3761 80.0532 10.4413 80.0006 10.4954C79.9471 10.5494 79.8854 10.5765 79.8119 10.5765H76.8325V12.2643L76.8316 12.2652Z" fill="#767780"/>
<path d="M87.691 13.3025L84.9184 9.07228V13.2615C84.9184 13.336 84.8921 13.4004 84.8395 13.4544C84.7859 13.5094 84.7243 13.5364 84.6508 13.5364H83.8497C83.7771 13.5364 83.7136 13.5094 83.661 13.4544C83.6083 13.4004 83.582 13.336 83.582 13.2615V6.69295C83.582 6.61839 83.6083 6.55408 83.661 6.50003C83.7136 6.44597 83.7762 6.41895 83.8497 6.41895H84.5428C84.6943 6.41895 84.8231 6.49723 84.9284 6.65287L87.7 10.8831V6.69388C87.7 6.61932 87.7263 6.55501 87.7799 6.50096C87.8325 6.4469 87.8951 6.41988 87.9677 6.41988H88.7697C88.8423 6.41988 88.9049 6.4469 88.9575 6.50096C89.0101 6.55501 89.0373 6.61932 89.0373 6.69388V13.2624C89.0373 13.337 89.011 13.4013 88.9575 13.4553C88.9049 13.5103 88.8423 13.5374 88.7697 13.5374H88.0765C87.925 13.5374 87.7962 13.4591 87.691 13.3034V13.3025Z" fill="#767780"/>
<path d="M98.2526 9.97712C98.2526 10.3098 98.2463 10.5605 98.2327 10.7292C98.18 11.6174 97.9124 12.308 97.4316 12.7991C96.9498 13.2903 96.2467 13.5363 95.3222 13.5363H92.8282C92.7556 13.5363 92.6921 13.5093 92.6395 13.4543C92.5869 13.4003 92.5605 13.336 92.5605 13.2614V6.69285C92.5605 6.6183 92.5869 6.55399 92.6395 6.49994C92.6921 6.44588 92.7547 6.41885 92.8282 6.41885H95.2732C96.2168 6.41885 96.9326 6.6649 97.4216 7.15605C97.9097 7.64813 98.18 8.33779 98.2327 9.22503C98.2463 9.39465 98.2526 9.64534 98.2526 9.97805V9.97712ZM93.8969 7.68913V12.2642H95.2732C95.794 12.2642 96.1886 12.1253 96.4563 11.8476C96.7239 11.5689 96.87 11.1971 96.8972 10.7283C96.9099 10.5596 96.9171 10.3089 96.9171 9.97619C96.9171 9.64347 96.9108 9.39278 96.8972 9.22316C96.8709 8.75531 96.7203 8.38346 96.4463 8.10479C96.1723 7.82707 95.7649 7.6882 95.2242 7.6882H93.8978L93.8969 7.68913Z" fill="#767780"/>
<path d="M102.847 12.2652H106.124C106.197 12.2652 106.259 12.2922 106.313 12.3472C106.365 12.4013 106.392 12.4656 106.392 12.5401V13.2624C106.392 13.337 106.365 13.4013 106.313 13.4553C106.259 13.5103 106.198 13.5374 106.124 13.5374H101.779C101.707 13.5374 101.643 13.5103 101.591 13.4553C101.538 13.4013 101.512 13.337 101.512 13.2624V6.69295C101.512 6.61839 101.538 6.55408 101.591 6.50003C101.643 6.44597 101.706 6.41895 101.779 6.41895H106.046C106.119 6.41895 106.181 6.44597 106.234 6.50003C106.287 6.55408 106.314 6.61839 106.314 6.69295V7.41429C106.314 7.48885 106.287 7.55316 106.234 7.60721C106.18 7.66127 106.119 7.68829 106.046 7.68829H102.848V9.30527H105.828C105.9 9.30527 105.963 9.3323 106.016 9.38635C106.069 9.44041 106.095 9.5047 106.095 9.58019V10.3015C106.095 10.3761 106.069 10.4413 106.016 10.4954C105.963 10.5494 105.901 10.5765 105.828 10.5765H102.848V12.2643L102.847 12.2652Z" fill="#767780"/>
<path d="M18.587 9.27002V18.4481C18.587 18.5124 18.5362 18.5646 18.4736 18.5646H9.53906L18.587 9.27002Z" fill="#BFBFBF"/>
<path d="M18.588 0.255895V9.26995L14.0635 13.9168L9.53906 9.26995L18.3947 0.173881C18.4664 0.100256 18.588 0.152446 18.588 0.255895Z" fill="#BFBFBF"/>
<path d="M0.490234 0.255895V9.26995L9.53822 18.5645L14.0627 13.9168L0.683478 0.173881C0.611806 0.100256 0.490234 0.152446 0.490234 0.255895Z" fill="#BFBFBF"/>
<path d="M0.490234 9.27005V18.4481C0.490234 18.5124 0.54104 18.5646 0.60364 18.5646H9.53822L0.490234 9.27005Z" fill="#BFBFBF"/>
<path opacity="0.2" d="M0.490234 9.91032V9.27005L9.53822 18.5646L0.490234 9.91032Z" fill="#BFBFBF"/>
<path opacity="0.2" d="M18.587 9.91029V9.27002L9.53906 18.5646L18.587 9.91029Z" fill="#BFBFBF"/>
<path opacity="0.2" d="M9.53906 9.28134L10.2122 8.56372L14.0635 13.917L9.53906 9.28134Z" fill="#4E4E4E"/>
</svg>
