<svg width="1440" height="746" viewBox="0 0 1440 746" fill="none" xmlns="http://www.w3.org/2000/svg">
<g opacity="0.14" filter="url(#filter0_f_5_5885)">
<path d="M1369 549L1414 230.132C1370.2 117.858 1275 327.179 1275 327.179C1226 457.4 1038.09 542.252 1199.5 463.341C1345.86 391.785 1369 549 1369 549Z" fill="#EB2659" fill-opacity="0.45"/>
</g>
<rect width="2.98509" height="32.3345" rx="1.49254" transform="matrix(0.701861 0.712314 -0.719138 0.694868 1339.25 269.248)" fill="url(#paint0_linear_5_5885)"/>
<rect width="7.55405" height="16.7549" rx="3.77702" transform="matrix(-0.761812 0.647799 -0.655129 -0.755517 1304.73 359.148)" fill="url(#paint1_linear_5_5885)"/>
<ellipse cx="1367" cy="396.003" rx="17" ry="16.8346" fill="url(#paint2_linear_5_5885)"/>
<ellipse cx="1373" cy="248.452" rx="8" ry="7.92219" fill="url(#paint3_linear_5_5885)"/>
<rect width="69.799" height="20.6079" rx="10.3039" transform="matrix(0.815439 -0.578843 0.586366 0.810046 59.0273 285.884)" fill="url(#paint4_linear_5_5885)"/>
<rect width="2.98801" height="40.5024" rx="1.49401" transform="matrix(0.741439 -0.67102 0.678206 0.734872 69.0322 249.468)" fill="url(#paint5_linear_5_5885)"/>
<rect width="2.98055" height="40.6036" rx="1.49027" transform="matrix(0.541593 0.840641 -0.845408 0.53412 80.3496 383.187)" fill="url(#paint6_linear_5_5885)"/>
<ellipse cx="1.00337" cy="316.811" rx="8.00337" ry="7.92552" fill="url(#paint7_linear_5_5885)"/>
<defs>
<filter id="filter0_f_5_5885" x="938.571" y="0.299194" width="672.158" height="745.43" filterUnits="userSpaceOnUse" color-interpolation-filters="sRGB">
<feFlood flood-opacity="0" result="BackgroundImageFix"/>
<feBlend mode="normal" in="SourceGraphic" in2="BackgroundImageFix" result="shape"/>
<feGaussianBlur stdDeviation="98.3645" result="effect1_foregroundBlur_5_5885"/>
</filter>
<linearGradient id="paint0_linear_5_5885" x1="0.167911" y1="2.12163e-05" x2="2.76105" y2="6.01915e-06" gradientUnits="userSpaceOnUse">
<stop stop-color="#C850C0"/>
<stop offset="1" stop-color="#4158D0"/>
</linearGradient>
<linearGradient id="paint1_linear_5_5885" x1="0.424915" y1="1.09937e-05" x2="6.98711" y2="-0.000176821" gradientUnits="userSpaceOnUse">
<stop stop-color="#C850C0"/>
<stop offset="1" stop-color="#4158D0"/>
</linearGradient>
<linearGradient id="paint2_linear_5_5885" x1="1351.91" y1="379.168" x2="1381.45" y2="379.166" gradientUnits="userSpaceOnUse">
<stop stop-color="#C850C0"/>
<stop offset="1" stop-color="#4158D0"/>
</linearGradient>
<linearGradient id="paint3_linear_5_5885" x1="1365.9" y1="240.53" x2="1379.8" y2="240.529" gradientUnits="userSpaceOnUse">
<stop stop-color="#C850C0"/>
<stop offset="1" stop-color="#4158D0"/>
</linearGradient>
<linearGradient id="paint4_linear_5_5885" x1="3.92619" y1="1.35219e-05" x2="64.5606" y2="-0.0130235" gradientUnits="userSpaceOnUse">
<stop stop-color="#C850C0"/>
<stop offset="1" stop-color="#4158D0"/>
</linearGradient>
<linearGradient id="paint5_linear_5_5885" x1="0.168076" y1="2.65757e-05" x2="2.76376" y2="1.44195e-05" gradientUnits="userSpaceOnUse">
<stop stop-color="#C850C0"/>
<stop offset="1" stop-color="#4158D0"/>
</linearGradient>
<linearGradient id="paint6_linear_5_5885" x1="0.167656" y1="2.6642e-05" x2="2.75685" y2="1.45767e-05" gradientUnits="userSpaceOnUse">
<stop stop-color="#C850C0"/>
<stop offset="1" stop-color="#4158D0"/>
</linearGradient>
<linearGradient id="paint7_linear_5_5885" x1="-6.09962" y1="308.885" x2="7.80542" y2="308.885" gradientUnits="userSpaceOnUse">
<stop stop-color="#C850C0"/>
<stop offset="1" stop-color="#4158D0"/>
</linearGradient>
</defs>
</svg>
