<svg width="84" height="84" viewBox="0 0 84 84" fill="none" xmlns="http://www.w3.org/2000/svg">
<path fill-rule="evenodd" clip-rule="evenodd" d="M41.2779 54.0041C47.7181 54.0041 52.939 48.7833 52.939 42.343C52.939 35.9027 47.7181 30.6818 41.2779 30.6818C34.8376 30.6818 29.6167 35.9027 29.6167 42.343C29.6167 48.7833 34.8376 54.0041 41.2779 54.0041ZM41.2777 49.8885C45.445 49.8885 48.8232 46.5103 48.8232 42.343C48.8232 38.1758 45.445 34.7976 41.2777 34.7976C37.1105 34.7976 33.7323 38.1758 33.7323 42.343C33.7323 46.5103 37.1105 49.8885 41.2777 49.8885Z" fill="url(#paint0_linear_1_4346)"/>
<path fill-rule="evenodd" clip-rule="evenodd" d="M63.2281 28.624C67.3953 28.624 70.7735 25.2458 70.7735 21.0785C70.7735 16.9113 67.3953 13.5331 63.2281 13.5331C59.0608 13.5331 55.6826 16.9113 55.6826 21.0785C55.6826 25.2458 59.0608 28.624 63.2281 28.624ZM63.2281 24.5083C65.1223 24.5083 66.6579 22.9727 66.6579 21.0785C66.6579 19.1843 65.1223 17.6488 63.2281 17.6488C61.3339 17.6488 59.7984 19.1843 59.7984 21.0785C59.7984 22.9727 61.3339 24.5083 63.2281 24.5083Z" fill="url(#paint1_linear_1_4346)"/>
<path fill-rule="evenodd" clip-rule="evenodd" d="M20.6993 71.8388C24.8665 71.8388 28.2447 68.4606 28.2447 64.2934C28.2447 60.1261 24.8665 56.7479 20.6993 56.7479C16.532 56.7479 13.1538 60.1261 13.1538 64.2934C13.1538 68.4606 16.532 71.8388 20.6993 71.8388ZM20.6992 67.7231C22.5934 67.7231 24.129 66.1876 24.129 64.2934C24.129 62.3992 22.5934 60.8636 20.6992 60.8636C18.805 60.8636 17.2695 62.3992 17.2695 64.2934C17.2695 66.1876 18.805 67.7231 20.6992 67.7231Z" fill="url(#paint2_linear_1_4346)"/>
<path fill-rule="evenodd" clip-rule="evenodd" d="M63.9141 71.8388C68.0813 71.8388 71.4596 68.4606 71.4596 64.2934C71.4596 60.1261 68.0813 56.7479 63.9141 56.7479C59.7469 56.7479 56.3687 60.1261 56.3687 64.2934C56.3687 68.4606 59.7469 71.8388 63.9141 71.8388ZM63.9141 67.7231C65.8083 67.7231 67.3438 66.1876 67.3438 64.2934C67.3438 62.3992 65.8083 60.8636 63.9141 60.8636C62.0199 60.8636 60.4843 62.3992 60.4843 64.2934C60.4843 66.1876 62.0199 67.7231 63.9141 67.7231Z" fill="url(#paint3_linear_1_4346)"/>
<path fill-rule="evenodd" clip-rule="evenodd" d="M20.6993 28.624C24.8665 28.624 28.2447 25.2458 28.2447 21.0785C28.2447 16.9113 24.8665 13.5331 20.6993 13.5331C16.532 13.5331 13.1538 16.9113 13.1538 21.0785C13.1538 25.2458 16.532 28.624 20.6993 28.624ZM20.6992 24.5083C22.5934 24.5083 24.129 22.9727 24.129 21.0785C24.129 19.1843 22.5934 17.6488 20.6992 17.6488C18.805 17.6488 17.2695 19.1843 17.2695 21.0785C17.2695 22.9727 18.805 24.5083 20.6992 24.5083Z" fill="url(#paint4_linear_1_4346)"/>
<circle cx="76.9469" cy="42.343" r="6.8595" fill="#EB2659"/>
<circle cx="41.9635" cy="76.6405" r="6.8595" fill="#EB2659"/>
<circle cx="41.9635" cy="7.3595" r="6.8595" fill="#EB2659"/>
<circle cx="7.66614" cy="42.343" r="6.8595" fill="#EB2659"/>
<circle cx="62.5421" cy="42.343" r="3.42975" fill="#EB2659"/>
<circle cx="41.9634" cy="62.9215" r="3.42975" fill="#EB2659"/>
<circle cx="22.0709" cy="42.343" r="3.42975" fill="#EB2659"/>
<circle cx="52.9388" cy="32.0537" r="1.3719" fill="#EB2659"/>
<circle cx="31.6746" cy="53.3182" r="1.3719" fill="#EB2659"/>
<circle cx="52.9388" cy="53.3182" r="1.3719" fill="#EB2659"/>
<circle cx="31.6746" cy="32.0537" r="1.3719" fill="#EB2659"/>
<circle cx="56.3684" cy="28.624" r="2.05785" fill="#EB2659"/>
<circle cx="28.2449" cy="56.062" r="2.05785" fill="#EB2659"/>
<circle cx="56.3684" cy="56.062" r="2.05785" fill="#EB2659"/>
<circle cx="28.2449" cy="28.624" r="2.05785" fill="#EB2659"/>
<circle cx="41.9634" cy="22.4504" r="3.42975" fill="#EB2659"/>
<defs>
<linearGradient id="paint0_linear_1_4346" x1="26.5299" y1="27.938" x2="52.939" y2="55.0331" gradientUnits="userSpaceOnUse">
<stop stop-color="#C850C0"/>
<stop offset="1" stop-color="#4158D0"/>
</linearGradient>
<linearGradient id="paint1_linear_1_4346" x1="53.6853" y1="11.7577" x2="70.7735" y2="29.2898" gradientUnits="userSpaceOnUse">
<stop stop-color="#C850C0"/>
<stop offset="1" stop-color="#4158D0"/>
</linearGradient>
<linearGradient id="paint2_linear_1_4346" x1="11.1565" y1="54.9725" x2="28.2447" y2="72.5046" gradientUnits="userSpaceOnUse">
<stop stop-color="#C850C0"/>
<stop offset="1" stop-color="#4158D0"/>
</linearGradient>
<linearGradient id="paint3_linear_1_4346" x1="54.3713" y1="54.9725" x2="71.4596" y2="72.5046" gradientUnits="userSpaceOnUse">
<stop stop-color="#C850C0"/>
<stop offset="1" stop-color="#4158D0"/>
</linearGradient>
<linearGradient id="paint4_linear_1_4346" x1="11.1565" y1="11.7577" x2="28.2447" y2="29.2898" gradientUnits="userSpaceOnUse">
<stop stop-color="#C850C0"/>
<stop offset="1" stop-color="#4158D0"/>
</linearGradient>
</defs>
</svg>
