<svg width="153" height="90" viewBox="0 0 153 90" fill="none" xmlns="http://www.w3.org/2000/svg">
<mask id="mask0_1_17768" style="mask-type:alpha" maskUnits="userSpaceOnUse" x="0" y="0" width="153" height="90">
<rect width="153" height="90" rx="14" fill="#767780"/>
</mask>
<g mask="url(#mask0_1_17768)">
<path d="M148.302 16.5233L142.719 25.1729C142.418 25.6407 141.808 25.7846 141.334 25.4968L110.772 7.1468C110.442 6.94531 110.004 7.06045 109.81 7.39147L104.773 16.0555C104.593 16.365 104.694 16.7535 104.995 16.9406L121.938 27.3318C122.196 27.4901 122.275 27.8283 122.117 28.0873L112.551 43.8827C112.336 44.2353 112.429 44.6886 112.76 44.9261L115.996 47.3008C116.297 47.5167 116.376 47.9341 116.182 48.2435L87.8519 94.2119C87.651 94.5358 87.2348 94.6437 86.9047 94.4638L73.3638 87.0159C72.9619 86.7928 72.4596 86.9223 72.2156 87.3109L62.2052 103.214C61.9038 103.696 61.2795 103.862 60.7772 103.588L53.7663 99.7745L52.7832 101.041L60.8848 105.668C61.4087 105.97 62.076 105.805 62.4061 105.294L72.6462 89.4337C72.9619 88.9372 73.6077 88.7789 74.1244 89.0667L87.1487 96.3779C87.5506 96.601 88.0529 96.4715 88.2897 96.0829L118.228 47.8621C118.443 47.5095 118.342 47.0561 118.005 46.8259L114.711 44.6239C114.353 44.3864 114.252 43.9115 114.475 43.5445L123.976 27.8283C124.263 27.3461 124.112 26.7273 123.631 26.4394L106.567 16.2354C106.244 16.0411 106.136 15.6166 106.33 15.2927L110.514 8.37733L141.772 27.1159C142.116 27.3246 142.568 27.2166 142.784 26.8784L149.091 17.0198L148.302 16.5233Z" fill="#F8F8F8"/>
<path d="M109.345 118.851L143.875 64.5852L142.648 63.8584L108.347 117.671L109.345 118.851Z" fill="#F8F8F8"/>
<path d="M142.733 26.1945L171.387 42.1626L172.011 40.8745L143.824 25.1079L142.733 26.1945Z" fill="#F8F8F8"/>
<path d="M120.316 32.8795L161.635 56.4393L162.266 55.1584L121.407 31.7928L120.316 32.8795Z" fill="#F8F8F8"/>
<path d="M104.327 117.31L139.475 62.3182L138.248 61.5914L103.337 116.137L104.327 117.31Z" fill="#F8F8F8"/>
<path d="M98.6666 114.878L134.733 59.1665L133.298 58.0439L97.6763 113.698L98.6666 114.878Z" fill="#F8F8F8"/>
<path d="M93.1981 111.655L129.257 55.9428L127.829 54.8203L92.2007 110.482L93.1981 111.655Z" fill="#F8F8F8"/>
<path d="M88.1332 107.69L124.192 51.9782L122.764 50.8628L87.1357 106.517L88.1332 107.69Z" fill="#F8F8F8"/>
<path d="M142.382 64.276L117.173 48.898L117.898 46.7823C117.898 46.7823 174.638 82.079 180.487 80.5247C185.122 79.2941 186.543 78.7257 194.58 70.371C203.048 61.5774 211.422 68.572 211.422 68.572V71.0403C211.422 71.0403 204.892 62.3114 196.094 71.4217C187.296 80.5319 184.821 81.9279 180.494 82.4748C176.396 82.9857 142.382 64.276 142.382 64.276Z" fill="#F8F8F8"/>
<path d="M35.4877 27.907L83.0641 28.9217C89.4794 11.1618 102.403 -17.7951 102.403 -17.7951C103.343 -18.3708 105.661 -17.5505 105.661 -17.5505C97.2581 -2.63303 88.4317 24.3666 88.4317 24.3666L97.4518 28.0582L95.909 30.4257L87.14 26.6261C87.14 26.6261 82.6981 39.8237 75.7375 53.2732C68.7768 66.7226 49.8826 78.481 49.8826 78.481C41.8312 65.9166 23.59 55.691 23.59 55.691L-8.87384 120.542H-13L22.0616 54.8275C13.0486 48.9483 0.0888863 46.7175 0.0888863 46.7175L0.0171289 45.2639C0.0171289 45.2639 10.8958 47.1421 22.7935 53.5034L30.3928 39.4639L48.4762 43.393L47.9164 44.7602L31.3544 40.9895L24.3076 54.3813C24.3076 54.3813 42.9507 64.7293 50.5572 76.5668C50.5572 76.5668 70.2407 62.0883 74.4817 52.7047C78.7227 43.321 83.6023 31.1525 83.6023 31.1525C83.6023 31.1525 62.4836 29.519 35.2796 29.8428L35.4877 27.907Z" fill="#F8F8F8"/>
<path d="M-9.52203 116.149C-8.95345 116.832 -7.88104 116.736 -7.45528 115.956C-3.74547 109.165 10.9833 82.2997 23.3745 61.1056C24.0222 59.9978 25.5304 59.7833 26.4652 60.6625L48.3073 81.206C49.1331 81.9828 50.4387 81.9185 51.1842 81.0644L95.0253 30.8392C95.7225 30.0404 96.9218 29.9246 97.7591 30.575L112.244 41.8287C113.09 42.486 114.304 42.3599 114.997 41.5426L115.602 40.8286C116.382 39.9083 116.176 38.512 115.163 37.8564L98.9206 27.3412C96.8221 25.9827 94.0427 26.3828 92.4126 28.2781L51.1586 76.2428C50.4247 77.096 49.1317 77.176 48.2983 76.4198L25.562 55.7885C24.607 54.9219 23.1097 55.1435 22.485 56.2716C16.8596 66.4316 -6.63797 108.9 -9.69539 114.935C-9.90412 115.347 -9.8177 115.794 -9.52203 116.149Z" fill="url(#paint0_linear_1_17768)"/>
<path d="M112.719 56.5111C121.804 56.5111 129.17 49.146 129.17 40.0606C129.17 30.9752 121.804 23.6101 112.719 23.6101C103.634 23.6101 96.2686 30.9752 96.2686 40.0606C96.2686 49.146 103.634 56.5111 112.719 56.5111Z" fill="url(#paint1_linear_1_17768)"/>
<path d="M112.719 53.6081C120.201 53.6081 126.266 47.5427 126.266 40.0606C126.266 32.5785 120.201 26.5131 112.719 26.5131C105.237 26.5131 99.1714 32.5785 99.1714 40.0606C99.1714 47.5427 105.237 53.6081 112.719 53.6081Z" fill="#FCFCFC"/>
<path d="M112.579 51.9511C119.385 51.9511 124.903 46.5823 124.903 39.9595C124.903 33.3367 119.385 27.9679 112.579 27.9679C105.772 27.9679 100.254 33.3367 100.254 39.9595C100.254 46.5823 105.772 51.9511 112.579 51.9511Z" fill="url(#paint2_linear_1_17768)"/>
<path d="M111.084 41.7236L109.521 37.0728C109.381 36.6539 108.847 36.5311 108.537 36.8462L106.799 38.6149C106.645 38.7711 106.59 38.9995 106.656 39.2085L108.379 44.6624C108.441 44.8595 108.601 45.0098 108.802 45.0592L114.096 46.3625C114.314 46.4161 114.544 46.342 114.689 46.1711L116.437 44.1169C116.725 43.7778 116.551 43.2537 116.117 43.1554L111.514 42.1127C111.313 42.067 111.15 41.9196 111.084 41.7236Z" fill="white"/>
<path d="M110.91 34.154L109.826 35.3016C109.676 35.461 109.626 35.6905 109.696 35.8982L111.496 41.2174C111.563 41.4138 111.727 41.5611 111.929 41.6059L117.288 42.7922C117.495 42.8379 117.71 42.7698 117.853 42.6135L118.863 41.5087C119.005 41.3534 119.054 41.1345 118.992 40.9336L117.355 35.6553C117.293 35.4544 117.129 35.3016 116.924 35.2539L111.475 33.9839C111.27 33.936 111.055 34.0008 110.91 34.154Z" fill="white"/>
</g>
<defs>
<linearGradient id="paint0_linear_1_17768" x1="116.493" y1="-14.9458" x2="-5.4952" y2="144.129" gradientUnits="userSpaceOnUse">
<stop stop-color="#FFCC70"/>
<stop offset="0.503073" stop-color="#C850C0"/>
<stop offset="1" stop-color="#4158D0"/>
</linearGradient>
<linearGradient id="paint1_linear_1_17768" x1="104.503" y1="19.5043" x2="121.717" y2="56.4937" gradientUnits="userSpaceOnUse">
<stop stop-color="#C850C0" stop-opacity="0.24"/>
<stop offset="1" stop-color="#4158D0" stop-opacity="0.24"/>
</linearGradient>
<linearGradient id="paint2_linear_1_17768" x1="112.579" y1="27.9679" x2="112.579" y2="51.9511" gradientUnits="userSpaceOnUse">
<stop stop-color="#C850C0"/>
<stop offset="1" stop-color="#4158D0"/>
</linearGradient>
</defs>
</svg>
