<svg width="159" height="90" viewBox="0 0 159 90" fill="none" xmlns="http://www.w3.org/2000/svg">
<mask id="mask0_1_18076" style="mask-type:alpha" maskUnits="userSpaceOnUse" x="0" y="0" width="159" height="90">
<rect width="159" height="90" rx="14" fill="white"/>
</mask>
<g mask="url(#mask0_1_18076)">
<mask id="mask1_1_18076" style="mask-type:alpha" maskUnits="userSpaceOnUse" x="7" y="-18" width="172" height="108">
<rect x="7" y="-18" width="171.36" height="108" rx="21" fill="white"/>
</mask>
<g mask="url(#mask1_1_18076)">
<path d="M148.611 76.4612C148.611 76.4612 132.382 75.2421 129.877 62.8079C127.373 50.3737 135.5 50.8125 136.089 42.7425C136.703 34.6724 137.562 28.1627 141.712 25.237C145.861 22.3113 154.749 10.1452 158.972 25.9197C163.195 41.6941 159.144 38.3539 162.434 42.7181C165.724 47.0823 171.15 61.5889 164.595 69.2932C158.015 77.0707 148.611 76.4612 148.611 76.4612Z" fill="#EAF4FF"/>
<path d="M148.587 52.5192L148.194 51.7878L156.763 47.2286C156.959 47.131 157.229 47.2042 157.327 47.3992C157.426 47.5943 157.352 47.8625 157.156 47.96L148.587 52.5192Z" fill="url(#paint0_linear_1_18076)"/>
<path d="M149.029 90.4802H148.194V42.0842C148.194 41.8648 148.39 41.6697 148.611 41.6697C148.832 41.6697 149.029 41.8648 149.029 42.0842V90.4802Z" fill="url(#paint1_linear_1_18076)"/>
<path d="M139.403 57.8341C139.575 57.6879 139.845 57.6879 139.992 57.8585L149.027 67.5133L148.414 68.0741L139.378 58.4193C139.231 58.2486 139.231 58.0048 139.403 57.8341Z" fill="url(#paint2_linear_1_18076)"/>
<path d="M213.024 75.4942H45.8883C42.0824 75.4942 39.0103 72.4283 39.0103 68.6643C39.0103 64.8851 42.0977 61.8344 45.8883 61.8344H213.04C216.846 61.8344 219.918 64.9003 219.918 68.6643C219.918 72.4283 216.83 75.4942 213.024 75.4942Z" fill="url(#paint3_linear_1_18076)"/>
<path d="M88.29 35.4558H70.2695V61.8192H88.29V35.4558Z" fill="#F1C989"/>
<path d="M71.0644 35.4558H50.9194V61.8192H71.0644V35.4558Z" fill="#EBBE73"/>
<path d="M71.0644 35.4558V37.1405L62.0313 48.5844L61.1753 49.6771L51.592 61.8192H50.9194V60.4987L60.3653 48.5388L61.2212 47.4612L70.6823 35.4558H71.0644Z" fill="white"/>
<path d="M71.0642 61.2879V61.8192H69.8109L61.1751 49.6771L60.3651 48.5388L51.0415 35.4558H52.6769L61.221 47.4612L62.0311 48.5844L71.0642 61.2879Z" fill="white"/>
<path d="M65.3023 35.4558H57.7212V38.6127H65.3023V35.4558Z" fill="white"/>
<path d="M122.85 35.28H104.83V61.6434H122.85V35.28Z" fill="#F1C989"/>
<path d="M105.624 35.28H85.4795V61.6434H105.624V35.28Z" fill="#EBBE73"/>
<path d="M105.624 35.28V36.9647L96.5913 48.4086L95.7354 49.5014L86.152 61.6434H85.4795V60.3229L94.9253 48.363L95.7812 47.2854L105.242 35.28H105.624Z" fill="white"/>
<path d="M105.624 61.1122V61.6434H104.371L95.7352 49.5014L94.9251 48.363L85.6016 35.28H87.237L95.781 47.2854L96.5911 48.4086L105.624 61.1122Z" fill="white"/>
<path d="M99.877 35.28H92.2959V38.437H99.877V35.28Z" fill="white"/>
<path d="M158.835 35.4558H140.814V61.8192H158.835V35.4558Z" fill="#F1C989"/>
<path d="M141.624 35.4558H121.479V61.8192H141.624V35.4558Z" fill="#EBBE73"/>
<path d="M141.624 35.4558V37.1405L132.591 48.5844L131.735 49.6771L122.152 61.8192H121.479V60.4987L130.925 48.5388L131.781 47.4612L141.242 35.4558H141.624Z" fill="white"/>
<path d="M141.624 61.2879V61.8192H140.371L131.735 49.6771L130.925 48.5388L121.602 35.4558H123.237L131.781 47.4612L132.591 48.5844L141.624 61.2879Z" fill="white"/>
<path d="M135.862 35.4558H128.281V38.6127H135.862V35.4558Z" fill="white"/>
<path d="M32.2799 84.3449C32.2799 84.3449 20.6486 83.4762 18.8602 74.571C17.0717 65.6659 22.8874 65.9725 23.312 60.1976C23.7494 54.4227 24.367 49.7593 27.3392 47.664C30.3113 45.5687 36.6802 36.8552 39.7167 48.1495C42.7532 59.4438 39.8453 57.0546 42.187 60.1848C44.5416 63.315 48.4401 73.7022 43.731 79.2216C39.0219 84.741 32.2799 84.3449 32.2799 84.3449Z" fill="#E8E8E8"/>
<path d="M32.2547 67.1861L31.9717 66.6622L38.109 63.3915C38.2505 63.3148 38.4435 63.3659 38.5207 63.5192C38.5979 63.6598 38.5464 63.8514 38.392 63.9281L32.2547 67.1861Z" fill="#67A4D7"/>
<path d="M32.5764 94.3872H31.9717V59.7121C31.9717 59.546 32.1003 59.4182 32.2676 59.4182C32.4349 59.4182 32.5635 59.546 32.5635 59.7121V94.3872H32.5764Z" fill="#67A4D7"/>
<path d="M25.6805 71.0063C25.7963 70.8913 25.9893 70.9041 26.1051 71.019L32.5769 77.9311L32.1394 78.3399L25.6676 71.4279C25.5518 71.3129 25.5647 71.1213 25.6805 71.0063Z" fill="#67A4D7"/>
</g>
</g>
<defs>
<linearGradient id="paint0_linear_1_18076" x1="152.782" y1="47.1855" x2="152.782" y2="52.5192" gradientUnits="userSpaceOnUse">
<stop stop-color="#C850C0"/>
<stop offset="1" stop-color="#4158D0"/>
</linearGradient>
<linearGradient id="paint1_linear_1_18076" x1="148.611" y1="41.6697" x2="148.611" y2="90.4802" gradientUnits="userSpaceOnUse">
<stop stop-color="#C850C0"/>
<stop offset="1" stop-color="#4158D0"/>
</linearGradient>
<linearGradient id="paint2_linear_1_18076" x1="144.149" y1="57.7273" x2="144.149" y2="68.0741" gradientUnits="userSpaceOnUse">
<stop stop-color="#C850C0"/>
<stop offset="1" stop-color="#4158D0"/>
</linearGradient>
<linearGradient id="paint3_linear_1_18076" x1="129.309" y1="62.7321" x2="128.945" y2="76.4025" gradientUnits="userSpaceOnUse">
<stop stop-color="#E9E9EB"/>
<stop offset="0.541667" stop-color="#F3F3F4"/>
<stop offset="1" stop-color="#E0E0E0"/>
</linearGradient>
</defs>
</svg>
