<svg width="112" height="46" viewBox="0 0 112 46" fill="none" xmlns="http://www.w3.org/2000/svg">
<circle cx="22.7175" cy="22.7176" r="21.2492" fill="#EFECEC" stroke="white" stroke-width="2.93661"/>
<circle r="20.013" transform="matrix(-1 0 0 1 22.7135 22.7175)" fill="#4158D0" fill-opacity="0.11"/>
<mask id="mask0_1_18122" style="mask-type:alpha" maskUnits="userSpaceOnUse" x="2" y="2" width="41" height="41">
<circle r="20.013" transform="matrix(-1 0 0 1 22.7135 22.7176)" fill="#EDEFF2"/>
</mask>
<g mask="url(#mask0_1_18122)">
<path d="M28.392 71.9783C30.0412 71.1676 31.6054 53.7763 31.6054 53.7763L37.3937 65.1253C37.3937 65.1253 44.6474 62.7076 44.3524 62.0577C44.0574 61.4078 42.5687 59.5419 40.6834 51.1146C38.7982 42.6873 35.5602 33.4099 27.5858 31.9957C27.5858 31.9957 26.0408 37.4381 23.8076 37.7368C21.5744 38.0356 14.1617 30.0032 14.1617 30.0032C14.1617 30.0032 3.98086 33.7067 3.80485 41.6521C3.62885 49.5975 5.15143 70.1688 5.6897 71.7085C5.6958 71.7077 14.6901 78.7025 28.392 71.9783Z" fill="#246BFD"/>
<path d="M28.6089 32.9142C28.3652 32.8102 24.4913 30.6175 24.4913 30.6175L25.629 26.4252L17.3006 21.1579C17.3006 21.1579 18.6214 27.9435 13.5599 30.6143C13.5599 30.6143 18.5596 38.8082 24.3433 38.4474C27.5037 38.0463 28.6089 32.9142 28.6089 32.9142Z" fill="url(#paint0_linear_1_18122)"/>
<path d="M28.2577 14.3416C28.2577 14.3416 27.9778 25.6423 26.829 26.827C25.6801 28.0117 20.3432 28.555 18.7103 26.1214C17.9071 24.5054 17.2016 21.0193 17.2016 21.0193C17.2016 21.0193 15.2656 20.4523 15.3732 18.6802C15.614 17.6481 16.1951 17.6045 16.6327 17.7882C17.0702 17.9718 14.0433 9.04204 22.7184 9.98371C29.1439 10.6829 28.2577 14.3416 28.2577 14.3416Z" fill="url(#paint1_linear_1_18122)"/>
<path d="M28.2412 14.9399C28.2412 14.9399 31.1266 14.9203 30.5463 12.1379C29.966 9.3555 28.1598 7.9482 23.4582 8.85361C18.7567 9.75902 17.7319 4.14186 14.4546 10.5396C14.044 12.3677 14.7416 12.4296 14.1712 13.5742C13.6008 14.7188 14.9237 18.4328 15.6044 19.1336C16.2851 19.8344 17.5286 20.6338 17.4654 18.8846C17.4022 17.1354 17.0567 14.6694 17.9327 14.0678C18.809 13.4692 18.7967 11.3343 20.2519 11.1396C21.7071 10.9449 22.6509 12.8465 24.5258 12.7012C26.4006 12.5559 27.313 14.6635 28.2412 14.9399Z" fill="#141416"/>
<path d="M21.5746 18.3479C21.3078 18.34 21.1014 18.0016 21.1136 17.5921C21.1257 17.1826 21.3518 16.8571 21.6185 16.865C21.8853 16.8729 22.0917 17.2112 22.0796 17.6207C22.0675 18.0302 21.8414 18.3558 21.5746 18.3479Z" fill="black"/>
<path d="M26.1728 18.3532C25.906 18.3453 25.6996 18.007 25.7117 17.5975C25.7238 17.188 25.9499 16.8624 26.2167 16.8703C26.4835 16.8782 26.6899 17.2166 26.6777 17.6261C26.6656 18.0356 26.4395 18.3612 26.1728 18.3532Z" fill="black"/>
<path d="M27.4852 16.8172C27.4852 16.8172 26.6842 15.8437 25.6368 15.9993C25.35 16.0377 25.1131 15.3117 25.7025 15.2142C26.2954 15.1193 27.9615 16.1293 27.4852 16.8172Z" fill="#FFA5A5"/>
<path d="M20.2997 16.7666C20.2997 16.7666 21.2918 15.6867 22.795 16.1066C22.9553 16.1442 23.068 15.1758 22.3658 15.0803C21.6602 14.9821 18.5212 15.9145 20.2997 16.7666Z" fill="#FFA5A5"/>
<path d="M24.7512 23.1454C24.7512 23.1454 22.693 23.7313 21.7657 22.7188C21.7657 22.7188 22.4899 24.7894 24.7512 23.1454Z" fill="#16056B"/>
<path d="M14.3422 40.242C14.5066 40.4498 18.9725 44.3054 19.9601 61.992L24.0376 68.7938C24.0376 68.7938 21.147 68.1247 18.7756 73.4013C18.7756 73.4013 9.7779 60.37 8.2798 54.3255" fill="#00B1FF"/>
</g>
<circle cx="55.4997" cy="22.7175" r="21.2492" fill="#EFECEC" stroke="white" stroke-width="2.93661"/>
<circle r="20.013" transform="matrix(-1 0 0 1 55.5016 22.7175)" fill="#4158D0" fill-opacity="0.05"/>
<mask id="mask1_1_18122" style="mask-type:alpha" maskUnits="userSpaceOnUse" x="35" y="2" width="41" height="41">
<circle r="20.013" transform="matrix(-1 0 0 1 55.5016 22.7176)" fill="#EDEFF2"/>
</mask>
<g mask="url(#mask1_1_18122)">
<path d="M60.2126 13.1699C60.4713 13.2475 63.4468 24.7097 58.0133 25.6152C52.5539 26.5467 50.9497 22.6397 50.9497 22.6397C50.9497 22.6397 46.9134 20.8027 48.647 18.5258C50.3805 16.2489 50.8462 10.5308 60.2126 13.1699Z" fill="#FFC9B0"/>
<path d="M50.8788 22.0844C50.5166 21.4893 51.4481 27.5696 50.7753 29.6654C50.1026 31.7612 51.1376 34.4521 54.7858 34.5556C58.434 34.6332 58.5634 30.2605 58.5375 30.1053C58.5116 29.95 56.8557 26.1466 57.7354 24.827C57.7354 24.827 53.0781 25.655 50.8788 22.0844Z" fill="#FFC9B0"/>
<path d="M74.3197 53.288L36.0522 53.288L36.0522 46.7161C36.9061 45.4482 37.941 40.5322 43.5557 35.9784C49.1703 31.4505 49.7654 30.4673 50.5675 28.6302L54.2933 31.1659L55.1471 33.7015L55.1989 33.8568L55.6646 32.8994L56.5702 31.0883L58.5514 29.8238C58.5514 29.8238 59.9079 32.0715 62.2366 33.4687C64.6428 34.84 73.4658 40.8686 74.3197 53.288Z" fill="#FDD370"/>
<path d="M55.4997 33.1775C54.8339 35.2133 54.6674 36.0981 54.4343 36.0981C53.0693 36.0981 47.0297 34.0091 47.4426 33.1908C48.1084 31.8602 48.5945 31.1949 49.0007 30.3899C50.4923 27.5623 51.1316 28.6335 52.9561 29.2655C56.8648 30.6028 56.5518 29.8709 55.4997 33.1775Z" fill="#EAEAEA"/>
<mask id="mask2_1_18122" style="mask-type:alpha" maskUnits="userSpaceOnUse" x="47" y="28" width="10" height="9">
<path d="M55.4997 33.1775C54.8339 35.2133 54.6674 36.0981 54.4343 36.0981C53.0693 36.0981 47.0297 34.0091 47.4426 33.1908C48.1084 31.8602 48.5945 31.1949 49.0007 30.3899C50.4923 27.5623 51.1316 28.6335 52.9561 29.2655C56.8648 30.6028 56.5518 29.8709 55.4997 33.1775Z" fill="#EAEAEA"/>
</mask>
<g mask="url(#mask2_1_18122)">
<path d="M49.7897 34.4351L49.6632 34.5815L49.53 34.2222L49.7231 34.2488L49.9095 34.2821L49.7897 34.4351Z" fill="#D3D3D3"/>
<path d="M50.7952 34.515L50.6753 34.6613L50.6087 34.4817L50.5421 34.2954L50.7286 34.3287L50.9217 34.3619L50.7952 34.515Z" fill="#D3D3D3"/>
<path d="M51.5609 35.6593L51.4344 35.8056L51.3678 35.626L51.3012 35.4397L51.6875 35.5062L51.5609 35.6593Z" fill="#D3D3D3"/>
<path d="M51.6542 34.7345L51.5276 34.8809L51.3945 34.5216L51.5809 34.5549L51.774 34.5815L51.6542 34.7345Z" fill="#D3D3D3"/>
<path d="M52.5331 35.0006L52.4066 35.147L52.2734 34.7877L52.4599 34.8143L52.653 34.8476L52.5331 35.0006Z" fill="#D3D3D3"/>
<path d="M52.5331 35.8389L52.4066 35.9853L52.2734 35.626L52.4599 35.6593L52.653 35.6925L52.5331 35.8389Z" fill="#D3D3D3"/>
<path d="M53.4654 34.8143L53.3455 34.9674L53.2723 34.7877L53.2057 34.6014L53.5919 34.668L53.4654 34.8143Z" fill="#D3D3D3"/>
<path d="M53.2723 35.473L53.1524 35.626L53.0858 35.4397L53.0192 35.2601L53.2057 35.2934L53.3988 35.3266L53.2723 35.473Z" fill="#D3D3D3"/>
<path d="M53.9182 35.9919L53.7916 36.1449L53.7251 35.9587L53.6585 35.779L53.8449 35.8123L54.038 35.8456L53.9182 35.9919Z" fill="#D3D3D3"/>
<path d="M54.1779 35.4065L54.0513 35.5528L53.9182 35.1936L54.1113 35.2202L54.3044 35.2534L54.1779 35.4065Z" fill="#D3D3D3"/>
<path d="M54.371 35.7391L54.2444 35.8855L54.1113 35.5262L54.3044 35.5528L54.4908 35.5861L54.371 35.7391Z" fill="#D3D3D3"/>
<path d="M54.8504 34.8143L54.7239 34.9674L54.6573 34.7877L54.5907 34.6014L54.9769 34.668L54.8504 34.8143Z" fill="#D3D3D3"/>
<path d="M54.5641 34.2156L54.4376 34.3619L54.3044 34.0027L54.4908 34.0359L54.6839 34.0625L54.5641 34.2156Z" fill="#D3D3D3"/>
<path d="M55.2965 33.4305L55.1767 33.5835L55.1101 33.3972L55.0435 33.2176L55.23 33.2509L55.4231 33.2841L55.2965 33.4305Z" fill="#D3D3D3"/>
<path d="M54.9569 32.9448L54.7838 32.8584L54.9436 32.7519L55.1034 32.6388L55.1168 32.8317L55.1367 33.0247L54.9569 32.9448Z" fill="#D3D3D3"/>
<path d="M55.2832 32.4259L55.1034 32.3461L55.2632 32.233L55.4231 32.1265L55.4364 32.3195L55.4564 32.5124L55.2832 32.4259Z" fill="#D3D3D3"/>
<path d="M47.6855 33.7964L47.8653 33.8763L48.0384 33.9494L47.8853 34.0692L47.7254 34.1823L47.6855 33.7964Z" fill="#D3D3D3"/>
<path d="M48.2049 32.1265L48.378 32.1997L48.5578 32.2795L48.4046 32.3926L48.2448 32.5124L48.2049 32.1265Z" fill="#D3D3D3"/>
<path d="M48.2049 30.909L48.378 30.9889L48.5578 31.062L48.4046 31.1818L48.2448 31.2949L48.2049 30.909Z" fill="#D3D3D3"/>
<path d="M47.5257 32.9781L47.5523 33.364L47.2061 33.191L47.5257 32.9781Z" fill="#D3D3D3"/>
<path d="M48.105 33.2642L48.2648 33.1577L48.2781 33.3573L48.2914 33.5503L48.1183 33.4638L47.9385 33.3706L48.105 33.2642Z" fill="#D3D3D3"/>
<path d="M47.9252 32.1066L48.085 32.0068L48.0983 32.1997L48.105 32.3926L47.7587 32.2197L47.9252 32.1066Z" fill="#D3D3D3"/>
<path d="M50.8817 35.1004L50.7619 35.2468L50.6953 35.0672L50.622 34.8809L51.0083 34.9474L50.8817 35.1004Z" fill="#D3D3D3"/>
<path d="M50.0694 35.0006L49.9428 35.147L49.8097 34.7877L50.0028 34.8143L50.1892 34.8476L50.0694 35.0006Z" fill="#D3D3D3"/>
<path d="M49.2303 33.3839L49.1105 33.537L49.0439 33.3573L48.9706 33.171L49.3569 33.2376L49.2303 33.3839Z" fill="#D3D3D3"/>
<path d="M49.3036 34.0359L49.1837 34.1823L49.1105 34.0027L49.0439 33.8164L49.4301 33.8829L49.3036 34.0359Z" fill="#D3D3D3"/>
<path d="M48.6244 34.2488L48.5045 34.4019L48.4313 34.2222L48.3647 34.0359L48.7509 34.1025L48.6244 34.2488Z" fill="#D3D3D3"/>
<path d="M49.9894 33.3108L49.9428 33.3573L49.9229 33.2975L49.9029 33.2309L50.0361 33.2575L49.9894 33.3108Z" fill="#D3D3D3"/>
<path d="M50.3424 33.69L50.3024 33.5569L50.4356 33.5835L50.3424 33.69Z" fill="#D3D3D3"/>
<path d="M49.9894 32.4791L49.9428 32.5257L49.9229 32.4592L49.9029 32.3993L50.0361 32.4259L49.9894 32.4791Z" fill="#D3D3D3"/>
<path d="M51.4411 33.4372L51.3945 33.4904L51.3545 33.3573L51.4211 33.3706L51.4877 33.3906L51.4411 33.4372Z" fill="#D3D3D3"/>
<path d="M50.096 32.8384L50.0494 32.8916L50.0294 32.8251L50.0094 32.7652L50.1426 32.7918L50.096 32.8384Z" fill="#D3D3D3"/>
<path d="M49.4834 32.5523L49.4368 32.6055L49.3968 32.4725L49.4634 32.4858L49.53 32.5057L49.4834 32.5523Z" fill="#D3D3D3"/>
<path d="M51.3079 32.9848L51.2613 33.0313L51.2413 32.9648L51.2213 32.9049L51.3545 32.9315L51.3079 32.9848Z" fill="#D3D3D3"/>
<path d="M48.5711 32.3727L48.5245 32.4259L48.5045 32.3594L48.4846 32.2995L48.5511 32.3128L48.6111 32.3261L48.5711 32.3727Z" fill="#D3D3D3"/>
<path d="M50.8884 32.7652L50.8484 32.8184L50.8085 32.6854L50.8684 32.6987L50.935 32.712L50.8884 32.7652Z" fill="#D3D3D3"/>
<path d="M50.1626 32.0267L50.116 32.08L50.076 31.9469L50.1426 31.9669L50.2092 31.9802L50.1626 32.0267Z" fill="#D3D3D3"/>
<path d="M49.5633 33.1777L49.5167 33.2243L49.4967 33.1577L49.4767 33.0979L49.6099 33.1245L49.5633 33.1777Z" fill="#D3D3D3"/>
<path d="M50.5088 33.0114L50.4689 32.8783L50.6021 32.9049L50.5088 33.0114Z" fill="#D3D3D3"/>
<path d="M51.2679 32.5324L51.2213 32.5789L51.2014 32.5191L51.1814 32.4525L51.3146 32.4791L51.2679 32.5324Z" fill="#D3D3D3"/>
<path d="M50.4689 32.4392L50.4223 32.4924L50.3823 32.3594L50.4489 32.3727L50.5155 32.3926L50.4689 32.4392Z" fill="#D3D3D3"/>
<path d="M48.9773 31.9669L48.9307 32.0134L48.9107 31.9469L48.8907 31.887L49.0239 31.9136L48.9773 31.9669Z" fill="#D3D3D3"/>
<path d="M50.975 33.3241L50.9283 33.3706L50.9084 33.3108L50.8817 33.2442L51.0149 33.2708L50.975 33.3241Z" fill="#D3D3D3"/>
<path d="M49.1105 32.2795L49.0639 32.3328L49.0439 32.2662L49.0239 32.2064L49.1571 32.233L49.1105 32.2795Z" fill="#D3D3D3"/>
<path d="M50.2358 31.7673L50.1892 31.8138L50.1692 31.754L50.1493 31.6874L50.2824 31.714L50.2358 31.7673Z" fill="#D3D3D3"/>
<path d="M48.8907 31.1685L48.8441 31.2217L48.8042 31.0887L48.8708 31.1086L48.9374 31.1219L48.8907 31.1685Z" fill="#D3D3D3"/>
<path d="M49.8829 31.1086L49.843 31.1552L49.8163 31.0887L49.7963 31.0288L49.9295 31.0554L49.8829 31.1086Z" fill="#D3D3D3"/>
<path d="M49.7098 30.7294L49.6632 30.7826L49.6432 30.7161L49.6232 30.6562L49.7564 30.6828L49.7098 30.7294Z" fill="#D3D3D3"/>
<path d="M48.9107 30.4101L48.8708 30.277L49.0039 30.3036L48.9107 30.4101Z" fill="#D3D3D3"/>
<path d="M49.3502 31.2882L49.3102 31.3348L49.2836 31.2749L49.2636 31.2084L49.3968 31.235L49.3502 31.2882Z" fill="#D3D3D3"/>
<path d="M49.7031 31.6009L49.6565 31.6475L49.6365 31.5876L49.6166 31.5211L49.6765 31.5344L49.7431 31.5477L49.7031 31.6009Z" fill="#D3D3D3"/>
<path d="M49.7231 30.9556L49.6765 31.0088L49.6365 30.8758L49.7031 30.8957L49.7697 30.909L49.7231 30.9556Z" fill="#D3D3D3"/>
<path d="M49.2636 30.7693L49.217 30.8159L49.197 30.756L49.1771 30.6895L49.3102 30.7161L49.2636 30.7693Z" fill="#D3D3D3"/>
<path d="M49.7031 31.2217L49.6565 31.2749L49.6166 31.1419L49.6765 31.1552L49.7431 31.1751L49.7031 31.2217Z" fill="#D3D3D3"/>
<path d="M49.5167 32.0267L49.4767 31.8937L49.6099 31.9203L49.5167 32.0267Z" fill="#D3D3D3"/>
<path d="M54.4309 33.2043L54.3843 33.2575L54.3643 33.191L54.3443 33.1311L54.4043 33.1444L54.4708 33.1577L54.4309 33.2043Z" fill="#D3D3D3"/>
<path d="M55.483 33.0114L55.4364 33.0579L55.4164 32.9914L55.3964 32.9315L55.463 32.9448L55.5229 32.9581L55.483 33.0114Z" fill="#D3D3D3"/>
<path d="M54.1379 32.4126L54.0913 32.4592L54.0713 32.3993L54.0447 32.3328L54.1179 32.3461L54.1779 32.3594L54.1379 32.4126Z" fill="#D3D3D3"/>
<path d="M55.1301 32.3461L55.0835 32.3993L55.0435 32.2662L55.1101 32.2795L55.1767 32.2995L55.1301 32.3461Z" fill="#D3D3D3"/>
<path d="M54.9503 31.9735L54.9103 32.0267L54.8837 31.9602L54.8637 31.8937L54.9969 31.9203L54.9503 31.9735Z" fill="#D3D3D3"/>
<path d="M54.1978 31.6009L54.1579 31.6475L54.1379 31.5876L54.1113 31.5211L54.2444 31.5477L54.1978 31.6009Z" fill="#D3D3D3"/>
<path d="M54.5974 32.5257L54.5508 32.5789L54.5308 32.5124L54.5108 32.4525L54.644 32.4791L54.5974 32.5257Z" fill="#D3D3D3"/>
<path d="M54.9703 32.1997L54.9236 32.2529L54.8837 32.1199L54.9503 32.1332L55.0169 32.1531L54.9703 32.1997Z" fill="#D3D3D3"/>
<path d="M54.5108 32.0134L54.4642 32.06L54.4442 31.9935L54.4242 31.9336L54.5574 31.9602L54.5108 32.0134Z" fill="#D3D3D3"/>
<path d="M54.9436 32.4658L54.897 32.5124L54.877 32.4525L54.8571 32.386L54.9902 32.4126L54.9436 32.4658Z" fill="#D3D3D3"/>
<path d="M53.6518 34.4551L53.6052 34.5083L53.5652 34.3752L53.6318 34.3885L53.6984 34.4085L53.6518 34.4551Z" fill="#D3D3D3"/>
<path d="M54.7039 34.2555L54.6573 34.3087L54.6173 34.1756L54.6839 34.1956L54.7505 34.2089L54.7039 34.2555Z" fill="#D3D3D3"/>
<path d="M54.7705 33.4305L54.7239 33.4837L54.6839 33.3507L54.7505 33.364L54.8171 33.3839L54.7705 33.4305Z" fill="#D3D3D3"/>
<path d="M54.1779 33.2243L54.1312 33.2708L54.1113 33.2043L54.0913 33.1444L54.2245 33.171L54.1779 33.2243Z" fill="#D3D3D3"/>
<path d="M53.8849 32.8317L53.8449 32.8783L53.8249 32.8184L53.7983 32.7519L53.9315 32.7785L53.8849 32.8317Z" fill="#D3D3D3"/>
<path d="M53.8249 33.7765L53.7783 33.8297L53.7584 33.7632L53.7317 33.6966L53.8649 33.7232L53.8249 33.7765Z" fill="#D3D3D3"/>
<path d="M53.1058 34.2289L53.0592 34.2821L53.0192 34.149L53.0858 34.169L53.1457 34.1823L53.1058 34.2289Z" fill="#D3D3D3"/>
<path d="M54.1912 33.4505L54.1446 33.497L54.1246 33.4372L54.1046 33.3706L54.2378 33.3972L54.1912 33.4505Z" fill="#D3D3D3"/>
<path d="M53.7317 33.2575L53.6918 33.3108L53.6651 33.2442L53.6452 33.1777L53.7117 33.191L53.7783 33.211L53.7317 33.2575Z" fill="#D3D3D3"/>
<path d="M53.3921 33.67L53.3455 33.7166L53.3255 33.6501L53.3055 33.5902L53.4387 33.6168L53.3921 33.67Z" fill="#D3D3D3"/>
<path d="M54.0713 34.3885L54.0247 34.4418L54.0047 34.3752L53.9848 34.3154L54.0447 34.3287L54.1179 34.342L54.0713 34.3885Z" fill="#D3D3D3"/>
<path d="M52.0004 32.7586L51.9471 32.712L52.0137 32.692L52.0803 32.6654L52.0537 32.7985L52.0004 32.7586Z" fill="#D3D3D3"/>
<path d="M52.1669 33.7565L52.3001 33.7166L52.2734 33.8497L52.1669 33.7565Z" fill="#D3D3D3"/>
<path d="M52.7928 32.4459L52.7395 32.3993L52.8061 32.3793L52.8661 32.3594L52.8394 32.4924L52.7928 32.4459Z" fill="#D3D3D3"/>
<path d="M53.6052 32.4924L53.5519 32.4525L53.6185 32.4259L53.6851 32.406L53.6651 32.4725L53.6585 32.539L53.6052 32.4924Z" fill="#D3D3D3"/>
<path d="M52.6863 32.9116L52.633 32.865L52.6929 32.845L52.7595 32.8184L52.7329 32.9515L52.6863 32.9116Z" fill="#D3D3D3"/>
<path d="M53.1457 32.7652L53.2789 32.7253L53.2523 32.8584L53.1457 32.7652Z" fill="#D3D3D3"/>
<path d="M51.814 33.3507L51.7674 33.3041L51.8273 33.2841L51.8939 33.2642L51.8672 33.3972L51.814 33.3507Z" fill="#D3D3D3"/>
<path d="M51.3412 34.0625L51.2946 34.016L51.3545 33.996L51.4211 33.9761L51.4078 34.0359L51.3945 34.1025L51.3412 34.0625Z" fill="#D3D3D3"/>
<path d="M51.4078 34.5682L51.3545 34.5283L51.4211 34.5016L51.481 34.4817L51.4744 34.5482L51.4611 34.6147L51.4078 34.5682Z" fill="#D3D3D3"/>
<path d="M52.0404 34.3952L51.9871 34.3553L52.047 34.3353L52.1136 34.3087L52.087 34.4418L52.0404 34.3952Z" fill="#D3D3D3"/>
<path d="M52.2401 33.0912L52.1869 33.0446L52.32 33.0047L52.3067 33.0646L52.2934 33.1311L52.2401 33.0912Z" fill="#D3D3D3"/>
<path d="M53.4188 33.0912L53.3721 33.0446L53.4321 33.0247L53.4987 33.0047L53.4853 33.0646L53.472 33.1311L53.4188 33.0912Z" fill="#D3D3D3"/>
<path d="M52.8261 33.3041L52.8927 33.2841L52.9526 33.2642L52.946 33.3307L52.9327 33.3972L52.8261 33.3041Z" fill="#D3D3D3"/>
<path d="M52.4998 33.5037L52.4466 33.4638L52.5131 33.4372L52.5731 33.4172L52.5664 33.4837L52.5531 33.5503L52.4998 33.5037Z" fill="#D3D3D3"/>
<path d="M52.5731 33.8497L52.5198 33.8097L52.5864 33.7831L52.6463 33.7632L52.6197 33.8962L52.5731 33.8497Z" fill="#D3D3D3"/>
<path d="M53.3721 35.8589L53.3255 35.9054L53.3055 35.8456L53.2856 35.779L53.4188 35.8056L53.3721 35.8589Z" fill="#D3D3D3"/>
<path d="M54.4242 35.6593L54.3776 35.7125L54.3377 35.5794L54.4043 35.5994L54.4708 35.6127L54.4242 35.6593Z" fill="#D3D3D3"/>
<path d="M54.4908 34.8343L54.4442 34.8875L54.4043 34.7545L54.4708 34.7678L54.5374 34.7877L54.4908 34.8343Z" fill="#D3D3D3"/>
<path d="M53.5386 35.1803L53.4987 35.2268L53.472 35.1669L53.452 35.1004L53.5852 35.127L53.5386 35.1803Z" fill="#D3D3D3"/>
<path d="M52.8261 35.6327L52.7795 35.6859L52.7595 35.6193L52.7329 35.5528L52.7995 35.5728L52.8661 35.5861L52.8261 35.6327Z" fill="#D3D3D3"/>
<path d="M53.9115 34.8543L53.8649 34.9008L53.8449 34.8409L53.8249 34.7744L53.9581 34.801L53.9115 34.8543Z" fill="#D3D3D3"/>
<path d="M53.1124 35.0738L53.0658 35.1204L53.0459 35.0538L53.0259 34.994L53.0925 35.0073L53.1524 35.0206L53.1124 35.0738Z" fill="#D3D3D3"/>
<path d="M53.785 35.7923L53.745 35.8456L53.7184 35.779L53.6984 35.7191L53.8316 35.7458L53.785 35.7923Z" fill="#D3D3D3"/>
<path d="M51.8872 35.1603L52.0204 35.1204L51.9938 35.2534L51.8872 35.1603Z" fill="#D3D3D3"/>
<path d="M52.2202 34.9075L52.1669 34.8609L52.2335 34.8409L52.2934 34.821L52.2668 34.954L52.2202 34.9075Z" fill="#D3D3D3"/>
<path d="M52.2934 35.2534L52.2401 35.2135L52.3067 35.1869L52.3667 35.1669L52.34 35.3L52.2934 35.2534Z" fill="#D3D3D3"/>
<path d="M51.248 35.3732L51.248 35.2335L51.3079 35.2734L51.3678 35.3067L51.248 35.3732Z" fill="#D3D3D3"/>
<path d="M51.5942 34.6214L51.5942 34.5549L51.6009 34.4817L51.6542 34.5216L51.7141 34.5549L51.5942 34.6214Z" fill="#D3D3D3"/>
<path d="M50.642 34.5815L50.5821 34.6147L50.5821 34.5482L50.5887 34.4817L50.642 34.515L50.7019 34.5549L50.642 34.5815Z" fill="#D3D3D3"/>
<path d="M49.7497 34.7944L49.7564 34.7278L49.7564 34.6547L49.8163 34.6946L49.8696 34.7278L49.7497 34.7944Z" fill="#D3D3D3"/>
<path d="M51.1015 34.4019L51.0415 34.4351L51.0482 34.3686L51.0482 34.3021L51.1081 34.3353L51.1614 34.3752L51.1015 34.4019Z" fill="#D3D3D3"/>
<path d="M50.2758 34.3353L50.2158 34.3619L50.2158 34.2954L50.2225 34.2289L50.2758 34.2621L50.3357 34.3021L50.2758 34.3353Z" fill="#D3D3D3"/>
<path d="M50.662 35.2468L50.6021 35.2734L50.6021 35.2069L50.6087 35.1403L50.662 35.1803L50.7219 35.2135L50.662 35.2468Z" fill="#D3D3D3"/>
<path d="M49.0972 33.996L49.1638 33.996L49.237 34.0027L49.197 34.0559L49.1638 34.1158L49.0972 33.996Z" fill="#D3D3D3"/>
<path d="M49.4967 33.8696L49.4634 33.8164L49.5966 33.8164L49.5633 33.8763L49.53 33.9295L49.4967 33.8696Z" fill="#D3D3D3"/>
<path d="M49.4101 34.1623L49.4767 34.1623L49.5433 34.169L49.51 34.2222L49.4767 34.2821L49.4101 34.1623Z" fill="#D3D3D3"/>
<path d="M49.1504 34.6613L49.1904 34.5283L49.2836 34.6347L49.1504 34.6613Z" fill="#D3D3D3"/>
<path d="M49.6831 34.0293L49.7231 33.8962L49.8163 34.0027L49.6831 34.0293Z" fill="#D3D3D3"/>
<path d="M48.7775 33.7432L48.711 33.7565L48.7309 33.69L48.7509 33.6301L48.8441 33.7232L48.7775 33.7432Z" fill="#D3D3D3"/>
<path d="M49.2037 33.7033L49.2237 33.6434L49.2437 33.5769L49.2903 33.6234L49.3369 33.6767L49.2037 33.7033Z" fill="#D3D3D3"/>
<path d="M48.4246 33.4172L48.4646 33.2841L48.5578 33.3906L48.4246 33.4172Z" fill="#D3D3D3"/>
<path d="M47.4591 32.8317L47.4458 32.7652L47.579 32.8051L47.5257 32.8517L47.4791 32.8983L47.4591 32.8317Z" fill="#D3D3D3"/>
<path d="M47.8653 32.7519L47.8453 32.6854L47.9785 32.7253L47.9252 32.7719L47.8786 32.8184L47.8653 32.7519Z" fill="#D3D3D3"/>
<path d="M47.7188 33.0713L47.6988 33.0114L47.7654 33.0247L47.832 33.0446L47.7854 33.0912L47.7321 33.1378L47.7188 33.0713Z" fill="#D3D3D3"/>
<path d="M47.539 32.5789L47.6722 32.5789L47.6056 32.6987L47.539 32.5789Z" fill="#D3D3D3"/>
<path d="M48.1716 33.0047L48.1383 32.9448L48.2715 32.9448L48.2382 33.0047L48.2049 33.0579L48.1716 33.0047Z" fill="#D3D3D3"/>
<path d="M47.9518 32.1797L47.9186 32.1265L47.9851 32.1265L48.0517 32.1199L47.9851 32.2396L47.9518 32.1797Z" fill="#D3D3D3"/>
<path d="M48.4046 32.6255L48.3714 32.5656L48.5045 32.5656L48.4712 32.6255L48.4379 32.6787L48.4046 32.6255Z" fill="#D3D3D3"/>
<path d="M47.5124 33.0579L47.4791 32.9981L47.6122 32.9981L47.579 33.0579L47.5457 33.1112L47.5124 33.0579Z" fill="#D3D3D3"/>
<path d="M48.6244 31.4679L48.6777 31.4346L48.6843 31.5011L48.6843 31.5677L48.5645 31.5011L48.6244 31.4679Z" fill="#D3D3D3"/>
<path d="M48.8242 31.8205L48.8841 31.7872L48.8841 31.9203L48.8242 31.887L48.7642 31.8604L48.8242 31.8205Z" fill="#D3D3D3"/>
<path d="M48.5312 31.754L48.5312 31.887L48.4113 31.8205L48.5312 31.754Z" fill="#D3D3D3"/>
<path d="M54.2378 33.5769L54.2045 33.5237L54.3377 33.5237L54.3044 33.5769L54.2777 33.6368L54.2378 33.5769Z" fill="#D3D3D3"/>
<path d="M54.0846 34.5815L54.2178 34.5815L54.1512 34.7012L54.0846 34.5815Z" fill="#D3D3D3"/>
<path d="M54.8837 34.954L54.8504 34.8942L54.9902 34.8942L54.9569 34.954L54.9236 35.0073L54.8837 34.954Z" fill="#D3D3D3"/>
<path d="M54.8038 33.8829L54.937 33.8829L54.8704 34.0027L54.8038 33.8829Z" fill="#D3D3D3"/>
<path d="M54.6173 33.1245L54.584 33.0646L54.7172 33.0646L54.6839 33.1245L54.6506 33.1777L54.6173 33.1245Z" fill="#D3D3D3"/>
<path d="M55.0102 34.3353L55.1434 34.3353L55.0768 34.4551L55.0102 34.3353Z" fill="#D3D3D3"/>
<path d="M55.0368 33.5037L55.17 33.5037L55.1034 33.6234L55.0368 33.5037Z" fill="#D3D3D3"/>
<path d="M54.1446 33.9361L54.2777 33.9361L54.2112 34.0559L54.1446 33.9361Z" fill="#D3D3D3"/>
<path d="M55.2899 32.406L55.3432 32.3727L55.3498 32.4392L55.3498 32.5057L55.2899 32.4725L55.23 32.4459L55.2899 32.406Z" fill="#D3D3D3"/>
<path d="M55.4896 32.7586L55.5496 32.7253L55.5496 32.8584L55.4896 32.8317L55.4297 32.7985L55.4896 32.7586Z" fill="#D3D3D3"/>
<path d="M55.1367 32.7253L55.1967 32.692L55.1967 32.8251L55.1367 32.7985L55.0835 32.7652L55.1367 32.7253Z" fill="#D3D3D3"/>
<path d="M49.0173 30.4367L48.964 30.3967L49.0306 30.3701L49.0905 30.3502L49.0639 30.4832L49.0173 30.4367Z" fill="#D3D3D3"/>
<path d="M49.6698 30.0707L49.6166 30.0308L49.6831 30.0109L49.7431 29.9843L49.7364 30.0508L49.7164 30.1173L49.6698 30.0707Z" fill="#D3D3D3"/>
<path d="M50.0361 29.8911L49.9894 29.8445L50.0494 29.8246L50.116 29.798L50.0893 29.931L50.0361 29.8911Z" fill="#D3D3D3"/>
<path d="M49.8097 29.9111L49.763 29.8645L49.823 29.8445L49.8896 29.8179L49.8629 29.951L49.8097 29.9111Z" fill="#D3D3D3"/>
<path d="M49.55 29.8911L49.4967 29.8445L49.5633 29.8246L49.6232 29.8046L49.5966 29.9377L49.55 29.8911Z" fill="#D3D3D3"/>
<path d="M50.955 34.0559L50.915 34.1025L50.8884 34.0359L50.8684 33.9761L51.0016 34.0027L50.955 34.0559Z" fill="#D3D3D3"/>
<path d="M49.9229 33.67L49.8762 33.7166L49.8563 33.6501L49.8363 33.5902L49.9695 33.6168L49.9229 33.67Z" fill="#D3D3D3"/>
<path d="M48.7909 33.1112L48.7442 33.1577L48.7243 33.0979L48.7043 33.0313L48.8375 33.0579L48.7909 33.1112Z" fill="#D3D3D3"/>
<path d="M49.4967 33.5835L49.4501 33.6368L49.4301 33.5702L49.4101 33.5103L49.5433 33.537L49.4967 33.5835Z" fill="#D3D3D3"/>
<path d="M49.9628 34.0692L49.9162 34.1224L49.8762 33.9894L49.9428 34.0027L50.0094 34.0226L49.9628 34.0692Z" fill="#D3D3D3"/>
<path d="M49.1105 32.9182L49.0639 32.9648L49.0439 32.9049L49.0239 32.8384L49.1571 32.865L49.1105 32.9182Z" fill="#D3D3D3"/>
</g>
<path d="M60.9477 31.8066C62.173 32.9842 62.3727 33.0175 60.981 35.7984C60.7613 36.2442 55.281 30.9151 56.3198 30.2498C56.845 29.8985 57.3998 29.5935 57.9779 29.3383C58.5838 29.0656 58.5639 29.5047 60.9477 31.8066Z" fill="#EAEAEA"/>
<mask id="mask3_1_18122" style="mask-type:alpha" maskUnits="userSpaceOnUse" x="56" y="29" width="6" height="7">
<path d="M60.9477 31.8066C62.173 32.9842 62.3727 33.0175 60.981 35.7984C60.7613 36.2442 55.281 30.9151 56.3198 30.2498C56.845 29.8985 57.3998 29.5935 57.9779 29.3383C58.5838 29.0656 58.5639 29.5047 60.9477 31.8066Z" fill="#EAEAEA"/>
</mask>
<g mask="url(#mask3_1_18122)">
<path d="M59.5114 34.4878L59.3316 34.5543L59.3715 34.3614L59.4048 34.1751L59.6978 34.4279L59.5114 34.4878Z" fill="#D3D3D3"/>
<path d="M60.1306 34.042L59.9508 34.1019L59.9908 33.9156L60.0241 33.7227L60.1706 33.8491L60.3171 33.9822L60.1306 34.042Z" fill="#D3D3D3"/>
<path d="M59.0852 32.8378L58.8987 32.8977L58.9387 32.7114L58.9787 32.5185L59.1251 32.6449L59.265 32.778L59.0852 32.8378Z" fill="#D3D3D3"/>
<path d="M59.3249 33.8225L59.1385 33.889L59.2184 33.5031L59.3649 33.6362L59.5114 33.7626L59.3249 33.8225Z" fill="#D3D3D3"/>
<path d="M60.5435 35.2263L60.5834 35.04L60.6234 34.847L60.7699 34.9801L60.9164 35.1065L60.5435 35.2263Z" fill="#D3D3D3"/>
<path d="M58.6058 33.7426L58.4193 33.8092L58.4593 33.6162L58.4992 33.43L58.7922 33.6828L58.6058 33.7426Z" fill="#D3D3D3"/>
<path d="M61.1428 34.3946L60.9563 34.4545L60.9963 34.2616L61.0362 34.0753L61.3292 34.3281L61.1428 34.3946Z" fill="#D3D3D3"/>
<path d="M57.6802 33.0773L57.5004 33.1372L57.5403 32.9509L57.5736 32.758L57.7201 32.8844L57.8666 33.0175L57.6802 33.0773Z" fill="#D3D3D3"/>
<path d="M60.084 34.8138L59.8976 34.8737L59.9375 34.6874L59.9775 34.4944L60.124 34.6208L60.2638 34.7539L60.084 34.8138Z" fill="#D3D3D3"/>
<path d="M60.104 35.1997L59.9176 35.2595L59.9575 35.0732L59.9975 34.8803L60.1373 35.0067L60.2838 35.1398L60.104 35.1997Z" fill="#D3D3D3"/>
<path d="M57.4604 32.5385L57.274 32.5983L57.3139 32.4054L57.3539 32.2191L57.6469 32.4719L57.4604 32.5385Z" fill="#D3D3D3"/>
<path d="M56.941 31.8199L56.7613 31.8798L56.8012 31.6935L56.8345 31.5006L56.981 31.6336L57.1275 31.76L56.941 31.8199Z" fill="#D3D3D3"/>
<path d="M57.567 32.106L57.3805 32.1659L57.4205 31.9729L57.4604 31.7867L57.7534 32.0395L57.567 32.106Z" fill="#D3D3D3"/>
<path d="M58.3993 33.0773L58.2129 33.1372L58.2528 32.9443L58.2928 32.758L58.5858 33.0108L58.3993 33.0773Z" fill="#D3D3D3"/>
<path d="M56.5748 31.0349L56.395 31.1014L56.4283 30.9085L56.4683 30.7222L56.7613 30.975L56.5748 31.0349Z" fill="#D3D3D3"/>
<path d="M58.8122 34.1817L58.6257 34.2483L58.7056 33.8624L58.8521 33.9955L58.9986 34.1219L58.8122 34.1817Z" fill="#D3D3D3"/>
<path d="M57.587 31.6736L57.527 31.6802L57.5803 31.5605L57.6136 31.6137L57.6535 31.6669L57.587 31.6736Z" fill="#D3D3D3"/>
<path d="M58.0131 33.1572L57.9465 33.1638L57.9732 33.104L57.9931 33.0441L58.073 33.1505L58.0131 33.1572Z" fill="#D3D3D3"/>
<path d="M56.7213 30.8087L56.7746 30.6889L56.8545 30.7954L56.7213 30.8087Z" fill="#D3D3D3"/>
<path d="M58.6923 33.5031L58.7456 33.3834L58.8255 33.4898L58.6923 33.5031Z" fill="#D3D3D3"/>
<path d="M58.5325 32.5251L58.4659 32.5318L58.5192 32.412L58.5591 32.4653L58.5924 32.5185L58.5325 32.5251Z" fill="#D3D3D3"/>
<path d="M57.1475 31.9596L57.0809 31.9663L57.1342 31.8465L57.1741 31.8998L57.2074 31.953L57.1475 31.9596Z" fill="#D3D3D3"/>
<path d="M59.4847 33.5098L59.4181 33.5164L59.4448 33.4566L59.4714 33.39L59.5513 33.4965L59.4847 33.5098Z" fill="#D3D3D3"/>
<path d="M56.6814 31.3476L56.6214 31.3542L56.6481 31.2943L56.668 31.2345L56.7479 31.3409L56.6814 31.3476Z" fill="#D3D3D3"/>
<path d="M58.719 32.9509L58.6723 32.9044L58.7389 32.8844L58.7989 32.8644L58.7855 32.931L58.7722 32.9909L58.719 32.9509Z" fill="#D3D3D3"/>
<path d="M58.0531 32.2457L58.0264 32.1925L58.093 32.1925L58.1596 32.1991L58.1197 32.2524L58.0864 32.3056L58.0531 32.2457Z" fill="#D3D3D3"/>
<path d="M57.6802 32.3588L57.7334 32.2391L57.8134 32.3455L57.6802 32.3588Z" fill="#D3D3D3"/>
<path d="M57.1142 31.4141L57.1674 31.2943L57.2474 31.4008L57.1142 31.4141Z" fill="#D3D3D3"/>
<path d="M58.699 32.9243L58.6391 32.9376L58.659 32.8711L58.6857 32.8112L58.7656 32.9177L58.699 32.9243Z" fill="#D3D3D3"/>
<path d="M59.1185 34.4079L59.0586 34.4212L59.0852 34.3614L59.1052 34.2948L59.1851 34.4013L59.1185 34.4079Z" fill="#D3D3D3"/>
<path d="M57.8999 32.0594L57.8333 32.0661L57.86 32.0062L57.8866 31.9397L57.9665 32.0461L57.8999 32.0594Z" fill="#D3D3D3"/>
<path d="M59.8709 34.7539L59.8043 34.7606L59.8576 34.6408L59.8976 34.694L59.9375 34.7406L59.8709 34.7539Z" fill="#D3D3D3"/>
<path d="M59.6445 33.7826L59.5779 33.7892L59.6312 33.6695L59.6645 33.7227L59.7045 33.7759L59.6445 33.7826Z" fill="#D3D3D3"/>
<path d="M58.2595 33.2104L58.1929 33.2171L58.2462 33.0973L58.2795 33.1505L58.3194 33.2038L58.2595 33.2104Z" fill="#D3D3D3"/>
<path d="M60.5302 34.7672L60.5834 34.6474L60.6633 34.7539L60.5302 34.7672Z" fill="#D3D3D3"/>
<path d="M57.7934 32.605L57.7334 32.6116L57.7534 32.5518L57.7801 32.4852L57.86 32.5917L57.7934 32.605Z" fill="#D3D3D3"/>
<path d="M59.831 34.2017L59.7844 34.1551L59.851 34.1418L59.9109 34.1219L59.8976 34.1817L59.8843 34.2483L59.831 34.2017Z" fill="#D3D3D3"/>
<path d="M59.1651 33.5031L59.1385 33.4433L59.2051 33.4499L59.2716 33.4499L59.2317 33.5031L59.1984 33.563L59.1651 33.5031Z" fill="#D3D3D3"/>
<path d="M58.7922 33.6096L58.8455 33.4898L58.9254 33.5963L58.7922 33.6096Z" fill="#D3D3D3"/>
<path d="M58.2928 32.6649L58.2262 32.6715L58.2795 32.5518L58.3194 32.605L58.3594 32.6516L58.2928 32.6649Z" fill="#D3D3D3"/>
<path d="M58.3461 31.0814L58.2795 31.0947L58.3061 31.0349L58.3327 30.9683L58.4127 31.0748L58.3461 31.0814Z" fill="#D3D3D3"/>
<path d="M58.7656 32.5717L58.699 32.5784L58.7523 32.4586L58.7922 32.5118L58.8322 32.5584L58.7656 32.5717Z" fill="#D3D3D3"/>
<path d="M57.3006 30.8552L57.3539 30.7355L57.4338 30.8419L57.3006 30.8552Z" fill="#D3D3D3"/>
<path d="M59.2383 33.1705L59.1784 33.1771L59.1984 33.1173L59.225 33.0574L59.265 33.104L59.3049 33.1572L59.2383 33.1705Z" fill="#D3D3D3"/>
<path d="M58.972 32.1459L58.9054 32.1526L58.9587 32.0328L58.992 32.086L59.0319 32.1326L58.972 32.1459Z" fill="#D3D3D3"/>
<path d="M57.9266 31.4939L57.86 31.5072L57.8866 31.4407L57.9132 31.3808L57.9931 31.4873L57.9266 31.4939Z" fill="#D3D3D3"/>
<path d="M60.0574 33.0108L59.9908 33.0175L60.0174 32.9576L60.0441 32.8911L60.124 32.9975L60.0574 33.0108Z" fill="#D3D3D3"/>
<path d="M56.7946 30.3962L56.7346 30.4028L56.7546 30.343L56.7812 30.2831L56.8611 30.3895L56.7946 30.3962Z" fill="#D3D3D3"/>
<path d="M59.0452 32.4387L59.1052 32.4187L59.1718 32.4054L59.1584 32.4653L59.1385 32.5318L59.0452 32.4387Z" fill="#D3D3D3"/>
<path d="M58.7789 31.6004L58.8455 31.607L58.9121 31.607L58.8788 31.6603L58.8455 31.7201L58.7789 31.6004Z" fill="#D3D3D3"/>
<path d="M58.2728 32.1393L58.3261 32.0195L58.406 32.126L58.2728 32.1393Z" fill="#D3D3D3"/>
<path d="M57.7268 31.0548L57.7801 30.9351L57.86 31.0415L57.7268 31.0548Z" fill="#D3D3D3"/>
</g>
<path d="M49.0327 19.4955C49.3958 19.437 49.7673 19.5251 50.0655 19.7405C50.3636 19.9559 50.564 20.2809 50.6225 20.644C50.6381 20.7367 50.6427 20.8308 50.6363 20.9246" stroke="#CA804B" stroke-width="0.282546" stroke-miterlimit="10" stroke-linecap="round"/>
<path d="M54.4763 16.994C54.7304 16.7722 55.0362 16.6178 55.3657 16.5451C55.6951 16.4724 56.0375 16.4837 56.3614 16.578" stroke="#CA804B" stroke-width="0.282546" stroke-miterlimit="10" stroke-linecap="round"/>
<path d="M58.5193 16.2609C58.6828 16.1397 58.873 16.0596 59.074 16.0272C59.2749 15.9948 59.4807 16.0111 59.674 16.0748" stroke="#CA804B" stroke-width="0.282546" stroke-miterlimit="10" stroke-linecap="round"/>
<path d="M55.7655 18.9314C56.0675 18.8827 56.2728 18.5985 56.2241 18.2965C56.1755 17.9945 55.8912 17.7891 55.5892 17.8378C55.2873 17.8865 55.0819 18.1707 55.1306 18.4727C55.1793 18.7747 55.4635 18.9801 55.7655 18.9314Z" fill="#6D352E"/>
<path d="M59.4476 18.3378C59.7496 18.2891 59.9549 18.0048 59.9063 17.7028C59.8576 17.4009 59.5733 17.1955 59.2714 17.2442C58.9694 17.2928 58.7641 17.5771 58.8127 17.8791C58.8614 18.1811 59.1457 18.3864 59.4476 18.3378Z" fill="#6D352E"/>
<path d="M56.3979 23.0482C56.6967 23.3203 57.0694 23.4977 57.4689 23.558C57.8684 23.6182 58.2769 23.5586 58.6425 23.3866" stroke="#CA804B" stroke-width="0.282546" stroke-miterlimit="10" stroke-linecap="round"/>
<path d="M58.0583 18.7143C58.0583 18.7143 58.3816 19.1334 58.8152 19.7906C59.141 20.2812 59.5865 21.0128 58.05 21.0854" stroke="#CA804B" stroke-width="0.282546" stroke-miterlimit="10" stroke-linecap="round"/>
<path d="M53.5326 31.1693C53.7613 31.1693 53.9466 30.9839 53.9466 30.7553C53.9466 30.5267 53.7613 30.3413 53.5326 30.3413C53.304 30.3413 53.1187 30.5267 53.1187 30.7553C53.1187 30.9839 53.304 31.1693 53.5326 31.1693Z" fill="#D3D3D3"/>
<path d="M58.4467 30.9105C58.6753 30.9105 58.8607 30.7251 58.8607 30.4965C58.8607 30.2679 58.6753 30.0825 58.4467 30.0825C58.2181 30.0825 58.0327 30.2679 58.0327 30.4965C58.0327 30.7251 58.2181 30.9105 58.4467 30.9105Z" fill="#D3D3D3"/>
<path d="M56.5204 35.9267C56.7491 35.9267 56.9344 35.7414 56.9344 35.5127C56.9344 35.2841 56.7491 35.0988 56.5204 35.0988C56.2918 35.0988 56.1064 35.2841 56.1064 35.5127C56.1064 35.7414 56.2918 35.9267 56.5204 35.9267Z" fill="#F2BD53"/>
<path d="M56.5204 41.8776C56.7491 41.8776 56.9344 41.6923 56.9344 41.4637C56.9344 41.235 56.7491 41.0497 56.5204 41.0497C56.2918 41.0497 56.1064 41.235 56.1064 41.4637C56.1064 41.6923 56.2918 41.8776 56.5204 41.8776Z" fill="#F2BD53"/>
<path d="M55.6913 32.8993L55.6913 53.2879L55.1738 53.2879L55.1738 33.6755L55.2256 33.8566L55.6913 32.8993Z" fill="#F2BD53"/>
<path d="M50.9046 19.3417C50.9046 19.3417 50.3354 15.383 50.9046 15.2795C51.4738 15.176 53.078 15.2795 53.6472 13.9599C54.2682 13.9599 56.1052 16.2627 57.2696 13.3389C57.5542 13.3389 60.3227 14.762 61.28 11.7865C61.5129 11.1655 61.8492 8.39702 58.6926 8.11241C58.6926 8.11241 56.9073 4.43832 53.9318 7.49144C53.9318 7.49144 49.6368 5.99075 48.6536 10.3634C48.6536 10.3634 43.6082 9.89771 45.497 14.2186C47.4116 18.462 48.6277 18.6431 50.9046 19.3417Z" fill="#8F4036"/>
</g>
<circle cx="88.2849" cy="22.7175" r="21.2492" fill="#EFECEC" stroke="white" stroke-width="2.93661"/>
<circle r="20.013" transform="matrix(-1 0 0 1 88.2863 22.7175)" fill="#FFCC70" fill-opacity="0.12"/>
<mask id="mask4_1_18122" style="mask-type:alpha" maskUnits="userSpaceOnUse" x="68" y="2" width="41" height="41">
<circle r="20.013" transform="matrix(-1 0 0 1 88.2863 22.7175)" fill="#EDEFF2"/>
</mask>
<g mask="url(#mask4_1_18122)">
<path d="M80.6457 31.3481C85.3917 31.9932 92.995 31.8361 95.5293 30.3616C96.8824 22.6186 94.6273 13.7583 92.8567 10.0394C90.7832 6.16886 87.0509 6.81395 85.1157 7.55119C84.7931 7.68943 84.4245 7.73551 84.0559 7.73551C82.9961 7.73551 81.0608 8.19628 79.4481 9.71685C76.1355 11.9543 80.6457 31.3481 80.6457 31.3481Z" fill="#B82541"/>
<path d="M90.9593 18.3472C90.3797 18.0849 90.1821 17.2708 90.5178 16.529C90.8536 15.7871 91.5956 15.3984 92.1752 15.6607C92.7548 15.923 92.9524 16.737 92.6167 17.4789C92.2809 18.2207 91.5389 18.6095 90.9593 18.3472Z" fill="#FFC9B0"/>
<path d="M82.0742 17.55C82.3967 18.2873 82.2124 19.1167 81.6595 19.347C81.1066 19.6235 80.3693 19.2088 80.0007 18.4716C79.6782 17.7343 79.8625 16.9049 80.4154 16.6745C81.0144 16.3981 81.7517 16.8128 82.0742 17.55Z" fill="#FFC9B0"/>
<path d="M89.0324 36.027C83.2266 36.3035 77.0521 32.7094 76.7757 32.479L84.8393 29.2075L85.3461 24.0929C83.1805 23.4938 81.3835 21.0978 81.0609 18.1027C80.6462 14.4165 82.5815 11.2372 85.3922 10.9146C88.1569 10.6381 90.7372 13.3567 91.1519 16.9969C91.198 17.5498 91.198 18.1027 91.1519 18.6557C90.7833 24.1389 91.5206 28.7467 91.5206 28.7467L101.289 31.6496C101.105 31.8339 93.548 35.7966 89.0324 36.027Z" fill="#FFC9B0"/>
<path d="M100.922 40.2661C100.922 40.2661 98.249 42.4318 96.1755 44.0445C95.6226 44.6435 95.7148 45.6572 96.4059 46.1641C97.051 46.717 97.6961 47.3621 98.3412 48.0532H84.011C83.8728 47.2238 83.4581 46.3944 82.7208 45.8415L81.615 44.92C81.1081 44.5513 80.6012 44.1366 80.1405 43.7219C79.6797 43.3072 79.265 42.9386 78.8503 42.4778L77.9748 41.6024L76.9611 43.1229L71.2014 38.423L73.0445 35.3819C73.7356 34.2299 74.8415 33.3084 76.0856 32.8015L78.2513 31.926C84.1953 35.6583 91.7521 35.7505 97.7883 32.1103L99.3549 31.1427L102.903 32.2025C104.838 32.8015 106.405 34.276 107.096 36.2113L108.156 39.2063L101.428 41.418L100.922 40.2661Z" fill="#246BFD"/>
<path d="M81.1542 15.2465C81.1542 14.9239 81.2924 14.3249 81.8454 13.0808C81.7993 13.173 81.4307 14.3249 81.615 15.2465C82.2601 15.2925 82.8591 15.3386 83.412 15.3386C83.412 14.0945 83.7346 13.3573 83.7346 13.3573C83.6424 14.2328 83.7806 14.9239 83.8728 15.3386C85.8541 15.3386 87.4669 15.1082 88.711 14.8778C88.3884 13.5416 87.7894 12.7122 87.7433 12.6661C88.5267 13.0347 88.9874 14.1406 89.2178 14.7857C90.6002 14.5092 91.3374 14.1867 91.3374 14.1867C89.1717 7.82794 84.8404 10.1318 84.8404 10.1318C81.0621 9.02596 79.9562 15.0622 79.9562 15.0622C80.3248 15.1543 80.7395 15.2004 81.1542 15.2465Z" fill="#B82541"/>
<path d="M101.428 39.2527H101.474C101.566 39.2066 101.658 39.0684 101.566 38.9762L100.875 37.3635C100.829 37.2713 100.691 37.1792 100.599 37.2713C100.507 37.3174 100.414 37.4556 100.507 37.5478L101.198 39.1144C101.244 39.2066 101.336 39.2527 101.428 39.2527Z" fill="#264B44"/>
<path d="M77.8373 41.6031H77.8833C77.9755 41.5571 78.0677 41.4188 77.9755 41.3267L77.2843 39.7139C77.2383 39.6218 77.1 39.5296 77.0079 39.6218C76.9157 39.6679 76.8236 39.8061 76.9157 39.8983L77.6069 41.511C77.653 41.5571 77.7451 41.6031 77.8373 41.6031Z" fill="#264B44"/>
<path d="M85.8938 19.6698C85.986 19.6698 86.0781 19.5777 86.0781 19.4855C86.0781 19.3934 85.986 19.3012 85.8938 19.3012C85.6634 19.3012 85.433 19.2091 85.2948 19.0708C85.1566 18.8865 85.0644 18.7022 85.0644 18.4718C85.0644 18.3336 85.0644 18.1493 85.0644 18.011C85.1105 17.0434 85.1566 16.0297 84.3732 15.5228C83.3595 14.8777 81.9311 15.3846 81.885 15.3846C81.7929 15.4307 81.7468 15.5228 81.7468 15.6611C81.7929 15.7532 81.885 15.7993 82.0233 15.7993C82.0233 15.7993 83.3135 15.3385 84.1889 15.8915C84.7879 16.2601 84.7419 17.1356 84.6958 18.011C84.6958 18.1493 84.6958 18.3336 84.6958 18.5179C84.6958 18.8404 84.834 19.163 85.0644 19.3934C85.2487 19.5777 85.5713 19.6698 85.8938 19.6698Z" fill="#FFA378"/>
<path d="M89.0746 15.7065C89.0286 15.7065 88.9825 15.7065 88.9364 15.7065C87.8305 15.1075 86.909 15.6605 86.8629 15.6605C86.7708 15.7065 86.6325 15.6605 86.5864 15.5683C86.5404 15.4761 86.5864 15.3379 86.6786 15.2918C86.7247 15.2458 87.8766 14.6467 89.1207 15.3379C89.2129 15.384 89.259 15.5222 89.2129 15.6144C89.2129 15.6605 89.1668 15.7065 89.0746 15.7065Z" fill="#FFA378"/>
<path d="M87.7432 16.9981C87.7432 17.1825 87.8815 17.3668 88.1118 17.3668C88.2962 17.3668 88.4805 17.2285 88.4805 16.9981C88.4805 16.8138 88.3422 16.6295 88.1118 16.6295C87.8815 16.6295 87.7432 16.8138 87.7432 16.9981Z" fill="#264B44"/>
<path d="M83.4586 16.998C83.4586 17.1823 83.5968 17.3666 83.8272 17.3666C84.0115 17.3666 84.1958 17.2284 84.1958 16.998C84.1958 16.8137 84.0576 16.6294 83.8272 16.6294C83.5968 16.6294 83.4586 16.8137 83.4586 16.998Z" fill="#264B44"/>
<path d="M86.2699 24.6457C86.316 24.6457 86.3621 24.6457 86.4082 24.6457C87.3297 24.5996 88.6199 24.3231 89.864 22.9869C89.9561 22.8947 89.9561 22.7565 89.864 22.6643C89.7718 22.5722 89.6336 22.5722 89.5414 22.6643C88.666 23.632 87.6062 24.1388 86.4082 24.1849C85.5327 24.231 84.8876 23.9545 84.8876 23.9545C84.7954 23.9084 84.6572 23.9545 84.6111 24.0927C84.565 24.1849 84.6111 24.3231 84.7494 24.3692C84.7494 24.4153 85.3484 24.6457 86.2699 24.6457Z" fill="#FFA378"/>
<path d="M87.4242 21.0058C88.0233 21.0058 88.484 20.8215 88.7605 20.499C89.1752 19.9921 89.037 19.347 89.037 19.347C88.9909 19.2088 88.8987 19.1627 88.7605 19.1627C88.6223 19.2088 88.5762 19.301 88.5762 19.4392C88.5762 19.4392 88.6683 19.9 88.3919 20.2225C88.1615 20.4529 87.7929 20.5911 87.2399 20.5451C87.1017 20.5451 87.0095 20.6372 87.0095 20.7754C87.0095 20.9137 87.1017 21.0058 87.2399 21.0058C87.286 21.0058 87.3782 21.0058 87.4242 21.0058Z" fill="#FFA378"/>
<path d="M91.9383 16.3205C91.9865 16.3775 91.9881 16.4413 91.9424 16.4798C91.6073 16.7624 91.8158 17.0097 91.8319 17.0287C91.88 17.0858 91.8816 17.1496 91.8359 17.1881C91.7902 17.2266 91.7277 17.2143 91.6795 17.1572C91.6635 17.1382 91.5512 17.005 91.5303 16.7947C91.5102 16.6164 91.5992 16.4437 91.7667 16.3024C91.8276 16.251 91.8902 16.2634 91.9383 16.3205Z" fill="#FFAA83"/>
<path d="M80.754 17.3577C80.7273 17.3639 80.6472 17.3823 80.5587 17.487C80.5176 17.5526 80.4765 17.6183 80.4682 17.7046C80.4454 17.8504 80.4617 18.0435 80.5169 18.2839C80.5231 18.3106 80.5292 18.3373 80.5621 18.3579C80.5949 18.3785 80.6278 18.399 80.6812 18.3867C80.7613 18.3683 80.8024 18.3026 80.784 18.2225C80.6797 17.7685 80.7825 17.6042 80.8092 17.5981C80.8627 17.5858 80.9038 17.5201 80.9182 17.4606C80.8998 17.3804 80.8341 17.3393 80.754 17.3577Z" fill="#FFAA83"/>
</g>
<defs>
<linearGradient id="paint0_linear_1_18122" x1="23.0697" y1="32.0095" x2="20.5681" y2="28.0784" gradientUnits="userSpaceOnUse">
<stop stop-color="#FFD5D5"/>
<stop offset="1" stop-color="#FFAFAD"/>
</linearGradient>
<linearGradient id="paint1_linear_1_18122" x1="22.3131" y1="27.0838" x2="21.174" y2="12.4159" gradientUnits="userSpaceOnUse">
<stop stop-color="#FFD5D5"/>
<stop offset="1" stop-color="#FFC2C1"/>
</linearGradient>
</defs>
</svg>
