<svg width="295" height="268" viewBox="0 0 295 268" fill="none" xmlns="http://www.w3.org/2000/svg">
<path opacity="0.2" d="M277.873 148.704L237.021 188.951L213.872 188.951L229.272 173.929L229.272 134.657L259.448 104.379L259.448 58.8065L257.027 58.8065L257.027 103.775L228.784 131.263L228.784 92.1278L226.11 92.1278L226.11 154.303L199.291 127.634L199.291 23.9443L198.396 24.2198L196.988 24.2198L196.988 129.448L226.364 157.931L226.364 173.324L150.476 249.409L140.287 249.409L140.287 251.828L151.92 251.828L212.174 191.37L237.997 191.37L279.181 150.167L277.873 148.704Z" fill="url(#paint0_linear_1_4086)"/>
<path d="M130.45 239.498L130.45 219.833L159.825 190.609L159.825 149.796L156.995 149.796L156.995 189.946L130.45 216.478L130.45 59.5478L127.756 59.5478L127.756 174.319L101.074 148.333L101.074 108.184L98.4004 108.184L98.4004 149.523L128.029 178.084L128.029 239.498L130.45 239.498Z" fill="url(#paint1_linear_1_4086)"/>
<path opacity="0.2" d="M118.251 249.253L106.52 249.253L58.5437 200.266L75.232 183.878L75.232 15.087L72.7141 15.087L72.7141 182.552L56.3381 198.198L41.7187 183L41.7187 124.279L38.7714 124.279L38.7714 161.892L13.6706 136.511L13.6706 50.7884L10.2939 50.7884L10.2939 137.545L38.9081 165.442L38.9081 184.776L105.056 251.828L118.251 251.828L118.251 249.253Z" fill="url(#paint2_linear_1_4086)"/>
<path d="M209.167 12.3505C209.167 5.79519 203.853 0.481099 197.298 0.4811C190.743 0.4811 185.429 5.79519 185.429 12.3505C185.429 18.9057 190.743 24.2198 197.298 24.2198C203.853 24.2198 209.167 18.9057 209.167 12.3505Z" fill="url(#paint3_linear_1_4086)"/>
<path d="M207.073 12.3506C207.073 6.9521 202.697 2.57581 197.298 2.57581C191.9 2.57581 187.523 6.9521 187.523 12.3506C187.523 17.749 191.9 22.1254 197.298 22.1254C202.697 22.1254 207.073 17.749 207.073 12.3506Z" fill="#FCFCFC"/>
<path d="M205.878 12.4517C205.878 7.54048 202.004 3.55916 197.225 3.55916C192.447 3.55916 188.573 7.54048 188.573 12.4517C188.573 17.3629 192.447 21.3442 197.225 21.3442C202.004 21.3442 205.878 17.3629 205.878 12.4517Z" fill="url(#paint4_linear_1_4086)"/>
<path d="M23.7387 39.5813C23.7387 33.026 18.4246 27.7119 11.8694 27.7119C5.3141 27.7119 -8.05368e-07 33.026 -5.18827e-07 39.5813C-2.32287e-07 46.1366 5.3141 51.4507 11.8694 51.4507C18.4247 51.4507 23.7387 46.1366 23.7387 39.5813Z" fill="url(#paint5_linear_1_4086)"/>
<path d="M21.6443 39.5814C21.6443 34.1829 17.268 29.8066 11.8695 29.8066C6.47104 29.8066 2.09473 34.1829 2.09473 39.5814C2.09473 44.9799 6.47104 49.3562 11.8695 49.3562C17.268 49.3562 21.6443 44.9799 21.6443 39.5814Z" fill="#FCFCFC"/>
<path d="M20.4484 39.6825C20.4484 34.7713 16.5747 30.79 11.7962 30.79C7.01776 30.79 3.14404 34.7713 3.14404 39.6825C3.14404 44.5937 7.01776 48.5751 11.7962 48.5751C16.5747 48.5751 20.4484 44.5937 20.4484 39.6825Z" fill="url(#paint6_linear_1_4086)"/>
<path d="M82.5909 15.342C82.5909 10.797 78.9064 7.11248 74.3614 7.11248C69.8163 7.11248 66.1318 10.797 66.1318 15.342C66.1318 19.887 69.8163 23.5715 74.3614 23.5715C78.9064 23.5715 82.5909 19.887 82.5909 15.342Z" fill="url(#paint7_linear_1_4086)"/>
<path d="M81.1385 15.3421C81.1385 11.5991 78.1042 8.56487 74.3612 8.56487C70.6183 8.56487 67.584 11.5991 67.584 15.3421C67.584 19.0851 70.6183 22.1194 74.3612 22.1194C78.1042 22.1194 81.1385 19.0851 81.1385 15.3421Z" fill="#FCFCFC"/>
<path d="M80.3099 15.4121C80.3099 12.0069 77.6241 9.24651 74.3109 9.24651C70.9978 9.24651 68.312 12.0069 68.312 15.4121C68.312 18.8172 70.9978 21.5776 74.3109 21.5776C77.6241 21.5776 80.3099 18.8172 80.3099 15.4121Z" fill="url(#paint8_linear_1_4086)"/>
<path d="M48.2281 116.485C48.2281 111.94 44.5436 108.255 39.9986 108.255C35.4535 108.255 31.769 111.94 31.769 116.485C31.769 121.03 35.4535 124.714 39.9986 124.714C44.5436 124.714 48.2281 121.03 48.2281 116.485Z" fill="url(#paint9_linear_1_4086)"/>
<path d="M46.7757 116.485C46.7757 112.742 43.7414 109.708 39.9984 109.708C36.2555 109.708 33.2212 112.742 33.2212 116.485C33.2212 120.228 36.2555 123.262 39.9984 123.262C43.7414 123.262 46.7757 120.228 46.7757 116.485Z" fill="#FCFCFC"/>
<path d="M45.9471 116.555C45.9471 113.15 43.2613 110.389 39.9481 110.389C36.635 110.389 33.9492 113.15 33.9492 116.555C33.9492 119.96 36.635 122.72 39.9481 122.72C43.2613 122.72 45.9471 119.96 45.9471 116.555Z" fill="url(#paint10_linear_1_4086)"/>
<circle cx="157.772" cy="144.854" r="11.2449" fill="#FCFCFC"/>
<path d="M151.774 140.945L158.053 137.357L163.974 140.586L157.874 144.354L151.774 140.945Z" fill="#EBBE73"/>
<path d="M151.774 140.945V148.121L157.874 151.709V144.354L151.774 140.945Z" fill="#F1C989"/>
<path d="M154.458 146.604L154.281 145.68C154.265 145.596 154.204 145.572 154.169 145.635L153.971 145.986C153.954 146.017 153.947 146.062 153.955 146.104L154.151 147.187C154.158 147.226 154.176 147.256 154.199 147.266L154.801 147.525C154.826 147.536 154.852 147.521 154.868 147.487L155.067 147.079C155.1 147.012 155.08 146.907 155.03 146.888L154.507 146.681C154.484 146.672 154.466 146.642 154.458 146.604Z" fill="#FFFEFE"/>
<path d="M154.438 145.1L154.315 145.328C154.298 145.359 154.292 145.405 154.3 145.446L154.505 146.503C154.513 146.542 154.531 146.571 154.554 146.58L155.164 146.816C155.187 146.825 155.212 146.811 155.228 146.78L155.343 146.561C155.359 146.53 155.365 146.487 155.357 146.447L155.171 145.398C155.164 145.358 155.146 145.328 155.122 145.318L154.503 145.066C154.479 145.057 154.455 145.069 154.438 145.1Z" fill="#FFFEFE"/>
<path d="M157.873 144.354L163.972 140.586V147.978L157.873 151.709V144.354Z" fill="#DEB068"/>
<path d="M161.506 147.233L161.504 147.184L161.484 147.196L161.486 147.246C161.211 147.425 161.189 147.792 161.189 147.792C161.189 147.792 161.329 147.662 161.384 147.726C161.384 147.726 161.433 147.657 161.501 147.607L161.517 147.991C161.517 147.991 161.521 148.051 161.519 148.068C161.515 148.095 161.495 148.099 161.492 148.078C161.489 148.061 161.477 148.068 161.475 148.084C161.473 148.099 161.487 148.131 161.514 148.109C161.541 148.088 161.539 148.059 161.539 148.059L161.536 147.98L161.52 147.594C161.561 147.568 161.606 147.551 161.651 147.559C161.651 147.559 161.765 147.386 161.839 147.404C161.84 147.403 161.802 147.057 161.506 147.233Z" fill="#5B534D"/>
<path d="M161.978 147.096C161.971 146.909 161.84 146.834 161.688 146.929L161.28 147.184C161.128 147.279 161.01 147.508 161.018 147.694L161.039 148.193C161.046 148.38 161.177 148.454 161.329 148.359L161.737 148.105C161.889 148.01 162.007 147.781 161.999 147.595L161.978 147.096ZM161.733 148.016L161.325 148.271C161.213 148.341 161.117 148.286 161.111 148.148L161.09 147.649C161.084 147.512 161.171 147.343 161.284 147.273L161.692 147.019C161.804 146.949 161.9 147.004 161.906 147.141L161.926 147.64C161.933 147.778 161.846 147.947 161.733 148.016Z" fill="#5B534D"/>
<path d="M160.081 148.796L160.131 148.765L160.115 148.366L160.205 148.31L160.079 148.137L159.974 148.454L160.064 148.398L160.081 148.796Z" fill="#5B534D"/>
<path d="M159.999 148.909L160.001 148.97L160.573 148.614L160.57 148.553L159.999 148.909Z" fill="#5B534D"/>
<path d="M160.323 148.238L160.414 148.181L160.43 148.58L160.481 148.549L160.464 148.15L160.555 148.094L160.429 147.921L160.323 148.238Z" fill="#5B534D"/>
<path d="M160.449 147.696L160.041 147.95C159.889 148.045 159.771 148.274 159.779 148.46L159.8 148.959C159.808 149.146 159.938 149.22 160.091 149.126L160.499 148.871C160.651 148.776 160.769 148.547 160.761 148.361L160.74 147.862C160.732 147.675 160.602 147.601 160.449 147.696ZM160.495 148.782L160.087 149.036C159.974 149.106 159.878 149.051 159.873 148.914L159.852 148.415C159.846 148.277 159.933 148.109 160.045 148.038L160.453 147.784C160.566 147.714 160.661 147.769 160.667 147.906L160.688 148.406C160.694 148.543 160.607 148.712 160.495 148.782Z" fill="#5B534D"/>
<path d="M159.002 148.789L159.001 148.79L158.986 148.799L159.025 148.902L159.058 148.858L159.102 149.027L159.044 148.909L159.017 148.945L158.961 148.815L158.889 148.859C158.889 148.859 158.808 149.132 158.838 149.255C158.864 149.362 158.981 149.292 159.013 149.271L159.024 149.575C158.979 149.606 158.93 149.657 158.902 149.687C158.897 149.693 158.899 149.701 158.905 149.698L159.167 149.536C159.173 149.533 159.174 149.522 159.169 149.523C159.14 149.526 159.089 149.536 159.042 149.563L159.031 149.26C159.066 149.239 159.176 149.165 159.192 149.037C159.211 148.883 159.114 148.72 159.114 148.72L159.002 148.789Z" fill="#5B534D"/>
<path d="M159.201 148.468L158.793 148.72C158.641 148.814 158.523 149.042 158.53 149.229L158.549 149.73C158.556 149.916 158.686 149.992 158.838 149.898L159.246 149.646C159.399 149.552 159.517 149.323 159.51 149.136L159.491 148.636C159.484 148.449 159.354 148.374 159.201 148.468ZM159.437 149.181C159.442 149.319 159.355 149.487 159.243 149.557L158.835 149.808C158.723 149.878 158.627 149.822 158.622 149.684L158.603 149.184C158.598 149.046 158.685 148.877 158.797 148.808L159.205 148.556C159.317 148.487 159.413 148.543 159.418 148.68L159.437 149.181Z" fill="#5B534D"/>
<path d="M162.581 144.763L158.733 147.11L158.728 144.916L162.575 142.569L162.581 144.763Z" fill="#F7E8D5"/>
<path d="M161.49 143.689L159.166 145.107L159.166 144.987L161.49 143.569L161.49 143.689Z" fill="#998376"/>
<path d="M162.066 144.048L159.741 145.466L159.741 145.346L162.066 143.928V144.048Z" fill="#998376"/>
<path d="M160.615 144.564L159.172 145.444L159.171 145.325L160.614 144.444L160.615 144.564Z" fill="#8A766A"/>
<path d="M161.486 144.032L160.895 144.393L160.895 144.273L161.486 143.913L161.486 144.032Z" fill="#6D5041"/>
<path d="M161.486 144.032L160.895 144.393L160.895 144.273L161.486 143.913L161.486 144.032Z" fill="#7F6D62"/>
<path d="M160.615 145.303L159.172 146.183L159.171 146.063L160.614 145.183L160.615 145.303Z" fill="#7F6D62"/>
<path d="M161.486 144.771L160.895 145.132V145.012L161.486 144.652V144.771Z" fill="#7F6D62"/>
<path d="M161.996 143.72L161.725 143.885L161.725 143.766L161.995 143.601L161.996 143.72Z" fill="#7F6D62"/>
<path d="M159.757 146.16L159.166 146.52V146.401L159.756 146.04L159.757 146.16Z" fill="#998376"/>
<path d="M160.272 145.847L160.002 146.012L160.001 145.892L160.272 145.727L160.272 145.847Z" fill="#7F6D62"/>
<path d="M159.448 145.644L159.178 145.809L159.177 145.689L159.448 145.524L159.448 145.644Z" fill="#7F6D62"/>
<path d="M154.48 142.421L160.996 138.899L161.876 139.252L155.36 142.95L154.48 142.421Z" fill="white"/>
<path d="M154.305 139.428L160.468 142.774L161.173 142.245L154.833 139.075L154.305 139.428Z" fill="white"/>
<path d="M160.469 142.773L161.173 142.245V143.126L160.469 143.654V142.773Z" fill="#F8F9FA"/>
<path d="M154.48 142.421L155.36 142.881V144.71L154.48 144.182V142.421Z" fill="#F8F9FA"/>
<circle cx="98.7727" cy="106.986" r="11.2449" fill="#FCFCFC"/>
<path d="M92.7749 103.077L99.0539 99.4893L104.974 102.718L98.8745 106.486L92.7749 103.077Z" fill="#EBBE73"/>
<path d="M92.7749 103.078V110.254L98.8745 113.842V106.486L92.7749 103.078Z" fill="#F1C989"/>
<path d="M95.4587 108.736L95.2811 107.812C95.265 107.729 95.2044 107.704 95.1692 107.767L94.9715 108.118C94.954 108.149 94.9478 108.194 94.9553 108.236L95.1511 109.319C95.1582 109.359 95.1764 109.388 95.1992 109.398L95.8013 109.657C95.8261 109.668 95.8521 109.653 95.8687 109.619L96.0674 109.211C96.1002 109.144 96.0803 109.04 96.031 109.02L95.5077 108.813C95.4847 108.804 95.4662 108.775 95.4587 108.736Z" fill="#FFFEFE"/>
<path d="M95.439 107.232L95.3157 107.46C95.2986 107.492 95.2929 107.537 95.3009 107.578L95.5056 108.635C95.5132 108.674 95.5318 108.703 95.5548 108.712L96.1642 108.948C96.1877 108.957 96.2122 108.943 96.2285 108.912L96.3433 108.693C96.3595 108.662 96.365 108.619 96.3579 108.579L96.1718 107.53C96.1648 107.49 96.1461 107.46 96.1228 107.45L95.5032 107.198C95.4799 107.189 95.4554 107.202 95.439 107.232Z" fill="#FFFEFE"/>
<path d="M98.873 106.486L104.973 102.718V110.11L98.873 113.841V106.486Z" fill="#DEB068"/>
<path d="M102.506 109.365L102.504 109.316L102.484 109.328L102.486 109.378C102.212 109.557 102.189 109.924 102.189 109.924C102.189 109.924 102.33 109.794 102.384 109.858C102.384 109.858 102.434 109.789 102.501 109.739L102.517 110.123C102.517 110.123 102.522 110.183 102.519 110.2C102.516 110.227 102.495 110.231 102.492 110.211C102.49 110.193 102.478 110.2 102.476 110.216C102.474 110.232 102.487 110.263 102.515 110.241C102.542 110.22 102.54 110.191 102.54 110.191L102.536 110.112L102.52 109.726C102.561 109.7 102.607 109.683 102.651 109.691C102.651 109.691 102.765 109.518 102.839 109.536C102.84 109.536 102.803 109.189 102.506 109.365Z" fill="#5B534D"/>
<path d="M102.979 109.228C102.971 109.041 102.841 108.967 102.689 109.062L102.281 109.316C102.128 109.411 102.011 109.64 102.018 109.826L102.039 110.325C102.047 110.512 102.177 110.587 102.329 110.492L102.737 110.237C102.89 110.142 103.007 109.914 103 109.727L102.979 109.228ZM102.734 110.149L102.326 110.403C102.213 110.473 102.118 110.418 102.112 110.281L102.091 109.782C102.085 109.644 102.172 109.475 102.284 109.405L102.692 109.151C102.805 109.081 102.9 109.136 102.906 109.273L102.927 109.772C102.933 109.91 102.846 110.079 102.734 110.149Z" fill="#5B534D"/>
<path d="M101.082 110.928L101.132 110.897L101.115 110.498L101.205 110.442L101.08 110.269L100.974 110.586L101.065 110.53L101.082 110.928Z" fill="#5B534D"/>
<path d="M100.999 111.041L101.001 111.102L101.573 110.746L101.57 110.685L100.999 111.041Z" fill="#5B534D"/>
<path d="M101.324 110.37L101.414 110.313L101.431 110.712L101.481 110.681L101.464 110.282L101.555 110.226L101.429 110.053L101.324 110.37Z" fill="#5B534D"/>
<path d="M101.45 109.828L101.042 110.082C100.889 110.177 100.772 110.406 100.78 110.592L100.801 111.091C100.809 111.278 100.939 111.353 101.091 111.258L101.499 111.003C101.651 110.908 101.769 110.679 101.761 110.493L101.74 109.994C101.732 109.807 101.602 109.733 101.45 109.828ZM101.495 110.914L101.087 111.169C100.975 111.238 100.879 111.183 100.873 111.046L100.852 110.547C100.846 110.409 100.933 110.241 101.046 110.171L101.454 109.916C101.566 109.846 101.662 109.901 101.668 110.039L101.689 110.538C101.694 110.675 101.608 110.844 101.495 110.914Z" fill="#5B534D"/>
<path d="M100.002 110.921L100.001 110.922L99.9865 110.931L100.026 111.034L100.058 110.991L100.103 111.159L100.045 111.041L100.018 111.077L99.9618 110.947L99.8892 110.992C99.8892 110.992 99.8087 111.264 99.8388 111.387C99.8646 111.494 99.9818 111.424 100.013 111.403L100.025 111.707C99.9798 111.738 99.9306 111.789 99.9028 111.82C99.8978 111.825 99.8997 111.833 99.9052 111.83L100.168 111.668C100.173 111.665 100.174 111.654 100.169 111.655C100.141 111.659 100.089 111.668 100.043 111.695L100.031 111.392C100.067 111.371 100.176 111.297 100.192 111.169C100.212 111.015 100.115 110.852 100.115 110.852L100.002 110.921Z" fill="#5B534D"/>
<path d="M100.202 110.6L99.7939 110.852C99.6415 110.946 99.5235 111.175 99.5306 111.361L99.5497 111.862C99.5568 112.049 99.6865 112.124 99.8389 112.03L100.247 111.778C100.399 111.684 100.517 111.455 100.51 111.269L100.491 110.768C100.484 110.581 100.354 110.506 100.202 110.6ZM100.438 111.313C100.443 111.451 100.356 111.619 100.244 111.689L99.8357 111.941C99.7232 112.01 99.6279 111.954 99.6224 111.817L99.6033 111.316C99.5982 111.178 99.6853 111.01 99.7975 110.94L100.205 110.688C100.318 110.619 100.413 110.675 100.419 110.812L100.438 111.313Z" fill="#5B534D"/>
<path d="M103.581 106.895L99.7335 109.242L99.728 107.048L103.576 104.701L103.581 106.895Z" fill="#F7E8D5"/>
<path d="M102.491 105.821L100.166 107.239L100.166 107.12L102.491 105.701L102.491 105.821Z" fill="#998376"/>
<path d="M103.066 106.18L100.742 107.598L100.741 107.478L103.066 106.06V106.18Z" fill="#998376"/>
<path d="M101.615 106.696L100.172 107.577L100.172 107.457L101.615 106.577L101.615 106.696Z" fill="#8A766A"/>
<path d="M102.487 106.164L101.895 106.525L101.895 106.405L102.486 106.045L102.487 106.164Z" fill="#6D5041"/>
<path d="M102.487 106.164L101.895 106.525L101.895 106.405L102.486 106.045L102.487 106.164Z" fill="#7F6D62"/>
<path d="M101.615 107.435L100.172 108.315L100.172 108.196L101.615 107.315L101.615 107.435Z" fill="#7F6D62"/>
<path d="M102.486 106.904L101.895 107.264V107.144L102.486 106.784V106.904Z" fill="#7F6D62"/>
<path d="M102.996 105.853L102.725 106.017L102.725 105.898L102.996 105.733L102.996 105.853Z" fill="#7F6D62"/>
<path d="M100.757 108.292L100.166 108.653V108.533L100.757 108.172L100.757 108.292Z" fill="#998376"/>
<path d="M101.273 107.979L101.002 108.144L101.002 108.024L101.272 107.86L101.273 107.979Z" fill="#7F6D62"/>
<path d="M100.449 107.776L100.178 107.941L100.178 107.821L100.449 107.656L100.449 107.776Z" fill="#7F6D62"/>
<path d="M95.4805 104.554L101.996 101.032L102.877 101.384L96.361 105.082L95.4805 104.554Z" fill="white"/>
<path d="M95.3052 101.56L101.469 104.906L102.173 104.377L95.8335 101.208L95.3052 101.56Z" fill="white"/>
<path d="M101.469 104.906L102.174 104.377V105.258L101.469 105.786V104.906Z" fill="#F8F9FA"/>
<path d="M95.4805 104.553L96.361 105.014V106.843L95.4805 106.314V104.553Z" fill="#F8F9FA"/>
<circle cx="40.2449" cy="91.7258" r="11.2449" fill="#FCFCFC"/>
<path d="M34.2471 87.8171L40.526 84.2291L46.4462 87.4583L40.3466 91.2257L34.2471 87.8171Z" fill="#EBBE73"/>
<path d="M34.2471 87.8175V94.9935L40.3466 98.5815V91.2261L34.2471 87.8175Z" fill="#F1C989"/>
<path d="M36.9309 93.4755L36.7532 92.5516C36.7372 92.4684 36.6766 92.444 36.6413 92.5066L36.4436 92.8579C36.4262 92.889 36.4199 92.9343 36.4274 92.9758L36.6233 94.0592C36.6304 94.0984 36.6486 94.1283 36.6714 94.1381L37.2734 94.3969C37.2982 94.4076 37.3243 94.3929 37.3408 94.3589L37.5396 93.9509C37.5724 93.8835 37.5525 93.7794 37.5032 93.7599L36.9798 93.5528C36.9569 93.5437 36.9384 93.5144 36.9309 93.4755Z" fill="#FFFEFE"/>
<path d="M36.9111 91.9718L36.7879 92.1998C36.7708 92.2314 36.7651 92.277 36.7731 92.3183L36.9778 93.3749C36.9853 93.4139 37.004 93.4432 37.027 93.4521L37.6364 93.6877C37.6599 93.6968 37.6844 93.6833 37.7006 93.6522L37.8155 93.4328C37.8316 93.4019 37.8372 93.3584 37.8301 93.3185L37.644 92.27C37.6369 92.2301 37.6183 92.1998 37.595 92.1903L36.9754 91.938C36.9521 91.9285 36.9276 91.9414 36.9111 91.9718Z" fill="#FFFEFE"/>
<path d="M40.3452 91.2255L46.4448 87.4581V94.8494L40.3452 98.5809V91.2255Z" fill="#DEB068"/>
<path d="M43.9785 94.1052L43.9766 94.0558L43.9566 94.0684L43.9586 94.1177C43.6839 94.2971 43.6616 94.6639 43.6616 94.6639C43.6616 94.6639 43.8019 94.5338 43.8566 94.5976C43.8566 94.5976 43.9058 94.5289 43.9734 94.4789L43.9895 94.8634C43.9895 94.8634 43.9938 94.923 43.9914 94.9404C43.9879 94.9669 43.9676 94.9706 43.9645 94.9504C43.9621 94.9332 43.95 94.9403 43.948 94.9558C43.9461 94.9714 43.9594 95.0026 43.9867 94.9811C44.0141 94.9599 44.0121 94.9313 44.0121 94.9313L44.0086 94.8515L43.9926 94.4658C44.0332 94.4398 44.0789 94.4228 44.1235 94.4313C44.1235 94.4313 44.2376 94.2583 44.3114 94.276C44.3122 94.2754 44.2747 93.9287 43.9785 94.1052Z" fill="#5B534D"/>
<path d="M44.4511 93.9676C44.4432 93.7811 44.3131 93.7065 44.1607 93.8015L43.7528 94.0558C43.6004 94.1507 43.4828 94.3796 43.4906 94.5662L43.5113 95.0654C43.5191 95.2519 43.6492 95.3265 43.8016 95.2315L44.2096 94.9772C44.362 94.8823 44.4796 94.6534 44.4718 94.4669L44.4511 93.9676ZM44.2061 94.8885L43.7981 95.1428C43.6856 95.2127 43.5899 95.1577 43.584 95.0205L43.5629 94.5214C43.557 94.3838 43.6438 94.2152 43.7563 94.1449L44.1643 93.8906C44.2768 93.8207 44.3725 93.8757 44.3784 94.0129L44.3991 94.5121C44.4053 94.6496 44.3186 94.8186 44.2061 94.8885Z" fill="#5B534D"/>
<path d="M42.5537 95.6683L42.6038 95.6371L42.5873 95.2382L42.6776 95.1819L42.5518 95.0087L42.4463 95.3263L42.5369 95.2699L42.5537 95.6683Z" fill="#5B534D"/>
<path d="M42.4712 95.7804L42.4735 95.8423L43.0452 95.4862L43.0425 95.4245L42.4712 95.7804Z" fill="#5B534D"/>
<path d="M42.7959 95.1101L42.8866 95.0533L42.903 95.4522L42.9534 95.4209L42.9366 95.0221L43.0272 94.9657L42.9014 94.7925L42.7959 95.1101Z" fill="#5B534D"/>
<path d="M42.922 94.5675L42.514 94.8218C42.3616 94.9167 42.244 95.1456 42.2518 95.3322L42.2729 95.8313C42.2807 96.0179 42.4109 96.0924 42.5633 95.9975L42.9712 95.7431C43.1236 95.6482 43.2412 95.4193 43.2334 95.2328L43.2123 94.7337C43.2045 94.5467 43.0744 94.4725 42.922 94.5675ZM42.9673 95.6541L42.5594 95.9084C42.4468 95.9783 42.3511 95.9233 42.3452 95.7861L42.3245 95.2869C42.3187 95.1493 42.4054 94.9807 42.5179 94.9104L42.9259 94.6561C43.0384 94.5862 43.1341 94.6412 43.14 94.7784L43.1611 95.2775C43.1666 95.4152 43.0798 95.5838 42.9673 95.6541Z" fill="#5B534D"/>
<path d="M41.4747 95.6613L41.4735 95.6621L41.4586 95.6711L41.4977 95.7738L41.5305 95.7304L41.5747 95.899L41.5169 95.7814L41.4899 95.817L41.434 95.6866L41.3613 95.7314C41.3613 95.7314 41.2808 96.0038 41.3109 96.1273C41.3367 96.2341 41.4539 96.1641 41.4852 96.1431L41.4969 96.4467C41.452 96.4777 41.4028 96.5289 41.375 96.5595C41.3699 96.5649 41.3719 96.5733 41.3774 96.5702L41.6399 96.408C41.6454 96.4048 41.6466 96.3944 41.6415 96.395C41.613 96.3986 41.5614 96.4082 41.5149 96.4351L41.5032 96.1319C41.5387 96.1109 41.6485 96.0373 41.6646 95.9086C41.6837 95.7546 41.5868 95.5919 41.5868 95.5919L41.4747 95.6613Z" fill="#5B534D"/>
<path d="M41.674 95.3398L41.2661 95.5917C41.1137 95.6858 40.9957 95.9144 41.0027 96.1012L41.0219 96.6016C41.0289 96.7884 41.1586 96.8639 41.311 96.7698L41.719 96.5179C41.8714 96.4238 41.9894 96.1952 41.9823 96.0084L41.9632 95.5079C41.9562 95.3211 41.8264 95.2457 41.674 95.3398ZM41.9101 96.0528C41.9151 96.1906 41.828 96.3593 41.7159 96.4287L41.3079 96.6805C41.1954 96.75 41.1 96.6941 41.0946 96.5564L41.0754 96.0559C41.0703 95.9181 41.1575 95.7494 41.2696 95.68L41.6776 95.4281C41.7901 95.3586 41.8854 95.4146 41.8909 95.5523L41.9101 96.0528Z" fill="#5B534D"/>
<path d="M45.0534 91.6349L41.2057 93.9819L41.2002 91.7882L45.0479 89.4408L45.0534 91.6349Z" fill="#F7E8D5"/>
<path d="M43.9631 90.561L41.6386 91.979L41.6382 91.8594L43.9627 90.4413L43.9631 90.561Z" fill="#998376"/>
<path d="M44.5383 90.9196L42.2138 92.3377L42.2134 92.218L44.5383 90.7999V90.9196Z" fill="#998376"/>
<path d="M43.0875 91.4363L41.6444 92.3167L41.644 92.197L43.0871 91.3167L43.0875 91.4363Z" fill="#8A766A"/>
<path d="M43.9588 90.9043L43.3676 91.2647L43.3672 91.1451L43.9584 90.7847L43.9588 90.9043Z" fill="#6D5041"/>
<path d="M43.9588 90.9043L43.3676 91.2647L43.3672 91.1451L43.9584 90.7847L43.9588 90.9043Z" fill="#7F6D62"/>
<path d="M43.0875 92.1747L41.6444 93.0551L41.644 92.9354L43.0871 92.0551L43.0875 92.1747Z" fill="#7F6D62"/>
<path d="M43.9584 91.6437L43.3672 92.0041V91.8843L43.9584 91.5239V91.6437Z" fill="#7F6D62"/>
<path d="M44.4684 90.5925L44.1977 90.7574L44.1973 90.6377L44.4681 90.4728L44.4684 90.5925Z" fill="#7F6D62"/>
<path d="M42.2294 93.032L41.6382 93.3924V93.2726L42.229 92.9124L42.2294 93.032Z" fill="#998376"/>
<path d="M42.7449 92.7191L42.4745 92.8838L42.4741 92.7642L42.7445 92.5994L42.7449 92.7191Z" fill="#7F6D62"/>
<path d="M41.9211 92.5159L41.6503 92.6808L41.6499 92.5612L41.9207 92.3963L41.9211 92.5159Z" fill="#7F6D62"/>
<path d="M36.9526 89.2935L43.4684 85.7715L44.3489 86.1237L37.8331 89.8218L36.9526 89.2935Z" fill="white"/>
<path d="M36.7773 86.2997L42.9409 89.6457L43.6453 89.1173L37.3056 85.9475L36.7773 86.2997Z" fill="white"/>
<path d="M42.9414 89.6455L43.6458 89.1172V89.9977L42.9414 90.526V89.6455Z" fill="#F8F9FA"/>
<path d="M36.9526 89.2933L37.8331 89.7536V91.5827L36.9526 91.0544V89.2933Z" fill="#F8F9FA"/>
<circle cx="129.245" cy="50.5794" r="11.2449" fill="#FCFCFC"/>
<path d="M123.247 46.6709L129.526 43.0829L135.446 46.3121L129.347 50.0795L123.247 46.6709Z" fill="#EBBE73"/>
<path d="M123.247 46.6711V53.8471L129.347 57.4351V50.0797L123.247 46.6711Z" fill="#F1C989"/>
<path d="M125.931 52.3291L125.753 51.4053C125.737 51.322 125.677 51.2976 125.641 51.3602L125.444 51.7116C125.426 51.7426 125.42 51.788 125.427 51.8295L125.623 52.9129C125.63 52.952 125.649 52.9819 125.671 52.9917L126.273 53.2506C126.298 53.2612 126.324 53.2465 126.341 53.2126L126.54 52.8045C126.572 52.7372 126.553 52.6331 126.503 52.6135L125.98 52.4064C125.957 52.3973 125.938 52.368 125.931 52.3291Z" fill="#FFFEFE"/>
<path d="M125.911 50.8254L125.788 51.0534C125.771 51.0851 125.765 51.1307 125.773 51.1719L125.978 52.2286C125.985 52.2676 126.004 52.2968 126.027 52.3057L126.636 52.5414C126.66 52.5505 126.684 52.5369 126.701 52.5059L126.815 52.2864C126.832 52.2556 126.837 52.2121 126.83 52.1722L126.644 51.1237C126.637 51.0838 126.618 51.0534 126.595 51.0439L125.975 50.7916C125.952 50.7821 125.928 50.795 125.911 50.8254Z" fill="#FFFEFE"/>
<path d="M129.345 50.0792L135.445 46.3118V53.703L129.345 57.4345V50.0792Z" fill="#DEB068"/>
<path d="M132.978 52.959L132.976 52.9096L132.956 52.9221L132.958 52.9715C132.683 53.1509 132.661 53.5177 132.661 53.5177C132.661 53.5177 132.801 53.3876 132.856 53.4513C132.856 53.4513 132.905 53.3826 132.973 53.3327L132.989 53.7171C132.989 53.7171 132.993 53.7768 132.991 53.7941C132.987 53.8207 132.967 53.8244 132.964 53.8042C132.962 53.787 132.95 53.794 132.948 53.8096C132.946 53.8252 132.959 53.8563 132.986 53.8348C133.014 53.8137 133.012 53.785 133.012 53.785L133.008 53.7052L132.992 53.3196C133.033 53.2935 133.078 53.2766 133.123 53.2851C133.123 53.2851 133.237 53.112 133.311 53.1298C133.312 53.1292 133.274 52.7825 132.978 52.959Z" fill="#5B534D"/>
<path d="M133.451 52.8214C133.443 52.6348 133.313 52.5603 133.161 52.6552L132.753 52.9095C132.6 53.0045 132.483 53.2333 132.491 53.4199L132.511 53.9191C132.519 54.1057 132.649 54.1802 132.802 54.0853L133.21 53.831C133.362 53.7361 133.48 53.5072 133.472 53.3206L133.451 52.8214ZM133.206 53.7423L132.798 53.9966C132.686 54.0665 132.59 54.0115 132.584 53.8743L132.563 53.3752C132.557 53.2376 132.644 53.069 132.756 52.9987L133.164 52.7444C133.277 52.6745 133.373 52.7295 133.378 52.8667L133.399 53.3659C133.405 53.5034 133.319 53.6724 133.206 53.7423Z" fill="#5B534D"/>
<path d="M131.554 54.522L131.604 54.4909L131.587 54.092L131.678 54.0357L131.552 53.8625L131.446 54.1801L131.537 54.1236L131.554 54.522Z" fill="#5B534D"/>
<path d="M131.471 54.6342L131.474 54.6961L132.045 54.34L132.042 54.2782L131.471 54.6342Z" fill="#5B534D"/>
<path d="M131.796 53.9639L131.887 53.907L131.903 54.306L131.953 54.2747L131.937 53.8759L132.027 53.8195L131.901 53.6463L131.796 53.9639Z" fill="#5B534D"/>
<path d="M131.922 53.4212L131.514 53.6755C131.362 53.7705 131.244 53.9994 131.252 54.1859L131.273 54.685C131.281 54.8716 131.411 54.9462 131.563 54.8512L131.971 54.5969C132.124 54.502 132.241 54.2731 132.233 54.0865L132.212 53.5874C132.204 53.4004 132.074 53.3263 131.922 53.4212ZM131.967 54.5079L131.559 54.7622C131.447 54.8321 131.351 54.7771 131.345 54.6399L131.325 54.1407C131.319 54.0031 131.405 53.8345 131.518 53.7642L131.926 53.5099C132.038 53.44 132.134 53.495 132.14 53.6322L132.161 54.1313C132.167 54.269 132.08 54.4376 131.967 54.5079Z" fill="#5B534D"/>
<path d="M130.475 54.5151L130.473 54.5158L130.459 54.5249L130.498 54.6275L130.531 54.5842L130.575 54.7528L130.517 54.6351L130.49 54.6707L130.434 54.5403L130.361 54.5852C130.361 54.5852 130.281 54.8576 130.311 54.981C130.337 55.0879 130.454 55.0178 130.485 54.9969L130.497 55.3005C130.452 55.3314 130.403 55.3827 130.375 55.4132C130.37 55.4187 130.372 55.4271 130.377 55.4239L130.64 55.2618C130.645 55.2586 130.647 55.2481 130.642 55.2487C130.613 55.2523 130.561 55.262 130.515 55.2889L130.503 54.9857C130.539 54.9647 130.649 54.8911 130.665 54.7624C130.684 54.6084 130.587 54.4457 130.587 54.4457L130.475 54.5151Z" fill="#5B534D"/>
<path d="M130.674 54.1936L130.266 54.4454C130.114 54.5396 129.996 54.7681 130.003 54.9549L130.022 55.4554C130.029 55.6422 130.159 55.7177 130.311 55.6235L130.719 55.3717C130.871 55.2775 130.989 55.049 130.982 54.8622L130.963 54.3617C130.956 54.1749 130.826 54.0994 130.674 54.1936ZM130.91 54.9065C130.915 55.0443 130.828 55.213 130.716 55.2824L130.308 55.5343C130.195 55.6038 130.1 55.5479 130.095 55.4101L130.075 54.9097C130.07 54.7719 130.157 54.6032 130.27 54.5338L130.678 54.2819C130.79 54.2124 130.885 54.2683 130.891 54.4061L130.91 54.9065Z" fill="#5B534D"/>
<path d="M134.053 50.4885L130.206 52.8355L130.2 50.6419L134.048 48.2945L134.053 50.4885Z" fill="#F7E8D5"/>
<path d="M132.963 49.4147L130.639 50.8328L130.638 50.7131L132.963 49.2951L132.963 49.4147Z" fill="#998376"/>
<path d="M133.538 49.7734L131.214 51.1914L131.213 51.0718L133.538 49.6536V49.7734Z" fill="#998376"/>
<path d="M132.087 50.2901L130.644 51.1704L130.644 51.0508L132.087 50.1704L132.087 50.2901Z" fill="#8A766A"/>
<path d="M132.959 49.7581L132.368 50.1185L132.367 49.9988L132.958 49.6384L132.959 49.7581Z" fill="#6D5041"/>
<path d="M132.959 49.7581L132.368 50.1185L132.367 49.9988L132.958 49.6384L132.959 49.7581Z" fill="#7F6D62"/>
<path d="M132.087 51.0285L130.644 51.9088L130.644 51.7892L132.087 50.9088L132.087 51.0285Z" fill="#7F6D62"/>
<path d="M132.958 50.4975L132.367 50.8579V50.7381L132.958 50.3777V50.4975Z" fill="#7F6D62"/>
<path d="M133.468 49.4462L133.198 49.6111L133.197 49.4915L133.468 49.3266L133.468 49.4462Z" fill="#7F6D62"/>
<path d="M131.229 51.8858L130.638 52.2462V52.1264L131.229 51.7661L131.229 51.8858Z" fill="#998376"/>
<path d="M131.745 51.5728L131.475 51.7376L131.474 51.6179L131.745 51.4532L131.745 51.5728Z" fill="#7F6D62"/>
<path d="M130.921 51.3697L130.65 51.5346L130.65 51.4149L130.921 51.25L130.921 51.3697Z" fill="#7F6D62"/>
<path d="M125.953 48.1472L132.468 44.6251L133.349 44.9773L126.833 48.6755L125.953 48.1472Z" fill="white"/>
<path d="M125.777 45.1534L131.941 48.4993L132.645 47.971L126.306 44.8011L125.777 45.1534Z" fill="white"/>
<path d="M131.941 48.4992L132.646 47.9708V48.8513L131.941 49.3797V48.4992Z" fill="#F8F9FA"/>
<path d="M125.953 48.147L126.833 48.6072V50.4363L125.953 49.908V48.147Z" fill="#F8F9FA"/>
<circle cx="227.531" cy="84.8813" r="14.2435" fill="#FCFCFC"/>
<path d="M219.934 79.9305L227.887 75.3857L235.386 79.476L227.66 84.2481L219.934 79.9305Z" fill="#EBBE73"/>
<path d="M219.934 79.9309V89.0205L227.66 93.5653V84.2485L219.934 79.9309Z" fill="#F1C989"/>
<path d="M223.334 87.0976L223.109 85.9274C223.088 85.822 223.011 85.7911 222.967 85.8704L222.716 86.3154C222.694 86.3547 222.686 86.4121 222.696 86.4647L222.944 87.837C222.953 87.8866 222.976 87.9244 223.005 87.9369L223.767 88.2648C223.799 88.2783 223.832 88.2596 223.853 88.2166L224.105 87.6998C224.146 87.6145 224.121 87.4826 224.058 87.4578L223.396 87.1955C223.367 87.184 223.343 87.1469 223.334 87.0976Z" fill="#FFFEFE"/>
<path d="M223.309 85.1929L223.152 85.4817C223.131 85.5218 223.124 85.5796 223.134 85.6318L223.393 86.9702C223.403 87.0196 223.426 87.0567 223.455 87.068L224.227 87.3664C224.257 87.378 224.288 87.3608 224.309 87.3215L224.454 87.0435C224.474 87.0044 224.482 86.9494 224.473 86.8988L224.237 85.5707C224.228 85.5201 224.204 85.4817 224.175 85.4697L223.39 85.1501C223.36 85.1381 223.329 85.1544 223.309 85.1929Z" fill="#FFFEFE"/>
<path d="M227.659 84.2479L235.385 79.4758V88.8381L227.659 93.5647V84.2479Z" fill="#DEB068"/>
<path d="M232.261 87.8957L232.258 87.8332L232.233 87.849L232.236 87.9116C231.888 88.1388 231.859 88.6034 231.859 88.6034C231.859 88.6034 232.037 88.4386 232.106 88.5194C232.106 88.5194 232.169 88.4323 232.254 88.3691L232.275 88.856C232.275 88.856 232.28 88.9316 232.277 88.9536C232.273 88.9872 232.247 88.9919 232.243 88.9663C232.24 88.9445 232.225 88.9535 232.222 88.9732C232.22 88.9929 232.237 89.0324 232.271 89.0051C232.306 88.9784 232.303 88.9421 232.303 88.9421L232.299 88.841L232.279 88.3525C232.33 88.3195 232.388 88.298 232.444 88.3088C232.444 88.3088 232.589 88.0896 232.682 88.1121C232.683 88.1113 232.636 87.6722 232.261 87.8957Z" fill="#5B534D"/>
<path d="M232.86 87.721C232.85 87.4847 232.685 87.3903 232.492 87.5105L231.975 87.8327C231.782 87.9529 231.633 88.2428 231.643 88.4792L231.669 89.1115C231.679 89.3478 231.844 89.4422 232.037 89.322L232.554 88.9999C232.747 88.8796 232.896 88.5897 232.886 88.3534L232.86 87.721ZM232.549 88.8875L232.033 89.2096C231.89 89.2981 231.769 89.2285 231.761 89.0547L231.735 88.4225C231.727 88.2482 231.837 88.0346 231.98 87.9456L232.496 87.6235C232.639 87.5349 232.76 87.6046 232.768 87.7784L232.794 88.4107C232.802 88.5849 232.692 88.7989 232.549 88.8875Z" fill="#5B534D"/>
<path d="M230.456 89.8755L230.52 89.8361L230.499 89.3308L230.613 89.2594L230.454 89.0401L230.32 89.4424L230.435 89.3709L230.456 89.8755Z" fill="#5B534D"/>
<path d="M230.351 90.0176L230.354 90.096L231.078 89.6449L231.075 89.5667L230.351 90.0176Z" fill="#5B534D"/>
<path d="M230.764 89.1684L230.879 89.0965L230.9 89.6018L230.964 89.5622L230.942 89.057L231.057 88.9855L230.898 88.7661L230.764 89.1684Z" fill="#5B534D"/>
<path d="M230.923 88.4813L230.406 88.8034C230.213 88.9237 230.064 89.2136 230.074 89.4499L230.1 90.0821C230.11 90.3184 230.275 90.4128 230.468 90.2926L230.985 89.9705C231.178 89.8502 231.327 89.5603 231.317 89.324L231.29 88.6918C231.28 88.4549 231.116 88.361 230.923 88.4813ZM230.98 89.8577L230.463 90.1798C230.321 90.2684 230.199 90.1987 230.192 90.0249L230.166 89.3926C230.158 89.2183 230.268 89.0047 230.411 88.9157L230.927 88.5935C231.07 88.505 231.191 88.5747 231.199 88.7485L231.225 89.3807C231.232 89.5551 231.123 89.7686 230.98 89.8577Z" fill="#5B534D"/>
<path d="M229.09 89.8664L229.088 89.8674L229.07 89.8789L229.119 90.0089L229.161 89.954L229.217 90.1675L229.143 90.0185L229.109 90.0636L229.038 89.8985L228.946 89.9553C228.946 89.9553 228.844 90.3003 228.883 90.4567C228.915 90.592 229.064 90.5033 229.103 90.4767L229.118 90.8613C229.061 90.9005 228.999 90.9654 228.964 91.0041C228.957 91.011 228.96 91.0217 228.967 91.0177L229.299 90.8123C229.306 90.8082 229.308 90.795 229.301 90.7958C229.265 90.8003 229.2 90.8125 229.141 90.8466L229.126 90.4626C229.171 90.436 229.31 90.3428 229.33 90.1797C229.355 89.9846 229.232 89.7786 229.232 89.7786L229.09 89.8664Z" fill="#5B534D"/>
<path d="M229.342 89.4591L228.826 89.7781C228.633 89.8974 228.483 90.1869 228.492 90.4235L228.516 91.0574C228.525 91.294 228.69 91.3896 228.883 91.2704L229.399 90.9514C229.592 90.8321 229.742 90.5426 229.733 90.306L229.709 89.6721C229.7 89.4355 229.535 89.3399 229.342 89.4591ZM229.641 90.3622C229.648 90.5367 229.537 90.7504 229.395 90.8383L228.879 91.1574C228.736 91.2454 228.615 91.1745 228.608 91.0001L228.584 90.3662C228.578 90.1916 228.688 89.9779 228.83 89.89L229.347 89.571C229.489 89.483 229.61 89.5538 229.617 89.7282L229.641 90.3622Z" fill="#5B534D"/>
<path d="M233.623 84.7659L228.749 87.7388L228.742 84.9601L233.616 81.9868L233.623 84.7659Z" fill="#F7E8D5"/>
<path d="M232.242 83.4059L229.297 85.2021L229.297 85.0505L232.241 83.2543L232.242 83.4059Z" fill="#998376"/>
<path d="M232.971 83.86L230.027 85.6562L230.026 85.5046L232.971 83.7083V83.86Z" fill="#998376"/>
<path d="M231.133 84.5146L229.305 85.6297L229.304 85.4782L231.132 84.363L231.133 84.5146Z" fill="#8A766A"/>
<path d="M232.237 83.8409L231.488 84.2974L231.487 84.1458L232.236 83.6893L232.237 83.8409Z" fill="#6D5041"/>
<path d="M232.237 83.8409L231.488 84.2974L231.487 84.1458L232.236 83.6893L232.237 83.8409Z" fill="#7F6D62"/>
<path d="M231.133 85.4498L229.305 86.5649L229.304 86.4133L231.132 85.2982L231.133 85.4498Z" fill="#7F6D62"/>
<path d="M232.236 84.7772L231.487 85.2337V85.082L232.236 84.6255V84.7772Z" fill="#7F6D62"/>
<path d="M232.882 83.4458L232.539 83.6547L232.539 83.5031L232.882 83.2943L232.882 83.4458Z" fill="#7F6D62"/>
<path d="M230.046 86.5357L229.297 86.9922V86.8405L230.045 86.3842L230.046 86.5357Z" fill="#998376"/>
<path d="M230.698 86.1392L230.356 86.3479L230.355 86.1963L230.698 85.9876L230.698 86.1392Z" fill="#7F6D62"/>
<path d="M229.655 85.8819L229.312 86.0907L229.312 85.9391L229.655 85.7303L229.655 85.8819Z" fill="#7F6D62"/>
<path d="M223.361 81.8004L231.615 77.3391L232.73 77.7852L224.477 82.4695L223.361 81.8004Z" fill="white"/>
<path d="M223.139 78.0081L230.946 82.2463L231.838 81.5771L223.808 77.562L223.139 78.0081Z" fill="white"/>
<path d="M230.946 82.2464L231.838 81.5771V82.6925L230.946 83.3617V82.2464Z" fill="#F8F9FA"/>
<path d="M223.361 81.8002L224.477 82.3831V84.7L223.361 84.0308V81.8002Z" fill="#F8F9FA"/>
<circle cx="280.756" cy="144.854" r="14.2435" fill="#FCFCFC"/>
<path d="M273.159 139.903L281.112 135.358L288.611 139.449L280.885 144.221L273.159 139.903Z" fill="#EBBE73"/>
<path d="M273.159 139.904V148.993L280.885 153.538V144.221L273.159 139.904Z" fill="#F1C989"/>
<path d="M276.559 147.07L276.334 145.9C276.313 145.795 276.237 145.764 276.192 145.843L275.941 146.288C275.919 146.327 275.911 146.385 275.921 146.437L276.169 147.81C276.178 147.859 276.201 147.897 276.23 147.91L276.993 148.237C277.024 148.251 277.057 148.232 277.078 148.189L277.33 147.672C277.371 147.587 277.346 147.455 277.284 147.43L276.621 147.168C276.592 147.157 276.568 147.12 276.559 147.07Z" fill="#FFFEFE"/>
<path d="M276.534 145.166L276.378 145.454C276.356 145.494 276.349 145.552 276.359 145.604L276.618 146.943C276.628 146.992 276.651 147.029 276.68 147.041L277.452 147.339C277.482 147.351 277.513 147.333 277.534 147.294L277.679 147.016C277.7 146.977 277.707 146.922 277.698 146.871L277.462 145.543C277.453 145.493 277.429 145.454 277.4 145.442L276.615 145.123C276.585 145.111 276.554 145.127 276.534 145.166Z" fill="#FFFEFE"/>
<path d="M280.884 144.221L288.61 139.448V148.811L280.884 153.537V144.221Z" fill="#DEB068"/>
<path d="M285.486 147.868L285.483 147.806L285.458 147.821L285.461 147.884C285.113 148.111 285.084 148.576 285.084 148.576C285.084 148.576 285.262 148.411 285.331 148.492C285.331 148.492 285.394 148.405 285.479 148.342L285.5 148.828C285.5 148.828 285.505 148.904 285.502 148.926C285.498 148.96 285.472 148.964 285.468 148.939C285.465 148.917 285.45 148.926 285.447 148.946C285.445 148.965 285.462 149.005 285.496 148.978C285.531 148.951 285.528 148.914 285.528 148.914L285.524 148.813L285.504 148.325C285.555 148.292 285.613 148.27 285.669 148.281C285.669 148.281 285.814 148.062 285.908 148.085C285.909 148.084 285.861 147.645 285.486 147.868Z" fill="#5B534D"/>
<path d="M286.085 147.693C286.075 147.457 285.91 147.363 285.717 147.483L285.2 147.805C285.007 147.925 284.858 148.215 284.868 148.452L284.894 149.084C284.904 149.32 285.069 149.415 285.262 149.294L285.779 148.972C285.972 148.852 286.121 148.562 286.111 148.326L286.085 147.693ZM285.774 148.86L285.258 149.182C285.115 149.271 284.994 149.201 284.986 149.027L284.96 148.395C284.952 148.221 285.062 148.007 285.205 147.918L285.721 147.596C285.864 147.507 285.985 147.577 285.993 147.751L286.019 148.383C286.027 148.557 285.917 148.771 285.774 148.86Z" fill="#5B534D"/>
<path d="M283.682 149.848L283.745 149.808L283.724 149.303L283.838 149.232L283.679 149.012L283.545 149.415L283.66 149.343L283.682 149.848Z" fill="#5B534D"/>
<path d="M283.576 149.99L283.579 150.068L284.303 149.617L284.3 149.539L283.576 149.99Z" fill="#5B534D"/>
<path d="M283.989 149.141L284.104 149.069L284.125 149.574L284.189 149.535L284.167 149.029L284.282 148.958L284.123 148.739L283.989 149.141Z" fill="#5B534D"/>
<path d="M284.148 148.454L283.631 148.776C283.438 148.896 283.289 149.186 283.299 149.422L283.326 150.055C283.335 150.291 283.5 150.385 283.693 150.265L284.21 149.943C284.403 149.823 284.552 149.533 284.542 149.296L284.515 148.664C284.505 148.427 284.341 148.333 284.148 148.454ZM284.205 149.83L283.688 150.152C283.546 150.241 283.425 150.171 283.417 149.997L283.391 149.365C283.383 149.191 283.493 148.977 283.636 148.888L284.153 148.566C284.295 148.477 284.416 148.547 284.424 148.721L284.451 149.353C284.457 149.528 284.348 149.741 284.205 149.83Z" fill="#5B534D"/>
<path d="M282.315 149.839L282.314 149.84L282.295 149.851L282.344 149.981L282.386 149.926L282.442 150.14L282.368 149.991L282.334 150.036L282.264 149.871L282.171 149.928C282.171 149.928 282.07 150.273 282.108 150.429C282.14 150.564 282.289 150.476 282.328 150.449L282.343 150.834C282.286 150.873 282.224 150.938 282.189 150.977C282.182 150.983 282.185 150.994 282.192 150.99L282.524 150.785C282.531 150.781 282.533 150.767 282.526 150.768C282.49 150.773 282.425 150.785 282.366 150.819L282.351 150.435C282.396 150.408 282.535 150.315 282.556 150.152C282.58 149.957 282.457 149.751 282.457 149.751L282.315 149.839Z" fill="#5B534D"/>
<path d="M282.567 149.432L282.051 149.751C281.858 149.87 281.708 150.159 281.717 150.396L281.741 151.03C281.75 151.267 281.915 151.362 282.108 151.243L282.624 150.924C282.817 150.805 282.967 150.515 282.958 150.279L282.934 149.645C282.925 149.408 282.761 149.312 282.567 149.432ZM282.866 150.335C282.873 150.509 282.763 150.723 282.62 150.811L282.104 151.13C281.961 151.218 281.84 151.147 281.833 150.973L281.809 150.339C281.803 150.164 281.913 149.95 282.055 149.863L282.572 149.544C282.714 149.455 282.835 149.526 282.842 149.701L282.866 150.335Z" fill="#5B534D"/>
<path d="M286.848 144.739L281.974 147.712L281.967 144.933L286.841 141.96L286.848 144.739Z" fill="#F7E8D5"/>
<path d="M285.467 143.379L282.522 145.175L282.522 145.023L285.466 143.227L285.467 143.379Z" fill="#998376"/>
<path d="M286.196 143.833L283.252 145.629L283.251 145.477L286.196 143.681V143.833Z" fill="#998376"/>
<path d="M284.358 144.487L282.53 145.603L282.529 145.451L284.357 144.336L284.358 144.487Z" fill="#8A766A"/>
<path d="M285.462 143.814L284.713 144.27L284.712 144.119L285.461 143.662L285.462 143.814Z" fill="#6D5041"/>
<path d="M285.462 143.814L284.713 144.27L284.712 144.119L285.461 143.662L285.462 143.814Z" fill="#7F6D62"/>
<path d="M284.358 145.423L282.53 146.538L282.529 146.386L284.357 145.271L284.358 145.423Z" fill="#7F6D62"/>
<path d="M285.461 144.75L284.712 145.206V145.055L285.461 144.598V144.75Z" fill="#7F6D62"/>
<path d="M286.107 143.419L285.764 143.627L285.764 143.476L286.107 143.267L286.107 143.419Z" fill="#7F6D62"/>
<path d="M283.271 146.508L282.522 146.965V146.813L283.27 146.357L283.271 146.508Z" fill="#998376"/>
<path d="M283.924 146.112L283.581 146.321L283.581 146.169L283.923 145.96L283.924 146.112Z" fill="#7F6D62"/>
<path d="M282.88 145.855L282.537 146.063L282.537 145.912L282.88 145.703L282.88 145.855Z" fill="#7F6D62"/>
<path d="M276.586 141.773L284.84 137.312L285.955 137.758L277.702 142.442L276.586 141.773Z" fill="white"/>
<path d="M276.364 137.981L284.171 142.219L285.063 141.55L277.033 137.535L276.364 137.981Z" fill="white"/>
<path d="M284.171 142.219L285.063 141.55V142.665L284.171 143.334V142.219Z" fill="#F8F9FA"/>
<path d="M276.586 141.773L277.702 142.356V144.673L276.586 144.003V141.773Z" fill="#F8F9FA"/>
<circle cx="257.517" cy="57.8936" r="8.99588" fill="#FCFCFC"/>
<path d="M252.717 54.767L257.74 51.8966L262.477 54.48L257.597 57.4939L252.717 54.767Z" fill="#EBBE73"/>
<path d="M252.717 54.7675V60.5082L257.597 63.3786V57.4943L252.717 54.7675Z" fill="#F1C989"/>
<path d="M254.865 59.2937L254.723 58.5546C254.71 58.4881 254.661 58.4685 254.633 58.5186L254.475 58.7997C254.461 58.8245 254.456 58.8608 254.462 58.894L254.619 59.7607C254.624 59.792 254.639 59.8159 254.657 59.8238L255.139 60.0309C255.159 60.0394 255.179 60.0276 255.193 60.0005L255.352 59.674C255.378 59.6202 255.362 59.5369 255.323 59.5212L254.904 59.3555C254.886 59.3483 254.871 59.3248 254.865 59.2937Z" fill="#FFFEFE"/>
<path d="M254.849 58.0908L254.75 58.2731C254.737 58.2985 254.732 58.335 254.738 58.368L254.902 59.2133C254.908 59.2445 254.923 59.2679 254.942 59.275L255.429 59.4635C255.448 59.4708 255.468 59.46 255.481 59.4351L255.572 59.2596C255.585 59.2349 255.59 59.2001 255.584 59.1682L255.435 58.3294C255.43 58.2974 255.415 58.2731 255.396 58.2656L254.9 58.0637C254.882 58.0561 254.862 58.0664 254.849 58.0908Z" fill="#FFFEFE"/>
<path d="M257.596 57.4939L262.475 54.48V60.393L257.596 63.3782V57.4939Z" fill="#DEB068"/>
<path d="M260.504 59.7978L260.503 59.7583L260.487 59.7683L260.489 59.8078C260.269 59.9513 260.251 60.2448 260.251 60.2448C260.251 60.2448 260.363 60.1407 260.407 60.1917C260.407 60.1917 260.446 60.1367 260.5 60.0968L260.513 60.4043C260.513 60.4043 260.517 60.4521 260.515 60.4659C260.512 60.4872 260.496 60.4901 260.493 60.4739C260.491 60.4602 260.482 60.4658 260.48 60.4783C260.479 60.4907 260.489 60.5157 260.511 60.4985C260.533 60.4816 260.531 60.4586 260.531 60.4586L260.529 60.3948L260.516 60.0863C260.548 60.0654 260.585 60.0519 260.62 60.0587C260.62 60.0587 260.712 59.9203 260.771 59.9344C260.771 59.9339 260.741 59.6566 260.504 59.7978Z" fill="#5B534D"/>
<path d="M260.882 59.6874C260.876 59.5382 260.772 59.4785 260.65 59.5545L260.323 59.7579C260.201 59.8339 260.107 60.017 260.114 60.1663L260.13 60.5656C260.136 60.7149 260.24 60.7745 260.362 60.6986L260.689 60.4951C260.811 60.4192 260.905 60.2361 260.899 60.0868L260.882 59.6874ZM260.686 60.4241L260.36 60.6276C260.27 60.6835 260.193 60.6395 260.188 60.5297L260.171 60.1305C260.167 60.0204 260.236 59.8855 260.326 59.8293L260.652 59.6258C260.743 59.5699 260.819 59.6139 260.824 59.7237L260.84 60.123C260.845 60.233 260.776 60.3682 260.686 60.4241Z" fill="#5B534D"/>
<path d="M259.365 61.0482L259.405 61.0233L259.392 60.7041L259.464 60.6591L259.363 60.5205L259.279 60.7746L259.351 60.7295L259.365 61.0482Z" fill="#5B534D"/>
<path d="M259.298 61.1378L259.3 61.1873L259.757 60.9024L259.755 60.853L259.298 61.1378Z" fill="#5B534D"/>
<path d="M259.559 60.6017L259.631 60.5563L259.644 60.8754L259.685 60.8504L259.671 60.5313L259.744 60.4862L259.643 60.3477L259.559 60.6017Z" fill="#5B534D"/>
<path d="M259.658 60.1676L259.332 60.371C259.21 60.447 259.116 60.63 259.122 60.7793L259.139 61.1786C259.145 61.3279 259.25 61.3875 259.372 61.3115L259.698 61.1081C259.82 61.0321 259.914 60.849 259.908 60.6998L259.891 60.3005C259.884 60.1509 259.78 60.0916 259.658 60.1676ZM259.695 61.0369L259.368 61.2403C259.278 61.2962 259.202 61.2522 259.197 61.1425L259.181 60.7431C259.176 60.633 259.245 60.4981 259.335 60.4419L259.662 60.2385C259.752 60.1825 259.828 60.2265 259.833 60.3363L259.85 60.7356C259.854 60.8458 259.785 60.9806 259.695 61.0369Z" fill="#5B534D"/>
<path d="M258.502 61.0424L258.501 61.043L258.489 61.0502L258.52 61.1324L258.546 61.0977L258.582 61.2326L258.535 61.1384L258.514 61.1669L258.469 61.0626L258.411 61.0985C258.411 61.0985 258.347 61.3164 258.371 61.4152C258.391 61.5006 258.485 61.4446 258.51 61.4278L258.519 61.6707C258.483 61.6955 258.444 61.7365 258.422 61.7609C258.418 61.7653 258.419 61.772 258.424 61.7695L258.634 61.6398C258.638 61.6372 258.639 61.6288 258.635 61.6293C258.612 61.6322 258.571 61.6399 258.534 61.6615L258.524 61.4189C258.553 61.4021 258.641 61.3432 258.654 61.2402C258.669 61.117 258.591 60.9869 258.591 60.9869L258.502 61.0424Z" fill="#5B534D"/>
<path d="M258.661 60.7853L258.334 60.9868C258.213 61.0621 258.118 61.2449 258.124 61.3943L258.139 61.7947C258.145 61.9442 258.249 62.0045 258.37 61.9292L258.697 61.7277C258.819 61.6524 258.913 61.4696 258.907 61.3201L258.892 60.9198C258.887 60.7703 258.783 60.7099 258.661 60.7853ZM258.85 61.3556C258.854 61.4659 258.784 61.6008 258.694 61.6563L258.368 61.8578C258.278 61.9134 258.202 61.8687 258.197 61.7585L258.182 61.3581C258.178 61.2479 258.248 61.1129 258.337 61.0574L258.664 60.8559C258.754 60.8003 258.83 60.8451 258.834 60.9552L258.85 61.3556Z" fill="#5B534D"/>
<path d="M261.364 57.8211L258.286 59.6987L258.282 57.9437L261.36 56.0658L261.364 57.8211Z" fill="#F7E8D5"/>
<path d="M260.492 56.962L258.632 58.0964L258.632 58.0007L260.491 56.8663L260.492 56.962Z" fill="#998376"/>
<path d="M260.953 57.2487L259.093 58.3832L259.093 58.2874L260.953 57.1529V57.2487Z" fill="#998376"/>
<path d="M259.792 57.6621L258.638 58.3664L258.638 58.2707L259.792 57.5664L259.792 57.6621Z" fill="#8A766A"/>
<path d="M260.488 57.2368L260.015 57.5251L260.015 57.4293L260.488 57.141L260.488 57.2368Z" fill="#6D5041"/>
<path d="M260.488 57.2368L260.015 57.5251L260.015 57.4293L260.488 57.141L260.488 57.2368Z" fill="#7F6D62"/>
<path d="M259.792 58.2529L258.638 58.9572L258.638 58.8615L259.792 58.1572L259.792 58.2529Z" fill="#7F6D62"/>
<path d="M260.488 57.828L260.015 58.1163V58.0205L260.488 57.7322V57.828Z" fill="#7F6D62"/>
<path d="M260.897 56.9873L260.68 57.1192L260.68 57.0234L260.897 56.8915L260.897 56.9873Z" fill="#7F6D62"/>
<path d="M259.105 58.9387L258.632 59.2271V59.1312L259.104 58.843L259.105 58.9387Z" fill="#998376"/>
<path d="M259.517 58.6883L259.301 58.8201L259.301 58.7244L259.517 58.5926L259.517 58.6883Z" fill="#7F6D62"/>
<path d="M258.859 58.526L258.642 58.6579L258.642 58.5621L258.859 58.4302L258.859 58.526Z" fill="#7F6D62"/>
<path d="M254.883 55.948L260.095 53.1304L260.8 53.4121L255.587 56.3706L254.883 55.948Z" fill="white"/>
<path d="M254.742 53.5529L259.673 56.2296L260.237 55.807L255.165 53.2711L254.742 53.5529Z" fill="white"/>
<path d="M259.672 56.2297L260.235 55.807V56.5114L259.672 56.9341V56.2297Z" fill="#F8F9FA"/>
<path d="M254.883 55.9479L255.587 56.3161V57.7793L254.883 57.3567V55.9479Z" fill="#F8F9FA"/>
<path d="M143.536 251.99C143.536 243.148 136.368 235.981 127.526 235.981C118.684 235.981 111.517 243.148 111.517 251.99C111.517 260.832 118.684 268 127.526 268C136.368 268 143.536 260.832 143.536 251.99Z" fill="url(#paint11_linear_1_4086)"/>
<path d="M140.711 251.99C140.711 244.709 134.808 238.806 127.526 238.806C120.245 238.806 114.342 244.709 114.342 251.99C114.342 259.272 120.245 265.175 127.526 265.175C134.808 265.175 140.711 259.272 140.711 251.99Z" fill="#FCFCFC"/>
<path d="M139.098 252.127C139.098 245.503 133.873 240.132 127.428 240.132C120.982 240.132 115.757 245.503 115.757 252.127C115.757 258.751 120.982 264.121 127.428 264.121C133.873 264.121 139.098 258.751 139.098 252.127Z" fill="url(#paint12_linear_1_4086)"/>
<path d="M129.145 253.582L124.618 255.102C124.211 255.239 124.091 255.758 124.398 256.06L126.119 257.752C126.271 257.901 126.493 257.955 126.697 257.89L132.005 256.214C132.196 256.154 132.343 255.998 132.391 255.802L133.659 250.65C133.711 250.438 133.639 250.214 133.473 250.073L131.474 248.372C131.144 248.091 130.634 248.261 130.538 248.684L129.523 253.163C129.479 253.359 129.335 253.518 129.145 253.582Z" fill="white"/>
<path d="M121.778 253.751L122.895 254.806C123.05 254.952 123.273 255.001 123.475 254.932L128.652 253.18C128.843 253.116 128.986 252.956 129.03 252.759L130.185 247.544C130.229 247.342 130.163 247.133 130.011 246.994L128.935 246.011C128.784 245.872 128.571 245.825 128.376 245.885L123.239 247.478C123.043 247.539 122.895 247.699 122.848 247.898L121.612 253.201C121.566 253.401 121.629 253.61 121.778 253.751Z" fill="white"/>
<defs>
<linearGradient id="paint0_linear_1_4086" x1="140.287" y1="137.886" x2="279.181" y2="137.886" gradientUnits="userSpaceOnUse">
<stop stop-color="#C850C0"/>
<stop offset="1" stop-color="#4158D0"/>
</linearGradient>
<linearGradient id="paint1_linear_1_4086" x1="98.4004" y1="149.523" x2="159.825" y2="149.523" gradientUnits="userSpaceOnUse">
<stop stop-color="#C850C0"/>
<stop offset="1" stop-color="#4158D0"/>
</linearGradient>
<linearGradient id="paint2_linear_1_4086" x1="10.2939" y1="133.458" x2="118.251" y2="133.457" gradientUnits="userSpaceOnUse">
<stop stop-color="#C850C0"/>
<stop offset="1" stop-color="#4158D0"/>
</linearGradient>
<linearGradient id="paint3_linear_1_4086" x1="182.466" y1="18.2784" x2="209.155" y2="5.85852" gradientUnits="userSpaceOnUse">
<stop stop-color="#C850C0" stop-opacity="0.24"/>
<stop offset="1" stop-color="#4158D0" stop-opacity="0.24"/>
</linearGradient>
<linearGradient id="paint4_linear_1_4086" x1="188.573" y1="12.4517" x2="205.878" y2="12.4517" gradientUnits="userSpaceOnUse">
<stop stop-color="#C850C0"/>
<stop offset="1" stop-color="#4158D0"/>
</linearGradient>
<linearGradient id="paint5_linear_1_4086" x1="-2.96244" y1="45.5092" x2="23.7262" y2="33.0894" gradientUnits="userSpaceOnUse">
<stop stop-color="#C850C0" stop-opacity="0.24"/>
<stop offset="1" stop-color="#4158D0" stop-opacity="0.24"/>
</linearGradient>
<linearGradient id="paint6_linear_1_4086" x1="3.14404" y1="39.6825" x2="20.4484" y2="39.6825" gradientUnits="userSpaceOnUse">
<stop stop-color="#C850C0"/>
<stop offset="1" stop-color="#4158D0"/>
</linearGradient>
<linearGradient id="paint7_linear_1_4086" x1="64.0779" y1="19.452" x2="82.5822" y2="10.8409" gradientUnits="userSpaceOnUse">
<stop stop-color="#C850C0" stop-opacity="0.24"/>
<stop offset="1" stop-color="#4158D0" stop-opacity="0.24"/>
</linearGradient>
<linearGradient id="paint8_linear_1_4086" x1="68.312" y1="15.4121" x2="80.3099" y2="15.4121" gradientUnits="userSpaceOnUse">
<stop stop-color="#C850C0"/>
<stop offset="1" stop-color="#4158D0"/>
</linearGradient>
<linearGradient id="paint9_linear_1_4086" x1="29.7151" y1="120.595" x2="48.2194" y2="111.984" gradientUnits="userSpaceOnUse">
<stop stop-color="#C850C0" stop-opacity="0.24"/>
<stop offset="1" stop-color="#4158D0" stop-opacity="0.24"/>
</linearGradient>
<linearGradient id="paint10_linear_1_4086" x1="33.9492" y1="116.555" x2="45.9471" y2="116.555" gradientUnits="userSpaceOnUse">
<stop stop-color="#C850C0"/>
<stop offset="1" stop-color="#4158D0"/>
</linearGradient>
<linearGradient id="paint11_linear_1_4086" x1="107.521" y1="259.986" x2="143.519" y2="243.234" gradientUnits="userSpaceOnUse">
<stop stop-color="#C850C0" stop-opacity="0.24"/>
<stop offset="1" stop-color="#4158D0" stop-opacity="0.24"/>
</linearGradient>
<linearGradient id="paint12_linear_1_4086" x1="115.757" y1="252.127" x2="139.098" y2="252.127" gradientUnits="userSpaceOnUse">
<stop stop-color="#C850C0"/>
<stop offset="1" stop-color="#4158D0"/>
</linearGradient>
</defs>
</svg>
