<svg width="398" height="275" viewBox="0 0 398 275" fill="none" xmlns="http://www.w3.org/2000/svg">
<mask id="mask0_1_1968" style="mask-type:alpha" maskUnits="userSpaceOnUse" x="0" y="0" width="398" height="275">
<rect width="398" height="275" rx="40" fill="#E8F6FF"/>
</mask>
<g mask="url(#mask0_1_1968)">
<g opacity="0.4">
<path fill-rule="evenodd" clip-rule="evenodd" d="M-22.3965 58.0231V35.689C-22.3965 35.689 14.3635 17.3242 14.6551 17.483L51.0176 35.8742V58.1819C51.0176 58.1819 51.0971 58.5524 50.8055 58.7111L14.9466 79.3252C14.6816 79.484 14.231 79.484 13.966 79.3252L-22.211 58.5259C-22.476 58.3671 -22.3965 58.0231 -22.3965 58.0231Z" fill="#EDEDED"/>
<path fill-rule="evenodd" clip-rule="evenodd" d="M-22.2216 35.3205L13.6373 14.7064C13.9024 14.5476 14.3529 14.5476 14.6179 14.7064L50.7684 35.5057C51.0335 35.6645 51.0335 35.9291 50.7684 36.0879L14.936 56.6755C14.671 56.8343 14.2204 56.8343 13.9554 56.6755L-22.2216 35.9026C-22.4867 35.7438 -22.4867 35.4792 -22.2216 35.3205Z" fill="#F3F3F3"/>
<path fill-rule="evenodd" clip-rule="evenodd" d="M14.8496 56.7751L14.3254 79.4506C14.1663 79.4506 13.975 79.4797 13.8424 79.4268L-22.3081 58.6274C-22.5731 58.4687 -22.5201 58.0982 -22.5201 58.0982V35.7905L14.8496 56.7751Z" fill="#E3E3E3"/>
<path fill-rule="evenodd" clip-rule="evenodd" d="M22.8804 60.0423L45.3666 47.4636V61.8318L22.8804 74.764V60.0423Z" fill="#C4C4C4" fill-opacity="0.6"/>
<path fill-rule="evenodd" clip-rule="evenodd" d="M45.3744 61.7337L32.834 54.5229L45.3744 47.4636V61.7337Z" fill="#797B84" fill-opacity="0.5"/>
<path opacity="0.4" d="M-51.1973 77.2793L-22.4537 58.4883L14.332 79.4469L-14.4116 97.6217L-51.1973 77.2793Z" fill="url(#paint0_linear_1_1968)"/>
<path d="M31.4595 61.9097L39.027 57.5854L46.162 61.4773L38.8107 66.0178L31.4595 61.9097Z" fill="url(#paint1_linear_1_1968)"/>
<path d="M31.4595 61.9073V70.5559L38.8107 74.8802V66.0154L31.4595 61.9073Z" fill="url(#paint2_linear_1_1968)"/>
<path d="M38.812 66.0194L46.1633 61.4789V70.3869L38.812 74.8841V66.0194Z" fill="url(#paint3_linear_1_1968)"/>
<g opacity="0.8">
<path d="M42.4922 68.4219L49.8723 64.2047L56.8307 68.0002L49.6614 72.4283L42.4922 68.4219Z" fill="url(#paint4_linear_1_1968)"/>
<path d="M42.4922 68.4222V76.8566L49.6614 81.0738V72.4286L42.4922 68.4222Z" fill="url(#paint5_linear_1_1968)"/>
<path d="M49.6631 72.4272L56.8323 67.9991V76.6866L49.6631 81.0725V72.4272Z" fill="url(#paint6_linear_1_1968)"/>
</g>
<g opacity="0.6">
<path d="M52.9604 74.4893L60.3406 70.2721L67.2989 74.0676L60.1297 78.4956L52.9604 74.4893Z" fill="url(#paint7_linear_1_1968)"/>
<path d="M52.9604 74.489V82.9234L60.1297 87.1406V78.4954L52.9604 74.489Z" fill="url(#paint8_linear_1_1968)"/>
<path d="M60.1313 78.4946L67.3006 74.0665V82.754L60.1313 87.1399V78.4946Z" fill="url(#paint9_linear_1_1968)"/>
</g>
<g opacity="0.4">
<path d="M63.4478 80.5558L70.8279 76.3386L77.7862 80.1341L70.617 84.5622L63.4478 80.5558Z" fill="url(#paint10_linear_1_1968)"/>
<path d="M63.4478 80.556V88.9904L70.617 93.2076V84.5624L63.4478 80.556Z" fill="url(#paint11_linear_1_1968)"/>
<path d="M70.6187 84.5636L77.7879 80.1355V88.8229L70.6187 93.2088V84.5636Z" fill="url(#paint12_linear_1_1968)"/>
</g>
<g opacity="0.2">
<path d="M73.9111 86.6232L81.2912 82.406L88.2496 86.2015L81.0804 90.6295L73.9111 86.6232Z" fill="url(#paint13_linear_1_1968)"/>
<path d="M73.9111 86.6238V95.0582L81.0804 99.2754V90.6301L73.9111 86.6238Z" fill="url(#paint14_linear_1_1968)"/>
<path d="M81.0796 90.6285L88.2488 86.2004V94.8879L81.0796 99.2738V90.6285Z" fill="url(#paint15_linear_1_1968)"/>
</g>
<g opacity="0.1">
<path d="M84.3936 92.6877L91.7737 88.4705L98.732 92.2659L91.5628 96.694L84.3936 92.6877Z" fill="url(#paint16_linear_1_1968)"/>
<path d="M84.3936 92.688V101.122L91.5628 105.34V96.6943L84.3936 92.688Z" fill="url(#paint17_linear_1_1968)"/>
<path d="M91.5645 96.693L98.7337 92.2649V100.952L91.5645 105.338V96.693Z" fill="url(#paint18_linear_1_1968)"/>
</g>
</g>
<g opacity="0.4">
<g opacity="0.6">
<path d="M-6.84766 106.739L0.532446 102.522L7.49083 106.317L0.321587 110.745L-6.84766 106.739Z" fill="url(#paint19_linear_1_1968)"/>
<path d="M-6.84766 106.739V115.174L0.321587 119.391V110.746L-6.84766 106.739Z" fill="url(#paint20_linear_1_1968)"/>
<path d="M0.322754 110.744L7.492 106.316V115.004L0.322754 119.39V110.744Z" fill="url(#paint21_linear_1_1968)"/>
</g>
<g opacity="0.4">
<path d="M3.63428 112.807L11.0144 108.59L17.9728 112.385L10.8035 116.814L3.63428 112.807Z" fill="url(#paint22_linear_1_1968)"/>
<path d="M3.63428 112.807V121.241L10.8035 125.458V116.813L3.63428 112.807Z" fill="url(#paint23_linear_1_1968)"/>
<path d="M10.8052 116.812L17.9744 112.384V121.072L10.8052 125.458V116.812Z" fill="url(#paint24_linear_1_1968)"/>
</g>
<g opacity="0.2">
<path d="M14.1074 118.87L21.4875 114.653L28.4459 118.448L21.2767 122.876L14.1074 118.87Z" fill="url(#paint25_linear_1_1968)"/>
<path d="M14.1074 118.87V127.305L21.2767 131.522V122.876L14.1074 118.87Z" fill="url(#paint26_linear_1_1968)"/>
<path d="M21.2783 122.873L28.4476 118.445V127.133L21.2783 131.519V122.873Z" fill="url(#paint27_linear_1_1968)"/>
</g>
<g opacity="0.1">
<path d="M24.583 124.939L31.9631 120.722L38.9215 124.517L31.7523 128.945L24.583 124.939Z" fill="url(#paint28_linear_1_1968)"/>
<path d="M24.583 124.939V133.374L31.7523 137.591V128.946L24.583 124.939Z" fill="url(#paint29_linear_1_1968)"/>
<path d="M31.7539 128.944L38.9231 124.516V133.204L31.7539 137.59V128.944Z" fill="url(#paint30_linear_1_1968)"/>
</g>
</g>
<g opacity="0.4">
<path fill-rule="evenodd" clip-rule="evenodd" d="M43.4716 26.4372V4.10304C43.4716 4.10304 80.2317 -14.2618 80.5232 -14.103L116.886 4.28828V26.5959C116.886 26.5959 116.965 26.9664 116.674 27.1252L80.8148 47.7393C80.5497 47.8981 80.0992 47.8981 79.8341 47.7393L43.6572 26.94C43.3921 26.7812 43.4716 26.4372 43.4716 26.4372Z" fill="#EDEDED"/>
<path fill-rule="evenodd" clip-rule="evenodd" d="M43.6465 3.73317L79.5055 -16.8809C79.7705 -17.0397 80.2211 -17.0397 80.4861 -16.8809L116.637 3.91841C116.902 4.07718 116.902 4.3418 116.637 4.50057L80.8041 25.0882C80.5391 25.247 80.0886 25.247 79.8235 25.0882L43.6465 4.31534C43.3815 4.15657 43.3815 3.89194 43.6465 3.73317Z" fill="#F3F3F3"/>
<path fill-rule="evenodd" clip-rule="evenodd" d="M80.7177 25.1878L80.1935 47.8633C80.0345 47.8633 79.8431 47.8924 79.7106 47.8395L43.5601 27.0402C43.2951 26.8814 43.3481 26.5109 43.3481 26.5109V4.20325L80.7177 25.1878Z" fill="#E3E3E3"/>
<path fill-rule="evenodd" clip-rule="evenodd" d="M88.7554 28.455L111.242 15.8763V30.2445L88.7554 43.1767V28.455Z" fill="#C4C4C4" fill-opacity="0.6"/>
<path fill-rule="evenodd" clip-rule="evenodd" d="M111.243 30.1464L98.7021 22.9356L111.243 15.8763V30.1464Z" fill="#797B84" fill-opacity="0.5"/>
<path opacity="0.4" d="M14.6504 45.6959L43.394 26.9049L80.1796 47.8636L51.436 66.0383L14.6504 45.6959Z" fill="url(#paint31_linear_1_1968)"/>
<path d="M97.2817 30.3298L104.849 26.0055L111.984 29.8973L104.633 34.4378L97.2817 30.3298Z" fill="url(#paint32_linear_1_1968)"/>
<path d="M97.2817 30.3282V38.9768L104.633 43.3011V34.4363L97.2817 30.3282Z" fill="url(#paint33_linear_1_1968)"/>
<path d="M104.634 34.4394L111.986 29.8989V38.8069L104.634 43.3042V34.4394Z" fill="url(#paint34_linear_1_1968)"/>
<g opacity="0.8">
<path d="M108.315 36.8388L115.696 32.6216L122.654 36.4171L115.485 40.8451L108.315 36.8388Z" fill="url(#paint35_linear_1_1968)"/>
<path d="M108.315 36.8398V45.2742L115.485 49.4914V40.8462L108.315 36.8398Z" fill="url(#paint36_linear_1_1968)"/>
<path d="M115.484 40.8444L122.653 36.4164V45.1038L115.484 49.4897V40.8444Z" fill="url(#paint37_linear_1_1968)"/>
</g>
<g opacity="0.6">
<path d="M118.8 42.9056L126.18 38.6884L133.138 42.4838L125.969 46.9119L118.8 42.9056Z" fill="url(#paint38_linear_1_1968)"/>
<path d="M118.8 42.9058V51.3402L125.969 55.5574V46.9121L118.8 42.9058Z" fill="url(#paint39_linear_1_1968)"/>
<path d="M125.971 46.9091L133.14 42.4811V51.1685L125.971 55.5544V46.9091Z" fill="url(#paint40_linear_1_1968)"/>
</g>
<g opacity="0.4">
<path d="M129.268 48.9722L136.648 44.755L143.607 48.5505L136.437 52.9785L129.268 48.9722Z" fill="url(#paint41_linear_1_1968)"/>
<path d="M129.268 48.9724V57.4068L136.437 61.624V52.9788L129.268 48.9724Z" fill="url(#paint42_linear_1_1968)"/>
<path d="M136.438 52.9775L143.608 48.5494V57.2369L136.438 61.6228V52.9775Z" fill="url(#paint43_linear_1_1968)"/>
</g>
<g opacity="0.2">
<path d="M139.748 55.0398L147.128 50.8226L154.087 54.6181L146.917 59.0462L139.748 55.0398Z" fill="url(#paint44_linear_1_1968)"/>
<path d="M139.748 55.0402V63.4746L146.917 67.6918V59.0465L139.748 55.0402Z" fill="url(#paint45_linear_1_1968)"/>
<path d="M146.919 59.0451L154.088 54.6171V63.3045L146.919 67.6904V59.0451Z" fill="url(#paint46_linear_1_1968)"/>
</g>
<g opacity="0.1">
<path d="M150.233 61.1054L157.613 56.8882L164.571 60.6837L157.402 65.1117L150.233 61.1054Z" fill="url(#paint47_linear_1_1968)"/>
<path d="M150.233 61.1057V69.5401L157.402 73.7573V65.1121L150.233 61.1057Z" fill="url(#paint48_linear_1_1968)"/>
<path d="M157.404 65.1108L164.573 60.6827V69.3702L157.404 73.7561V65.1108Z" fill="url(#paint49_linear_1_1968)"/>
</g>
</g>
<path fill-rule="evenodd" clip-rule="evenodd" d="M275.115 88.6765V53.4281C275.115 53.4281 333.131 24.4441 333.591 24.6947L390.98 53.7204V88.9271C390.98 88.9271 391.105 89.5118 390.645 89.7624L334.051 122.296C333.633 122.547 332.922 122.547 332.504 122.296L275.408 89.47C274.99 89.2194 275.115 88.6765 275.115 88.6765Z" fill="#EDEDED"/>
<path fill-rule="evenodd" clip-rule="evenodd" d="M275.411 52.8431L332.005 20.3093C332.423 20.0587 333.135 20.0587 333.553 20.3093L390.607 53.1354C391.025 53.386 391.025 53.8037 390.607 54.0542L334.055 86.5463C333.636 86.7969 332.925 86.7969 332.507 86.5463L275.411 53.7619C274.993 53.5113 274.993 53.0937 275.411 52.8431Z" fill="url(#paint50_linear_1_1968)"/>
<circle r="17.1845" transform="matrix(0.891007 -0.453991 0.707107 0.707107 336.344 51.699)" fill="#E85777"/>
<path d="M335.609 54.7318L328.065 50.5746C327.386 50.2001 326.48 50.4504 326.394 51.0363L325.913 54.3242C325.87 54.6147 326.052 54.9151 326.385 55.1049L335.074 60.0606C335.388 60.2396 335.79 60.2936 336.134 60.2031L345.223 57.8143C345.597 57.716 345.842 57.4636 345.856 57.1625L346.024 53.5424C346.052 52.945 345.204 52.4754 344.469 52.6809L336.671 54.8602C336.33 54.9556 335.927 54.907 335.609 54.7318Z" fill="white"/>
<path d="M326.733 46.2318L326.484 48.3328C326.45 48.6246 326.639 48.9229 326.977 49.1082L335.625 53.8531C335.944 54.0283 336.348 54.076 336.689 53.979L345.737 51.4098C346.086 51.3107 346.318 51.0754 346.345 50.7926L346.537 48.7944C346.564 48.5135 346.384 48.2282 346.066 48.0448L337.7 43.2267C337.381 43.0434 336.971 42.9893 336.623 43.0848L327.35 45.6244C327.001 45.72 326.766 45.9514 326.733 46.2318Z" fill="#0043F9"/>
<path fill-rule="evenodd" clip-rule="evenodd" d="M333.903 86.7026L333.075 122.49C332.825 122.49 332.522 122.536 332.313 122.452L275.259 89.6261C274.841 89.3755 274.925 88.7908 274.925 88.7908V53.5841L333.903 86.7026Z" fill="#E3E3E3"/>
<path fill-rule="evenodd" clip-rule="evenodd" d="M346.57 91.8613L382.058 72.0093V94.6856L346.57 115.096V91.8613Z" fill="#C4C4C4" fill-opacity="0.6"/>
<path fill-rule="evenodd" clip-rule="evenodd" d="M382.072 94.5324L362.281 83.152L382.072 72.0109V94.5324Z" fill="#797B84" fill-opacity="0.5"/>
<path opacity="0.4" d="M229.664 119.065L275.028 89.408L333.084 122.486L287.72 151.17L229.664 119.065Z" fill="url(#paint51_linear_1_1968)"/>
<path fill-rule="evenodd" clip-rule="evenodd" d="M92.0629 146.224V87.9334C92.0629 87.9334 188.004 40.0026 188.765 40.417L283.668 88.4168V146.638C283.668 146.638 283.876 147.605 283.115 148.02L189.526 201.821C188.834 202.235 187.658 202.235 186.966 201.821L92.5471 147.536C91.8554 147.122 92.0629 146.224 92.0629 146.224Z" fill="#EDEDED"/>
<path fill-rule="evenodd" clip-rule="evenodd" d="M92.5525 86.9656L186.142 33.1643C186.833 32.7499 188.009 32.7499 188.701 33.1643L283.051 87.449C283.743 87.8634 283.743 88.5541 283.051 88.9684L189.531 142.701C188.839 143.115 187.664 143.115 186.972 142.701L92.5525 88.485C91.8608 88.0706 91.8608 87.38 92.5525 86.9656Z" fill="url(#paint52_linear_1_1968)"/>
<path fill-rule="evenodd" clip-rule="evenodd" d="M189.283 142.958L187.914 202.14C187.499 202.14 187 202.216 186.654 202.078L92.3039 147.793C91.6122 147.379 91.7506 146.412 91.7506 146.412V88.1903L189.283 142.958Z" fill="#E3E3E3"/>
<path fill-rule="evenodd" clip-rule="evenodd" d="M210.237 151.491L268.924 118.662V156.162L210.237 189.914V151.491Z" fill="#939393" fill-opacity="0.6"/>
<path fill-rule="evenodd" clip-rule="evenodd" d="M268.925 155.906L236.196 137.086L268.925 118.662V155.906Z" fill="#58595C" fill-opacity="0.5"/>
<circle r="8.19601" transform="matrix(0.891007 -0.453991 0.707107 0.707107 166.877 95.7606)" fill="#E85777"/>
<path d="M166.527 97.2069L162.928 95.2242C162.604 95.0456 162.172 95.1649 162.131 95.4444L161.902 97.0125C161.882 97.1511 161.968 97.2943 162.127 97.3849L166.271 99.7484C166.421 99.8338 166.613 99.8596 166.777 99.8164L171.112 98.6771C171.29 98.6302 171.407 98.5098 171.414 98.3662L171.494 96.6396C171.507 96.3547 171.103 96.1307 170.752 96.2288L167.033 97.2681C166.87 97.3137 166.678 97.2905 166.527 97.2069Z" fill="white"/>
<path d="M162.293 93.1529L162.174 94.155C162.158 94.2942 162.248 94.4364 162.409 94.5248L166.534 96.7879C166.686 96.8714 166.879 96.8941 167.042 96.8479L171.357 95.6225C171.523 95.5752 171.634 95.463 171.647 95.3282L171.738 94.3751C171.751 94.2412 171.666 94.1051 171.514 94.0176L167.524 91.7197C167.372 91.6322 167.176 91.6065 167.01 91.652L162.588 92.8632C162.421 92.9088 162.309 93.0192 162.293 93.1529Z" fill="#0043F9"/>
<path d="M183.087 87.4242L181.566 88.1991L179.872 86.5054L181.393 85.7305C182.045 85.3984 182.873 85.5125 183.349 85.9891C183.846 86.4861 183.738 87.0921 183.087 87.4242ZM183.64 93.1284L185.531 92.1647L183.006 89.6393L184.527 88.8644C186.278 87.9723 186.582 86.3475 185.253 85.0189C183.935 83.7005 181.704 83.3983 179.953 84.2903L176.541 86.0289L183.64 93.1284ZM183.813 82.3236L190.912 89.4231L192.714 88.5049L189.611 85.4015C189.544 84.93 189.794 84.466 190.292 84.212C191.034 83.8344 191.902 83.989 192.592 84.6786L195.168 87.2547L196.97 86.3366L194.15 83.5171C192.751 82.1175 190.917 81.7503 189.333 82.5577C188.63 82.9159 188.254 83.5051 188.312 84.1033L185.615 81.4055L183.813 82.3236ZM201.24 84.3138C202.556 83.6431 203.219 82.7238 203.02 81.8301L200.912 81.8632C201.011 82.2717 200.626 82.7741 200.064 83.0606C199.221 83.4903 198.301 83.4385 197.473 82.8806L201.971 80.5885C201.817 80.3763 201.606 80.1466 201.434 79.9742C200.105 78.6456 197.732 78.2782 196.032 79.1442C194.204 80.0754 193.889 81.9203 195.339 83.3706C196.82 84.8514 199.413 85.245 201.24 84.3138ZM196.545 81.9142C196.196 81.2957 196.365 80.7505 197.119 80.3663C197.784 80.0277 198.678 80.0925 199.267 80.5272L196.545 81.9142ZM205.021 82.2341L206.823 81.316L203.811 78.3038C203.631 77.6607 204.019 77.0649 204.428 76.8566C204.684 76.7263 205.031 76.6106 205.345 76.5579L204.108 75.167C203.856 75.2039 203.57 75.3037 203.25 75.4665C202.726 75.7334 202.312 76.3422 202.432 76.9245L201.843 76.3362L200.041 77.2544L205.021 82.2341ZM207.283 73.4115C205.43 74.3557 205.14 76.1876 206.621 77.6683C208.101 79.149 210.613 79.5383 212.466 78.5941C214.306 77.6564 214.619 75.8281 213.138 74.3474C211.658 72.8667 209.123 72.4738 207.283 73.4115ZM208.384 76.7697C207.684 76.0699 207.796 75.2169 208.652 74.7807C209.509 74.3444 210.675 74.5462 211.375 75.246C212.064 75.9357 211.953 76.7886 211.097 77.2249C210.24 77.6612 209.074 77.4594 208.384 76.7697Z" fill="black"/>
<path d="M225.587 155.06L245.337 143.774L263.959 153.932L244.773 165.782L225.587 155.06Z" fill="#EBBE73"/>
<path d="M225.587 155.061V177.633L244.773 188.919V165.783L225.587 155.061Z" fill="#F1C989"/>
<path d="M234.031 172.858L233.472 169.952C233.422 169.691 233.231 169.614 233.12 169.811L232.498 170.916C232.443 171.014 232.424 171.156 232.447 171.287L233.063 174.695C233.086 174.818 233.143 174.912 233.215 174.943L235.108 175.757C235.186 175.79 235.268 175.744 235.32 175.637L235.946 174.354C236.049 174.142 235.986 173.814 235.831 173.753L234.185 173.101C234.113 173.073 234.054 172.981 234.031 172.858Z" fill="#FFFEFE"/>
<path d="M233.969 168.129L233.581 168.846C233.527 168.945 233.509 169.089 233.534 169.218L234.178 172.542C234.202 172.665 234.261 172.757 234.333 172.785L236.25 173.526C236.324 173.555 236.401 173.512 236.452 173.414L236.813 172.724C236.864 172.627 236.882 172.49 236.859 172.365L236.274 169.067C236.252 168.941 236.193 168.846 236.12 168.816L234.171 168.022C234.097 167.992 234.021 168.033 233.969 168.129Z" fill="#FFFEFE"/>
<path d="M244.769 165.781L263.955 153.931V177.18L244.769 188.918V165.781Z" fill="#DEB068"/>
<path d="M256.199 174.839L256.193 174.684L256.13 174.723L256.136 174.879C255.272 175.443 255.202 176.597 255.202 176.597C255.202 176.597 255.643 176.188 255.815 176.388C255.815 176.388 255.97 176.172 256.183 176.015L256.233 177.224C256.233 177.224 256.247 177.412 256.24 177.466C256.228 177.55 256.165 177.562 256.155 177.498C256.147 177.444 256.109 177.466 256.103 177.515C256.097 177.564 256.139 177.662 256.225 177.594C256.311 177.528 256.305 177.438 256.305 177.438L256.294 177.187L256.243 175.974C256.371 175.892 256.515 175.838 256.655 175.865C256.655 175.865 257.014 175.321 257.246 175.377C257.249 175.375 257.131 174.284 256.199 174.839Z" fill="#5B534D"/>
<path d="M257.685 174.407C257.661 173.82 257.251 173.585 256.772 173.884L255.489 174.684C255.01 174.982 254.64 175.702 254.664 176.289L254.729 177.859C254.754 178.446 255.163 178.681 255.643 178.382L256.926 177.582C257.405 177.284 257.775 176.564 257.751 175.977L257.685 174.407ZM256.915 177.303L255.632 178.103C255.278 178.323 254.976 178.15 254.958 177.718L254.892 176.148C254.873 175.716 255.146 175.185 255.5 174.964L256.783 174.164C257.137 173.944 257.438 174.117 257.457 174.549L257.522 176.119C257.542 176.552 257.269 177.083 256.915 177.303Z" fill="#5B534D"/>
<path d="M251.721 179.756L251.878 179.658L251.827 178.404L252.11 178.226L251.715 177.682L251.383 178.681L251.668 178.503L251.721 179.756Z" fill="#5B534D"/>
<path d="M251.458 180.109L251.466 180.304L253.264 179.184L253.255 178.989L251.458 180.109Z" fill="#5B534D"/>
<path d="M252.482 178.001L252.767 177.822L252.819 179.077L252.977 178.978L252.924 177.724L253.21 177.546L252.814 177.001L252.482 178.001Z" fill="#5B534D"/>
<path d="M252.877 176.293L251.594 177.093C251.115 177.392 250.745 178.112 250.769 178.699L250.836 180.269C250.86 180.855 251.269 181.09 251.749 180.791L253.032 179.991C253.511 179.693 253.881 178.973 253.857 178.386L253.79 176.816C253.766 176.228 253.356 175.995 252.877 176.293ZM253.02 179.711L251.737 180.511C251.383 180.731 251.081 180.558 251.063 180.126L250.998 178.556C250.979 178.123 251.252 177.593 251.606 177.372L252.889 176.572C253.243 176.352 253.545 176.525 253.563 176.957L253.629 178.527C253.647 178.96 253.374 179.49 253.02 179.711Z" fill="#5B534D"/>
<path d="M248.325 179.734L248.321 179.736L248.274 179.765L248.397 180.088L248.501 179.951L248.639 180.482L248.457 180.112L248.373 180.224L248.197 179.813L247.968 179.955C247.968 179.955 247.715 180.811 247.81 181.2C247.891 181.536 248.26 181.316 248.358 181.249L248.395 182.205C248.253 182.302 248.099 182.463 248.011 182.559C247.995 182.576 248.001 182.603 248.019 182.593L248.845 182.083C248.862 182.073 248.866 182.04 248.85 182.042C248.76 182.053 248.598 182.083 248.451 182.168L248.414 181.214C248.526 181.148 248.872 180.917 248.922 180.512C248.982 180.027 248.677 179.516 248.677 179.516L248.325 179.734Z" fill="#5B534D"/>
<path d="M248.951 178.723L247.668 179.515C247.189 179.811 246.818 180.53 246.84 181.117L246.9 182.692C246.922 183.279 247.33 183.517 247.81 183.221L249.093 182.428C249.572 182.132 249.943 181.413 249.921 180.826L249.861 179.251C249.839 178.664 249.431 178.426 248.951 178.723ZM249.694 180.965C249.71 181.399 249.436 181.929 249.083 182.148L247.8 182.94C247.446 183.158 247.146 182.982 247.129 182.549L247.068 180.975C247.052 180.542 247.327 180.011 247.679 179.793L248.962 179C249.316 178.782 249.616 178.958 249.634 179.391L249.694 180.965Z" fill="#5B534D"/>
<path d="M259.58 167.069L247.477 174.452L247.46 167.552L259.563 160.168L259.58 167.069Z" fill="#F7E8D5"/>
<path d="M256.152 163.691L248.84 168.152L248.838 167.775L256.15 163.315L256.152 163.691Z" fill="#998376"/>
<path d="M257.958 164.819L250.646 169.28L250.645 168.903L257.958 164.442V164.819Z" fill="#998376"/>
<path d="M253.396 166.445L248.857 169.214L248.855 168.837L253.395 166.068L253.396 166.445Z" fill="#8A766A"/>
<path d="M256.139 164.772L254.279 165.905L254.278 165.529L256.137 164.395L256.139 164.772Z" fill="#6D5041"/>
<path d="M256.139 164.772L254.279 165.905L254.278 165.529L256.137 164.395L256.139 164.772Z" fill="#7F6D62"/>
<path d="M253.396 168.767L248.857 171.536L248.855 171.16L253.395 168.391L253.396 168.767Z" fill="#7F6D62"/>
<path d="M256.137 167.097L254.278 168.23V167.854L256.137 166.72V167.097Z" fill="#7F6D62"/>
<path d="M257.738 163.79L256.886 164.309L256.885 163.933L257.737 163.414L257.738 163.79Z" fill="#7F6D62"/>
<path d="M250.698 171.464L248.838 172.597V172.221L250.697 171.087L250.698 171.464Z" fill="#998376"/>
<path d="M252.317 170.48L251.467 170.998L251.465 170.621L252.316 170.103L252.317 170.48Z" fill="#7F6D62"/>
<path d="M249.728 169.84L248.876 170.359L248.875 169.982L249.727 169.464L249.728 169.84Z" fill="#7F6D62"/>
<path d="M234.099 159.704L254.595 148.625L257.364 149.733L236.869 161.365L234.099 159.704Z" fill="white"/>
<path d="M233.545 150.287L252.933 160.811L255.149 159.15L235.207 149.179L233.545 150.287Z" fill="white"/>
<path d="M252.933 160.812L255.149 159.15V161.919L252.933 163.581V160.812Z" fill="#F8F9FA"/>
<path d="M234.099 159.704L236.869 161.151V166.905L234.099 165.243V159.704Z" fill="#F8F9FA"/>
<path d="M251.27 171.544L271.02 160.258L289.642 170.415L270.456 182.265L251.27 171.544Z" fill="#EBBE73"/>
<path d="M251.27 171.544V194.117L270.456 205.403V182.266L251.27 171.544Z" fill="#F1C989"/>
<path d="M259.714 189.342L259.155 186.436C259.104 186.174 258.914 186.097 258.803 186.294L258.181 187.399C258.126 187.497 258.106 187.639 258.13 187.77L258.746 191.178C258.768 191.301 258.826 191.395 258.897 191.426L260.791 192.24C260.869 192.274 260.951 192.227 261.003 192.121L261.628 190.837C261.731 190.625 261.669 190.298 261.514 190.236L259.868 189.585C259.795 189.556 259.737 189.464 259.714 189.342Z" fill="#FFFEFE"/>
<path d="M259.651 184.612L259.264 185.329C259.21 185.428 259.192 185.572 259.217 185.702L259.861 189.025C259.885 189.148 259.944 189.24 260.016 189.268L261.933 190.009C262.007 190.038 262.084 189.995 262.135 189.898L262.496 189.207C262.547 189.11 262.564 188.974 262.542 188.848L261.957 185.55C261.934 185.424 261.876 185.329 261.802 185.299L259.854 184.506C259.78 184.476 259.703 184.516 259.651 184.612Z" fill="#FFFEFE"/>
<path d="M270.452 182.265L289.638 170.414V193.664L270.452 205.401V182.265Z" fill="#DEB068"/>
<path d="M281.882 191.323L281.876 191.167L281.813 191.207L281.819 191.362C280.955 191.926 280.885 193.08 280.885 193.08C280.885 193.08 281.326 192.671 281.499 192.871C281.499 192.871 281.653 192.655 281.866 192.498L281.916 193.707C281.916 193.707 281.93 193.895 281.923 193.95C281.912 194.033 281.848 194.045 281.838 193.981C281.83 193.927 281.792 193.949 281.786 193.998C281.78 194.047 281.822 194.145 281.908 194.078C281.994 194.011 281.988 193.921 281.988 193.921L281.977 193.67L281.926 192.457C282.054 192.375 282.198 192.322 282.338 192.349C282.338 192.349 282.697 191.804 282.929 191.86C282.932 191.858 282.814 190.768 281.882 191.323Z" fill="#5B534D"/>
<path d="M283.369 190.89C283.344 190.303 282.935 190.068 282.456 190.367L281.173 191.167C280.693 191.466 280.323 192.185 280.348 192.772L280.413 194.343C280.438 194.93 280.847 195.164 281.326 194.865L282.609 194.065C283.089 193.767 283.459 193.047 283.434 192.46L283.369 190.89ZM282.598 193.786L281.315 194.586C280.961 194.806 280.66 194.633 280.642 194.202L280.575 192.632C280.557 192.199 280.83 191.668 281.184 191.447L282.467 190.647C282.821 190.428 283.122 190.601 283.14 191.032L283.205 192.602C283.225 193.035 282.952 193.566 282.598 193.786Z" fill="#5B534D"/>
<path d="M277.404 196.24L277.562 196.142L277.51 194.887L277.794 194.71L277.398 194.165L277.066 195.164L277.352 194.986L277.404 196.24Z" fill="#5B534D"/>
<path d="M277.142 196.592L277.149 196.787L278.948 195.667L278.939 195.472L277.142 196.592Z" fill="#5B534D"/>
<path d="M278.166 194.484L278.451 194.305L278.502 195.56L278.661 195.462L278.608 194.207L278.893 194.03L278.497 193.485L278.166 194.484Z" fill="#5B534D"/>
<path d="M278.561 192.777L277.278 193.576C276.798 193.875 276.428 194.595 276.453 195.182L276.519 196.752C276.544 197.339 276.953 197.573 277.432 197.275L278.716 196.475C279.195 196.176 279.565 195.456 279.54 194.869L279.474 193.299C279.449 192.711 279.04 192.478 278.561 192.777ZM278.703 196.195L277.42 196.994C277.066 197.214 276.765 197.041 276.747 196.61L276.681 195.039C276.663 194.607 276.936 194.076 277.29 193.855L278.573 193.055C278.927 192.835 279.228 193.008 279.247 193.44L279.313 195.01C279.33 195.443 279.057 195.973 278.703 196.195Z" fill="#5B534D"/>
<path d="M274.008 196.217L274.005 196.22L273.958 196.248L274.081 196.571L274.184 196.435L274.323 196.965L274.141 196.595L274.056 196.707L273.881 196.297L273.652 196.438C273.652 196.438 273.399 197.295 273.493 197.683C273.574 198.019 273.943 197.799 274.042 197.733L274.078 198.688C273.937 198.785 273.782 198.946 273.695 199.042C273.679 199.06 273.685 199.086 273.702 199.076L274.528 198.566C274.545 198.556 274.549 198.523 274.533 198.525C274.443 198.536 274.281 198.567 274.135 198.651L274.098 197.698C274.21 197.632 274.555 197.4 274.606 196.995C274.666 196.511 274.361 195.999 274.361 195.999L274.008 196.217Z" fill="#5B534D"/>
<path d="M274.635 195.206L273.352 195.998C272.872 196.294 272.501 197.013 272.523 197.601L272.584 199.175C272.606 199.763 273.014 200 273.493 199.704L274.776 198.912C275.256 198.615 275.627 197.897 275.605 197.309L275.545 195.735C275.522 195.147 275.114 194.91 274.635 195.206ZM275.377 197.448C275.393 197.882 275.119 198.413 274.767 198.631L273.483 199.423C273.129 199.642 272.829 199.466 272.812 199.033L272.752 197.458C272.736 197.025 273.01 196.494 273.363 196.276L274.646 195.484C275 195.265 275.3 195.441 275.317 195.874L275.377 197.448Z" fill="#5B534D"/>
<path d="M285.263 183.552L273.16 190.935L273.143 184.035L285.246 176.651L285.263 183.552Z" fill="#F7E8D5"/>
<path d="M281.835 180.175L274.523 184.635L274.521 184.259L281.833 179.798L281.835 180.175Z" fill="#998376"/>
<path d="M283.641 181.302L276.329 185.763L276.328 185.386L283.641 180.926V181.302Z" fill="#998376"/>
<path d="M279.079 182.928L274.54 185.697L274.539 185.321L279.078 182.551L279.079 182.928Z" fill="#8A766A"/>
<path d="M281.822 181.255L279.962 182.388L279.961 182.012L281.821 180.878L281.822 181.255Z" fill="#6D5041"/>
<path d="M281.822 181.255L279.962 182.388L279.961 182.012L281.821 180.878L281.822 181.255Z" fill="#7F6D62"/>
<path d="M279.079 185.25L274.54 188.019L274.539 187.643L279.078 184.874L279.079 185.25Z" fill="#7F6D62"/>
<path d="M281.821 183.58L279.961 184.713V184.337L281.821 183.203V183.58Z" fill="#7F6D62"/>
<path d="M283.421 180.273L282.57 180.792L282.568 180.416L283.42 179.897L283.421 180.273Z" fill="#7F6D62"/>
<path d="M276.381 187.947L274.521 189.081V188.704L276.38 187.571L276.381 187.947Z" fill="#998376"/>
<path d="M278 186.963L277.15 187.481L277.148 187.105L277.999 186.586L278 186.963Z" fill="#7F6D62"/>
<path d="M275.411 186.323L274.559 186.842L274.558 186.466L275.41 185.947L275.411 186.323Z" fill="#7F6D62"/>
<path d="M259.782 176.187L280.277 165.108L283.047 166.216L262.551 177.849L259.782 176.187Z" fill="white"/>
<path d="M259.228 166.77L278.616 177.295L280.831 175.633L260.89 165.662L259.228 166.77Z" fill="white"/>
<path d="M278.616 177.295L280.831 175.633V178.403L278.616 180.064V177.295Z" fill="#F8F9FA"/>
<path d="M259.782 176.187L262.551 177.635V183.388L259.782 181.726V176.187Z" fill="#F8F9FA"/>
<path d="M281.182 190.377L300.933 179.091L319.555 189.248L300.368 201.099L281.182 190.377Z" fill="#EBBE73"/>
<path d="M281.182 190.378V212.95L300.368 224.236V201.1L281.182 190.378Z" fill="#F1C989"/>
<path d="M289.626 208.175L289.067 205.269C289.017 205.007 288.826 204.931 288.715 205.128L288.093 206.233C288.039 206.33 288.019 206.473 288.043 206.604L288.659 210.011C288.681 210.134 288.738 210.228 288.81 210.259L290.704 211.074C290.782 211.107 290.864 211.061 290.916 210.954L291.541 209.67C291.644 209.459 291.581 209.131 291.426 209.07L289.78 208.418C289.708 208.39 289.65 208.298 289.626 208.175Z" fill="#FFFEFE"/>
<path d="M289.564 203.445L289.176 204.162C289.122 204.262 289.105 204.405 289.13 204.535L289.774 207.859C289.797 207.981 289.856 208.074 289.929 208.102L291.845 208.843C291.919 208.871 291.996 208.829 292.047 208.731L292.409 208.041C292.459 207.944 292.477 207.807 292.455 207.681L291.869 204.383C291.847 204.258 291.788 204.162 291.715 204.133L289.766 203.339C289.693 203.309 289.616 203.35 289.564 203.445Z" fill="#FFFEFE"/>
<path d="M300.364 201.098L319.551 189.248V212.497L300.364 224.235V201.098Z" fill="#DEB068"/>
<path d="M311.795 210.156L311.789 210.001L311.726 210.04L311.732 210.195C310.868 210.76 310.798 211.913 310.798 211.913C310.798 211.913 311.239 211.504 311.411 211.705C311.411 211.705 311.566 211.489 311.779 211.332L311.829 212.541C311.829 212.541 311.843 212.728 311.835 212.783C311.824 212.866 311.76 212.878 311.75 212.814C311.743 212.76 311.705 212.783 311.699 212.832C311.693 212.881 311.734 212.979 311.82 212.911C311.906 212.845 311.9 212.754 311.9 212.754L311.889 212.503L311.839 211.29C311.967 211.208 312.111 211.155 312.251 211.182C312.251 211.182 312.61 210.637 312.842 210.693C312.844 210.691 312.726 209.601 311.795 210.156Z" fill="#5B534D"/>
<path d="M313.282 209.723C313.257 209.136 312.848 208.902 312.368 209.201L311.085 210C310.606 210.299 310.236 211.019 310.26 211.606L310.326 213.176C310.35 213.763 310.759 213.997 311.239 213.699L312.522 212.899C313.001 212.6 313.371 211.88 313.347 211.294L313.282 209.723ZM312.511 212.62L311.228 213.42C310.874 213.64 310.573 213.467 310.554 213.035L310.488 211.465C310.469 211.032 310.742 210.502 311.096 210.281L312.379 209.481C312.733 209.261 313.035 209.434 313.053 209.866L313.118 211.436C313.138 211.868 312.865 212.4 312.511 212.62Z" fill="#5B534D"/>
<path d="M307.317 215.073L307.474 214.975L307.423 213.72L307.707 213.543L307.311 212.998L306.979 213.997L307.264 213.82L307.317 215.073Z" fill="#5B534D"/>
<path d="M307.055 215.426L307.062 215.62L308.86 214.5L308.852 214.306L307.055 215.426Z" fill="#5B534D"/>
<path d="M308.078 213.317L308.363 213.138L308.415 214.393L308.573 214.295L308.521 213.04L308.806 212.863L308.41 212.318L308.078 213.317Z" fill="#5B534D"/>
<path d="M308.473 211.61L307.19 212.41C306.711 212.709 306.341 213.428 306.365 214.015L306.432 215.585C306.456 216.172 306.866 216.407 307.345 216.108L308.628 215.308C309.108 215.009 309.477 214.29 309.453 213.703L309.387 212.133C309.362 211.545 308.953 211.311 308.473 211.61ZM308.616 215.028L307.333 215.828C306.979 216.048 306.678 215.875 306.659 215.443L306.594 213.873C306.576 213.44 306.848 212.91 307.202 212.689L308.486 211.889C308.84 211.669 309.141 211.842 309.159 212.273L309.226 213.843C309.243 214.277 308.97 214.807 308.616 215.028Z" fill="#5B534D"/>
<path d="M303.921 215.051L303.917 215.053L303.871 215.082L303.993 215.405L304.097 215.268L304.236 215.799L304.054 215.428L303.969 215.54L303.793 215.13L303.564 215.271C303.564 215.271 303.311 216.128 303.406 216.517C303.487 216.852 303.856 216.632 303.954 216.566L303.991 217.521C303.85 217.619 303.695 217.78 303.608 217.876C303.592 217.893 303.598 217.92 303.615 217.91L304.441 217.4C304.458 217.39 304.462 217.357 304.446 217.359C304.356 217.37 304.194 217.4 304.048 217.485L304.011 216.531C304.123 216.465 304.468 216.234 304.518 215.829C304.579 215.344 304.274 214.833 304.274 214.833L303.921 215.051Z" fill="#5B534D"/>
<path d="M304.548 214.039L303.264 214.831C302.785 215.127 302.414 215.846 302.436 216.434L302.496 218.008C302.518 218.596 302.926 218.833 303.406 218.537L304.689 217.745C305.168 217.449 305.539 216.73 305.517 216.142L305.457 214.568C305.435 213.98 305.027 213.743 304.548 214.039ZM305.29 216.282C305.306 216.715 305.032 217.246 304.679 217.464L303.396 218.256C303.042 218.475 302.742 218.299 302.725 217.866L302.665 216.292C302.649 215.858 302.923 215.327 303.275 215.109L304.559 214.317C304.913 214.098 305.213 214.274 305.23 214.707L305.29 216.282Z" fill="#5B534D"/>
<path d="M315.176 202.386L303.073 209.768L303.056 202.868L315.159 195.485L315.176 202.386Z" fill="#F7E8D5"/>
<path d="M311.747 199.008L304.435 203.469L304.434 203.092L311.746 198.632L311.747 199.008Z" fill="#998376"/>
<path d="M313.554 200.136L306.242 204.596L306.241 204.22L313.554 199.759V200.136Z" fill="#998376"/>
<path d="M308.991 201.761L304.452 204.53L304.451 204.154L308.99 201.385L308.991 201.761Z" fill="#8A766A"/>
<path d="M311.734 200.088L309.875 201.222L309.874 200.846L311.733 199.712L311.734 200.088Z" fill="#6D5041"/>
<path d="M311.734 200.088L309.875 201.222L309.874 200.846L311.733 199.712L311.734 200.088Z" fill="#7F6D62"/>
<path d="M308.991 204.084L304.452 206.853L304.451 206.477L308.99 203.708L308.991 204.084Z" fill="#7F6D62"/>
<path d="M311.733 202.414L309.874 203.547V203.17L311.733 202.037V202.414Z" fill="#7F6D62"/>
<path d="M313.334 199.107L312.482 199.626L312.481 199.249L313.333 198.731L313.334 199.107Z" fill="#7F6D62"/>
<path d="M306.293 206.781L304.434 207.914V207.538L306.292 206.404L306.293 206.781Z" fill="#998376"/>
<path d="M307.912 205.796L307.062 206.315L307.061 205.938L307.911 205.42L307.912 205.796Z" fill="#7F6D62"/>
<path d="M305.324 205.157L304.472 205.676L304.471 205.299L305.322 204.781L305.324 205.157Z" fill="#7F6D62"/>
<path d="M289.694 195.02L310.19 183.942L312.959 185.05L292.464 196.682L289.694 195.02Z" fill="white"/>
<path d="M289.141 185.603L308.528 196.128L310.744 194.466L290.802 184.496L289.141 185.603Z" fill="white"/>
<path d="M308.528 196.128L310.744 194.466V197.236L308.528 198.898V196.128Z" fill="#F8F9FA"/>
<path d="M289.694 195.02L292.464 196.468V202.221L289.694 200.56V195.02Z" fill="#F8F9FA"/>
<path d="M309.988 209.211L329.738 197.925L348.36 208.082L329.174 219.933L309.988 209.211Z" fill="#EBBE73"/>
<path d="M309.988 209.212V231.784L329.174 243.07V219.933L309.988 209.212Z" fill="#F1C989"/>
<path d="M318.432 227.009L317.873 224.103C317.823 223.841 317.632 223.764 317.521 223.961L316.899 225.066C316.844 225.164 316.825 225.307 316.848 225.437L317.464 228.845C317.486 228.968 317.544 229.062 317.616 229.093L319.509 229.907C319.587 229.941 319.669 229.895 319.721 229.788L320.346 228.504C320.45 228.292 320.387 227.965 320.232 227.903L318.586 227.252C318.514 227.223 318.455 227.131 318.432 227.009Z" fill="#FFFEFE"/>
<path d="M318.37 222.279L317.982 222.996C317.928 223.096 317.91 223.239 317.935 223.369L318.579 226.693C318.603 226.815 318.662 226.907 318.734 226.935L320.651 227.677C320.725 227.705 320.802 227.663 320.853 227.565L321.214 226.875C321.265 226.778 321.283 226.641 321.26 226.515L320.675 223.217C320.653 223.092 320.594 222.996 320.521 222.966L318.572 222.173C318.498 222.143 318.421 222.183 318.37 222.279Z" fill="#FFFEFE"/>
<path d="M329.17 219.932L348.356 208.082V231.331L329.17 243.068V219.932Z" fill="#DEB068"/>
<path d="M340.6 228.99L340.594 228.835L340.531 228.874L340.538 229.029C339.674 229.594 339.604 230.747 339.604 230.747C339.604 230.747 340.045 230.338 340.217 230.539C340.217 230.539 340.372 230.323 340.584 230.166L340.635 231.375C340.635 231.375 340.648 231.562 340.641 231.617C340.63 231.7 340.566 231.712 340.556 231.648C340.549 231.594 340.511 231.617 340.504 231.666C340.498 231.715 340.54 231.813 340.626 231.745C340.712 231.679 340.706 231.588 340.706 231.588L340.695 231.337L340.645 230.124C340.772 230.042 340.916 229.989 341.056 230.016C341.056 230.016 341.415 229.471 341.648 229.527C341.65 229.525 341.532 228.435 340.6 228.99Z" fill="#5B534D"/>
<path d="M342.087 228.557C342.062 227.97 341.653 227.736 341.174 228.034L339.89 228.834C339.411 229.133 339.041 229.853 339.066 230.44L339.131 232.01C339.155 232.597 339.565 232.831 340.044 232.533L341.327 231.733C341.807 231.434 342.176 230.714 342.152 230.127L342.087 228.557ZM341.316 231.454L340.033 232.253C339.679 232.473 339.378 232.3 339.359 231.869L339.293 230.299C339.275 229.866 339.547 229.336 339.901 229.115L341.185 228.315C341.539 228.095 341.84 228.268 341.858 228.699L341.923 230.27C341.943 230.702 341.67 231.234 341.316 231.454Z" fill="#5B534D"/>
<path d="M336.122 233.907L336.28 233.809L336.228 232.554L336.512 232.377L336.116 231.832L335.784 232.831L336.069 232.654L336.122 233.907Z" fill="#5B534D"/>
<path d="M335.86 234.259L335.867 234.454L337.665 233.334L337.657 233.14L335.86 234.259Z" fill="#5B534D"/>
<path d="M336.883 232.151L337.168 231.972L337.22 233.227L337.379 233.129L337.326 231.874L337.611 231.697L337.215 231.152L336.883 232.151Z" fill="#5B534D"/>
<path d="M337.278 230.444L335.995 231.244C335.516 231.542 335.146 232.262 335.171 232.849L335.237 234.419C335.262 235.006 335.671 235.24 336.15 234.942L337.433 234.142C337.913 233.843 338.283 233.123 338.258 232.536L338.192 230.966C338.167 230.378 337.758 230.145 337.278 230.444ZM337.421 233.862L336.138 234.662C335.784 234.882 335.483 234.709 335.464 234.277L335.399 232.707C335.381 232.274 335.654 231.744 336.008 231.522L337.291 230.723C337.645 230.503 337.946 230.676 337.964 231.107L338.031 232.677C338.048 233.11 337.775 233.641 337.421 233.862Z" fill="#5B534D"/>
<path d="M332.726 233.885L332.722 233.887L332.676 233.915L332.799 234.238L332.902 234.102L333.041 234.632L332.859 234.262L332.774 234.374L332.598 233.964L332.37 234.105C332.37 234.105 332.116 234.962 332.211 235.35C332.292 235.686 332.661 235.466 332.759 235.4L332.796 236.355C332.655 236.452 332.5 236.614 332.413 236.71C332.397 236.727 332.403 236.753 332.42 236.743L333.246 236.233C333.263 236.223 333.267 236.19 333.251 236.192C333.161 236.204 332.999 236.234 332.853 236.319L332.816 235.365C332.928 235.299 333.273 235.067 333.323 234.662C333.384 234.178 333.079 233.666 333.079 233.666L332.726 233.885Z" fill="#5B534D"/>
<path d="M333.353 232.873L332.07 233.665C331.59 233.961 331.219 234.68 331.241 235.268L331.301 236.842C331.324 237.43 331.732 237.667 332.211 237.371L333.494 236.579C333.973 236.283 334.345 235.564 334.323 234.976L334.262 233.402C334.24 232.814 333.832 232.577 333.353 232.873ZM334.095 235.116C334.111 235.549 333.837 236.08 333.484 236.298L332.201 237.09C331.847 237.309 331.547 237.133 331.53 236.7L331.47 235.126C331.454 234.692 331.728 234.161 332.081 233.943L333.364 233.151C333.718 232.932 334.018 233.108 334.035 233.541L334.095 235.116Z" fill="#5B534D"/>
<path d="M343.981 221.219L331.878 228.602L331.861 221.702L343.964 214.318L343.981 221.219Z" fill="#F7E8D5"/>
<path d="M340.552 217.842L333.24 222.302L333.239 221.926L340.551 217.465L340.552 217.842Z" fill="#998376"/>
<path d="M342.359 218.969L335.047 223.43L335.046 223.054L342.359 218.593V218.969Z" fill="#998376"/>
<path d="M337.797 220.595L333.258 223.364L333.256 222.988L337.795 220.218L337.797 220.595Z" fill="#8A766A"/>
<path d="M340.54 218.922L338.68 220.056L338.679 219.679L340.538 218.546L340.54 218.922Z" fill="#6D5041"/>
<path d="M340.54 218.922L338.68 220.056L338.679 219.679L340.538 218.546L340.54 218.922Z" fill="#7F6D62"/>
<path d="M337.797 222.917L333.258 225.686L333.256 225.31L337.795 222.541L337.797 222.917Z" fill="#7F6D62"/>
<path d="M340.538 221.247L338.679 222.381V222.004L340.538 220.87V221.247Z" fill="#7F6D62"/>
<path d="M342.139 217.941L341.287 218.459L341.286 218.083L342.138 217.564L342.139 217.941Z" fill="#7F6D62"/>
<path d="M335.099 225.614L333.239 226.748V226.371L335.098 225.238L335.099 225.614Z" fill="#998376"/>
<path d="M336.718 224.63L335.867 225.148L335.866 224.772L336.717 224.253L336.718 224.63Z" fill="#7F6D62"/>
<path d="M334.129 223.991L333.277 224.509L333.276 224.133L334.128 223.614L334.129 223.991Z" fill="#7F6D62"/>
<path d="M318.5 213.854L338.995 202.775L341.765 203.883L321.27 215.516L318.5 213.854Z" fill="white"/>
<path d="M317.946 204.437L337.334 214.962L339.55 213.3L319.608 203.329L317.946 204.437Z" fill="white"/>
<path d="M337.334 214.962L339.55 213.3V216.07L337.334 217.732V214.962Z" fill="#F8F9FA"/>
<path d="M318.5 213.854L321.27 215.302V221.055L318.5 219.393V213.854Z" fill="#F8F9FA"/>
<g opacity="0.8">
<path d="M337.591 222.559L356.775 211.597L374.863 221.463L356.227 232.973L337.591 222.559Z" fill="url(#paint53_linear_1_1968)"/>
<path d="M337.591 222.559V244.484L356.227 255.446V232.974L337.591 222.559Z" fill="url(#paint54_linear_1_1968)"/>
<path d="M356.226 232.974L374.862 221.464V244.046L356.226 255.447V232.974Z" fill="url(#paint55_linear_1_1968)"/>
</g>
<g opacity="0.6">
<path d="M364.814 238.33L383.998 227.368L402.086 237.234L383.45 248.745L364.814 238.33Z" fill="url(#paint56_linear_1_1968)"/>
<path d="M364.814 238.33V260.254L383.45 271.217V248.744L364.814 238.33Z" fill="url(#paint57_linear_1_1968)"/>
<path d="M383.449 248.746L402.085 237.235V259.818L383.449 271.218V248.746Z" fill="url(#paint58_linear_1_1968)"/>
</g>
<g opacity="0.4">
<path d="M392.076 254.097L411.26 243.135L429.348 253.001L410.712 264.512L392.076 254.097Z" fill="url(#paint59_linear_1_1968)"/>
<path d="M392.076 254.097V276.022L410.712 286.984V264.511L392.076 254.097Z" fill="url(#paint60_linear_1_1968)"/>
</g>
<path opacity="0.4" d="M16.4321 196.803L91.4508 147.76L187.459 202.46L112.44 249.895L16.4321 196.803Z" fill="url(#paint61_linear_1_1968)"/>
<path fill-rule="evenodd" clip-rule="evenodd" d="M4.47419 228.804V193.555C4.47419 193.555 62.4901 164.571 62.9502 164.822L120.339 193.848V229.054C120.339 229.054 120.464 229.639 120.004 229.89L63.4103 262.423C62.9921 262.674 62.281 262.674 61.8627 262.423L4.76699 229.597C4.3487 229.347 4.47419 228.804 4.47419 228.804Z" fill="#EDEDED"/>
<path fill-rule="evenodd" clip-rule="evenodd" d="M4.77026 192.97L61.364 160.436C61.7823 160.186 62.4934 160.186 62.9117 160.436L119.966 193.263C120.384 193.513 120.384 193.931 119.966 194.181L63.4136 226.674C62.9953 226.924 62.2843 226.924 61.866 226.674L4.77026 193.889C4.35197 193.639 4.35197 193.221 4.77026 192.97Z" fill="url(#paint62_linear_1_1968)"/>
<path fill-rule="evenodd" clip-rule="evenodd" d="M63.2617 226.83L62.4344 262.617C62.1834 262.617 61.8814 262.663 61.6722 262.579L4.61831 229.753C4.20003 229.503 4.28368 228.918 4.28368 228.918V193.711L63.2617 226.83Z" fill="#E3E3E3"/>
<path fill-rule="evenodd" clip-rule="evenodd" d="M75.9287 231.989L111.417 212.136V234.813L75.9287 255.223V231.989Z" fill="#C4C4C4" fill-opacity="0.6"/>
<path fill-rule="evenodd" clip-rule="evenodd" d="M111.431 234.66L91.6396 223.279L111.431 212.138V234.66Z" fill="#797B84" fill-opacity="0.5"/>
<circle r="17.1845" transform="matrix(0.891007 -0.453991 0.707107 0.707107 63.8051 192.398)" fill="#E85777"/>
<path d="M63.0703 195.43L55.526 191.273C54.8465 190.899 53.9405 191.149 53.8548 191.735L53.3736 195.023C53.3311 195.313 53.5127 195.614 53.8456 195.804L62.5349 200.759C62.8488 200.938 63.2505 200.992 63.595 200.902L72.6837 198.513C73.0577 198.415 73.3028 198.162 73.3168 197.861L73.4854 194.241C73.5132 193.644 72.6652 193.174 71.9296 193.38L64.1321 195.559C63.7905 195.654 63.3881 195.606 63.0703 195.43Z" fill="white"/>
<path d="M54.1938 186.93L53.9452 189.031C53.9107 189.323 54.1002 189.622 54.4379 189.807L63.0857 194.552C63.4049 194.727 63.8086 194.775 64.1503 194.678L73.198 192.108C73.5472 192.009 73.779 191.774 73.8061 191.491L73.9976 189.493C74.0245 189.212 73.8453 188.927 73.5268 188.743L65.1607 183.925C64.8423 183.742 64.4324 183.688 64.0838 183.783L54.8114 186.323C54.4622 186.419 54.227 186.65 54.1938 186.93Z" fill="#0043F9"/>
<path opacity="0.4" d="M-40.999 259.195L4.36505 229.538L62.4214 262.616L17.0573 291.3L-40.999 259.195Z" fill="url(#paint63_linear_1_1968)"/>
<path d="M89.5205 237.885L101.288 231.161L112.383 237.213L100.952 244.273L89.5205 237.885Z" fill="#EBBE73"/>
<path d="M89.5205 237.886V251.334L100.952 258.059V244.274L89.5205 237.886Z" fill="#F1C989"/>
<path d="M94.5509 248.489L94.218 246.758C94.188 246.602 94.0743 246.556 94.0083 246.674L93.6378 247.332C93.605 247.39 93.5934 247.475 93.6074 247.553L93.9745 249.583C93.9877 249.657 94.0219 249.713 94.0647 249.731L95.1929 250.216C95.2394 250.236 95.2883 250.209 95.3192 250.145L95.6917 249.38C95.7531 249.254 95.7159 249.059 95.6234 249.022L94.6427 248.634C94.5997 248.617 94.5649 248.562 94.5509 248.489Z" fill="#FFFEFE"/>
<path d="M94.5139 245.671L94.2829 246.099C94.2509 246.158 94.2402 246.243 94.2551 246.321L94.6388 248.301C94.653 248.374 94.688 248.429 94.7311 248.446L95.8731 248.887C95.9171 248.904 95.963 248.879 95.9935 248.821L96.2088 248.409C96.239 248.352 96.2494 248.27 96.2362 248.195L95.8874 246.23C95.8741 246.156 95.8391 246.099 95.7955 246.081L94.6343 245.608C94.5906 245.59 94.5447 245.614 94.5139 245.671Z" fill="#FFFEFE"/>
<path d="M100.95 244.273L112.381 237.212V251.064L100.95 258.057V244.273Z" fill="#DEB068"/>
<path d="M107.76 249.67L107.757 249.577L107.719 249.6L107.723 249.693C107.208 250.029 107.167 250.717 107.167 250.717C107.167 250.717 107.429 250.473 107.532 250.592C107.532 250.592 107.624 250.463 107.751 250.37L107.781 251.09C107.781 251.09 107.789 251.202 107.785 251.235C107.778 251.284 107.74 251.291 107.734 251.253C107.73 251.221 107.707 251.234 107.703 251.264C107.7 251.293 107.725 251.351 107.776 251.311C107.827 251.271 107.823 251.218 107.823 251.218L107.817 251.068L107.787 250.345C107.863 250.296 107.949 250.265 108.032 250.281C108.032 250.281 108.246 249.956 108.384 249.99C108.386 249.988 108.315 249.339 107.76 249.67Z" fill="#5B534D"/>
<path d="M108.647 249.412C108.632 249.062 108.388 248.922 108.103 249.1L107.338 249.577C107.053 249.755 106.832 250.184 106.847 250.533L106.886 251.469C106.9 251.819 107.144 251.958 107.43 251.78L108.194 251.304C108.48 251.126 108.7 250.697 108.686 250.347L108.647 249.412ZM108.188 251.137L107.423 251.614C107.212 251.745 107.033 251.642 107.022 251.385L106.982 250.449C106.971 250.192 107.134 249.876 107.345 249.744L108.109 249.267C108.32 249.136 108.5 249.239 108.511 249.496L108.549 250.432C108.561 250.69 108.399 251.006 108.188 251.137Z" fill="#5B534D"/>
<path d="M105.092 252.599L105.185 252.541L105.154 251.793L105.324 251.688L105.088 251.363L104.89 251.958L105.06 251.852L105.092 252.599Z" fill="#5B534D"/>
<path d="M104.936 252.809L104.94 252.925L106.011 252.258L106.006 252.142L104.936 252.809Z" fill="#5B534D"/>
<path d="M105.545 251.553L105.715 251.447L105.746 252.194L105.841 252.136L105.809 251.388L105.979 251.282L105.743 250.958L105.545 251.553Z" fill="#5B534D"/>
<path d="M105.781 250.536L105.016 251.012C104.731 251.19 104.51 251.619 104.525 251.969L104.565 252.904C104.579 253.254 104.823 253.394 105.109 253.216L105.873 252.739C106.159 252.561 106.379 252.132 106.365 251.783L106.325 250.847C106.31 250.497 106.067 250.358 105.781 250.536ZM105.866 252.572L105.101 253.049C104.891 253.18 104.711 253.077 104.7 252.82L104.661 251.884C104.65 251.626 104.813 251.31 105.024 251.179L105.788 250.702C105.999 250.571 106.179 250.674 106.19 250.931L106.229 251.866C106.239 252.125 106.077 252.441 105.866 252.572Z" fill="#5B534D"/>
<path d="M103.068 252.586L103.065 252.587L103.037 252.604L103.111 252.797L103.172 252.715L103.255 253.031L103.147 252.811L103.096 252.878L102.991 252.633L102.855 252.717C102.855 252.717 102.704 253.228 102.761 253.459C102.809 253.659 103.029 253.528 103.087 253.489L103.109 254.058C103.025 254.116 102.933 254.212 102.881 254.269C102.871 254.279 102.875 254.295 102.885 254.289L103.377 253.985C103.388 253.979 103.39 253.96 103.38 253.961C103.327 253.968 103.23 253.986 103.143 254.036L103.121 253.468C103.188 253.429 103.393 253.291 103.423 253.049C103.459 252.761 103.278 252.456 103.278 252.456L103.068 252.586Z" fill="#5B534D"/>
<path d="M103.442 251.983L102.677 252.455C102.392 252.631 102.17 253.06 102.184 253.41L102.22 254.348C102.233 254.698 102.476 254.839 102.761 254.663L103.526 254.191C103.812 254.014 104.033 253.586 104.02 253.236L103.984 252.298C103.97 251.948 103.727 251.807 103.442 251.983ZM103.884 253.319C103.894 253.577 103.73 253.894 103.52 254.024L102.756 254.496C102.545 254.626 102.366 254.521 102.356 254.263L102.32 253.325C102.31 253.067 102.474 252.751 102.684 252.62L103.448 252.148C103.659 252.018 103.838 252.123 103.848 252.381L103.884 253.319Z" fill="#5B534D"/>
<path d="M109.775 245.04L102.564 249.439L102.554 245.327L109.765 240.928L109.775 245.04Z" fill="#F7E8D5"/>
<path d="M107.732 243.028L103.375 245.685L103.375 245.461L107.731 242.803L107.732 243.028Z" fill="#998376"/>
<path d="M108.809 243.7L104.452 246.357L104.452 246.133L108.809 243.475V243.7Z" fill="#998376"/>
<path d="M106.09 244.668L103.386 246.318L103.385 246.093L106.09 244.444L106.09 244.668Z" fill="#8A766A"/>
<path d="M107.724 243.671L106.616 244.347L106.616 244.122L107.724 243.447L107.724 243.671Z" fill="#6D5041"/>
<path d="M107.724 243.671L106.616 244.347L106.616 244.122L107.724 243.447L107.724 243.671Z" fill="#7F6D62"/>
<path d="M106.09 246.052L103.386 247.702L103.385 247.477L106.09 245.827L106.09 246.052Z" fill="#7F6D62"/>
<path d="M107.724 245.057L106.616 245.732V245.507L107.724 244.832V245.057Z" fill="#7F6D62"/>
<path d="M108.68 243.086L108.172 243.395L108.171 243.171L108.679 242.862L108.68 243.086Z" fill="#7F6D62"/>
<path d="M104.482 247.658L103.375 248.334V248.109L104.482 247.434L104.482 247.658Z" fill="#998376"/>
<path d="M105.446 247.072L104.939 247.381L104.938 247.157L105.445 246.848L105.446 247.072Z" fill="#7F6D62"/>
<path d="M103.906 246.691L103.399 247L103.398 246.776L103.905 246.467L103.906 246.691Z" fill="#7F6D62"/>
<path d="M94.5923 240.652L106.804 234.051L108.454 234.711L96.2425 241.642L94.5923 240.652Z" fill="white"/>
<path d="M94.2612 235.041L105.812 241.312L107.133 240.321L95.2513 234.381L94.2612 235.041Z" fill="white"/>
<path d="M105.812 241.312L107.132 240.322V241.972L105.812 242.962V241.312Z" fill="#F8F9FA"/>
<path d="M94.5923 240.652L96.2425 241.514V244.942L94.5923 243.952V240.652Z" fill="#F8F9FA"/>
<path d="M109.462 248.964L121.229 242.24L132.324 248.291L120.893 255.352L109.462 248.964Z" fill="#EBBE73"/>
<path d="M109.462 248.964V262.413L120.893 269.137V255.352L109.462 248.964Z" fill="#F1C989"/>
<path d="M114.492 259.568L114.159 257.837C114.129 257.681 114.016 257.635 113.95 257.752L113.579 258.411C113.546 258.469 113.535 258.554 113.549 258.632L113.916 260.662C113.929 260.735 113.963 260.791 114.006 260.81L115.134 261.295C115.181 261.315 115.23 261.287 115.261 261.224L115.633 260.459C115.695 260.333 115.657 260.138 115.565 260.101L114.584 259.713C114.541 259.696 114.506 259.641 114.492 259.568Z" fill="#FFFEFE"/>
<path d="M114.455 256.75L114.224 257.177C114.192 257.237 114.182 257.322 114.197 257.399L114.58 259.38C114.594 259.453 114.629 259.508 114.672 259.524L115.814 259.966C115.859 259.983 115.904 259.958 115.935 259.899L116.15 259.488C116.18 259.43 116.191 259.349 116.178 259.274L115.829 257.309C115.816 257.234 115.781 257.177 115.737 257.159L114.576 256.687C114.532 256.669 114.486 256.693 114.455 256.75Z" fill="#FFFEFE"/>
<path d="M120.891 255.351L132.322 248.291V262.143L120.891 269.136V255.351Z" fill="#DEB068"/>
<path d="M127.702 260.748L127.698 260.656L127.661 260.679L127.664 260.772C127.15 261.108 127.108 261.795 127.108 261.795C127.108 261.795 127.371 261.551 127.473 261.671C127.473 261.671 127.566 261.542 127.692 261.449L127.722 262.169C127.722 262.169 127.73 262.281 127.726 262.313C127.719 262.363 127.681 262.37 127.675 262.332C127.671 262.3 127.648 262.313 127.645 262.342C127.641 262.371 127.666 262.43 127.717 262.39C127.768 262.35 127.765 262.296 127.765 262.296L127.758 262.147L127.728 261.424C127.804 261.375 127.89 261.343 127.973 261.359C127.973 261.359 128.187 261.035 128.326 261.068C128.327 261.067 128.257 260.417 127.702 260.748Z" fill="#5B534D"/>
<path d="M128.588 260.49C128.574 260.141 128.33 260.001 128.044 260.179L127.28 260.655C126.994 260.833 126.774 261.262 126.788 261.612L126.827 262.548C126.842 262.897 127.086 263.037 127.371 262.859L128.136 262.382C128.421 262.204 128.642 261.776 128.627 261.426L128.588 260.49ZM128.129 262.216L127.365 262.693C127.154 262.824 126.974 262.721 126.963 262.463L126.924 261.528C126.913 261.27 127.075 260.954 127.286 260.822L128.051 260.346C128.262 260.215 128.441 260.318 128.452 260.575L128.491 261.511C128.503 261.768 128.34 262.085 128.129 262.216Z" fill="#5B534D"/>
<path d="M125.033 263.678L125.127 263.619L125.096 262.872L125.265 262.766L125.029 262.442L124.832 263.037L125.001 262.931L125.033 263.678Z" fill="#5B534D"/>
<path d="M124.877 263.888L124.881 264.004L125.953 263.336L125.948 263.221L124.877 263.888Z" fill="#5B534D"/>
<path d="M125.487 262.632L125.657 262.525L125.687 263.273L125.782 263.214L125.75 262.467L125.92 262.361L125.685 262.037L125.487 262.632Z" fill="#5B534D"/>
<path d="M125.722 261.614L124.958 262.091C124.672 262.269 124.452 262.698 124.467 263.048L124.506 263.983C124.521 264.333 124.765 264.472 125.05 264.294L125.815 263.818C126.1 263.64 126.321 263.211 126.306 262.861L126.267 261.926C126.252 261.575 126.008 261.436 125.722 261.614ZM125.807 263.651L125.043 264.128C124.832 264.259 124.653 264.155 124.642 263.898L124.603 262.963C124.592 262.705 124.754 262.389 124.965 262.257L125.73 261.781C125.941 261.65 126.12 261.753 126.131 262.01L126.171 262.945C126.181 263.203 126.018 263.519 125.807 263.651Z" fill="#5B534D"/>
<path d="M123.009 263.665L123.007 263.666L122.979 263.683L123.052 263.875L123.114 263.794L123.196 264.11L123.088 263.889L123.037 263.956L122.933 263.712L122.797 263.796C122.797 263.796 122.646 264.306 122.702 264.538C122.75 264.738 122.97 264.607 123.029 264.567L123.051 265.136C122.966 265.194 122.874 265.29 122.822 265.348C122.813 265.358 122.816 265.374 122.827 265.368L123.319 265.064C123.329 265.058 123.331 265.038 123.322 265.039C123.268 265.046 123.171 265.064 123.084 265.115L123.062 264.546C123.129 264.507 123.335 264.369 123.365 264.128C123.401 263.839 123.219 263.534 123.219 263.534L123.009 263.665Z" fill="#5B534D"/>
<path d="M123.383 263.062L122.619 263.534C122.333 263.71 122.112 264.138 122.125 264.488L122.161 265.426C122.174 265.776 122.417 265.918 122.703 265.741L123.467 265.269C123.753 265.093 123.974 264.665 123.961 264.315L123.925 263.377C123.912 263.027 123.669 262.885 123.383 263.062ZM123.825 264.398C123.835 264.656 123.672 264.972 123.462 265.102L122.697 265.574C122.486 265.704 122.307 265.6 122.297 265.342L122.261 264.404C122.252 264.145 122.415 263.829 122.625 263.699L123.39 263.227C123.601 263.097 123.779 263.202 123.79 263.46L123.825 264.398Z" fill="#5B534D"/>
<path d="M129.717 256.119L122.506 260.517L122.496 256.406L129.707 252.007L129.717 256.119Z" fill="#F7E8D5"/>
<path d="M127.673 254.106L123.317 256.764L123.316 256.54L127.672 253.882L127.673 254.106Z" fill="#998376"/>
<path d="M128.75 254.778L124.394 257.436L124.393 257.212L128.75 254.554V254.778Z" fill="#998376"/>
<path d="M126.032 255.746L123.327 257.396L123.327 257.172L126.031 255.522L126.032 255.746Z" fill="#8A766A"/>
<path d="M127.666 254.75L126.558 255.425L126.557 255.201L127.665 254.526L127.666 254.75Z" fill="#6D5041"/>
<path d="M127.666 254.75L126.558 255.425L126.557 255.201L127.665 254.526L127.666 254.75Z" fill="#7F6D62"/>
<path d="M126.032 257.13L123.327 258.78L123.327 258.556L126.031 256.906L126.032 257.13Z" fill="#7F6D62"/>
<path d="M127.665 256.135L126.557 256.811V256.586L127.665 255.911V256.135Z" fill="#7F6D62"/>
<path d="M128.621 254.165L128.114 254.474L128.113 254.25L128.62 253.941L128.621 254.165Z" fill="#7F6D62"/>
<path d="M124.424 258.737L123.316 259.412V259.188L124.423 258.513L124.424 258.737Z" fill="#998376"/>
<path d="M125.387 258.151L124.881 258.459L124.88 258.235L125.387 257.926L125.387 258.151Z" fill="#7F6D62"/>
<path d="M123.848 257.77L123.34 258.079L123.339 257.855L123.847 257.546L123.848 257.77Z" fill="#7F6D62"/>
<path d="M114.534 251.731L126.745 245.13L128.395 245.79L116.184 252.721L114.534 251.731Z" fill="white"/>
<path d="M114.203 246.12L125.754 252.39L127.074 251.4L115.193 245.459L114.203 246.12Z" fill="white"/>
<path d="M125.753 252.39L127.073 251.4V253.05L125.753 254.04V252.39Z" fill="#F8F9FA"/>
<path d="M114.534 251.73L116.184 252.593V256.021L114.534 255.031V251.73Z" fill="#F8F9FA"/>
<path d="M129.403 261.15L141.171 254.426L152.266 260.478L140.835 267.538L129.403 261.15Z" fill="#EBBE73"/>
<path d="M129.403 261.151V274.599L140.835 281.323V267.539L129.403 261.151Z" fill="#F1C989"/>
<path d="M134.434 271.754L134.101 270.023C134.071 269.867 133.957 269.821 133.891 269.939L133.521 270.597C133.488 270.655 133.476 270.74 133.49 270.818L133.857 272.848C133.871 272.922 133.905 272.978 133.947 272.996L135.076 273.481C135.122 273.501 135.171 273.474 135.202 273.41L135.574 272.645C135.636 272.519 135.599 272.324 135.506 272.287L134.525 271.899C134.483 271.882 134.448 271.827 134.434 271.754Z" fill="#FFFEFE"/>
<path d="M134.397 268.936L134.166 269.364C134.134 269.423 134.123 269.508 134.138 269.586L134.522 271.566C134.536 271.639 134.571 271.694 134.614 271.71L135.756 272.152C135.8 272.169 135.846 272.144 135.876 272.086L136.092 271.674C136.122 271.616 136.132 271.535 136.119 271.46L135.77 269.495C135.757 269.42 135.722 269.364 135.678 269.346L134.517 268.873C134.473 268.855 134.428 268.879 134.397 268.936Z" fill="#FFFEFE"/>
<path d="M140.833 267.538L152.264 260.477V274.329L140.833 281.322V267.538Z" fill="#DEB068"/>
<path d="M147.643 272.934L147.64 272.842L147.602 272.865L147.606 272.958C147.091 273.294 147.049 273.981 147.049 273.981C147.049 273.981 147.312 273.738 147.415 273.857C147.415 273.857 147.507 273.728 147.634 273.635L147.664 274.355C147.664 274.355 147.672 274.467 147.667 274.5C147.661 274.549 147.623 274.556 147.617 274.518C147.612 274.486 147.59 274.499 147.586 274.529C147.582 274.558 147.607 274.616 147.659 274.576C147.71 274.536 147.706 274.482 147.706 274.482L147.7 274.333L147.67 273.61C147.746 273.561 147.831 273.53 147.915 273.546C147.915 273.546 148.129 273.221 148.267 273.255C148.269 273.253 148.198 272.604 147.643 272.934Z" fill="#5B534D"/>
<path d="M148.53 272.677C148.515 272.327 148.271 272.187 147.986 272.365L147.221 272.842C146.935 273.02 146.715 273.449 146.73 273.798L146.769 274.734C146.783 275.083 147.027 275.223 147.313 275.045L148.077 274.569C148.363 274.391 148.583 273.962 148.569 273.612L148.53 272.677ZM148.071 274.402L147.306 274.879C147.095 275.01 146.916 274.907 146.905 274.65L146.865 273.714C146.854 273.456 147.017 273.141 147.228 273.009L147.992 272.532C148.203 272.401 148.382 272.504 148.393 272.761L148.432 273.697C148.444 273.955 148.281 274.271 148.071 274.402Z" fill="#5B534D"/>
<path d="M144.974 275.864L145.068 275.806L145.037 275.058L145.206 274.952L144.971 274.628L144.773 275.223L144.943 275.117L144.974 275.864Z" fill="#5B534D"/>
<path d="M145.428 274.818L145.598 274.712L145.629 275.459L145.723 275.401L145.692 274.653L145.862 274.547L145.626 274.223L145.428 274.818Z" fill="#5B534D"/>
<path d="M145.664 273.801L144.899 274.277C144.614 274.455 144.393 274.884 144.408 275.234L144.447 276.169C144.462 276.519 144.706 276.659 144.992 276.481L145.756 276.004C146.042 275.826 146.262 275.397 146.247 275.048L146.208 274.112C146.193 273.762 145.949 273.623 145.664 273.801ZM145.749 275.837L144.984 276.314C144.773 276.445 144.594 276.342 144.583 276.085L144.544 275.149C144.533 274.891 144.696 274.575 144.907 274.443L145.671 273.967C145.882 273.836 146.061 273.939 146.072 274.196L146.112 275.131C146.122 275.389 145.96 275.705 145.749 275.837Z" fill="#5B534D"/>
<path d="M143.325 275.248L142.56 275.72C142.274 275.896 142.053 276.325 142.066 276.675L142.102 277.613C142.116 277.963 142.359 278.104 142.644 277.928L143.409 277.456C143.694 277.279 143.916 276.851 143.902 276.501L143.866 275.563C143.853 275.213 143.61 275.071 143.325 275.248ZM143.767 276.584C143.776 276.842 143.613 277.158 143.403 277.288L142.638 277.76C142.428 277.891 142.249 277.786 142.239 277.528L142.203 276.59C142.193 276.332 142.356 276.015 142.567 275.885L143.331 275.413C143.542 275.283 143.721 275.388 143.731 275.646L143.767 276.584Z" fill="#5B534D"/>
<path d="M149.658 268.305L142.447 272.703L142.437 268.592L149.648 264.193L149.658 268.305Z" fill="#F7E8D5"/>
<path d="M147.615 266.292L143.258 268.95L143.257 268.726L147.614 266.068L147.615 266.292Z" fill="#998376"/>
<path d="M148.692 266.965L144.335 269.622L144.334 269.398L148.692 266.74V266.965Z" fill="#998376"/>
<path d="M145.973 267.933L143.269 269.583L143.268 269.358L145.972 267.708L145.973 267.933Z" fill="#8A766A"/>
<path d="M147.607 266.936L146.499 267.612L146.499 267.387L147.607 266.712L147.607 266.936Z" fill="#6D5041"/>
<path d="M147.607 266.936L146.499 267.612L146.499 267.387L147.607 266.712L147.607 266.936Z" fill="#7F6D62"/>
<path d="M145.973 269.317L143.269 270.966L143.268 270.742L145.972 269.092L145.973 269.317Z" fill="#7F6D62"/>
<path d="M147.607 268.321L146.499 268.997V268.772L147.607 268.097V268.321Z" fill="#7F6D62"/>
<path d="M148.562 266.351L148.055 266.66L148.054 266.436L148.562 266.127L148.562 266.351Z" fill="#7F6D62"/>
<path d="M144.365 270.923L143.257 271.599V271.374L144.365 270.699L144.365 270.923Z" fill="#998376"/>
<path d="M145.329 270.337L144.822 270.646L144.821 270.421L145.328 270.113L145.329 270.337Z" fill="#7F6D62"/>
<path d="M143.789 269.956L143.281 270.265L143.281 270.041L143.788 269.732L143.789 269.956Z" fill="#7F6D62"/>
<path d="M134.475 263.917L146.686 257.316L148.337 257.976L136.125 264.907L134.475 263.917Z" fill="white"/>
<path d="M134.144 258.306L145.695 264.576L147.015 263.586L135.134 257.646L134.144 258.306Z" fill="white"/>
<path d="M145.694 264.577L147.014 263.586V265.237L145.694 266.227V264.577Z" fill="#F8F9FA"/>
<path d="M134.475 263.917L136.125 264.779V268.207L134.475 267.217V263.917Z" fill="#F8F9FA"/>
<g opacity="0.8">
<path d="M153.09 273.957L164.738 267.301L175.72 273.291L164.405 280.28L153.09 273.957Z" fill="url(#paint64_linear_1_1968)"/>
<path d="M153.09 273.958V287.269L164.405 293.925V280.281L153.09 273.958Z" fill="url(#paint65_linear_1_1968)"/>
<path d="M164.398 280.28L175.713 273.291V287.002L164.398 293.924V280.28Z" fill="url(#paint66_linear_1_1968)"/>
</g>
<path d="M362.055 94.9711L373.823 88.2468L384.918 94.2987L373.486 101.359L362.055 94.9711Z" fill="#EBBE73"/>
<path d="M362.055 94.9717V108.42L373.486 115.144V101.36L362.055 94.9717Z" fill="#F1C989"/>
<path d="M367.085 105.575L366.752 103.844C366.722 103.688 366.608 103.642 366.542 103.76L366.172 104.418C366.139 104.476 366.128 104.561 366.142 104.639L366.509 106.67C366.522 106.743 366.556 106.799 366.599 106.817L367.727 107.302C367.774 107.322 367.822 107.295 367.853 107.231L368.226 106.466C368.287 106.34 368.25 106.145 368.158 106.108L367.177 105.72C367.134 105.703 367.099 105.648 367.085 105.575Z" fill="#FFFEFE"/>
<path d="M367.048 102.757L366.817 103.185C366.785 103.244 366.774 103.329 366.789 103.407L367.173 105.387C367.187 105.46 367.222 105.515 367.265 105.532L368.407 105.973C368.451 105.99 368.497 105.965 368.528 105.907L368.743 105.495C368.773 105.438 368.784 105.356 368.77 105.281L368.422 103.316C368.408 103.242 368.373 103.185 368.33 103.167L367.169 102.694C367.125 102.676 367.079 102.7 367.048 102.757Z" fill="#FFFEFE"/>
<path d="M373.484 101.359L384.916 94.2982V108.15L373.484 115.143V101.359Z" fill="#DEB068"/>
<path d="M380.295 106.756L380.291 106.663L380.254 106.686L380.258 106.779C379.743 107.115 379.701 107.803 379.701 107.803C379.701 107.803 379.964 107.559 380.067 107.678C380.067 107.678 380.159 107.55 380.286 107.456L380.316 108.176C380.316 108.176 380.324 108.288 380.319 108.321C380.313 108.37 380.275 108.377 380.269 108.34C380.264 108.307 380.242 108.321 380.238 108.35C380.234 108.379 380.259 108.437 380.31 108.397C380.362 108.357 380.358 108.304 380.358 108.304L380.351 108.154L380.321 107.431C380.398 107.383 380.483 107.351 380.567 107.367C380.567 107.367 380.781 107.042 380.919 107.076C380.92 107.075 380.85 106.425 380.295 106.756Z" fill="#5B534D"/>
<path d="M381.182 106.498C381.167 106.148 380.923 106.008 380.637 106.186L379.873 106.663C379.587 106.841 379.367 107.27 379.382 107.62L379.42 108.555C379.435 108.905 379.679 109.044 379.964 108.867L380.729 108.39C381.015 108.212 381.235 107.783 381.22 107.433L381.182 106.498ZM380.722 108.224L379.958 108.7C379.747 108.831 379.568 108.728 379.557 108.471L379.517 107.536C379.506 107.278 379.669 106.962 379.88 106.83L380.644 106.353C380.855 106.222 381.034 106.326 381.045 106.583L381.084 107.518C381.096 107.776 380.933 108.093 380.722 108.224Z" fill="#5B534D"/>
<path d="M377.626 109.685L377.72 109.627L377.689 108.879L377.858 108.774L377.623 108.449L377.425 109.044L377.595 108.938L377.626 109.685Z" fill="#5B534D"/>
<path d="M377.47 109.895L377.475 110.011L378.546 109.344L378.541 109.228L377.47 109.895Z" fill="#5B534D"/>
<path d="M378.08 108.639L378.25 108.533L378.281 109.28L378.375 109.222L378.344 108.474L378.514 108.368L378.278 108.044L378.08 108.639Z" fill="#5B534D"/>
<path d="M378.316 107.622L377.551 108.098C377.266 108.276 377.045 108.705 377.06 109.055L377.099 109.99C377.114 110.34 377.358 110.48 377.643 110.302L378.408 109.825C378.694 109.647 378.914 109.218 378.899 108.869L378.86 107.933C378.845 107.583 378.601 107.444 378.316 107.622ZM378.401 109.658L377.636 110.135C377.425 110.266 377.246 110.163 377.235 109.906L377.196 108.97C377.185 108.712 377.348 108.396 377.558 108.265L378.323 107.788C378.534 107.657 378.713 107.76 378.724 108.017L378.764 108.953C378.774 109.211 378.612 109.527 378.401 109.658Z" fill="#5B534D"/>
<path d="M375.602 109.672L375.6 109.673L375.572 109.69L375.645 109.883L375.707 109.802L375.79 110.118L375.681 109.897L375.631 109.964L375.526 109.719L375.39 109.803C375.39 109.803 375.239 110.314 375.295 110.545C375.344 110.746 375.563 110.614 375.622 110.575L375.644 111.144C375.56 111.202 375.467 111.298 375.415 111.355C375.406 111.366 375.41 111.381 375.42 111.375L375.912 111.071C375.922 111.066 375.924 111.046 375.915 111.047C375.861 111.054 375.765 111.072 375.678 111.122L375.656 110.554C375.722 110.515 375.928 110.377 375.958 110.136C375.994 109.847 375.812 109.542 375.812 109.542L375.602 109.672Z" fill="#5B534D"/>
<path d="M375.976 109.069L375.212 109.541C374.926 109.718 374.705 110.146 374.718 110.496L374.754 111.434C374.767 111.784 375.011 111.925 375.296 111.749L376.061 111.277C376.346 111.101 376.567 110.672 376.554 110.322L376.518 109.384C376.505 109.034 376.262 108.893 375.976 109.069ZM376.419 110.405C376.428 110.664 376.265 110.98 376.055 111.11L375.29 111.582C375.079 111.712 374.901 111.607 374.89 111.349L374.855 110.411C374.845 110.153 375.008 109.837 375.218 109.707L375.983 109.235C376.194 109.104 376.373 109.209 376.383 109.467L376.419 110.405Z" fill="#5B534D"/>
<path d="M382.31 102.126L375.099 106.525L375.089 102.413L382.3 98.0141L382.31 102.126Z" fill="#F7E8D5"/>
<path d="M380.266 100.113L375.91 102.771L375.909 102.547L380.266 99.8891L380.266 100.113Z" fill="#998376"/>
<path d="M381.344 100.786L376.987 103.443L376.986 103.219L381.344 100.561V100.786Z" fill="#998376"/>
<path d="M378.625 101.754L375.921 103.404L375.92 103.179L378.624 101.53L378.625 101.754Z" fill="#8A766A"/>
<path d="M380.259 100.757L379.151 101.433L379.15 101.208L380.258 100.533L380.259 100.757Z" fill="#6D5041"/>
<path d="M380.259 100.757L379.151 101.433L379.15 101.208L380.258 100.533L380.259 100.757Z" fill="#7F6D62"/>
<path d="M378.625 103.138L375.921 104.787L375.92 104.563L378.624 102.913L378.625 103.138Z" fill="#7F6D62"/>
<path d="M380.258 102.143L379.15 102.818V102.594L380.258 101.918V102.143Z" fill="#7F6D62"/>
<path d="M381.214 100.173L380.707 100.482L380.706 100.257L381.214 99.9483L381.214 100.173Z" fill="#7F6D62"/>
<path d="M377.017 104.744L375.909 105.42V105.195L377.016 104.52L377.017 104.744Z" fill="#998376"/>
<path d="M377.981 104.158L377.474 104.467L377.473 104.242L377.98 103.934L377.981 104.158Z" fill="#7F6D62"/>
<path d="M376.441 103.777L375.933 104.086L375.933 103.862L376.44 103.553L376.441 103.777Z" fill="#7F6D62"/>
<path d="M367.127 97.7379L379.338 91.1372L380.988 91.7973L368.777 98.728L367.127 97.7379Z" fill="white"/>
<path d="M366.796 92.127L378.347 98.3976L379.667 97.4075L367.786 91.4669L366.796 92.127Z" fill="white"/>
<path d="M378.346 98.3978L379.666 97.4076V99.0578L378.346 100.048V98.3978Z" fill="#F8F9FA"/>
<path d="M367.127 97.7375L368.777 98.6V102.028L367.127 101.038V97.7375Z" fill="#F8F9FA"/>
<path d="M379.78 107.158L391.547 100.433L402.642 106.485L391.211 113.546L379.78 107.158Z" fill="#EBBE73"/>
<path d="M379.78 107.158V120.607L391.211 127.331V113.546L379.78 107.158Z" fill="#F1C989"/>
<path d="M384.81 117.762L384.477 116.03C384.447 115.875 384.334 115.829 384.268 115.946L383.897 116.605C383.864 116.663 383.853 116.748 383.867 116.826L384.234 118.856C384.247 118.929 384.281 118.985 384.324 119.004L385.452 119.489C385.499 119.509 385.548 119.481 385.579 119.418L385.951 118.653C386.012 118.527 385.975 118.331 385.883 118.295L384.902 117.907C384.859 117.89 384.824 117.835 384.81 117.762Z" fill="#FFFEFE"/>
<path d="M384.773 114.944L384.542 115.371C384.51 115.43 384.499 115.516 384.514 115.593L384.898 117.573C384.912 117.647 384.947 117.701 384.99 117.718L386.132 118.16C386.176 118.177 386.222 118.151 386.253 118.093L386.468 117.682C386.498 117.624 386.509 117.543 386.495 117.468L386.147 115.503C386.133 115.428 386.098 115.371 386.055 115.353L384.894 114.881C384.85 114.863 384.804 114.887 384.773 114.944Z" fill="#FFFEFE"/>
<path d="M391.209 113.545L402.64 106.485V120.337L391.209 127.33V113.545Z" fill="#DEB068"/>
<path d="M398.019 118.942L398.016 118.85L397.978 118.873L397.982 118.966C397.467 119.302 397.425 119.989 397.425 119.989C397.425 119.989 397.688 119.745 397.791 119.865C397.791 119.865 397.883 119.736 398.01 119.642L398.04 120.363C398.04 120.363 398.048 120.475 398.043 120.507C398.037 120.557 397.999 120.564 397.993 120.526C397.988 120.494 397.966 120.507 397.962 120.536C397.958 120.565 397.983 120.624 398.035 120.584C398.086 120.544 398.082 120.49 398.082 120.49L398.076 120.341L398.046 119.618C398.122 119.569 398.207 119.537 398.291 119.553C398.291 119.553 398.505 119.229 398.643 119.262C398.645 119.261 398.574 118.611 398.019 118.942Z" fill="#5B534D"/>
<path d="M398.906 118.684C398.891 118.335 398.647 118.195 398.362 118.373L397.597 118.85C397.311 119.027 397.091 119.456 397.106 119.806L397.144 120.742C397.159 121.091 397.403 121.231 397.689 121.053L398.453 120.576C398.739 120.399 398.959 119.97 398.944 119.62L398.906 118.684ZM398.447 120.41L397.682 120.887C397.471 121.018 397.292 120.915 397.281 120.658L397.241 119.722C397.23 119.464 397.393 119.148 397.604 119.017L398.368 118.54C398.579 118.409 398.758 118.512 398.769 118.769L398.808 119.705C398.82 119.962 398.657 120.279 398.447 120.41Z" fill="#5B534D"/>
<path d="M395.35 121.872L395.444 121.813L395.413 121.066L395.582 120.96L395.347 120.636L395.149 121.231L395.319 121.125L395.35 121.872Z" fill="#5B534D"/>
<path d="M395.194 122.082L395.199 122.198L396.27 121.53L396.265 121.414L395.194 122.082Z" fill="#5B534D"/>
<path d="M395.804 120.826L395.974 120.719L396.005 121.467L396.099 121.408L396.068 120.661L396.238 120.555L396.002 120.23L395.804 120.826Z" fill="#5B534D"/>
<path d="M396.04 119.808L395.275 120.285C394.99 120.463 394.769 120.892 394.784 121.242L394.823 122.177C394.838 122.527 395.082 122.666 395.368 122.488L396.132 122.012C396.418 121.834 396.638 121.405 396.623 121.055L396.584 120.12C396.569 119.769 396.325 119.63 396.04 119.808ZM396.125 121.845L395.36 122.321C395.149 122.452 394.97 122.349 394.959 122.092L394.92 121.157C394.909 120.899 395.072 120.583 395.283 120.451L396.047 119.974C396.258 119.843 396.437 119.947 396.448 120.204L396.488 121.139C396.498 121.397 396.336 121.713 396.125 121.845Z" fill="#5B534D"/>
<path d="M393.326 121.859L393.324 121.86L393.296 121.877L393.369 122.069L393.431 121.988L393.514 122.304L393.405 122.084L393.355 122.15L393.25 121.906L393.114 121.99C393.114 121.99 392.963 122.5 393.019 122.732C393.068 122.932 393.287 122.801 393.346 122.761L393.368 123.331C393.284 123.389 393.192 123.485 393.14 123.542C393.13 123.552 393.134 123.568 393.144 123.562L393.636 123.258C393.646 123.252 393.649 123.232 393.639 123.234C393.586 123.24 393.489 123.258 393.402 123.309L393.38 122.741C393.446 122.701 393.652 122.563 393.682 122.322C393.718 122.033 393.536 121.729 393.536 121.729L393.326 121.859Z" fill="#5B534D"/>
<path d="M393.701 121.256L392.936 121.728C392.65 121.904 392.429 122.332 392.442 122.683L392.478 123.62C392.492 123.971 392.735 124.112 393.02 123.936L393.785 123.464C394.07 123.287 394.292 122.859 394.278 122.509L394.242 121.571C394.229 121.221 393.986 121.079 393.701 121.256ZM394.143 122.592C394.152 122.85 393.989 123.166 393.779 123.296L393.014 123.768C392.803 123.899 392.625 123.794 392.615 123.536L392.579 122.598C392.569 122.339 392.732 122.023 392.943 121.893L393.707 121.421C393.918 121.291 394.097 121.396 394.107 121.654L394.143 122.592Z" fill="#5B534D"/>
<path d="M400.036 114.313L392.825 118.711L392.815 114.6L400.026 110.201L400.036 114.313Z" fill="#F7E8D5"/>
<path d="M397.992 112.3L393.636 114.958L393.635 114.733L397.992 112.076L397.992 112.3Z" fill="#998376"/>
<path d="M399.07 112.972L394.713 115.63L394.712 115.405L399.07 112.748V112.972Z" fill="#998376"/>
<path d="M396.351 113.94L393.647 115.59L393.646 115.366L396.35 113.716L396.351 113.94Z" fill="#8A766A"/>
<path d="M397.985 112.944L396.877 113.619L396.876 113.395L397.984 112.72L397.985 112.944Z" fill="#6D5041"/>
<path d="M397.985 112.944L396.877 113.619L396.876 113.395L397.984 112.72L397.985 112.944Z" fill="#7F6D62"/>
<path d="M396.351 115.324L393.647 116.974L393.646 116.75L396.35 115.1L396.351 115.324Z" fill="#7F6D62"/>
<path d="M397.984 114.329L396.876 115.005V114.78L397.984 114.105V114.329Z" fill="#7F6D62"/>
<path d="M394.743 116.931L393.635 117.606V117.382L394.742 116.707L394.743 116.931Z" fill="#998376"/>
<path d="M395.707 116.345L395.2 116.653L395.199 116.429L395.706 116.12L395.707 116.345Z" fill="#7F6D62"/>
<path d="M394.167 115.964L393.659 116.273L393.659 116.049L394.166 115.74L394.167 115.964Z" fill="#7F6D62"/>
<path d="M384.852 109.924L397.063 103.324L398.713 103.984L386.502 110.914L384.852 109.924Z" fill="white"/>
<path d="M384.521 104.313L396.072 110.584L397.392 109.594L385.511 103.653L384.521 104.313Z" fill="white"/>
<path d="M396.071 110.584L397.391 109.594V111.244L396.071 112.234V110.584Z" fill="#F8F9FA"/>
<path d="M384.852 109.924L386.502 110.786V114.214L384.852 113.224V109.924Z" fill="#F8F9FA"/>
</g>
<defs>
<linearGradient id="paint0_linear_1_1968" x1="-10.8203" y1="84.1676" x2="-1.57331" y2="69.2832" gradientUnits="userSpaceOnUse">
<stop offset="0.132597" stop-color="#C4C4C4" stop-opacity="0"/>
<stop offset="1" stop-color="#484848"/>
</linearGradient>
<linearGradient id="paint1_linear_1_1968" x1="38.8111" y1="57.5854" x2="38.8111" y2="66.0191" gradientUnits="userSpaceOnUse">
<stop stop-color="#E8E8E8"/>
<stop offset="1" stop-color="#727272"/>
</linearGradient>
<linearGradient id="paint2_linear_1_1968" x1="35.1353" y1="61.9073" x2="35.1353" y2="74.8821" gradientUnits="userSpaceOnUse">
<stop stop-color="#E8E8E8"/>
<stop offset="1" stop-color="#727272"/>
</linearGradient>
<linearGradient id="paint3_linear_1_1968" x1="42.4878" y1="61.4789" x2="42.4878" y2="74.8862" gradientUnits="userSpaceOnUse">
<stop stop-color="#E8E8E8"/>
<stop offset="1" stop-color="#727272"/>
</linearGradient>
<linearGradient id="paint4_linear_1_1968" x1="49.6617" y1="64.2047" x2="49.6617" y2="72.4295" gradientUnits="userSpaceOnUse">
<stop stop-color="#E8E8E8"/>
<stop offset="1" stop-color="#727272"/>
</linearGradient>
<linearGradient id="paint5_linear_1_1968" x1="46.077" y1="68.4222" x2="46.077" y2="81.0758" gradientUnits="userSpaceOnUse">
<stop stop-color="#E8E8E8"/>
<stop offset="1" stop-color="#727272"/>
</linearGradient>
<linearGradient id="paint6_linear_1_1968" x1="53.2479" y1="67.9991" x2="53.2479" y2="81.0744" gradientUnits="userSpaceOnUse">
<stop stop-color="#E8E8E8"/>
<stop offset="1" stop-color="#727272"/>
</linearGradient>
<linearGradient id="paint7_linear_1_1968" x1="60.13" y1="70.2721" x2="60.13" y2="78.4969" gradientUnits="userSpaceOnUse">
<stop stop-color="#E8E8E8"/>
<stop offset="1" stop-color="#727272"/>
</linearGradient>
<linearGradient id="paint8_linear_1_1968" x1="56.5452" y1="74.489" x2="56.5452" y2="87.1425" gradientUnits="userSpaceOnUse">
<stop stop-color="#E8E8E8"/>
<stop offset="1" stop-color="#727272"/>
</linearGradient>
<linearGradient id="paint9_linear_1_1968" x1="63.7161" y1="74.0665" x2="63.7161" y2="87.1418" gradientUnits="userSpaceOnUse">
<stop stop-color="#E8E8E8"/>
<stop offset="1" stop-color="#727272"/>
</linearGradient>
<linearGradient id="paint10_linear_1_1968" x1="70.6173" y1="76.3386" x2="70.6173" y2="84.5634" gradientUnits="userSpaceOnUse">
<stop stop-color="#E8E8E8"/>
<stop offset="1" stop-color="#727272"/>
</linearGradient>
<linearGradient id="paint11_linear_1_1968" x1="67.0325" y1="80.556" x2="67.0325" y2="93.2095" gradientUnits="userSpaceOnUse">
<stop stop-color="#E8E8E8"/>
<stop offset="1" stop-color="#727272"/>
</linearGradient>
<linearGradient id="paint12_linear_1_1968" x1="74.2034" y1="80.1355" x2="74.2034" y2="93.2108" gradientUnits="userSpaceOnUse">
<stop stop-color="#E8E8E8"/>
<stop offset="1" stop-color="#727272"/>
</linearGradient>
<linearGradient id="paint13_linear_1_1968" x1="81.0807" y1="82.406" x2="81.0807" y2="90.6308" gradientUnits="userSpaceOnUse">
<stop stop-color="#E8E8E8"/>
<stop offset="1" stop-color="#727272"/>
</linearGradient>
<linearGradient id="paint14_linear_1_1968" x1="77.4959" y1="86.6238" x2="77.4959" y2="99.2773" gradientUnits="userSpaceOnUse">
<stop stop-color="#E8E8E8"/>
<stop offset="1" stop-color="#727272"/>
</linearGradient>
<linearGradient id="paint15_linear_1_1968" x1="84.6644" y1="86.2004" x2="84.6644" y2="99.2757" gradientUnits="userSpaceOnUse">
<stop stop-color="#E8E8E8"/>
<stop offset="1" stop-color="#727272"/>
</linearGradient>
<linearGradient id="paint16_linear_1_1968" x1="91.5631" y1="88.4705" x2="91.5631" y2="96.6952" gradientUnits="userSpaceOnUse">
<stop stop-color="#E8E8E8"/>
<stop offset="1" stop-color="#727272"/>
</linearGradient>
<linearGradient id="paint17_linear_1_1968" x1="87.9783" y1="92.688" x2="87.9783" y2="105.342" gradientUnits="userSpaceOnUse">
<stop stop-color="#E8E8E8"/>
<stop offset="1" stop-color="#727272"/>
</linearGradient>
<linearGradient id="paint18_linear_1_1968" x1="95.1492" y1="92.2649" x2="95.1492" y2="105.34" gradientUnits="userSpaceOnUse">
<stop stop-color="#E8E8E8"/>
<stop offset="1" stop-color="#727272"/>
</linearGradient>
<linearGradient id="paint19_linear_1_1968" x1="0.321904" y1="102.522" x2="0.321904" y2="110.747" gradientUnits="userSpaceOnUse">
<stop stop-color="#E8E8E8"/>
<stop offset="1" stop-color="#727272"/>
</linearGradient>
<linearGradient id="paint20_linear_1_1968" x1="-3.26288" y1="106.739" x2="-3.26288" y2="119.393" gradientUnits="userSpaceOnUse">
<stop stop-color="#E8E8E8"/>
<stop offset="1" stop-color="#727272"/>
</linearGradient>
<linearGradient id="paint21_linear_1_1968" x1="3.90753" y1="106.316" x2="3.90753" y2="119.392" gradientUnits="userSpaceOnUse">
<stop stop-color="#E8E8E8"/>
<stop offset="1" stop-color="#727272"/>
</linearGradient>
<linearGradient id="paint22_linear_1_1968" x1="10.8038" y1="108.59" x2="10.8038" y2="116.815" gradientUnits="userSpaceOnUse">
<stop stop-color="#E8E8E8"/>
<stop offset="1" stop-color="#727272"/>
</linearGradient>
<linearGradient id="paint23_linear_1_1968" x1="7.21906" y1="112.807" x2="7.21906" y2="125.46" gradientUnits="userSpaceOnUse">
<stop stop-color="#E8E8E8"/>
<stop offset="1" stop-color="#727272"/>
</linearGradient>
<linearGradient id="paint24_linear_1_1968" x1="14.39" y1="112.384" x2="14.39" y2="125.46" gradientUnits="userSpaceOnUse">
<stop stop-color="#E8E8E8"/>
<stop offset="1" stop-color="#727272"/>
</linearGradient>
<linearGradient id="paint25_linear_1_1968" x1="21.277" y1="114.653" x2="21.277" y2="122.877" gradientUnits="userSpaceOnUse">
<stop stop-color="#E8E8E8"/>
<stop offset="1" stop-color="#727272"/>
</linearGradient>
<linearGradient id="paint26_linear_1_1968" x1="17.6922" y1="118.87" x2="17.6922" y2="131.524" gradientUnits="userSpaceOnUse">
<stop stop-color="#E8E8E8"/>
<stop offset="1" stop-color="#727272"/>
</linearGradient>
<linearGradient id="paint27_linear_1_1968" x1="24.8631" y1="118.445" x2="24.8631" y2="131.521" gradientUnits="userSpaceOnUse">
<stop stop-color="#E8E8E8"/>
<stop offset="1" stop-color="#727272"/>
</linearGradient>
<linearGradient id="paint28_linear_1_1968" x1="31.7526" y1="120.722" x2="31.7526" y2="128.947" gradientUnits="userSpaceOnUse">
<stop stop-color="#E8E8E8"/>
<stop offset="1" stop-color="#727272"/>
</linearGradient>
<linearGradient id="paint29_linear_1_1968" x1="28.1678" y1="124.939" x2="28.1678" y2="137.593" gradientUnits="userSpaceOnUse">
<stop stop-color="#E8E8E8"/>
<stop offset="1" stop-color="#727272"/>
</linearGradient>
<linearGradient id="paint30_linear_1_1968" x1="35.3387" y1="124.516" x2="35.3387" y2="137.592" gradientUnits="userSpaceOnUse">
<stop stop-color="#E8E8E8"/>
<stop offset="1" stop-color="#727272"/>
</linearGradient>
<linearGradient id="paint31_linear_1_1968" x1="55.0274" y1="52.5843" x2="64.2743" y2="37.6998" gradientUnits="userSpaceOnUse">
<stop offset="0.132597" stop-color="#C4C4C4" stop-opacity="0"/>
<stop offset="1" stop-color="#484848"/>
</linearGradient>
<linearGradient id="paint32_linear_1_1968" x1="104.633" y1="26.0055" x2="104.633" y2="34.4391" gradientUnits="userSpaceOnUse">
<stop stop-color="#E8E8E8"/>
<stop offset="1" stop-color="#727272"/>
</linearGradient>
<linearGradient id="paint33_linear_1_1968" x1="100.958" y1="30.3282" x2="100.958" y2="43.303" gradientUnits="userSpaceOnUse">
<stop stop-color="#E8E8E8"/>
<stop offset="1" stop-color="#727272"/>
</linearGradient>
<linearGradient id="paint34_linear_1_1968" x1="108.31" y1="29.8989" x2="108.31" y2="43.3062" gradientUnits="userSpaceOnUse">
<stop stop-color="#E8E8E8"/>
<stop offset="1" stop-color="#727272"/>
</linearGradient>
<linearGradient id="paint35_linear_1_1968" x1="115.485" y1="32.6216" x2="115.485" y2="40.8464" gradientUnits="userSpaceOnUse">
<stop stop-color="#E8E8E8"/>
<stop offset="1" stop-color="#727272"/>
</linearGradient>
<linearGradient id="paint36_linear_1_1968" x1="111.9" y1="36.8398" x2="111.9" y2="49.4934" gradientUnits="userSpaceOnUse">
<stop stop-color="#E8E8E8"/>
<stop offset="1" stop-color="#727272"/>
</linearGradient>
<linearGradient id="paint37_linear_1_1968" x1="119.069" y1="36.4164" x2="119.069" y2="49.4917" gradientUnits="userSpaceOnUse">
<stop stop-color="#E8E8E8"/>
<stop offset="1" stop-color="#727272"/>
</linearGradient>
<linearGradient id="paint38_linear_1_1968" x1="125.969" y1="38.6884" x2="125.969" y2="46.9131" gradientUnits="userSpaceOnUse">
<stop stop-color="#E8E8E8"/>
<stop offset="1" stop-color="#727272"/>
</linearGradient>
<linearGradient id="paint39_linear_1_1968" x1="122.385" y1="42.9058" x2="122.385" y2="55.5593" gradientUnits="userSpaceOnUse">
<stop stop-color="#E8E8E8"/>
<stop offset="1" stop-color="#727272"/>
</linearGradient>
<linearGradient id="paint40_linear_1_1968" x1="129.555" y1="42.4811" x2="129.555" y2="55.5564" gradientUnits="userSpaceOnUse">
<stop stop-color="#E8E8E8"/>
<stop offset="1" stop-color="#727272"/>
</linearGradient>
<linearGradient id="paint41_linear_1_1968" x1="136.438" y1="44.755" x2="136.438" y2="52.9798" gradientUnits="userSpaceOnUse">
<stop stop-color="#E8E8E8"/>
<stop offset="1" stop-color="#727272"/>
</linearGradient>
<linearGradient id="paint42_linear_1_1968" x1="132.853" y1="48.9724" x2="132.853" y2="61.6259" gradientUnits="userSpaceOnUse">
<stop stop-color="#E8E8E8"/>
<stop offset="1" stop-color="#727272"/>
</linearGradient>
<linearGradient id="paint43_linear_1_1968" x1="140.023" y1="48.5494" x2="140.023" y2="61.6247" gradientUnits="userSpaceOnUse">
<stop stop-color="#E8E8E8"/>
<stop offset="1" stop-color="#727272"/>
</linearGradient>
<linearGradient id="paint44_linear_1_1968" x1="146.918" y1="50.8226" x2="146.918" y2="59.0474" gradientUnits="userSpaceOnUse">
<stop stop-color="#E8E8E8"/>
<stop offset="1" stop-color="#727272"/>
</linearGradient>
<linearGradient id="paint45_linear_1_1968" x1="143.333" y1="55.0402" x2="143.333" y2="67.6937" gradientUnits="userSpaceOnUse">
<stop stop-color="#E8E8E8"/>
<stop offset="1" stop-color="#727272"/>
</linearGradient>
<linearGradient id="paint46_linear_1_1968" x1="150.504" y1="54.6171" x2="150.504" y2="67.6924" gradientUnits="userSpaceOnUse">
<stop stop-color="#E8E8E8"/>
<stop offset="1" stop-color="#727272"/>
</linearGradient>
<linearGradient id="paint47_linear_1_1968" x1="157.402" y1="56.8882" x2="157.402" y2="65.113" gradientUnits="userSpaceOnUse">
<stop stop-color="#E8E8E8"/>
<stop offset="1" stop-color="#727272"/>
</linearGradient>
<linearGradient id="paint48_linear_1_1968" x1="153.818" y1="61.1057" x2="153.818" y2="73.7592" gradientUnits="userSpaceOnUse">
<stop stop-color="#E8E8E8"/>
<stop offset="1" stop-color="#727272"/>
</linearGradient>
<linearGradient id="paint49_linear_1_1968" x1="160.989" y1="60.6827" x2="160.989" y2="73.758" gradientUnits="userSpaceOnUse">
<stop stop-color="#E8E8E8"/>
<stop offset="1" stop-color="#727272"/>
</linearGradient>
<linearGradient id="paint50_linear_1_1968" x1="333.009" y1="20.1213" x2="333.129" y2="53.4686" gradientUnits="userSpaceOnUse">
<stop stop-color="#E9E9EB"/>
<stop offset="1" stop-color="white"/>
</linearGradient>
<linearGradient id="paint51_linear_1_1968" x1="293.388" y1="129.936" x2="326.631" y2="98.2445" gradientUnits="userSpaceOnUse">
<stop offset="0.132597" stop-color="#C4C4C4" stop-opacity="0"/>
<stop offset="1" stop-color="#67A4D7"/>
</linearGradient>
<linearGradient id="paint52_linear_1_1968" x1="187.802" y1="32.8535" x2="188" y2="88" gradientUnits="userSpaceOnUse">
<stop stop-color="#E9E9EB"/>
<stop offset="1" stop-color="white"/>
</linearGradient>
<linearGradient id="paint53_linear_1_1968" x1="356.228" y1="211.597" x2="356.228" y2="232.977" gradientUnits="userSpaceOnUse">
<stop stop-color="#E8E8E8"/>
<stop offset="1" stop-color="#727272"/>
</linearGradient>
<linearGradient id="paint54_linear_1_1968" x1="346.91" y1="222.559" x2="346.91" y2="255.451" gradientUnits="userSpaceOnUse">
<stop stop-color="#E8E8E8"/>
<stop offset="1" stop-color="#727272"/>
</linearGradient>
<linearGradient id="paint55_linear_1_1968" x1="365.545" y1="221.464" x2="365.545" y2="255.452" gradientUnits="userSpaceOnUse">
<stop stop-color="#E8E8E8"/>
<stop offset="1" stop-color="#727272"/>
</linearGradient>
<linearGradient id="paint56_linear_1_1968" x1="383.451" y1="227.368" x2="383.451" y2="248.748" gradientUnits="userSpaceOnUse">
<stop stop-color="#E8E8E8"/>
<stop offset="1" stop-color="#727272"/>
</linearGradient>
<linearGradient id="paint57_linear_1_1968" x1="374.132" y1="238.33" x2="374.132" y2="271.222" gradientUnits="userSpaceOnUse">
<stop stop-color="#E8E8E8"/>
<stop offset="1" stop-color="#727272"/>
</linearGradient>
<linearGradient id="paint58_linear_1_1968" x1="392.767" y1="237.235" x2="392.767" y2="271.224" gradientUnits="userSpaceOnUse">
<stop stop-color="#E8E8E8"/>
<stop offset="1" stop-color="#727272"/>
</linearGradient>
<linearGradient id="paint59_linear_1_1968" x1="410.713" y1="243.135" x2="410.713" y2="264.515" gradientUnits="userSpaceOnUse">
<stop stop-color="#E8E8E8"/>
<stop offset="1" stop-color="#727272"/>
</linearGradient>
<linearGradient id="paint60_linear_1_1968" x1="401.394" y1="254.097" x2="401.394" y2="286.989" gradientUnits="userSpaceOnUse">
<stop stop-color="#E8E8E8"/>
<stop offset="1" stop-color="#727272"/>
</linearGradient>
<linearGradient id="paint61_linear_1_1968" x1="119.435" y1="208.449" x2="145.506" y2="163.048" gradientUnits="userSpaceOnUse">
<stop offset="0.132597" stop-color="#C4C4C4" stop-opacity="0"/>
<stop offset="1" stop-color="#67A4D7"/>
</linearGradient>
<linearGradient id="paint62_linear_1_1968" x1="62.3679" y1="160.249" x2="62.488" y2="193.596" gradientUnits="userSpaceOnUse">
<stop stop-color="#E9E9EB"/>
<stop offset="1" stop-color="white"/>
</linearGradient>
<linearGradient id="paint63_linear_1_1968" x1="22.7253" y1="270.066" x2="37.3191" y2="246.575" gradientUnits="userSpaceOnUse">
<stop offset="0.132597" stop-color="#C4C4C4" stop-opacity="0"/>
<stop offset="1" stop-color="#67A4D7"/>
</linearGradient>
<linearGradient id="paint64_linear_1_1968" x1="164.406" y1="267.301" x2="164.406" y2="280.282" gradientUnits="userSpaceOnUse">
<stop stop-color="#E8E8E8"/>
<stop offset="1" stop-color="#727272"/>
</linearGradient>
<linearGradient id="paint65_linear_1_1968" x1="158.748" y1="273.958" x2="158.748" y2="293.928" gradientUnits="userSpaceOnUse">
<stop stop-color="#E8E8E8"/>
<stop offset="1" stop-color="#727272"/>
</linearGradient>
<linearGradient id="paint66_linear_1_1968" x1="170.056" y1="273.291" x2="170.056" y2="293.927" gradientUnits="userSpaceOnUse">
<stop stop-color="#E8E8E8"/>
<stop offset="1" stop-color="#727272"/>
</linearGradient>
</defs>
</svg>
