<svg width="505" height="449" viewBox="0 0 505 449" fill="none" xmlns="http://www.w3.org/2000/svg">
<g clip-path="url(#clip0_1_4400)">
<g opacity="0.21">
<path fill-rule="evenodd" clip-rule="evenodd" d="M496.645 61.9447L479.189 88.9897C478.246 90.4522 476.339 90.9022 474.858 90.0022L379.299 32.6271C378.267 31.9971 376.898 32.3571 376.292 33.3921L360.541 60.4822C359.981 61.4497 360.295 62.6647 361.237 63.2497L414.211 95.7397C415.019 96.2347 415.266 97.2922 414.772 98.1022L384.863 147.49C384.19 148.592 384.482 150.01 385.514 150.752L395.633 158.177C396.575 158.852 396.822 160.157 396.216 161.125L307.635 304.855C307.007 305.868 305.705 306.205 304.673 305.643L262.334 282.355C261.078 281.658 259.507 282.063 258.744 283.278L227.445 333.003C226.502 334.51 224.55 335.028 222.98 334.173L201.059 322.248L197.985 326.208L223.316 340.675C224.954 341.62 227.041 341.103 228.073 339.505L260.091 289.915C261.078 288.363 263.097 287.868 264.713 288.768L305.436 311.628C306.693 312.325 308.263 311.92 309.004 310.705L400.247 163.74L414.714 172.565L307.069 340.714C296.986 333.381 290.247 327.984 290.247 327.984L287.039 333.587C287.039 333.587 337.41 377.282 385.381 388.509C446.884 396.162 458.463 403.487 474.249 413.473C483.295 419.195 493.722 425.792 515.718 433.824C576.096 455.874 606.072 503.192 606.072 503.192H612.444C609.617 492.122 568.198 450.609 549.126 441.519C543.392 438.79 536.222 435.97 528.169 432.804C511.333 426.183 490.639 418.046 471.135 406.037C447.068 391.218 419.828 386.778 393.877 382.548L393.877 382.548H393.876L393.876 382.548L393.875 382.548L393.874 382.548L393.872 382.548L393.87 382.547C388.735 381.71 383.649 380.881 378.649 379.982C377.901 379.848 377.136 379.688 376.355 379.505L482.055 213.396C501.371 223.92 585.961 269.57 597.298 268.156C610.828 266.446 618.569 262.081 646.077 233.596C673.584 205.111 694.002 232.404 694.002 232.404V224.686C694.002 224.686 667.818 202.816 641.342 230.311C616.213 256.434 611.77 258.211 597.276 262.059C589.732 264.064 555.106 246.458 517.027 225.081L624.358 56.4084L620.521 54.1359L568 136.532L482.856 88.9059L499.113 63.4972L496.645 61.9447ZM514.203 223.493L513.272 222.391L536.615 185.77L410.55 113.889L390.876 146.432C390.181 147.58 390.495 149.065 391.617 149.807L401.915 156.692C402.042 156.779 402.158 156.875 402.263 156.98C408.982 161.149 464.061 195.228 514.203 223.493ZM478.134 211.253L468.778 205.546L361.099 374.021C364.796 375.701 368.364 377.124 371.718 378.204L371.717 378.203L478.134 211.253ZM464.973 203.224L453.575 196.271L344.209 365.211C348.492 367.685 352.767 370.001 356.924 372.044L464.973 203.224ZM448.737 193.32L436.623 185.93L327.345 354.767C331.53 357.514 335.862 360.253 340.221 362.864L448.737 193.32ZM431.8 182.988L419.517 175.495L310.826 343.424C314.719 346.208 318.992 349.188 323.486 352.205L431.8 182.988ZM420.583 97.2922L412.951 109.916L539.014 182.006L565.592 140.311L480.358 92.8111L479.391 94.3222C478.718 95.3797 477.304 95.7172 476.227 95.0647L378.491 36.4746L365.41 58.0972C364.805 59.1097 365.141 60.4372 366.151 61.0447L419.506 92.9497C421.009 93.8497 421.481 95.7847 420.583 97.2922Z" fill="url(#paint0_linear_1_4400)"/>
<path d="M496.643 45.6104C496.643 45.6104 439.137 -57.7548 327.804 -43.1973C216.471 -28.6398 178.575 61.1579 164.058 85.4354" stroke="url(#paint1_linear_1_4400)" stroke-miterlimit="10" stroke-dasharray="2 2"/>
<path d="M469.046 503.191C469.046 503.191 326.212 531.181 244.721 503.191C138.84 466.809 170.88 369.474 176.153 352.396" stroke="url(#paint2_linear_1_4400)" stroke-miterlimit="10" stroke-dasharray="2 2"/>
<path d="M143.908 97.5383L292.665 100.711C312.724 45.1807 353.133 -45.3594 353.133 -45.3594C356.073 -47.1594 363.32 -44.5944 363.32 -44.5944C337.046 2.04815 309.448 86.4683 309.448 86.4683L337.652 98.0108L332.828 105.413L305.41 93.5333C305.41 93.5333 291.521 134.798 269.757 176.851C247.993 218.903 188.916 255.669 188.916 255.669C163.742 216.383 106.707 184.411 106.707 184.411L5.20161 387.181H-7.69971L101.928 181.711C73.7469 163.328 33.2255 156.353 33.2255 156.353L33.0012 151.808C33.0012 151.808 67.0158 157.681 104.216 177.571L127.977 133.673L184.519 145.958L182.769 150.233L130.984 138.443L108.951 180.316C108.951 180.316 167.242 212.671 191.025 249.684C191.025 249.684 252.57 204.413 265.831 175.073C279.091 145.733 294.348 107.686 294.348 107.686C294.348 107.686 228.316 102.578 143.257 103.591L143.908 97.5383Z" fill="url(#paint3_linear_1_4400)"/>
<path opacity="0.4" d="M-14 395.906C-14 397.263 -12.6967 398.218 -11.4191 397.758C4.51705 392.016 92.2706 357.57 196.341 261.312C197.204 260.514 198.583 260.607 199.303 261.536L220.436 288.777C221.283 289.869 222.955 289.794 223.701 288.63L337.237 111.406C337.847 110.454 339.123 110.196 340.055 110.837L387.052 143.184C387.981 143.823 389.255 143.568 389.867 142.62L419.79 96.2226C420.401 95.276 420.11 94.0122 419.146 93.4283L365.447 60.8772C364.477 60.2889 364.189 59.0118 364.815 58.0647L377.795 38.4095C378.383 37.5188 379.567 37.247 380.485 37.792L474.439 93.5835C475.282 94.0839 476.371 93.796 476.856 92.9446C477.329 92.1158 477.052 91.0611 476.233 90.5718L379.269 32.6454C378.318 32.0772 377.086 32.3905 376.522 33.3441L360.342 60.6963C359.783 61.6405 360.089 62.8584 361.028 63.426L413.554 95.1858C414.5 95.7579 414.803 96.9894 414.229 97.9348L389.89 138.043C389.278 139.05 387.933 139.313 386.987 138.61L340.064 103.728C339.137 103.039 337.82 103.277 337.192 104.246L223.685 279.485C222.942 280.632 221.292 280.713 220.441 279.643L199.367 253.145C198.621 252.206 197.278 252.068 196.422 252.909C184.015 265.08 98.0496 346.895 -12.7044 389.119C-13.4817 389.415 -14 390.161 -14 390.993V395.906Z" fill="#B6B6B6"/>
</g>
<rect x="127.79" y="108.363" width="134.417" height="273.171" rx="61" fill="url(#paint4_linear_1_4400)"/>
<rect x="280.852" y="68.96" width="89.9397" height="141.063" rx="18" fill="url(#paint5_linear_1_4400)"/>
<mask id="mask0_1_4400" style="mask-type:alpha" maskUnits="userSpaceOnUse" x="280" y="49" width="91" height="162">
<path d="M280.851 81.8343C280.851 74.2505 285.604 67.4801 292.737 64.9043L331.632 50.859C337.184 48.8544 343.365 49.6987 348.176 53.1186L363.221 63.8147C367.97 67.1911 370.791 72.6578 370.791 78.4851V192.26C370.791 202.201 362.732 210.26 352.791 210.26H298.851C288.91 210.26 280.851 202.201 280.851 192.26V81.8343Z" fill="#D9D9D9"/>
</mask>
<g mask="url(#mask0_1_4400)">
<path d="M310.309 84.1079H278.486V106.393H310.309V84.1079Z" fill="#F1C989"/>
<path d="M295.622 84.1079H290.869V89.9581H295.622V84.1079Z" fill="#DEB068"/>
<path d="M310.309 106.394H278.486V128.679H310.309V106.394Z" fill="#F1C989"/>
<path d="M295.622 106.394H290.869V112.244H295.622V106.394Z" fill="#DEB068"/>
<path d="M310.309 128.686H278.486V150.972H310.309V128.686Z" fill="#F1C989"/>
<path d="M295.622 128.686H290.869V134.536H295.622V128.686Z" fill="#DEB068"/>
<path d="M310.309 150.971H278.486V173.257H310.309V150.971Z" fill="#F1C989"/>
<path d="M295.622 150.971H290.869V156.821H295.622V150.971Z" fill="#E0B36C"/>
<path d="M364.558 84.1362H310.045V106.611H364.558V84.1362Z" fill="#DEB068"/>
<path d="M364.558 106.611H310.045V128.607H364.558V106.611Z" fill="#DEB068"/>
<path d="M332.701 127.651H310.307V149.937H332.701V127.651Z" fill="#DEB068"/>
<path d="M371.846 100.676H340.023V122.962H371.846V100.676Z" fill="#F1C989"/>
<path d="M357.159 100.676H352.406V106.526H357.159V100.676Z" fill="#DEB068"/>
<path d="M371.846 122.962H340.023V145.247H371.846V122.962Z" fill="#F1C989"/>
<path d="M357.159 122.962H352.406V128.812H357.159V122.962Z" fill="#DEB068"/>
<path d="M371.846 145.254H340.023V167.54H371.846V145.254Z" fill="#F1C989"/>
<path d="M357.159 145.254H352.406V151.104H357.159V145.254Z" fill="#DEB068"/>
<path d="M371.846 167.539H340.023V189.825H371.846V167.539Z" fill="#F1C989"/>
<path d="M357.159 167.539H352.406V173.39H357.159V167.539Z" fill="#E0B36C"/>
<path d="M365.118 162.786C365.118 162.786 362.55 194.949 362.55 209.055L356.299 210.694L354.508 186.061V162.786H365.118Z" fill="#FFD5D5"/>
<path d="M276.516 160.884L291.752 126.33C291.752 126.33 298.987 118.095 318.927 112.266C318.927 112.266 324.39 123.664 330.739 122.781C337.088 121.897 340.899 114.545 340.899 114.545C340.899 114.545 358.378 116.173 359.925 135.821C360.966 139.251 367.948 161.551 370.486 163.451C369.727 163.451 360.453 165.177 360.453 165.177C360.453 165.177 357.134 208.222 357.275 210.204C357.415 212.186 324.895 211.753 324.895 211.753C324.895 211.753 294.976 211.753 293.278 211.124V185.877C293.278 185.877 279.56 168.776 277.148 167.758C274.737 166.741 276.516 160.884 276.516 160.884Z" fill="#F6454E"/>
<path d="M347.287 159.391H335.116V160.542H347.287V159.391Z" stroke="#495057" stroke-miterlimit="10"/>
<path d="M332.345 151.998H329.813V153.148H332.345V151.998Z" fill="#E9E9EB"/>
<path d="M321.427 170.832L343.223 133.318L376.072 135.338L354.979 173.006L321.427 170.832Z" fill="white"/>
<path d="M304.152 146.596L305.516 147.172L299.652 167.661L298.217 168.209L304.152 146.596Z" fill="#BDBDBD"/>
<path d="M320.428 91.6929C320.428 91.6929 318.67 90.0164 318.656 76.7307C318.656 76.7307 327.312 79.0666 330.813 79.0736C330.813 79.0736 318.073 88.2488 320.428 91.6929Z" fill="#141416"/>
<path d="M359.864 71.1891C359.864 71.1891 362.656 70.3333 363.513 74.1703C364.371 78.0073 352.777 83.4788 348.924 83.4788L349.1 71.61L359.864 71.1891Z" fill="white"/>
<path d="M318.655 76.7305C318.655 76.7305 316.862 62.2383 329.539 59.6779C342.216 57.1176 348.453 66.8539 348.966 71.6169C348.966 71.6169 324.336 76.8778 322.417 78.5123L318.655 76.7305Z" fill="#141416"/>
<path d="M340.381 106.655C340.381 106.655 339.544 110.071 341.414 114.806C341.597 115.255 341.794 115.718 342.026 116.188C342.026 116.188 337.301 123.119 328.913 122.761C320.532 122.403 318.163 112.183 318.163 112.183L320.75 96.491L321.045 94.7233L321.102 94.3796C321.102 94.3796 318.95 88.7328 321.748 87.0142C321.748 87.0142 318.88 82.0689 323.682 79.0736C326.044 78.0074 326.178 81.1238 325.967 82.3373C325.749 83.5508 331.276 73.9389 348.621 73.2234C348.621 73.2234 351.427 98.2096 341.133 106.115C340.894 106.311 340.641 106.487 340.381 106.655Z" fill="#FFD5D5"/>
<path d="M341.415 114.806C338.68 114.287 332.922 112.239 330.925 103.962C330.925 103.506 334.792 107.743 341.134 106.115C340.895 106.312 340.642 106.487 340.382 106.655C340.382 106.655 339.545 110.072 341.415 114.806Z" fill="#FEB8B8"/>
<path d="M349.1 71.6169L359.871 71.189C359.871 71.189 348.973 80.1396 337.435 80.1396C325.897 80.1396 322.55 78.5052 322.55 78.5052C322.55 78.5052 322.803 75.026 349.1 71.6169Z" fill="#767780"/>
<path d="M341.957 88.3748C341.957 88.3748 341.479 92.0434 344.446 92.7589C345.515 93.1728 341.936 94.9475 341.205 94.8282" stroke="#FEB8B8" stroke-miterlimit="10"/>
<path d="M332.824 83.4855C332.824 83.4855 334.546 81.5144 337.753 82.0475" stroke="#FF8888" stroke-miterlimit="10" stroke-linecap="round"/>
<path d="M344.876 83.5979C344.876 83.5979 346.915 82.3493 348.983 83.8574" stroke="#FF8888" stroke-miterlimit="10" stroke-linecap="round"/>
<path d="M336.17 88.3747C336.695 88.3747 337.12 87.7529 337.12 86.9858C337.12 86.2188 336.695 85.5969 336.17 85.5969C335.646 85.5969 335.221 86.2188 335.221 86.9858C335.221 87.7529 335.646 88.3747 336.17 88.3747Z" fill="#FEB8B8"/>
<path d="M347.66 89.0273C348.184 89.0273 348.609 88.4055 348.609 87.6384C348.609 86.8713 348.184 86.2495 347.66 86.2495C347.135 86.2495 346.71 86.8713 346.71 87.6384C346.71 88.4055 347.135 89.0273 347.66 89.0273Z" fill="#FEB8B8"/>
<path d="M337.747 96.2522C337.747 96.2522 340.278 97.9077 342.929 97.5569" stroke="#FEB8B8" stroke-miterlimit="10"/>
<path d="M326.257 100.138C326.257 100.138 323.663 100.791 320.752 96.4908L321.047 94.7231C322.299 96.4487 324.612 99.4159 326.257 100.138Z" fill="#FEB8B8"/>
<path d="M278.678 166.195C278.678 166.195 273.088 180.281 277.208 184.244C281.329 188.207 287.945 188.06 295.89 184.244C303.835 180.428 324.577 165.459 324.577 165.459C324.577 165.459 337.514 168.145 344.58 163.993C344.58 163.488 345.909 162.667 336.058 163.488C336.058 163.488 335.046 161.853 347.048 161.973C349.446 161.973 349.193 160.899 348.876 160.394C349.073 160.079 350.142 160.079 350.395 159.069C350.648 158.058 336.185 156.74 336.248 156.108C336.312 155.477 347.111 155.982 347.238 154.972C347.364 153.962 347.871 153.022 333.787 152.959C332.775 152.959 331.453 152.959 333.724 149.43C333.724 149.43 324.317 148.547 319.268 160.079L296.094 169.036C296.094 169.036 282.418 170.537 278.678 166.195Z" fill="#FFD5D5"/>
</g>
<mask id="mask1_1_4400" style="mask-type:alpha" maskUnits="userSpaceOnUse" x="90" y="89" width="230" height="294">
<path d="M128.223 156.927C128.223 119.808 158.313 89.718 195.432 89.718C232.55 89.718 262.64 119.808 262.64 156.927V160.275C262.64 173.165 266.171 185.808 272.849 196.832L315.403 267.08C326.884 286.033 313.238 310.253 291.079 310.253C275.373 310.253 262.64 322.986 262.64 338.692V346.544C262.64 366.587 246.392 382.834 226.35 382.834H195.432H160.785C142.801 382.834 128.223 368.256 128.223 350.272C128.223 340.018 123.392 330.362 115.186 324.213L109.188 319.72C91.0194 306.107 85.011 281.547 94.8431 261.083L120.726 207.214C125.661 196.943 128.223 185.695 128.223 174.3V156.927Z" fill="#D9D9D9"/>
</mask>
<g mask="url(#mask1_1_4400)">
<path d="M212.343 175.138L178.955 174.271L179.959 150.894L209.85 143.791L210.426 151.505L212.343 175.138Z" fill="#FDAAA7"/>
<path d="M210.425 151.505C207.075 155.151 200.962 160.718 193.549 162.54C186.273 164.338 182.047 161.779 179.959 159.719V150.894L209.85 143.791L210.425 151.505Z" fill="#D97481"/>
<path d="M213.738 140.795C211.713 150.083 200.374 160.818 186.047 156.649C175.671 153.615 172.121 134.828 170.958 124.705C170.508 120.86 170.408 118.263 170.408 118.263C170.408 118.263 166.108 104.445 189.273 104.445C212.425 104.445 212.063 114.931 212.063 114.931C212.063 114.931 212.125 115.542 212.213 116.578C212.713 122.096 214.238 139.697 213.738 140.795Z" fill="#FDAAA7"/>
<path d="M212.213 116.578C210.588 113.096 204.399 104.645 183.497 108.726C182.572 109.226 178.259 121.422 170.958 124.705C170.508 120.86 170.408 118.263 170.408 118.263C170.408 118.263 166.108 104.445 189.273 104.445C212.425 104.445 212.063 114.931 212.063 114.931C212.063 114.931 212.125 115.542 212.213 116.578Z" fill="#D97481"/>
<path d="M157.121 312.157L148.603 370.693C154.673 378.498 214.51 395.409 247.031 365.924C243.128 361.154 244.429 319.34 250.381 312.157H157.121Z" fill="#26163A"/>
<path d="M177.434 172.739C177.434 172.739 130.391 185.709 104.163 271.754C98.9128 293.948 103.413 298.942 107.164 302.437C107.664 303.685 106.664 324.382 151.369 312.66C151.369 312.66 141.38 322.385 150.369 321.636C160.163 320.82 255.989 321.548 261.519 315.157C263.269 309.664 257.019 305.433 257.019 305.433C257.019 305.433 260.269 304.434 259.519 298.954C259.269 297.456 281.246 315.419 299.736 297.955C318.213 280.492 294.81 233.606 252.531 191.463C239.304 180.229 212.576 171.49 212.576 171.49L177.434 172.739Z" fill="#F6454E"/>
<path d="M179.518 320.829L172.884 171.669L217.546 171.235L225.784 319.632L179.518 320.829Z" fill="white"/>
<path d="M181.347 290.715C181.347 290.715 194.636 292.313 207.325 279.868C216.951 270.805 229.415 282.165 229.415 282.165L228.865 284.674C228.865 284.674 239.479 289.155 237.503 292.75C236.741 294.173 223.502 284.549 223.502 284.549C223.502 284.549 228.427 299.079 229.403 300.065C229.728 300.614 227.44 304.859 219.564 288.206C219.564 288.206 219.451 297.881 220.652 301.925C220.864 303.56 218.139 305.42 213.976 292.201C213.976 292.201 210.7 299.404 201.399 302.137C192.098 304.871 181.334 306.619 181.334 306.619V290.715H181.347Z" fill="#FDA9A8"/>
<path d="M165.021 239.997L177.223 230.023C178.823 228.725 181.173 228.95 182.473 230.547L207.964 261.767C209.264 263.365 209.026 265.712 207.426 267.01L195.625 276.585C194.05 277.87 191.724 277.646 190.424 276.085L164.521 245.265C163.196 243.68 163.409 241.308 165.021 239.997Z" fill="#0043F9"/>
<path d="M236.417 260.744C235.542 260.419 221.653 256.337 215.09 246.588C208.527 236.839 198.575 238.25 189.824 243.929C181.073 249.609 178.998 251.469 181.348 252.118C183.699 252.767 195.525 247.1 195.525 247.1C195.525 247.1 191.575 257.361 187.299 260.756C187.299 260.756 188.612 265.45 199.988 251.581C199.988 251.581 195.613 263.927 197.038 265.125C198.463 266.324 204.476 255.189 204.476 255.189C204.476 255.189 207.426 263.016 210.377 265.213C213.327 267.41 232.367 275.174 232.367 275.174L236.417 260.744Z" fill="#FDA9A8"/>
<path d="M186.849 283.725L184.598 310.164C184.598 310.164 162.871 311.163 157.12 311.912C157.12 311.912 112.077 327.79 107.352 303.573C102.626 279.356 122.591 269.757 147.094 279.73C171.609 289.717 186.849 283.725 186.849 283.725Z" fill="#FF525B"/>
<path d="M213.34 140.695C213.34 140.695 217.115 138.985 216.84 127.189C216.565 115.392 215.265 112.097 217.315 106.617C219.365 101.137 206.051 89.8646 190.262 95.2822C189.162 96.0312 184.624 91.3001 178.173 95.1449C171.722 98.9897 172.948 102.135 172.948 102.135C172.948 102.135 165.122 104.807 166.897 113.32C168.334 120.722 168.334 120.722 168.334 120.722C168.334 120.722 178.986 117.015 182.349 106.392C182.686 106.055 205.539 103.097 212.115 115.58L213.34 140.695Z" fill="black"/>
<path d="M172.396 118.201C172.396 118.201 167.608 118.75 166.633 123.069C165.658 127.388 167.658 132.669 173.084 133.979L172.396 118.201Z" fill="#FDAAA7"/>
<path d="M211.414 115.18C211.414 115.18 216.702 112.783 219.59 116.341C222.478 119.911 219.252 127.813 212.789 129.311" fill="#FDAAA7"/>
<path d="M192.649 109.688V111.772C192.649 111.984 192.849 112.147 193.061 112.084C194.249 111.71 197.875 110.823 201.913 112.459C202.1 112.534 202.313 112.434 202.35 112.234L202.763 110.037C202.8 109.85 202.675 109.688 202.488 109.663C201.237 109.525 196.724 109.063 192.949 109.375C192.774 109.388 192.649 109.525 192.649 109.688Z" fill="#281D43"/>
<path d="M172.846 110.948L172.946 113.033C172.959 113.245 173.171 113.395 173.371 113.32C174.534 112.883 178.122 111.822 182.235 113.27C182.422 113.332 182.635 113.22 182.66 113.02L182.972 110.798C182.997 110.611 182.86 110.449 182.685 110.436C181.422 110.362 176.909 110.124 173.134 110.611C172.959 110.636 172.834 110.786 172.846 110.948Z" fill="#281D43"/>
<path d="M191.36 118.139L191.698 125.666C191.748 126.789 192.71 127.638 193.835 127.563L206.887 126.627C207.987 126.552 208.812 125.591 208.737 124.492L208.162 117.127C208.075 116.041 207.137 115.23 206.049 115.292L193.223 116.066C192.135 116.129 191.31 117.053 191.36 118.139Z" fill="white"/>
<path d="M168.746 120.298L169.083 127.825C169.133 128.949 170.096 129.798 171.221 129.723L184.273 128.786C185.373 128.711 186.198 127.75 186.123 126.652L185.548 119.287C185.46 118.201 184.523 117.389 183.435 117.452L170.621 118.226C169.533 118.288 168.708 119.212 168.746 120.298Z" fill="white"/>
<path d="M197.337 122.532C197.952 122.532 198.45 121.867 198.45 121.047C198.45 120.227 197.952 119.562 197.337 119.562C196.723 119.562 196.225 120.227 196.225 121.047C196.225 121.867 196.723 122.532 197.337 122.532Z" fill="black"/>
<path d="M181.217 124.016C181.829 123.962 182.266 123.255 182.194 122.438C182.121 121.621 181.566 121.003 180.954 121.057C180.342 121.111 179.905 121.818 179.977 122.635C180.05 123.452 180.605 124.07 181.217 124.016Z" fill="black"/>
<path d="M187.627 117.687C187.46 117.16 186.898 116.869 186.372 117.035C185.845 117.202 185.554 117.764 185.72 118.291L187.627 117.687ZM186.674 117.989C185.72 118.291 185.72 118.291 185.72 118.29C185.72 118.29 185.72 118.29 185.72 118.29C185.72 118.29 185.72 118.29 185.72 118.289C185.72 118.289 185.72 118.289 185.72 118.29C185.72 118.291 185.721 118.292 185.722 118.295C185.724 118.301 185.727 118.311 185.731 118.326C185.739 118.354 185.752 118.399 185.769 118.459C185.801 118.579 185.847 118.758 185.898 118.986C185.998 119.442 186.114 120.085 186.174 120.826C186.295 122.334 186.174 124.123 185.352 125.589L187.096 126.567C188.199 124.6 188.303 122.344 188.167 120.666C188.099 119.814 187.966 119.078 187.851 118.554C187.793 118.292 187.739 118.08 187.698 117.932C187.678 117.858 187.661 117.8 187.649 117.758C187.643 117.738 187.638 117.721 187.634 117.709C187.632 117.703 187.631 117.698 187.63 117.695C187.629 117.693 187.628 117.691 187.628 117.69C187.628 117.689 187.628 117.689 187.627 117.688C187.627 117.688 187.627 117.687 187.627 117.687C187.627 117.687 187.627 117.687 186.674 117.989ZM185.352 125.589C184.356 127.364 183.899 128.941 184.487 130.402C185.044 131.787 186.433 132.749 188.124 133.661L189.074 131.901C187.364 130.979 186.603 130.305 186.342 129.655C186.111 129.081 186.167 128.224 187.096 126.567L185.352 125.589Z" fill="#D97481"/>
</g>
</g>
<defs>
<linearGradient id="paint0_linear_1_4400" x1="445.884" y1="28.4619" x2="572.797" y2="424.187" gradientUnits="userSpaceOnUse">
<stop stop-color="#DADADA"/>
<stop offset="0.484375" stop-color="#D6D6D6" stop-opacity="0.519283"/>
<stop offset="1" stop-color="#E7E7E7" stop-opacity="0"/>
</linearGradient>
<linearGradient id="paint1_linear_1_4400" x1="330.351" y1="-44.6023" x2="330.351" y2="85.4354" gradientUnits="userSpaceOnUse">
<stop stop-color="white"/>
<stop offset="1" stop-color="white" stop-opacity="0"/>
</linearGradient>
<linearGradient id="paint2_linear_1_4400" x1="318.281" y1="352.396" x2="318.281" y2="515.631" gradientUnits="userSpaceOnUse">
<stop stop-color="white"/>
<stop offset="1" stop-color="white" stop-opacity="0"/>
</linearGradient>
<linearGradient id="paint3_linear_1_4400" x1="345.665" y1="-23.5209" x2="173.326" y2="274.795" gradientUnits="userSpaceOnUse">
<stop stop-color="white"/>
<stop offset="0.314003" stop-color="white" stop-opacity="0.685997"/>
<stop offset="1" stop-color="white" stop-opacity="0"/>
</linearGradient>
<linearGradient id="paint4_linear_1_4400" x1="175.486" y1="145.653" x2="224.483" y2="274.433" gradientUnits="userSpaceOnUse">
<stop stop-color="#C850C0" stop-opacity="0.07"/>
<stop offset="1" stop-color="#4158D0" stop-opacity="0.35"/>
</linearGradient>
<linearGradient id="paint5_linear_1_4400" x1="312.505" y1="90.5853" x2="331.583" y2="195.951" gradientUnits="userSpaceOnUse">
<stop stop-color="#C850C0" stop-opacity="0.15"/>
<stop offset="1" stop-color="#4158D0" stop-opacity="0.11"/>
</linearGradient>
<clipPath id="clip0_1_4400">
<rect width="505" height="449" fill="white"/>
</clipPath>
</defs>
</svg>
