<svg width="26" height="26" viewBox="0 0 26 26" fill="none" xmlns="http://www.w3.org/2000/svg">
<path fill-rule="evenodd" clip-rule="evenodd" d="M12.817 0.684326C9.52091 0.684326 9.11041 0.698481 7.81421 0.759146C3.40591 0.961362 0.959095 3.40615 0.75688 7.81445C0.698237 9.11066 0.684082 9.52318 0.684082 12.8173C0.684082 16.1134 0.698237 16.5259 0.75688 17.8201C0.959095 22.2264 3.40591 24.6752 7.81421 24.8774C9.11041 24.9361 9.52091 24.9502 12.817 24.9502C16.1131 24.9502 16.5257 24.9361 17.8219 24.8774C22.2221 24.6752 24.679 22.2304 24.8772 17.8201C24.9358 16.5259 24.95 16.1134 24.95 12.8173C24.95 9.52318 24.9358 9.11066 24.8772 7.81445C24.679 3.41222 22.2302 0.95934 17.8219 0.759146C16.5257 0.698481 16.1131 0.684326 12.817 0.684326ZM12.8169 2.87155C16.0564 2.87155 16.4406 2.88369 17.7207 2.94233C21.0107 3.09197 22.5435 4.65105 22.6952 7.91481C22.7518 9.19484 22.7639 9.57703 22.7639 12.8165C22.7639 16.056 22.7518 16.4402 22.6952 17.7182C22.5435 20.98 21.0127 22.5431 17.7207 22.6927C16.4406 22.7494 16.0584 22.7635 12.8169 22.7635C9.57743 22.7635 9.19322 22.7514 7.91521 22.6927C4.6191 22.5411 3.09237 20.9759 2.94071 17.7182C2.88408 16.4402 2.86993 16.056 2.86993 12.8165C2.86993 9.57703 2.88408 9.19282 2.94071 7.91481C3.09034 4.64903 4.62314 3.08995 7.91521 2.94031C9.19322 2.88166 9.57743 2.87155 12.8169 2.87155ZM6.58753 12.8175C6.58753 9.37577 9.3781 6.58722 12.8178 6.58722C16.2575 6.58722 19.0481 9.3778 19.0481 12.8175C19.0481 16.2592 16.2575 19.0478 12.8178 19.0478C9.3781 19.0478 6.58753 16.2592 6.58753 12.8175ZM12.8182 16.8609C10.5838 16.8609 8.77392 15.051 8.77392 12.8166C8.77392 10.5841 10.5838 8.77224 12.8182 8.77224C15.0507 8.77224 16.8646 10.5821 16.8646 12.8166C16.8646 15.051 15.0507 16.8609 12.8182 16.8609ZM17.838 6.34244C17.838 5.53721 18.4915 4.88573 19.2947 4.88573C20.102 4.88573 20.7535 5.53721 20.7535 6.34244C20.7535 7.14768 20.1 7.79915 19.2947 7.79915C18.4895 7.79915 17.838 7.14565 17.838 6.34244Z" fill="#00204A"/>
</svg>
