<svg width="26" height="24" viewBox="0 0 26 24" fill="none" xmlns="http://www.w3.org/2000/svg">
<path fill-rule="evenodd" clip-rule="evenodd" d="M6.62469 3.10869C6.62469 4.63199 5.47806 5.85087 3.63697 5.85087H3.60322C1.83056 5.85087 0.68457 4.63199 0.68457 3.10869C0.68457 1.55318 1.86547 0.368408 3.67176 0.368408C5.47806 0.368408 6.59042 1.55318 6.62469 3.10869ZM6.27678 8.01654V23.8811H0.996655V8.01654H6.27678ZM25.3192 23.8808L25.3194 14.7845C25.3194 9.91157 22.7146 7.64364 19.24 7.64364C16.4366 7.64364 15.1815 9.18346 14.4807 10.2637V8.01659H9.19993C9.26952 9.50524 9.19993 23.8812 9.19993 23.8812H14.4807V15.0211C14.4807 14.5469 14.515 14.074 14.6546 13.7345C15.0362 12.7873 15.9051 11.8066 17.3638 11.8066C19.2752 11.8066 20.0393 13.2613 20.0393 15.3932V23.8808H25.3192Z" fill="#00204A"/>
</svg>
