<svg width="26" height="26" viewBox="0 0 26 26" fill="none" xmlns="http://www.w3.org/2000/svg">
<path fill-rule="evenodd" clip-rule="evenodd" d="M12.7708 24.664H12.7659C10.7599 24.6633 8.78889 24.16 7.03828 23.2051L0.68457 24.8718L2.38493 18.661C1.33606 16.8433 0.784158 14.7815 0.785057 12.6691C0.787687 6.06075 6.1644 0.684326 12.7707 0.684326C15.977 0.68571 18.9863 1.9339 21.2492 4.19942C23.512 6.46482 24.7576 9.47609 24.7563 12.6786C24.7536 19.2854 19.3791 24.6613 12.7708 24.664ZM7.33274 21.0348L7.69651 21.2507C9.22602 22.1583 10.9793 22.6385 12.7669 22.6392H12.7709C18.2616 22.6392 22.7305 18.1703 22.7327 12.6773C22.7337 10.0154 21.6985 7.5126 19.8177 5.62959C17.9369 3.74658 15.4356 2.70907 12.7748 2.70815C7.27988 2.70815 2.81095 7.17668 2.80877 12.6692C2.808 14.5516 3.33467 16.3847 4.33187 17.9708L4.56874 18.3477L3.56236 22.0238L7.33274 21.0348ZM18.3992 15.2585C18.6081 15.3594 18.7491 15.4276 18.8094 15.5281C18.8842 15.653 18.8842 16.2526 18.6348 16.9523C18.3851 17.6518 17.1887 18.2903 16.6133 18.3762C16.0973 18.4534 15.4444 18.4855 14.727 18.2576C14.292 18.1196 13.7343 17.9353 13.0197 17.6267C10.2122 16.4144 8.31488 13.6933 7.95629 13.179C7.93117 13.143 7.9136 13.1178 7.9038 13.1047L7.90138 13.1015C7.74289 12.89 6.68095 11.4731 6.68095 10.0067C6.68095 8.62724 7.35857 7.90419 7.67048 7.57137C7.69185 7.54857 7.7115 7.5276 7.7291 7.50837C8.0036 7.20855 8.32807 7.13359 8.52771 7.13359C8.72733 7.13359 8.9272 7.13544 9.10169 7.1442C9.12321 7.14528 9.14561 7.14515 9.16876 7.14502C9.34328 7.14399 9.56086 7.14272 9.77549 7.65829C9.85806 7.85668 9.97887 8.1508 10.1063 8.46102C10.364 9.08841 10.6487 9.78163 10.6988 9.88194C10.7737 10.0319 10.8236 10.2067 10.7238 10.4066C10.7088 10.4366 10.695 10.4649 10.6817 10.4919C10.6067 10.645 10.5516 10.7576 10.4243 10.9062C10.3743 10.9646 10.3226 11.0276 10.2709 11.0906C10.1678 11.216 10.0648 11.3415 9.97511 11.4309C9.82518 11.5802 9.66911 11.7422 9.84381 12.0421C10.0185 12.3419 10.6195 13.3225 11.5098 14.1167C12.4668 14.9703 13.2986 15.3311 13.7202 15.514C13.8026 15.5497 13.8693 15.5786 13.9182 15.6031C14.2175 15.7531 14.3923 15.728 14.567 15.5281C14.7417 15.3283 15.3156 14.6536 15.5152 14.3539C15.7148 14.0542 15.9145 14.1041 16.189 14.204C16.4636 14.304 17.9359 15.0284 18.2354 15.1783C18.2939 15.2076 18.3485 15.234 18.3992 15.2585Z" fill="#00204A"/>
</svg>
